<svg width="83.538330" height="80.000488" viewBox="0 0 83.5383 80.0005" fill="none" xmlns="http://www.w3.org/2000/svg" xmlns:xlink="http://www.w3.org/1999/xlink">
	<desc>
			Created with Pixso.
	</desc>
	<defs/>
	<path id="Vector" d="M0 5.19L33.37 5.19L33.37 80L15.69 80L15.69 19.44L0 19.44L0 5.19Z" fill="#C0DEF2" fill-opacity="1.000000" fill-rule="nonzero"/>
	<path id="Vector" d="M37.9 76.99L20.2 76.99C19.53 76.99 19 76.51 19 75.9L19 16.4L4.53 16.4C3.87 16.4 3.34 15.92 3.34 15.32L3.34 1.08C3.34 0.48 3.87 0 4.53 0L37.9 0C38.57 0 39.1 0.48 39.1 1.08L39.1 75.88C39.1 76.48 38.57 76.99 37.9 76.99ZM21.42 74.8L36.71 74.8L36.71 2.16L5.72 2.16L5.72 14.21L20.2 14.21C20.86 14.21 21.39 14.7 21.39 15.3L21.39 74.8L21.42 74.8Z" fill="#000000" fill-opacity="1.000000" fill-rule="nonzero"/>
	<path id="Vector" d="M82.34 41.19L65.21 31.09L65.21 51.3L82.34 41.19Z" fill="#FFFFFF" fill-opacity="1.000000" fill-rule="nonzero"/>
	<path id="Vector" d="M65.21 52.38C65.03 52.38 64.82 52.33 64.63 52.26C64.23 52.07 64 51.71 64 51.3L64 31.09C64 30.68 64.23 30.32 64.63 30.13C65.03 29.93 65.48 29.96 65.85 30.17L82.98 40.28C83.32 40.47 83.53 40.83 83.53 41.19C83.53 41.55 83.32 41.91 82.98 42.11L65.85 52.21C65.67 52.33 65.43 52.38 65.21 52.38ZM66.41 33.08L66.41 49.3L80.14 41.19L66.41 33.08Z" fill="#000000" fill-opacity="1.000000" fill-rule="nonzero"/>
</svg>
