<svg width="85.418091" height="80.023438" viewBox="0 0 85.4181 80.0234" fill="none" xmlns="http://www.w3.org/2000/svg" xmlns:xlink="http://www.w3.org/1999/xlink">
	<desc>
			Created with Pixso.
	</desc>
	<defs/>
	<path id="Vector" d="M32.01 35.31C33.87 32.69 34.79 30.15 34.79 27.72C34.79 25.3 33.99 23.22 32.39 21.6C30.78 19.95 28.71 19.12 26.21 19.12C21.6 19.12 17.24 22.4 13.12 28.97L0 21.22C3.41 15.92 7.18 11.89 11.26 9.18C15.33 6.45 20.54 5.08 26.87 5.08C33.21 5.08 38.75 7.09 43.53 11.11C48.31 15.14 50.71 20.61 50.71 27.51C50.71 31.28 49.75 34.91 47.84 38.35C45.91 41.81 42.37 46.21 37.22 51.61L24.02 65.34L52.95 65.34L52.95 80.02L1.24 80.02L1.24 67.84L22.73 45.84C27.06 41.43 30.15 37.92 32.01 35.31Z" fill="#C0DEF2" fill-opacity="1.000000" fill-rule="nonzero"/>
	<path id="Vector" d="M56.93 77.05L5.27 77.05C4.68 77.05 4.21 76.58 4.21 75.99L4.21 63.83C4.21 63.55 4.33 63.29 4.52 63.08L26 41.08C30.27 36.74 33.35 33.23 35.17 30.67C36.89 28.24 37.76 25.88 37.76 23.69C37.76 21.53 37.07 19.76 35.66 18.3C34.25 16.86 32.48 16.16 30.24 16.16C26.05 16.16 21.95 19.29 18.04 25.51C17.73 26 17.1 26.14 16.6 25.86L3.48 18.11C3.22 17.97 3.06 17.73 2.99 17.45C2.92 17.17 2.96 16.86 3.13 16.63C6.61 11.21 10.5 7.06 14.69 4.26C18.93 1.43 24.38 0 30.9 0C37.45 0 43.29 2.12 48.24 6.26C53.26 10.48 55.8 16.27 55.8 23.48C55.8 27.42 54.79 31.26 52.79 34.84C50.83 38.37 47.2 42.89 42 48.31L30.53 60.23L56.96 60.23C57.55 60.23 58.02 60.7 58.02 61.29L58.02 75.97C57.99 76.58 57.52 77.05 56.93 77.05ZM6.33 74.91L55.87 74.91L55.87 62.37L28 62.37C27.58 62.37 27.2 62.12 27.02 61.71C26.85 61.31 26.92 60.87 27.23 60.56L40.42 46.83C45.51 41.55 49.02 37.17 50.9 33.8C52.72 30.53 53.66 27.04 53.66 23.48C53.66 16.84 51.44 11.73 46.85 7.89C42.28 4.05 36.91 2.12 30.88 2.12C24.8 2.12 19.74 3.43 15.85 6.03C12.17 8.5 8.69 12.15 5.53 16.86L16.79 23.53C20.94 17.24 25.46 14.06 30.22 14.06C33.02 14.06 35.35 15 37.17 16.84C38.96 18.68 39.88 20.98 39.88 23.72C39.88 26.38 38.89 29.14 36.91 31.94C35.02 34.6 31.87 38.18 27.53 42.61L6.36 64.31L6.36 74.91L6.33 74.91Z" fill="#000000" fill-opacity="1.000000" fill-rule="nonzero"/>
	<path id="Vector" d="M84.35 41.94L69.14 32.04L69.14 51.83L84.35 41.94Z" fill="#FFFFFF" fill-opacity="1.000000" fill-rule="nonzero"/>
	<path id="Vector" d="M69.14 52.91C68.97 52.91 68.78 52.87 68.62 52.8C68.26 52.61 68.05 52.25 68.05 51.85L68.05 32.07C68.05 31.66 68.26 31.31 68.62 31.12C68.97 30.93 69.37 30.96 69.7 31.17L84.92 41.06C85.22 41.25 85.41 41.61 85.41 41.96C85.41 42.31 85.22 42.67 84.92 42.85L69.7 52.75C69.54 52.84 69.35 52.91 69.14 52.91ZM70.2 34L70.2 49.87L82.4 41.94L70.2 34Z" fill="#000000" fill-opacity="1.000000" fill-rule="nonzero"/>
</svg>
