<svg width="97.542358" height="79.952148" viewBox="0 0 97.5424 79.9521" fill="none" xmlns="http://www.w3.org/2000/svg" xmlns:xlink="http://www.w3.org/1999/xlink">
	<desc>
			Created with Pixso.
	</desc>
	<defs/>
	<path id="Vector" d="M4.09 19.23L4.09 5.14L49.41 5.14L49.41 16.56L34.27 33.82C40.2 34.82 44.79 37.29 48.03 41.27C51.27 45.27 52.91 49.86 52.91 55.07C52.91 62.83 50.27 68.93 45.03 73.33C39.77 77.73 33.06 79.95 24.87 79.95C16.68 79.95 8.4 77.07 0 71.26L6.78 58.12C13.78 63.07 20.01 65.52 25.51 65.52C28.82 65.52 31.56 64.71 33.72 63.1C35.87 61.48 36.96 59.12 36.96 56.05C36.96 52.98 35.72 50.55 33.25 48.74C30.77 46.93 27.34 46.05 22.99 46.05C20.66 46.05 17.37 46.72 13.13 48.05L13.13 35.94L27.32 19.2L4.09 19.2L4.09 19.23Z" fill="#C0DEF2" fill-opacity="1.000000" fill-rule="nonzero"/>
	<path id="Vector" d="M28.92 77C20.54 77 11.97 74.02 3.42 68.12C2.97 67.81 2.83 67.21 3.09 66.74L9.87 53.6C10.02 53.31 10.28 53.12 10.56 53.05C10.87 52.98 11.18 53.03 11.44 53.22C18.2 58 24.3 60.43 29.56 60.43C32.63 60.43 35.15 59.69 37.13 58.22C39.01 56.79 39.94 54.76 39.94 52.03C39.94 49.29 38.86 47.2 36.67 45.58C34.41 43.91 31.15 43.08 27.03 43.08C24.82 43.08 21.63 43.74 17.51 45.03C17.18 45.12 16.82 45.08 16.56 44.86C16.28 44.67 16.13 44.34 16.13 44.01L16.13 31.89C16.13 31.63 16.23 31.39 16.39 31.2L29.08 16.25L8.16 16.25C7.56 16.25 7.09 15.78 7.09 15.18L7.09 1.07C7.09 0.47 7.56 0 8.16 0L53.48 0C54.07 0 54.55 0.47 54.55 1.07L54.55 12.49C54.55 12.75 54.46 13.02 54.29 13.21L40.39 29.06C45.67 30.27 49.88 32.79 52.96 36.53C56.36 40.7 58.07 45.58 58.07 51.03C58.07 59.1 55.29 65.5 49.79 70.12C44.34 74.69 37.32 77 28.92 77ZM5.42 66.88C13.32 72.16 21.23 74.83 28.92 74.83C36.79 74.83 43.36 72.69 48.39 68.47C53.36 64.29 55.88 58.43 55.88 51.03C55.88 46.08 54.34 41.67 51.27 37.89C48.2 34.13 43.79 31.75 38.15 30.82C37.77 30.75 37.44 30.49 37.32 30.13C37.17 29.77 37.27 29.34 37.53 29.06L52.41 12.11L52.41 2.14L9.23 2.14L9.23 14.06L31.34 14.06C31.77 14.06 32.15 14.3 32.32 14.68C32.49 15.06 32.44 15.51 32.15 15.82L18.23 32.25L18.23 42.58C21.94 41.48 24.82 40.94 27.01 40.94C31.6 40.94 35.27 41.91 37.91 43.84C40.67 45.84 42.05 48.6 42.05 52.03C42.05 55.43 40.82 58.1 38.39 59.93C36.06 61.69 33.08 62.6 29.53 62.6C24.11 62.6 17.92 60.26 11.18 55.69L5.42 66.88Z" fill="#000000" fill-opacity="1.000000" fill-rule="nonzero"/>
	<path id="Vector" d="M96.47 42.07L81.09 32.08L81.09 52.07L96.47 42.07Z" fill="#FFFFFF" fill-opacity="1.000000" fill-rule="nonzero"/>
	<path id="Vector" d="M81.09 53.14C80.92 53.14 80.73 53.09 80.57 53.02C80.21 52.83 80 52.48 80 52.07L80 32.08C80 31.67 80.21 31.31 80.57 31.12C80.92 30.93 81.33 30.96 81.66 31.17L97.04 41.17C97.35 41.36 97.54 41.72 97.54 42.07C97.54 42.43 97.35 42.79 97.04 42.98L81.66 52.98C81.49 53.09 81.28 53.14 81.09 53.14ZM82.16 34.05L82.16 50.07L94.49 42.05L82.16 34.05Z" fill="#000000" fill-opacity="1.000000" fill-rule="nonzero"/>
</svg>
