<svg width="153" height="73" viewBox="0 0 153 73" fill="none" xmlns="http://www.w3.org/2000/svg">
<path d="M2.36417 33.1484V19.4964C2.36417 18.9028 2.08962 18.6288 1.49477 18.6288H0V12.9519H6.08584C7.93142 12.9519 8.92284 13.8194 8.92284 15.2196V15.4936L8.87709 15.9654H8.95335C10.4939 13.652 12.5072 12.4801 14.9019 12.4801C17.6169 12.4801 19.5082 13.6216 20.5607 15.8893H20.6369C21.7809 14.0021 24.2976 12.4801 27.1193 12.4801C31.0851 12.4801 33.678 14.7631 33.678 20.0443V26.5887C33.678 27.1823 33.9526 27.4563 34.5474 27.4563H36.0422V33.1484H29.7581C27.76 33.1484 26.8906 32.2809 26.8906 30.2871V21.1857C26.8906 19.4964 26.3872 18.6288 25.3195 18.6288C23.3977 18.6288 22.1317 20.1508 21.6589 22.5099C21.5063 23.21 21.4301 23.9557 21.4301 24.7928V33.1484H14.6274V21.1857C14.6274 19.4964 14.124 18.6288 13.0563 18.6288C11.2108 18.6288 9.99053 19.8921 9.44144 22.3577C9.24315 23.2252 9.15164 24.047 9.15164 24.7928V33.1484H2.36417Z" fill="#2E58A6"/>
<path d="M44.9803 4.52024C44.9803 3.07437 43.8974 2.03943 42.2196 2.03943C40.8621 2.03943 39.7944 2.72432 39.7944 3.53096V4.21585H37.7506V2.87652C37.7506 2.23729 38.0099 1.7046 38.5284 1.23279C39.5809 0.334833 40.9841 0 42.3111 0C43.7601 0 44.9346 0.426151 45.8498 1.26323C46.7802 2.08509 47.253 3.16569 47.253 4.50502C47.253 6.48358 46.0023 8.0512 44.4312 9.02526C42.2044 10.395 39.2453 11.5517 39.2911 13.5912C39.2911 13.8803 39.4741 14.0173 39.8402 14.0173H45.4227C45.7582 14.0173 45.9108 13.8651 45.9108 13.5303V12.5258H47.9546V14.5043C47.9546 15.5088 47.5276 15.9198 46.5361 15.9198H38.4979C37.3235 15.9198 37.0032 15.448 37.0032 14.1238C37.0032 8.35559 44.9803 8.78174 44.9803 4.52024Z" fill="#2E58A6"/>
<path d="M46.4902 47.2876C48.5341 49.1291 50.4254 50.0271 52.149 50.0271C54.0708 50.0271 55.8096 49.0074 55.8096 47.1201C55.8096 45.4308 54.4369 44.2893 52.4998 44.2893H49.5102V38.8102H52.3472C54.0708 38.8102 55.1385 37.6383 55.1385 35.8728C55.1385 35.5836 55.1232 34.6552 54.5131 33.9856C53.842 33.255 52.8201 33.1942 52.271 33.1637C50.2729 33.0724 46.0631 33.0572 40.5569 33.1941C40.5721 31.2765 40.5721 29.3436 40.5874 27.4259C42.0974 27.3498 44.2328 27.2889 46.8105 27.3498C54.7419 27.502 58.9974 27.639 60.904 30.3937C61.5904 31.383 62.1395 32.9506 62.1395 34.6248C62.1395 37.2882 60.965 39.3733 58.5551 40.8649V40.941C61.4226 41.8846 62.9631 44.5024 62.9631 47.5311C62.9631 49.9967 62.0175 52.0818 60.0956 53.695C58.1738 55.3083 55.6113 56.0845 52.393 56.0845C49.7543 56.0845 47.6036 55.6127 45.8343 54.5169L44.0193 53.345C43.6989 53.071 43.1956 52.6449 42.5245 52.0057L46.4902 47.2876Z" fill="#2E58A6"/>
<path d="M69.5676 44.1067C70.3912 43.7566 71.2606 43.5131 72.2368 43.4066C74.1586 43.0869 75.3483 43.0108 76.6448 43.0108H76.9194V42.6608C76.9194 40.7735 76.05 40.0278 74.3264 40.0278C73.1519 40.0278 72.5571 40.3474 72.5571 41.0018V41.8998H66.273V39.6625C66.273 37.5774 67.5237 36.1316 69.4608 35.6293C71.3826 35.0357 72.5723 34.9292 74.0976 34.9292C80.5038 34.9292 83.7221 37.6687 83.7221 43.163V49.053C83.7221 49.6466 83.9966 49.9206 84.5915 49.9206H86.0863V55.6127H80.1835C78.4141 55.6127 77.5142 54.593 77.5142 53.4972V53.1471H77.438C77.3159 53.2993 77.2854 53.4972 76.5381 54.1669C75.6381 55.0648 74.0671 56.0845 71.5504 56.0845C69.6286 56.0845 68.0575 55.5366 66.7916 54.3951C65.5408 53.2537 64.9002 51.7621 64.9002 49.9662C64.885 46.694 67.0814 45.0807 69.5676 44.1067ZM73.5333 51.0164C74.4332 51.0164 75.2568 50.6207 75.9279 49.8749C76.6296 49.1291 76.9956 48.3073 76.9956 47.4398V46.8919H76.2483C73.7773 46.8919 71.6114 47.6833 71.6114 49.2509C71.6114 50.1945 72.313 51.0164 73.5333 51.0164Z" fill="#2E58A6"/>
<path d="M87.0929 49.7531C88.2368 49.6314 89.091 49.1291 89.6859 48.1855C90.2807 47.2419 90.5858 45.4003 90.5858 42.6608V41.0932H88.2216V35.401H104.298C106.296 35.401 107.165 36.2685 107.165 38.2623V49.053C107.165 49.6466 107.44 49.9206 108.035 49.9206H109.53V55.6127H103.246C101.247 55.6127 100.378 54.7452 100.378 52.7514V42.0063C100.378 41.4128 100.103 41.1084 99.5086 41.1084H96.9919V42.7521C96.9919 46.831 96.4886 49.6618 95.0243 52.1274C93.6058 54.5169 90.9823 55.7345 87.0776 55.704V49.7531H87.0929Z" fill="#2E58A6"/>
<path d="M114.411 37.9123C116.607 35.9185 119.322 34.9292 122.54 34.9292C125.804 34.9292 128.519 35.9033 130.716 37.9123C132.912 39.8756 134.026 42.4173 134.026 45.5677C134.026 48.6726 132.927 51.2142 130.716 53.1776C128.55 55.0952 125.835 56.0845 122.586 56.0845C119.322 56.0845 116.607 55.1105 114.411 53.1776C112.245 51.2142 111.146 48.6726 111.146 45.5677C111.146 42.4173 112.245 39.8756 114.411 37.9123ZM122.586 50.4228C125.133 50.4228 127.192 48.5051 127.192 45.5525C127.192 42.5695 125.148 40.5757 122.586 40.5757C120.024 40.5757 117.98 42.5695 117.98 45.5525C117.98 48.5051 120.039 50.4228 122.586 50.4228Z" fill="#2E58A6"/>
<path d="M137.991 55.5975V41.0932H135.627V35.401H150.132C152.13 35.401 153 36.2685 153 38.2623V42.7673H147.494V41.9455C147.494 41.3519 147.219 41.0779 146.624 41.0779H144.779V55.5975H137.991Z" fill="#2E58A6"/>
<path d="M70.925 27.9418C70.925 26.8916 70.925 25.8415 70.925 24.7913C70.925 22.4018 71.9927 20.5755 74.0976 19.4188C82.1053 15.0507 90.1282 10.7131 98.1512 6.37551C100.104 5.32535 102.086 5.41667 104.023 6.46683C111.131 10.3174 118.239 14.168 125.347 18.0338C126.216 18.5056 127.086 18.9622 127.94 19.4492C129.999 20.6211 131.082 22.4018 131.082 24.7609C131.082 25.811 131.082 26.8764 131.082 27.9266H135.749C135.749 26.9221 135.749 25.9328 135.749 24.9283C135.749 20.6363 133.858 17.3793 130.09 15.3247C122.067 10.9566 114.029 6.6038 105.976 2.29664C102.666 0.531158 99.2341 0.561597 95.9395 2.35752C87.9166 6.69512 79.9089 11.0632 71.9165 15.4464C68.8507 17.1206 67.0203 19.7079 66.4407 23.1628C66.4102 23.3302 66.3492 23.4824 66.3035 23.6346C66.3035 25.0653 66.3035 26.5111 66.3035 27.9418H70.925Z" fill="#FF8000"/>
<path d="M131.006 63.1175C130.578 66.131 128.153 68.2161 124.843 68.2161C117.049 68.2313 109.27 68.2161 101.476 68.2161C101.308 68.2161 101.141 68.2161 100.973 68.2161C93.072 68.2161 85.1558 68.2161 77.2549 68.2161C74.2044 68.2161 71.9012 66.5876 71.1691 63.8785C71.1081 63.635 71.0471 63.3763 71.0166 63.1175H66.3035C66.3035 63.2545 66.3035 63.4067 66.3035 63.5437C66.4407 64.0916 66.578 64.6547 66.7305 65.2026C67.9813 69.5402 71.886 72.6146 76.4008 72.8124C76.7363 72.8277 77.0719 72.8277 77.4074 72.8277C93.194 72.8277 108.981 72.7972 124.782 72.8429C130.197 72.8581 134.224 69.3576 135.353 65.157C135.536 64.4873 135.627 63.7872 135.688 63.1023H131.006V63.1175Z" fill="#FF8000"/>
</svg>
