<svg width="171" height="80" viewBox="0 0 171 80" fill="none" xmlns="http://www.w3.org/2000/svg">
<g clip-path="url(#clip0_5434_4109)">
<path d="M2.62837 36.853V21.6753C2.62837 21.0154 2.32314 20.7109 1.66181 20.7109H0V14.3995H6.76593C8.81776 14.3995 9.91998 15.364 9.91998 16.9207V17.2253L9.86911 17.7498H9.95389C11.6666 15.1779 13.9049 13.875 16.5672 13.875C19.5856 13.875 21.6883 15.144 22.8583 17.6652H22.9431C24.2149 15.567 27.0129 13.875 30.15 13.875C34.5588 13.875 37.4416 16.4131 37.4416 22.2845V29.5603C37.4416 30.2202 37.7468 30.5247 38.4081 30.5247H40.0699V36.853H33.0836C30.8622 36.853 29.8956 35.8885 29.8956 33.672V23.5535C29.8956 21.6753 29.336 20.7109 28.149 20.7109C26.0124 20.7109 24.6049 22.4029 24.0793 25.0256C23.9097 25.8039 23.8249 26.633 23.8249 27.5637V36.853H16.262V23.5535C16.262 21.6753 15.7024 20.7109 14.5154 20.7109C12.4636 20.7109 11.107 22.1153 10.4965 24.8564C10.2761 25.8209 10.1743 26.7346 10.1743 27.5637V36.853H2.62837Z" fill="#2E58A6"/>
<path d="M50.0068 5.02538C50.0068 3.41794 48.8029 2.26734 46.9376 2.26734C45.4284 2.26734 44.2414 3.02876 44.2414 3.92555V4.68697H41.9691V3.19797C41.9691 2.48731 42.2574 1.89509 42.8339 1.37056C44.004 0.37225 45.564 0 47.0393 0C48.6502 0 49.9559 0.473773 50.9734 1.4044C52.0078 2.3181 52.5334 3.51946 52.5334 5.00846C52.5334 7.20812 51.1429 8.95093 49.3964 10.0338C46.9206 11.5567 43.6309 12.8426 43.6818 15.11C43.6818 15.4315 43.8853 15.5838 44.2922 15.5838H50.4986C50.8716 15.5838 51.0412 15.4146 51.0412 15.0423V13.9255H53.3135V16.1252C53.3135 17.242 52.8387 17.6988 51.7365 17.6988H42.8C41.4943 17.6988 41.1382 17.1743 41.1382 15.7022C41.1382 9.28934 50.0068 9.76311 50.0068 5.02538Z" fill="#2E58A6"/>
<path d="M51.6857 52.5719C53.958 54.6192 56.0607 55.6175 57.9768 55.6175C60.1135 55.6175 62.0466 54.4839 62.0466 52.3857C62.0466 50.5076 60.5204 49.2385 58.3669 49.2385H55.0432V43.1472H58.1973C60.1135 43.1472 61.3005 41.8443 61.3005 39.8815C61.3005 39.56 61.2835 38.5279 60.6052 37.7834C59.8591 36.9712 58.723 36.9035 58.1125 36.8697C55.8911 36.7681 51.2109 36.7512 45.0894 36.9035C45.1063 34.7715 45.1063 32.6226 45.1233 30.4906C46.802 30.406 49.176 30.3384 52.0418 30.406C60.8596 30.5752 65.5906 30.7275 67.7103 33.7901C68.4734 34.89 69.0838 36.6328 69.0838 38.494C69.0838 41.4551 67.7781 43.7732 65.0989 45.4314V45.516C68.2868 46.5651 69.9995 49.4754 69.9995 52.8426C69.9995 55.5837 68.9482 57.9018 66.8116 59.6954C64.675 61.489 61.8261 62.3519 58.2482 62.3519C55.3146 62.3519 52.9236 61.8274 50.9566 60.6091L48.9386 59.3062C48.5825 59.0016 48.023 58.5279 47.2768 57.8172L51.6857 52.5719Z" fill="#2E58A6"/>
<path d="M77.3421 49.0356C78.2578 48.6464 79.2243 48.3757 80.3096 48.2572C82.4462 47.9019 83.7689 47.8173 85.2102 47.8173H85.5155V47.4281C85.5155 45.33 84.5489 44.5009 82.6327 44.5009C81.327 44.5009 80.6657 44.8562 80.6657 45.5838V46.5821H73.6793V44.0948C73.6793 41.7767 75.0698 40.1692 77.2234 39.6109C79.36 38.951 80.6827 38.8325 82.3784 38.8325C89.5004 38.8325 93.0784 41.8782 93.0784 47.9865V54.5347C93.0784 55.1946 93.3836 55.4992 94.0449 55.4992H95.7068V61.8274H89.1443C87.1773 61.8274 86.1768 60.6938 86.1768 59.4755V59.0863H86.092C85.9564 59.2555 85.9224 59.4755 85.0915 60.22C84.0911 61.2183 82.3445 62.352 79.5465 62.352C77.4099 62.352 75.6633 61.7428 74.2559 60.4738C72.8654 59.2048 72.1532 57.5466 72.1532 55.5499C72.1362 51.912 74.5781 50.1185 77.3421 49.0356ZM81.751 56.7175C82.7514 56.7175 83.6671 56.2775 84.4132 55.4484C85.1933 54.6193 85.6002 53.7056 85.6002 52.7411V52.132H84.7693C82.0223 52.132 79.6143 53.0119 79.6143 54.7547C79.6143 55.8038 80.3944 56.7175 81.751 56.7175Z" fill="#2E58A6"/>
<path d="M96.8258 55.3129C98.0976 55.1776 99.0472 54.6192 99.7085 53.5701C100.37 52.5211 100.709 50.4737 100.709 47.428V45.6852H98.0806V39.3569H115.954C118.175 39.3569 119.142 40.3214 119.142 42.538V54.5346C119.142 55.1945 119.447 55.4991 120.108 55.4991H121.77V61.8273H114.784C112.562 61.8273 111.596 60.8629 111.596 58.6463V46.7004C111.596 46.0405 111.29 45.7021 110.629 45.7021H107.831V47.5295C107.831 52.0642 107.271 55.2114 105.644 57.9525C104.067 60.609 101.15 61.9627 96.8088 61.9288V55.3129H96.8258Z" fill="#2E58A6"/>
<path d="M127.196 42.1489C129.638 39.9323 132.656 38.8325 136.234 38.8325C139.863 38.8325 142.882 39.9154 145.324 42.1489C147.765 44.3317 149.003 47.1574 149.003 50.6599C149.003 54.1117 147.782 56.9374 145.324 59.1202C142.916 61.2521 139.897 62.352 136.285 62.352C132.656 62.352 129.638 61.2691 127.196 59.1202C124.788 56.9374 123.567 54.1117 123.567 50.6599C123.567 47.1574 124.788 44.3317 127.196 42.1489ZM136.285 56.0576C139.117 56.0576 141.406 53.9256 141.406 50.643C141.406 47.3266 139.134 45.11 136.285 45.11C133.436 45.11 131.164 47.3266 131.164 50.643C131.164 53.9256 133.453 56.0576 136.285 56.0576Z" fill="#2E58A6"/>
<path d="M153.412 61.8104V45.6852H150.784V39.3569H166.91C169.131 39.3569 170.098 40.3214 170.098 42.538V47.5464H163.976V46.6327C163.976 45.9728 163.671 45.6683 163.01 45.6683H160.958V61.8104H153.412Z" fill="#2E58A6"/>
<path d="M78.8512 32.0642C78.8512 30.8967 78.8512 29.7292 78.8512 28.5617C78.8512 25.9052 80.0382 23.8747 82.3783 22.5888C91.2808 17.7326 100.2 12.9102 109.12 8.08791C111.29 6.9204 113.495 7.02192 115.648 8.18944C123.55 12.4703 131.453 16.7512 139.355 21.049C140.321 21.5735 141.288 22.0811 142.237 22.6226C144.527 23.9255 145.73 25.9052 145.73 28.5278C145.73 29.6954 145.73 30.8798 145.73 32.0473H150.919C150.919 30.9306 150.919 29.8307 150.919 28.714C150.919 23.9424 148.817 20.3214 144.628 18.0372C135.709 13.181 126.772 8.34172 117.819 3.55323C114.139 1.59045 110.324 1.62429 106.661 3.62091C97.7415 8.44324 88.839 13.2994 79.9534 18.1725C76.545 20.0338 74.5101 22.9102 73.8658 26.7512C73.8318 26.9373 73.764 27.1065 73.7131 27.2757C73.7131 28.8663 73.7131 30.4737 73.7131 32.0642H78.8512Z" fill="#FF8000"/>
<path d="M145.646 69.1712C145.171 72.5215 142.475 74.8396 138.795 74.8396C130.13 74.8565 121.482 74.8396 112.817 74.8396C112.63 74.8396 112.443 74.8396 112.257 74.8396C103.473 74.8396 94.6723 74.8396 85.8884 74.8396C82.497 74.8396 79.9364 73.0291 79.1225 70.0172C79.0547 69.7465 78.9868 69.4589 78.9529 69.1712H73.7131C73.7131 69.3235 73.7131 69.4927 73.7131 69.645C73.8657 70.2541 74.0184 70.8802 74.1879 71.4893C75.5784 76.3117 79.9195 79.7296 84.9388 79.9496C85.3119 79.9665 85.6849 79.9665 86.058 79.9665C103.609 79.9665 121.159 79.9326 138.727 79.9834C144.747 80.0003 149.224 76.1086 150.479 71.4386C150.682 70.6941 150.784 69.9157 150.852 69.1543H145.646V69.1712Z" fill="#FF8000"/>
</g>
<defs>
<clipPath id="clip0_5434_4109">
<rect width="170.115" height="80" fill="white"/>
</clipPath>
</defs>
</svg>
