<svg width="142" height="36" viewBox="0 0 142 36" fill="none" xmlns="http://www.w3.org/2000/svg">
<path d="M30.688 15.4978V12.0089C30.688 10.1128 29.1711 8.52002 27.1991 8.52002C25.303 8.52002 23.786 10.1128 23.786 12.0089V15.4978H20.9798C20.9798 11.7055 17.87 8.59585 14.0778 8.59585C10.2096 8.52002 7.09998 11.6297 7.09998 15.4978C7.09998 19.2901 10.2096 22.3998 14.002 22.3998V25.8887C14.002 27.7848 15.5189 29.3776 17.4908 29.3776C19.4629 29.3776 20.9798 27.8607 20.9798 25.8887V22.3998H23.786C23.786 26.1921 26.8957 29.3017 30.688 29.3017C34.4803 29.3017 37.5899 26.1921 37.5899 22.3998C37.5899 18.6075 34.4803 15.4978 30.688 15.4978ZM12.6367 15.4978C12.6367 14.7393 13.2435 14.1326 14.002 14.1326C14.7604 14.1326 15.443 14.6635 15.443 15.4978C15.443 16.3321 14.8362 16.863 14.0778 16.863C13.2435 16.863 12.6367 16.2563 12.6367 15.4978ZM30.688 23.765C29.9295 23.765 29.3228 23.1582 29.3228 22.3998C29.3228 21.6413 29.9295 21.0346 30.688 21.0346C31.4464 21.0346 32.0532 21.6413 32.0532 22.3998C32.0532 23.1582 31.4464 23.765 30.688 23.765ZM34.8595 14.1326C36.4093 14.1326 37.6658 12.8762 37.6658 11.3263C37.6658 9.77644 36.4093 8.52002 34.8595 8.52002C33.3096 8.52002 32.0532 9.77644 32.0532 11.3263C32.0532 12.8762 33.3096 14.1326 34.8595 14.1326ZM46.6156 15.2703C47.2224 14.5119 48.2083 14.0567 49.1943 14.1326C50.1804 14.1326 51.1663 14.5877 51.9248 15.3462C52.6833 16.1046 53.0625 17.1665 53.0625 18.3041C53.0625 19.366 52.6833 20.4278 51.9248 21.2621C51.2422 22.0206 50.2562 22.4756 49.1943 22.4756C48.2083 22.5515 47.2224 22.0964 46.6156 21.3379V25.4336H44.5677V14.3601H46.6156V15.2703ZM47.2224 19.8969C48.0567 20.7312 49.4219 20.7312 50.332 19.8969C50.7871 19.5176 51.0146 18.9109 50.9388 18.3041C51.0146 17.6973 50.7871 17.1665 50.332 16.7114C49.4977 15.877 48.1325 15.877 47.2224 16.7114C46.8431 17.1665 46.6156 17.6973 46.6156 18.3041C46.6156 18.9109 46.8431 19.4418 47.2224 19.8969ZM64.3635 19.821C64.7427 20.2003 65.3494 20.4278 65.8804 20.4278C66.6389 20.5037 67.3215 20.0486 67.7007 19.366L69.4451 20.352C68.6866 21.6413 67.3215 22.3998 65.8046 22.3998C63.5291 22.3998 61.633 20.5037 61.633 18.2283V18.0007C61.7088 15.7254 63.605 13.9809 65.8804 14.0567C67.3973 14.0567 68.7625 14.8152 69.4451 16.1046L67.7007 17.1665C67.3215 16.4838 66.6389 16.1046 65.8804 16.1046H65.7287C64.591 16.1804 63.6809 17.1665 63.7567 18.3041C63.7567 18.835 63.9843 19.4418 64.3635 19.821ZM72.6308 17.3181H75.8159V14.3601H77.8643V22.2481H75.8159V19.2143H72.6308V22.2481H70.5828V14.2843H72.6308V17.3181ZM83.1729 14.1326C84.1591 14.0567 85.1453 14.5119 85.7516 15.2703V14.3601H87.8V22.2481H85.7516V21.3379C85.1453 22.0964 84.1591 22.5515 83.1729 22.4756C82.1115 22.4756 81.1253 22.0206 80.443 21.2621C79.684 20.5037 79.3048 19.4418 79.3048 18.3041C79.3048 17.2423 79.684 16.1804 80.443 15.3462C81.1253 14.5877 82.1115 14.1326 83.1729 14.1326ZM82.0355 19.8969C82.8698 20.7312 84.2351 20.7312 85.1453 19.8969C85.6004 19.5176 85.8276 18.9109 85.7516 18.3041C85.8276 17.6973 85.6004 17.1665 85.1453 16.7114C84.3111 15.877 82.9457 15.877 82.0355 16.7114C81.6564 17.1665 81.4285 17.6973 81.4285 18.3041C81.4285 18.9109 81.6564 19.4418 82.0355 19.8969ZM91.744 15.2703C92.3504 14.5119 93.3366 14.0567 94.3228 14.1326C95.3842 14.1326 96.3704 14.5877 97.0527 15.3462C97.8117 16.1046 98.1908 17.1665 98.1908 18.3041C98.1908 19.366 97.8117 20.4278 97.0527 21.2621C96.3704 22.0206 95.3842 22.4756 94.3228 22.4756C93.3366 22.5515 92.3504 22.0964 91.744 21.3379V25.4336H89.6957V14.3601H91.744V15.2703ZM92.4263 19.8969C93.2606 20.7312 94.6259 20.7312 95.5362 19.8969C95.9153 19.5176 96.1425 18.9109 96.1425 18.3041C96.2185 17.6973 95.9913 17.1665 95.5362 16.7114C94.7019 15.877 93.3366 15.877 92.4263 16.7114C92.0472 17.1665 91.8193 17.6973 91.8193 18.3041C91.8193 18.9109 92.0472 19.4418 92.4263 19.8969ZM101.604 16.1804C102.21 15.5737 103.045 15.1944 103.955 15.2703C105.927 15.2703 107.368 16.8631 107.368 18.6834C107.368 19.6694 106.988 20.6553 106.23 21.3379C104.486 22.779 101.983 22.7032 100.314 21.1863C99.5562 20.352 99.1763 19.2902 99.1763 18.1524C99.1011 17.0906 99.3283 16.0288 99.7834 15.0428C100.39 14.2085 101.225 13.45 102.21 13.0708L102.969 12.6916L103.651 12.3882C103.803 12.3123 103.955 12.2364 104.183 12.0848C104.638 11.8572 105.017 11.4022 105.169 10.8713L106.761 11.8572C106.685 12.464 106.306 12.9949 105.851 13.3741C105.244 13.8293 104.486 14.2085 103.727 14.436C102.362 14.9669 101.907 15.422 101.604 16.1804ZM103.272 20.6553C103.803 20.6553 104.334 20.5037 104.714 20.1244C105.093 19.7452 105.32 19.2902 105.169 18.9109V18.7592C105.093 17.6973 104.258 16.9389 103.196 17.0147C102.741 16.9389 102.21 17.1665 101.831 17.4699C101.452 17.7732 101.225 18.2283 101.225 18.7592C101.225 19.2902 101.452 19.7452 101.831 20.1244C102.21 20.5037 102.741 20.6553 103.272 20.6553ZM111.995 14.1326C112.981 14.0567 113.966 14.5119 114.573 15.2703V14.3601H116.621V22.2481H114.573V21.3379C113.966 22.0964 112.981 22.5515 111.995 22.4756C110.933 22.4756 109.947 22.0206 109.264 21.2621C108.506 20.5037 108.127 19.4418 108.127 18.3041C108.127 17.2423 108.506 16.1804 109.264 15.3462C109.947 14.5877 110.933 14.1326 111.995 14.1326ZM110.857 19.8969C111.691 20.7312 113.056 20.7312 113.966 19.8969C114.421 19.5176 114.649 18.9109 114.573 18.3041C114.649 17.6973 114.421 17.1665 113.966 16.7114C113.132 15.877 111.767 15.877 110.857 16.7114C110.477 17.1665 110.25 17.6973 110.25 18.3041C110.25 18.9109 110.477 19.4418 110.857 19.8969ZM120.489 17.3181H123.675V14.3601H125.723V22.2481H123.675V19.2143H120.489V22.2481H118.441V14.2843H120.489V17.3181ZM134.824 14.2843L131.639 18.2283L134.9 22.2481H132.548L129.667 18.6834V22.2481H127.619V14.3601H129.667V17.7732L132.397 14.2843H134.824ZM55.4137 14.3601L57.5374 19.6694L59.206 14.3601H61.4055L57.3857 25.4336H55.3378L56.3997 22.1723L53.2142 14.3601H55.4137Z" fill="#0999D5"/>
</svg>
