<svg width="142" height="35" viewBox="0 0 142 35" fill="none" xmlns="http://www.w3.org/2000/svg">
<path d="M31.95 11.6548H39.2914C42.5861 17.3094 47.3442 22.0004 53.0796 25.2488V32.4868C48.1764 30.8385 43.722 28.1035 40.0589 24.492C36.3959 20.8806 33.6218 16.4889 31.95 11.6548Z" fill="#00AFAA"/>
<path d="M53.1009 11.6551H39.2914C37.543 8.66897 36.2375 5.45128 35.4148 2.1001H43.3881C45.9604 2.10009 48.4277 3.1061 50.2485 4.89742C52.0695 6.68872 53.0953 9.119 53.1009 11.6551Z" fill="#00AFAA"/>
<path d="M53.0227 2.1001C53.55 4.45507 54.7491 6.61235 56.4788 8.31764C58.2085 10.023 60.3966 11.2052 62.7852 11.7251V2.1001H53.0227Z" fill="#00AFAA"/>
<path d="M53.1009 11.6548V25.2488C47.3656 22.0004 42.6075 17.3094 39.3127 11.6548H53.1009Z" fill="#00539B"/>
<path d="M78.8881 13.8952V23.6112H75.8706V13.8952H72.6827V11.6132H82.076V13.8882L78.8881 13.8952ZM97.7812 12.6982C98.7901 11.8982 100.037 11.4458 101.331 11.4102C104.817 11.4102 106.472 13.8322 106.472 17.3042C106.472 21.6932 103.972 23.9332 100.359 23.9332C96.7446 23.9332 94.8418 21.6932 94.8418 16.5272C94.8418 12.2292 95.8287 9.26818 97.341 7.89618C99.0734 6.31418 99.613 6.35618 101.644 5.83818C102.893 5.52318 104.1 5.32718 104.569 5.13818L105.669 7.60218C105.073 7.95218 103.958 8.21118 101.736 8.65218C99.1657 9.14918 98.0084 10.0522 97.7457 12.6772L97.7812 12.6982ZM100.536 21.5182C102.531 21.5182 103.277 19.9222 103.277 17.6402C103.277 15.5822 102.659 13.8952 100.65 13.8952C99.738 13.8414 98.8377 14.1149 98.1149 14.6652C98.0191 15.5953 97.9878 16.5309 98.0226 17.4652C97.98 19.9222 98.7894 21.5182 100.536 21.5182ZM90.809 23.6182L86.7478 18.0182V23.6182H83.6948V11.6132H86.7478V16.8702L90.3617 11.6132H93.72L89.7866 17.0522L94.4087 23.6322H90.8587L90.809 23.6182Z" fill="#00539B"/>
<path d="M62.7852 21.1888V29.0498C59.3898 28.2211 56.1296 26.925 53.1008 25.1998V11.6548C54.3717 11.6539 55.6303 11.8997 56.8047 12.3784C57.9792 12.857 59.0465 13.559 59.9458 14.4444C60.8451 15.3296 61.5587 16.3809 62.0459 17.5381C62.533 18.6953 62.7843 19.9359 62.7852 21.1888Z" fill="#F39A00"/>
</svg>
