<svg width="141" height="36" viewBox="0 0 141 36" fill="none" xmlns="http://www.w3.org/2000/svg">
<path fill-rule="evenodd" clip-rule="evenodd" d="M51.7062 15.6017C51.5206 13.7017 49.8629 12.3157 48.0035 12.5061H41.5011V23.3693H43.4443V19.7482H48.0035C50.2839 19.7482 51.7192 18.4553 51.7192 16.2131V15.7821L51.7062 15.6017ZM49.7769 16.3849C49.6952 17.2597 48.9469 17.9098 48.088 17.8511H43.3589V14.2286H48.2571C49.1882 14.3274 49.8671 15.175 49.7769 16.1257V16.3849ZM52.6366 17.8539C52.6366 21.2187 55.4227 23.5454 58.7996 23.5454C62.1758 23.5454 64.9626 21.2187 64.9626 17.8539C64.9626 14.4892 62.1758 12.161 58.7996 12.161C55.4234 12.161 52.6366 14.4892 52.6366 17.8539ZM54.6628 17.5962C54.8332 15.4327 56.6803 13.8162 58.7996 13.9751C61.3321 13.9766 62.9363 15.6146 62.9363 17.8568C62.9363 20.0976 61.3321 21.737 58.7996 21.737C56.2671 21.737 54.6628 20.0976 54.6628 17.8568V17.5962ZM66.7179 17.8525C66.7179 21.2173 69.3349 23.5454 72.8808 23.5454C74.6679 23.5469 76.41 22.9741 77.8612 21.9103L76.8485 20.3582C75.7311 21.2187 74.3645 21.6726 72.9653 21.6511C70.3483 21.6511 68.7439 19.9272 68.7439 17.7709C68.7439 15.6146 70.3483 13.9766 72.9653 13.9766C74.3456 14.0009 75.6797 14.4849 76.7647 15.3569L77.7775 13.799C76.3885 12.6736 74.6519 12.0937 72.8808 12.161C69.4193 12.161 66.7179 14.4877 66.7179 17.8525ZM92.8562 23.1975L94.0387 20.6116L99.7784 20.6145L100.961 23.2004H103.072L97.922 12.423H95.8958L90.7463 23.1975H92.8562ZM96.9092 14.4892L98.9353 18.8863H94.883L96.9092 14.4892ZM113.372 18.6286V23.2848H115.312V12.5061H113.372V16.9046H106.449V12.5061H104.508V23.2848H106.449V18.6286H113.372ZM118.269 12.5061V23.2848H120.21V18.0258L125.527 23.2848H128.144L122.489 17.6807L127.893 12.5061H125.529L120.21 17.5074V12.5061H118.269ZM81.8233 16.3878H86.3827C88.7475 16.3878 90.1828 17.5962 90.1828 19.7511C90.1828 21.9074 88.5786 23.2004 86.2997 23.2004H79.797V12.423H89.3378V14.147H81.8233V16.3878ZM81.8247 21.3891H86.5524C87.9032 21.4765 88.4939 20.7863 88.4939 19.8385C88.4939 18.8892 87.7348 18.199 86.5524 18.199H81.8247V21.3891ZM34.516 18H13.395V28.8002H34.516V18Z" fill="black"/>
<path d="M13.395 7.2002H34.5161V18.2067H13.395V7.2002Z" fill="#E7002A"/>
<path d="M17.0647 17.3223H30.7891V18.6501H17.0647V17.3223Z" fill="white"/>
</svg>
