<svg width="142" height="36" viewBox="0 0 142 36" fill="none" xmlns="http://www.w3.org/2000/svg">
<path d="M41.264 16.1034L41.7214 14.647L40.2339 14.6947C39.5373 14.6686 38.8662 14.4303 38.302 14.0098H38.5029C39.409 14.0055 40.2382 13.481 40.6399 12.6575L41.2939 11.2401C40.781 11.2445 40.2681 11.2141 39.7595 11.1491C39.2722 11.0321 38.8363 10.7634 38.5071 10.3819C38.0626 9.90081 37.4472 9.62771 36.7974 9.62339C36.5452 9.62339 36.293 9.66673 36.0494 9.74471C36.0837 9.62771 36.1136 9.51071 36.1349 9.38932C36.2375 8.54411 36.0024 7.69019 35.4852 7.01837L34.3568 5.60968L33.6644 7.25675C33.5533 7.49082 33.3866 7.69458 33.1729 7.84189C33.0532 7.25243 32.7711 6.71496 32.3522 6.29019C31.6513 5.562 30.6895 5.15457 29.6851 5.16323C29.5098 5.16323 29.3346 5.17624 29.1637 5.20224L27.8129 5.47098C27.9284 5.01152 28.1121 4.57375 28.3601 4.17064L29.1038 2.99601L27.2317 3.17372L26.6333 1.87339L25.4792 2.51055L24.4107 1.43994L23.3421 2.51055L22.188 1.90373L21.5897 3.17372L19.7175 2.957L20.4613 4.13597C20.7092 4.53907 20.8929 4.97685 21.0084 5.4363L19.7261 5.18057H19.6834C19.5038 5.15457 19.3243 5.14156 19.1448 5.14156C18.1403 5.13289 17.1786 5.54033 16.4777 6.26851C16.0545 6.69763 15.7639 7.24379 15.6484 7.84189C15.4433 7.6989 15.2766 7.50385 15.1655 7.2741L14.4688 5.61401L13.3319 7.02704C12.8232 7.6989 12.5967 8.54843 12.695 9.38932C12.7164 9.51071 12.7463 9.62771 12.7805 9.74471C12.5368 9.66673 12.2846 9.62339 12.0325 9.62339C11.3828 9.62771 10.7673 9.90081 10.3227 10.3819C9.99791 10.759 9.56623 11.0277 9.08322 11.1491C8.57031 11.2271 8.04889 11.2574 7.5274 11.2401L8.16427 12.6791C8.56605 13.5027 9.39526 14.0272 10.3014 14.0315H10.5023C9.94665 14.4433 9.28415 14.6817 8.59595 14.712L7.09998 14.647L7.55729 16.1034C7.89929 17.2434 8.86951 18.0799 10.0364 18.2316C9.91669 18.9988 9.43801 19.662 8.75413 20.0087L7.60862 20.4811L8.22412 21.5691C8.73276 22.371 9.60897 22.8478 10.545 22.8391C10.7886 22.8391 11.0323 22.8131 11.2717 22.7611C11.3315 23.0255 11.4084 23.2899 11.4939 23.5456C11.7076 24.1178 11.7204 24.7419 11.5366 25.3228L10.981 26.506L12.2248 26.8398C12.5026 26.9135 12.7933 26.9482 13.0797 26.9482C13.2848 26.9482 13.4857 26.9265 13.6866 26.8788C13.8319 26.8441 13.9772 26.8008 14.114 26.7444C14.2722 27.0349 14.473 27.3036 14.6996 27.542C15.4946 28.3699 16.623 28.7903 18.0548 28.7903H19.0764L16.9692 29.6788L18.5678 30.4807C19.2132 30.8015 19.8715 31.0919 20.5425 31.3476L20.3501 31.9111L20.9015 32.1668C21.8162 32.5309 22.7864 32.7347 23.7696 32.7693H25.0817C26.0605 32.7347 27.0265 32.5266 27.9369 32.1625L28.4712 31.9111L28.2831 31.3476C28.9627 31.0832 29.6296 30.7841 30.2792 30.4504L31.8479 29.6788L29.7449 28.812H30.7707C32.2026 28.812 33.3353 28.3785 34.1261 27.5636C34.3568 27.3252 34.5535 27.0565 34.7116 26.7661C34.8484 26.8225 34.9937 26.8658 35.139 26.9005C35.3399 26.9482 35.5408 26.9698 35.746 26.9698C36.0323 26.9698 36.323 26.9308 36.6008 26.8615L37.8489 26.5277L37.3061 25.3661C37.1009 24.7766 37.1095 24.1307 37.3274 23.5456C37.4172 23.2812 37.4899 23.0125 37.5497 22.7437C37.7891 22.7958 38.0369 22.8218 38.2806 22.8218C39.2252 22.8304 40.1057 22.3363 40.6058 21.5215L41.2127 20.4465L40.0843 19.9784C39.4004 19.6316 38.9218 18.9684 38.802 18.2013C39.9689 18.0452 40.9392 17.213 41.2812 16.0687L41.264 16.1034Z" fill="white"/>
<path d="M29.5484 20.7069H19.2902V24.6078C19.2902 26.2116 20.4314 27.2085 22.1197 27.2085C23.5302 27.2085 23.9021 27.2648 24.4235 27.7937C24.7527 27.4339 25.2185 27.2302 25.7058 27.2388V27.1782L26.0307 26.1639L25.4793 25.5528C25.257 25.6221 25.0262 25.6482 24.7954 25.6351C24.4492 25.6308 24.1072 25.5961 23.7695 25.5268H23.6627C23.6157 25.5268 23.6157 25.5268 23.6029 25.5528L23.5388 25.6611L23.4234 25.8562L23.2011 25.8042L22.2137 25.5701L22.077 25.7955V25.8215L22.1967 25.9559L22.1454 26.1293C22.0556 26.3417 21.9274 26.5323 21.7649 26.697L21.5171 26.9658L21.2905 26.6797L21.1238 26.4673C20.9443 26.2289 20.9016 25.9169 21.0042 25.6351L20.7263 25.7521L20.6024 25.4748L20.534 25.2797C20.3587 24.8679 20.4912 24.3911 20.846 24.131L21.641 23.6976L22.3975 23.8493C22.3975 23.7756 22.4445 23.5113 22.4659 23.4462H22.4232L21.9958 23.6109L21.5683 23.3162C21.4829 23.2295 21.4786 23.0865 21.5683 22.9955L21.9744 22.3713L20.9443 21.071L22.4873 21.6864L22.5941 21.5564L22.8079 21.2963L23.0515 21.5304C23.1156 21.5954 23.1584 21.6735 23.1798 21.7645C23.6072 21.9378 24.3979 22.4449 24.462 23.2685L24.2183 23.3682C24.2483 23.4115 24.2868 23.4462 24.3338 23.4679L25.4622 23.5806L25.5648 23.5502C25.7571 23.4766 25.9622 23.4375 26.1674 23.4332C26.3726 23.4332 26.5735 23.4809 26.7573 23.5719C26.8385 23.5416 26.9283 23.5242 27.0138 23.5199H27.0693C27.672 23.5199 27.9754 23.9793 28.2148 24.3434L28.3388 24.5255C28.5482 24.8289 28.826 25.271 28.8388 25.2884L28.9628 25.4834L28.8089 25.6654C28.6678 25.8562 28.4456 25.9645 28.2105 25.9645C28.1422 25.9688 28.0737 25.9688 28.0053 25.9645C27.9455 25.9516 27.8857 25.9342 27.8259 25.9082C27.8259 25.9688 27.8259 26.0426 27.7916 26.1033L27.6164 27.1262C28.779 26.8878 29.5996 25.8302 29.5526 24.6252L29.5484 20.7069ZM19.2774 20.3904H27.2659C26.9411 20.0437 26.8299 19.5452 26.9753 19.0901C26.8684 19.0381 26.7658 18.9687 26.6761 18.8907C26.364 19.1248 25.3938 19.827 25.163 20.0046L25.1117 20.0394L21.9744 19.4759H21.9103C21.8077 19.4802 21.7052 19.4802 21.6026 19.4759C21.5726 19.6189 21.4487 19.7186 21.3076 19.7186H21.2564C21.0897 19.6883 20.9742 19.5279 20.9999 19.3588V19.2895C20.5938 18.9948 20.4015 18.4833 20.5083 17.9892V17.9328L20.5554 17.8981C20.5554 17.8981 20.6152 17.8548 20.6964 17.8071L20.4699 17.7724C20.3844 17.7551 20.3288 17.6771 20.3417 17.5904C20.3545 17.5037 20.4314 17.4474 20.5169 17.4604H20.5212L21.064 17.5471L21.1153 15.6096L21.9231 14.7427L22.4275 15.8176L21.8975 17.6814L22.3762 17.7594C22.4617 17.7768 22.5173 17.8548 22.5044 17.9415C22.4916 18.0195 22.4275 18.0715 22.3505 18.0715H22.3249L21.9359 18.0065V18.0368C21.9786 18.1149 22.0428 18.1756 22.124 18.2145L24.5133 18.2535L25.1245 17.6424C24.6586 17.4777 24.3253 17.0616 24.2697 16.5631C23.9705 16.4461 23.7269 16.2207 23.5901 15.9303C23.4747 15.6572 23.4533 15.3495 23.5345 15.0634C23.1584 14.9117 22.8164 14.682 22.5386 14.3872H18.991C19.1619 14.812 19.2603 15.2628 19.2774 15.7179V20.3904Z" fill="#FCE527"/>
<path d="M46.8505 17.0442H50.3724V23.1124H52.9369V17.0442H56.459V14.8423H46.8505V17.0442ZM59.8442 19.6449V14.877H57.3651V23.1124H59.5536L63.8278 18.2925V23.1124H66.3069V14.8423H64.1184L59.8442 19.6449ZM74.5607 17.9111H70.5768V14.877H68.0977V23.1124H70.5768V20.0263H74.5607V23.1124H77.0393V14.877H74.5607V17.9111ZM85.6864 17.2696C85.1006 17.0875 84.4851 17.0139 83.8738 17.0442H81.3092V14.877H78.8306V23.1124L83.8567 23.0778C84.3828 23.0864 84.904 23.0257 85.413 22.8871C86.7038 22.5663 87.5927 21.3743 87.5501 20.0263C87.6013 18.791 86.8444 17.664 85.6864 17.2696ZM84.4212 20.9972C84.1088 21.1056 83.7758 21.1489 83.4463 21.1186H81.3092V19.0207H83.4463C83.7673 18.9991 84.0917 19.0381 84.4041 19.1248C84.7975 19.2418 85.0623 19.6102 85.0538 20.0263C85.058 20.4511 84.8103 20.8369 84.4212 20.9972ZM97.936 14.877H94.8248L91.8329 17.9805H91.1491V14.877H88.6698V23.1124H91.1491V19.9917H91.8329L94.7907 23.1124H98.0901L93.97 18.778L97.936 14.877Z" fill="#222220"/>
<path d="M103.271 14.6169C99.9197 14.6169 97.919 16.524 97.919 18.986C97.919 21.448 99.9368 23.3551 103.253 23.3551C106.57 23.3551 108.57 21.448 108.57 18.986C108.57 16.524 106.621 14.6169 103.271 14.6169ZM103.253 21.3439C101.595 21.3439 100.535 20.3384 100.535 18.986C100.535 17.6337 101.612 16.6454 103.253 16.6454C104.895 16.6454 105.972 17.6337 105.972 18.986C105.972 20.3384 104.912 21.3439 103.253 21.3439ZM116.739 15.2064V14.3742H114.26V15.2064C111.148 15.2757 109.285 16.6107 109.285 18.9686C109.285 21.3266 111.148 22.5576 114.26 22.627V23.4591H116.739V22.627C119.867 22.5576 121.731 21.3266 121.731 18.9686C121.731 16.6107 119.871 15.2757 116.739 15.2064ZM114.26 20.8585C112.55 20.7892 111.797 20.0783 111.797 18.9686C111.797 17.859 112.55 17.0615 114.26 16.9922V20.8585ZM116.739 20.8585V16.9922C118.466 17.0615 119.201 17.859 119.201 18.9686H119.205C119.205 20.0783 118.47 20.7892 116.739 20.8585ZM129.907 15.2064V14.3742H127.429V15.2064C124.317 15.2757 122.453 16.6107 122.453 18.9686C122.453 21.3266 124.317 22.5576 127.429 22.627V23.4591H129.907V22.627C133.036 22.5576 134.9 21.3266 134.9 18.9686C134.9 16.6107 133.036 15.2757 129.907 15.2064ZM127.429 20.8585C125.719 20.7892 124.966 20.0783 124.966 18.9686C124.966 17.859 125.719 17.0615 127.429 16.9922V20.8585ZM132.365 18.9686C132.365 20.0783 131.635 20.7892 129.907 20.8585V16.9922C131.635 17.0615 132.37 17.859 132.37 18.9686H132.365ZM22.5557 22.4102C22.5044 22.4102 22.4574 22.4493 22.4531 22.5012V22.5056C22.4489 22.5619 22.4916 22.6139 22.5471 22.6182H22.5514C22.6112 22.6182 22.654 22.5706 22.654 22.5143C22.654 22.4536 22.6112 22.4102 22.5557 22.4102ZM22.5515 22.4058C22.5557 22.4058 22.5557 22.4102 22.5557 22.4102C22.56 22.4102 22.56 22.4058 22.5642 22.4058H22.5515ZM29.5355 29.5144L28.9457 29.2847L29.1081 28.6648L29.2876 27.9887C28.4798 28.4091 27.6335 28.7472 26.7616 28.9986C26.3341 29.1199 26.0263 29.1763 26.0263 29.1763V29.6141C25.5007 29.7007 24.9707 29.7484 24.4364 29.7528H24.3893C23.855 29.7484 23.325 29.7007 22.7993 29.6141V29.1806C22.7993 29.1806 22.4873 29.1199 22.0599 28.9986C21.1879 28.7472 20.3416 28.4091 19.5338 27.9887L19.7091 28.6648L19.8757 29.2847L19.2816 29.5144L18.6405 29.7614C19.521 30.2252 20.4399 30.611 21.3888 30.9144L21.1623 31.5385C22.1923 31.9374 23.2951 32.1324 24.3979 32.1064H24.4235C25.5263 32.1324 26.6291 31.9374 27.6591 31.5385L27.4368 30.9144C28.3815 30.611 29.3004 30.2252 30.1809 29.7614L29.5355 29.5144ZM19.3543 29.8005L20.3117 29.4754L20.0254 28.5218C20.6536 28.8382 21.3034 29.1026 21.9744 29.3106L21.5042 30.611C20.7648 30.4116 20.0424 30.1386 19.3543 29.8005ZM24.4364 31.7986L24.415 31.7813C23.4746 31.7769 22.5385 31.6469 21.6324 31.3955L22.2095 29.8091C22.9276 29.9912 23.6669 30.0908 24.4107 30.0952H24.4577C25.2015 30.0865 25.9409 29.9912 26.659 29.8091L27.236 31.3955C26.3255 31.6556 25.381 31.79 24.4364 31.7986ZM27.3514 30.637V30.624L26.8812 29.3237C27.5523 29.1156 28.2019 28.8512 28.8303 28.5348L28.5439 29.4883L29.5142 29.8178C28.8217 30.1602 28.0951 30.4376 27.3514 30.637ZM24.4107 4.77336C25.3766 4.74735 26.3255 5.04209 27.1119 5.6099C27.2359 4.9684 27.471 4.35291 27.8087 3.79377L26.8384 3.90646L26.3341 2.80985L25.3553 3.32132L24.4107 2.37207L23.466 3.32132L22.4872 2.80985L21.9829 3.90646L21.0126 3.79377C21.3503 4.35291 21.5854 4.9684 21.7093 5.6099C22.4958 5.04209 23.4446 4.74735 24.4107 4.77336ZM21.9402 4.2879L22.2094 4.31824L22.3248 4.07118L22.6625 3.33432L23.2908 3.66374L23.5345 3.78943L23.7311 3.60739L24.4107 2.90954L25.0903 3.60739L25.2869 3.80244L25.5305 3.67674L26.1546 3.34732L26.4965 4.08418L26.6119 4.33124L26.8812 4.3009L27.1376 4.27056C27.035 4.50895 26.9453 4.75602 26.8726 5.00741C25.3296 4.20554 23.496 4.20554 21.9529 5.00741C21.8803 4.75602 21.7906 4.50895 21.688 4.27056L21.9402 4.2879ZM37.0882 13.7196L36.9727 13.5766C36.1777 12.5493 35.4211 11.5741 34.0705 11.1276C34.1261 11.08 34.1816 11.0366 34.2415 10.9976C34.8826 10.6292 35.3357 9.99636 35.481 9.26383C35.5537 8.60064 35.3699 7.93752 34.9681 7.40868L34.5407 6.86689L34.2714 7.51272C34.2714 7.55174 33.7969 8.58768 32.8395 8.58768H32.5574C32.6087 7.90714 32.3651 7.2353 31.8907 6.74987C31.3136 6.15171 30.5186 5.81796 29.6937 5.8223C29.5398 5.8223 29.3859 5.8353 29.2363 5.85697L28.5824 5.987L28.9884 6.52881C29.3047 6.96225 29.5911 7.71209 29.2534 8.11522C29.091 8.25828 28.9072 8.37096 28.7063 8.44894C28.2789 8.6527 27.6634 8.94307 27.6634 9.67128C27.6634 10.1437 28.0267 10.6379 28.6807 11.0583C30.6083 12.298 31.8008 13.5766 32.3181 15.0156C33.1173 17.2089 32.0744 18.4572 31.0615 19.116L30.6083 19.4108L31.0059 19.7792C31.3607 20.0869 31.7966 20.2777 32.2625 20.3253H32.6514C33.049 20.3253 33.4422 20.269 33.8226 20.152C33.7286 20.321 33.6132 20.4814 33.4892 20.6287C32.9122 21.3093 32.0573 21.682 31.1726 21.6344H30.7922L30.7623 22.0201C30.758 22.5619 30.9931 23.0734 31.3991 23.4245C31.506 23.5198 31.6256 23.5979 31.7538 23.6585C31.1213 24.2827 30.7623 25.1366 30.7494 26.0338C30.7494 26.5236 30.6383 27.0091 30.4288 27.4512L30.0014 28.1013H30.7623C32.0189 28.1013 32.9806 27.7503 33.6473 27.0524C33.9935 26.684 34.25 26.2375 34.3996 25.752C34.6475 25.9644 34.9382 26.1118 35.2545 26.1855C35.4041 26.2202 35.558 26.2375 35.7118 26.2375C35.9426 26.2375 36.1735 26.2072 36.3957 26.1552L36.883 26.0251L36.6693 25.5657C36.3999 24.8332 36.3999 24.0226 36.6693 23.2901C36.8274 22.8133 36.9386 22.3192 36.9983 21.8164C37.383 22.0158 37.8105 22.1155 38.2422 22.1112C38.9517 22.1198 39.6142 21.7644 39.9989 21.1619L40.2339 20.7285L39.8065 20.5464C38.3747 19.944 38.0584 18.3229 37.9943 17.4473C38.1353 17.4776 38.2763 17.4949 38.4217 17.4993L38.5414 17.5816C40.0972 17.5816 40.6186 15.9736 40.64 15.9042L40.8153 15.3364H40.2297C38.9987 15.293 37.8489 14.7036 37.0882 13.7196ZM38.5456 17.1439H38.4858C38.1738 17.1482 37.866 17.0615 37.6011 16.8968C37.6011 16.8968 37.3745 20.0306 39.6783 21.0016V21.0145C39.3748 21.4827 38.8534 21.7601 38.302 21.7514C37.6779 21.7904 37.0753 21.5217 36.6821 21.0319C36.6949 21.7687 36.5752 22.5056 36.3316 23.1991C36.0195 24.0356 36.0195 24.9632 36.3316 25.7998C36.1392 25.8474 35.9469 25.8734 35.7503 25.8734C35.6306 25.8734 35.5066 25.8604 35.3913 25.8301C34.8228 25.6914 34.3697 25.2666 34.1859 24.7075C34.1859 24.7075 34.2757 27.7156 30.8178 27.7156H30.7922C31.0529 27.2128 31.1897 26.6536 31.1854 26.0858C31.335 23.8623 32.8224 23.5458 32.8224 23.5458C32.4121 23.4938 32.0232 23.3465 31.6812 23.1124C31.3692 22.848 31.1897 22.4579 31.1811 22.0461C32.1813 22.0895 33.1473 21.669 33.8012 20.8975C34.1945 20.4424 34.4552 19.8876 34.5663 19.2937C34.0149 19.7142 33.3353 19.9266 32.6472 19.8962H32.2967C31.9248 19.8573 31.5701 19.7099 31.2837 19.4628C32.6002 18.5959 33.5234 17.1136 32.707 14.8639C32.0488 13.0608 30.4716 11.7128 28.8859 10.6986C28.3601 10.3691 28.0438 9.99636 28.0438 9.6756C28.0438 8.9214 29.0996 8.89973 29.5355 8.37528C30.0356 7.78581 29.7236 6.83222 29.2876 6.26007C29.4116 6.2384 29.5398 6.22973 29.6638 6.22973C30.3776 6.22106 31.0657 6.51147 31.5615 7.0316C32.0659 7.51704 32.2582 8.24957 32.0659 8.92579L32.2967 8.97346C32.4377 8.99945 32.5788 9.01248 32.7241 9.0168H32.8181C34.0705 9.0168 34.6347 7.6861 34.6347 7.6861C34.6347 7.6861 35.9683 9.35052 34.0064 10.6508C33.6687 10.872 33.5191 11.0843 33.579 11.301L33.6089 11.4441L33.7499 11.4701C35.1733 11.8602 35.887 12.8571 36.7718 13.9884C37.6096 15.0677 38.8748 15.7178 40.2297 15.7655H40.2553C40.2553 15.7655 39.8279 17.1439 38.5456 17.1439Z" fill="#222220"/>
<path d="M35.8014 11.3226C36.2801 11.6 36.6947 11.9772 37.0196 12.428C37.2632 12.8093 37.6094 13.1128 38.0197 13.2948C38.1736 13.3468 38.3403 13.3728 38.5028 13.3728C39.1567 13.3728 39.7551 12.9958 40.0543 12.4063L40.3022 11.8428L39.6995 11.8081C39.0498 11.6867 38.4643 11.3487 38.0326 10.8415C37.712 10.4904 37.2632 10.2867 36.7887 10.2824C36.4212 10.2867 36.0664 10.3994 35.7587 10.5988L35.203 10.9932L35.8014 11.3226ZM36.8016 10.7028L36.7887 10.7072C37.1521 10.7072 37.494 10.8675 37.7377 11.1406C38.2377 11.7214 38.9216 12.1072 39.6739 12.2329C39.4431 12.6707 38.9943 12.9437 38.5028 12.9481C38.3831 12.9481 38.2634 12.9264 38.148 12.8874C37.4556 12.649 37.2119 11.5871 36.0109 10.9456C36.2459 10.7895 36.5195 10.7072 36.8016 10.7028ZM36.0835 16.9097L36.075 16.9011C35.7245 14.0403 33.6771 11.9728 31.399 10.7202C31.1895 10.6031 30.9929 10.5078 30.8049 10.4168C31.7452 10.6118 32.724 10.3778 33.4805 9.77959C33.4805 9.77959 32.1598 10.7635 29.4584 9.87059C30.2065 10.3647 31.6597 11.0582 32.989 12.1852C36.3058 15.1413 33.9336 18.0281 33.9336 18.0281C34.9252 17.0745 35.2714 15.6181 34.8269 14.3091C35.5279 15.4924 35.8655 16.8621 35.7929 18.2404C35.6988 20.5117 34.455 22.4969 33.1728 24.0789C32.7881 24.5774 32.5231 25.1625 32.4119 25.7867C32.6299 25.1669 32.9591 24.5947 33.3865 24.1006C34.7756 22.4492 35.951 20.7371 36.1177 18.2708C36.2631 18.7042 36.8529 19.9656 37.7933 20.438C37.7933 20.438 36.6135 19.7185 36.0835 16.9097ZM18.3882 27.4815C18.183 27.0394 18.0719 26.5539 18.0676 26.0641C18.0548 25.1669 17.6914 24.313 17.0588 23.6888C17.1871 23.6281 17.3068 23.5502 17.4136 23.4548C17.8197 23.1037 18.0548 22.5922 18.0505 22.0504L18.0249 21.6646H17.6401C16.7596 21.708 15.9048 21.3395 15.3278 20.6591C15.2038 20.5117 15.0927 20.3513 14.9944 20.1823C15.3748 20.2993 15.7681 20.3557 16.1655 20.3557H16.5545C17.0204 20.3079 17.4606 20.1173 17.8154 19.8095L18.2129 19.4411L17.7598 19.1464C16.7425 18.4875 15.7039 17.2391 16.5032 15.046C17.0204 13.6199 18.2129 12.3326 20.1577 11.0929C20.8116 10.6595 21.1707 10.1784 21.1707 9.70593C21.1707 8.97772 20.568 8.68735 20.1277 8.48359C19.9269 8.40554 19.7431 8.29286 19.5807 8.14987C19.2388 7.74674 19.5251 6.97954 19.8457 6.56343L20.2731 6.02162L19.6148 5.89159C19.4652 5.86559 19.3114 5.85692 19.1575 5.85692C18.3241 5.83091 17.5205 6.156 16.9306 6.74981C16.4477 7.23093 16.1955 7.90708 16.2425 8.59195H15.986C15.0243 8.59195 14.5712 7.56033 14.5542 7.51699L14.2849 6.87118L13.8574 7.41302C13.4599 7.94179 13.2762 8.60498 13.3488 9.2681C13.4941 10.0006 13.9429 10.6335 14.5841 11.0019C14.6439 11.0409 14.7038 11.0842 14.755 11.132C13.4044 11.5654 12.6478 12.5537 11.8528 13.5809L11.7374 13.7283C10.9766 14.7122 9.82259 15.3017 8.59159 15.345H8.00598L8.18554 15.9128C8.18554 15.9822 8.72408 17.5903 10.2842 17.5903H10.3611C10.5065 17.5859 10.6475 17.5686 10.7885 17.5382C10.7244 18.4051 10.4081 20.0349 8.97201 20.6374L8.54459 20.8194L8.77967 21.2529C9.16435 21.8554 9.82685 22.2108 10.5364 22.2021C10.968 22.2064 11.3912 22.1068 11.7759 21.9074C11.8357 22.4102 11.9468 22.9043 12.105 23.3811C12.3743 24.1136 12.3743 24.9241 12.105 25.6567L11.8913 26.1161L12.3785 26.2461C12.6008 26.2982 12.8316 26.3285 13.0625 26.3285C13.2163 26.3285 13.3702 26.3111 13.5198 26.2765C13.8361 26.2028 14.1267 26.0555 14.3746 25.8431C14.5242 26.3285 14.7807 26.775 15.1269 27.1434C15.7979 27.8412 16.7596 28.188 18.012 28.1923H18.7728L18.3882 27.4815ZM18.0205 27.7242C14.5627 27.7242 14.6482 24.7161 14.6482 24.7161C14.4644 25.2752 14.0113 25.7 13.4428 25.8388C13.3274 25.8691 13.2035 25.8821 13.0838 25.8821C12.8872 25.8821 12.6948 25.856 12.5068 25.8084C12.8188 24.9718 12.8188 24.0442 12.5068 23.2077C12.2631 22.5142 12.1478 21.7774 12.1605 21.0405C11.7673 21.5303 11.1647 21.7991 10.5406 21.76H10.5192C9.96359 21.7687 9.44217 21.4869 9.13864 21.0188C11.4425 20.0479 11.216 16.9141 11.216 16.9141C10.9509 17.0788 10.6432 17.1655 10.3312 17.1612H10.2842C9.0019 17.1612 8.57448 15.7828 8.57448 15.7828H8.60011C9.95507 15.7395 11.2245 15.0893 12.0623 14.01C12.9428 12.8788 13.6608 11.8818 15.0842 11.4917L15.2252 11.4657L15.2552 11.3227C15.2936 11.1016 15.144 10.8892 14.8277 10.6725C12.8658 9.37214 14.1994 7.70771 14.1994 7.70771C14.1994 7.70771 14.755 9.03842 16.0159 9.03842H16.0758C16.2211 9.0341 16.3621 9.02107 16.5032 8.99507L16.734 8.94741C16.5374 8.27119 16.734 7.53866 17.2384 7.05323C17.7342 6.53309 18.4223 6.24269 19.1362 6.25136C19.2601 6.25136 19.3883 6.26002 19.5122 6.2817C19.0848 6.85818 18.7685 7.81175 19.2686 8.3969C19.6961 8.90407 20.7561 8.92574 20.7561 9.69722C20.7561 10.018 20.4612 10.3907 19.9354 10.7245C18.3454 11.7388 16.7682 13.0868 16.1143 14.8899C15.2979 17.1395 16.2211 18.6349 17.5376 19.4888C17.2512 19.7315 16.8965 19.8832 16.5246 19.9222H16.1698C15.4816 19.9525 14.802 19.7401 14.2506 19.3197C14.3618 19.9135 14.6225 20.4683 15.0115 20.9235C15.6655 21.6906 16.6357 22.1154 17.6359 22.0721C17.6273 22.4838 17.4478 22.8739 17.1358 23.1384C16.7939 23.3724 16.4049 23.5198 15.9945 23.5718C15.9945 23.5718 17.4863 23.8796 17.6487 26.1118C17.6444 26.6796 17.7812 27.2387 18.0419 27.7416L18.0205 27.7242Z" fill="#222220"/>
<path d="M10.3142 13.3685H10.3186C10.4809 13.3685 10.6476 13.3425 10.8015 13.2905C11.2119 13.1084 11.5581 12.805 11.8017 12.4236C12.1222 11.9729 12.5369 11.5957 13.0156 11.3183L13.6139 10.9932L13.0583 10.5988C12.7506 10.3994 12.3958 10.2867 12.0325 10.2824C11.5581 10.2867 11.1093 10.4904 10.7887 10.8458C10.3613 11.3487 9.77143 11.6911 9.12604 11.8124L8.52332 11.8428L8.76699 12.4063C9.06618 12.9958 9.66031 13.3642 10.3142 13.3685ZM11.0836 11.1406C11.323 10.8675 11.6649 10.7072 12.0282 10.7072C12.3061 10.7115 12.5796 10.7982 12.8147 10.9499C11.6051 11.6044 11.3529 12.6533 10.6776 12.8917C10.5664 12.9307 10.4468 12.9524 10.3271 12.9524C9.83128 12.9524 9.37823 12.675 9.14741 12.2329C9.89965 12.1072 10.5835 11.7214 11.0836 11.1406ZM13.037 18.2578C12.9644 16.8794 13.2978 15.5097 14.003 14.3265C13.5585 15.6354 13.9047 17.0918 14.8963 18.0454C14.8963 18.0454 12.5198 15.1586 15.8409 12.2025C17.1702 11.0756 18.6192 10.3821 19.3672 9.88795C16.6659 10.7808 15.3451 9.79694 15.3451 9.79694C16.1016 10.3951 17.0762 10.6291 18.0165 10.4341C17.8284 10.5251 17.6318 10.6248 17.4224 10.7375C15.1442 11.9945 13.0841 14.062 12.7464 16.9228V16.9011C12.2164 19.7098 11.0367 20.4293 11.0367 20.4293C11.9727 19.9612 12.5668 18.6956 12.7079 18.2621C12.866 20.7327 14.0543 22.4448 15.4434 24.092C15.8666 24.586 16.2 25.1582 16.4179 25.7781C16.3026 25.1582 16.0375 24.5731 15.6486 24.0789C14.3663 22.4969 13.1268 20.5117 13.037 18.2578ZM23.6285 13.0391C23.7781 12.8917 23.9875 12.8224 24.197 12.8484V13.6676C24.1927 13.8713 24.1414 14.0663 24.0431 14.2441H24.851C24.7526 14.0663 24.7014 13.8713 24.6971 13.6676V12.8484C24.9022 12.8224 25.1117 12.8917 25.2613 13.0391V12.4713H23.6285V13.0391ZM23.2909 9.10775H23.2824C23.4063 9.21611 23.5517 9.3028 23.7098 9.35479L23.8124 9.40252V8.86504L22.8635 8.46191C22.9105 8.73062 23.0644 8.96469 23.2909 9.10775ZM25.5435 9.10343L25.5392 9.10775C25.7657 8.96469 25.9196 8.73062 25.9667 8.46191L25.0178 8.86504V9.39813L25.1161 9.35047C25.2742 9.29848 25.4195 9.21179 25.5435 9.10343Z" fill="#222220"/>
<path d="M27.2446 6.9318C27.2446 6.12125 25.8982 5.39307 24.415 5.39307C22.9318 5.39307 21.5854 6.12125 21.5854 6.9318L21.6154 7.13118L22.2094 10.5987L21.6154 10.9498L20.0638 11.8428C20.0638 11.8428 19.7176 12.0248 19.5552 12.1331C18.9696 12.5666 18.8457 13.1474 19.1833 13.3988C19.2688 12.8093 19.7774 12.3758 20.3673 12.3932C20.8588 12.4062 21.3162 12.6576 21.594 13.0693C21.6795 13.1734 21.7564 13.2861 21.8248 13.3988C21.9146 13.5461 22.0043 13.6762 22.0941 13.8019H18.1361C18.4695 14.3827 18.6619 15.0372 18.7046 15.7091V24.625C18.7046 26.7923 20.3417 27.8108 22.124 27.8108C23.4918 27.8108 23.6755 27.7458 24.4278 28.5087C25.1801 27.7458 25.3639 27.8108 26.7317 27.8108C28.5012 27.8108 30.151 26.7835 30.151 24.625V15.7177C30.1938 15.0459 30.3861 14.3914 30.7195 13.8106H26.7188C26.8085 13.6849 26.8984 13.5548 26.9881 13.4075C27.0607 13.2948 27.1377 13.1821 27.2189 13.0781C27.501 12.6663 27.9583 12.4149 28.4499 12.4018C29.0397 12.3846 29.5484 12.818 29.6338 13.4075C29.9758 13.1604 29.8518 12.5406 29.262 12.1418C29.1038 12.0291 28.7576 11.8514 28.7576 11.8514L27.2189 10.9325L26.6248 10.5814L27.2189 7.11384L27.2446 6.9318ZM22.1582 7.33059L24.244 8.04576V11.366L22.7096 10.5424L22.1582 7.33059ZM18.9909 14.387H22.5856C22.8634 14.6818 23.2054 14.9159 23.5815 15.0632C23.5003 15.3493 23.5217 15.657 23.637 15.9301C23.7739 16.2205 24.0175 16.4459 24.3167 16.5629C24.3722 17.0614 24.7057 17.4775 25.1715 17.6422C24.915 17.9066 24.6629 18.1537 24.5603 18.2533L22.171 18.2144C22.0898 18.1754 22.0257 18.1147 21.983 18.0366V18.0063L22.3719 18.0713H22.3975C22.4745 18.0713 22.5386 18.0193 22.5515 17.9413C22.5642 17.8546 22.5086 17.7766 22.4232 17.7592L21.9445 17.6812L22.4745 15.8174L21.9701 14.7425L21.1623 15.6094L21.111 17.5469L20.5681 17.4602C20.4827 17.4428 20.4058 17.4991 20.3887 17.5858V17.5902C20.3758 17.6769 20.4314 17.7549 20.5169 17.7722L20.7434 17.8069C20.6622 17.8546 20.6066 17.8892 20.6024 17.898L20.5554 17.9326V17.989C20.4485 18.4831 20.6451 18.9946 21.0469 19.2893V19.3587C21.0213 19.5277 21.1366 19.6881 21.3033 19.7184H21.3546C21.4957 19.7184 21.6197 19.6188 21.6495 19.4757C21.7521 19.48 21.8505 19.48 21.953 19.4757H22.0171L25.1501 20.0522L25.2015 20.0175C25.4494 19.8398 26.4025 19.1506 26.7145 18.9035C26.8043 18.9816 26.9069 19.0509 27.0137 19.1029C26.8684 19.5581 26.9795 20.0565 27.3044 20.4033H19.2774V15.7177C19.2603 15.2626 19.1619 14.8118 18.9909 14.387ZM26.4452 18.6738C26.1204 18.9165 25.3212 19.506 25.0305 19.7141L22.1881 19.2113V19.1333C22.2351 18.9382 22.2608 18.7388 22.265 18.5395L24.6586 18.5784L24.7057 18.5308C24.7441 18.4917 25.5007 17.7506 25.8853 17.3214C25.9879 17.4515 26.1076 17.5598 26.2444 17.6465C26.176 18.002 26.2486 18.3704 26.4452 18.6738ZM21.6965 18.1537V18.1667C21.7607 18.288 21.8547 18.3921 21.9701 18.4614C21.9658 18.6391 21.9487 18.8125 21.9188 18.9859C21.9188 19.0249 21.9188 19.0639 21.8889 19.1029V19.1636C21.6923 19.1636 21.4999 19.1333 21.3119 19.0726C20.9699 18.8862 20.7776 18.5048 20.8332 18.1147C20.987 18.0063 21.1623 17.937 21.3461 17.9109C21.5042 17.9066 21.6453 18.002 21.6965 18.1537ZM21.4017 17.5772L21.4487 15.7437L21.8761 15.3103L22.1368 15.8608L21.6282 17.6465L21.4017 17.5772ZM26.4239 27.2343H26.0136L26.3341 26.1724C26.3854 26.025 26.1204 25.8343 26.0093 25.6652C26.27 25.8257 26.5393 25.9687 26.8171 26.0987C26.8171 26.1334 26.4239 27.2343 26.4239 27.2343ZM27.5224 26.0467L27.4882 26.0164L27.2659 27.1867C27.1248 27.1867 26.9753 27.217 26.8385 27.2257L27.0736 26.0987C27.142 25.765 26.2572 25.6652 25.8212 25.0021C25.5349 25.2448 25.1672 25.3575 24.7997 25.3185C24.4748 25.3142 24.1543 25.2795 23.838 25.2145C23.7824 25.2101 23.7269 25.2101 23.6713 25.2145C23.5388 25.2058 23.4106 25.2751 23.3422 25.3922L23.2781 25.5006L22.0599 25.2015L21.7692 25.713C21.7222 25.7823 21.7308 25.8776 21.7906 25.9383L21.8718 26.0293C21.7906 26.1898 21.688 26.3371 21.5641 26.4628L21.3846 26.2374C21.2478 26.012 21.2606 25.7216 21.4145 25.5092L21.8932 24.69L22.9148 24.8461L22.7566 24.4776C22.5429 23.9922 22.8677 23.3723 22.9019 23.0169C22.9019 23.1253 22.7908 23.147 22.6797 23.147H22.3847C22.3634 23.1426 22.3377 23.1426 22.3163 23.147L22.0385 23.316L21.8205 23.1123C21.7864 23.0473 21.7991 22.9693 21.8505 22.9215L22.3548 22.3451L21.7564 21.6386L22.6112 22.072L22.8677 21.76C22.9361 21.8293 22.9062 22.0113 22.9062 22.0113C23.5259 22.1674 23.9577 22.7395 23.9406 23.3897V23.5154C24.0261 23.6541 24.1628 23.7495 24.3167 23.7885L25.475 23.9055C25.7058 23.8318 25.9409 23.7841 26.1803 23.7538C26.3854 23.7538 26.5906 23.8188 26.7615 23.9315C26.8428 23.8752 26.9411 23.8405 27.0394 23.8362H27.0778C27.595 23.8362 27.813 24.3129 28.0909 24.703C28.3003 25.0021 28.5824 25.4529 28.5824 25.4529C28.5012 25.5742 28.3687 25.648 28.2234 25.648C28.172 25.6523 28.125 25.6523 28.0738 25.648C27.5181 25.5439 27.4369 24.3823 27.1206 24.2913H27.0693C27.0095 24.2913 26.9539 24.3259 26.924 24.3823C27.0693 24.7767 26.9838 24.9371 27.142 25.2492C27.2573 25.4356 27.4027 25.6046 27.5694 25.7476C27.5694 25.7476 27.548 25.921 27.5224 26.0467ZM21.2948 24.9111H21.2862L21.3376 25.0455C21.3033 25.1625 20.9101 25.3315 20.9101 25.3315L20.8246 25.1408C20.7135 24.8678 20.7947 24.5557 21.0298 24.378L21.6752 23.9791L22.3634 24.1265C22.359 24.2653 22.4018 24.3996 22.483 24.5123L21.7607 24.3736L21.3332 24.677C21.2649 24.7377 21.252 24.8331 21.2948 24.9111ZM29.5612 24.6293C29.6082 25.8343 28.7833 26.8919 27.6164 27.126L27.813 26.0771C27.813 26.0164 27.8344 25.9427 27.8429 25.882C27.9028 25.908 27.9626 25.9253 28.0224 25.9383C28.0909 25.9427 28.1592 25.9427 28.2276 25.9383C28.4627 25.9383 28.6849 25.83 28.826 25.6392L28.9799 25.4572L28.8516 25.2795C28.8516 25.2795 28.5653 24.82 28.3516 24.5166L28.2319 24.3346C27.9925 23.9705 27.6891 23.5111 27.0864 23.5111H27.0308C26.9454 23.5154 26.8556 23.5327 26.7744 23.5631C26.5906 23.472 26.3897 23.4244 26.1845 23.4244C25.9793 23.4287 25.7742 23.4677 25.5819 23.5414L25.4793 23.5718L24.3509 23.459C24.3039 23.4373 24.2654 23.4027 24.2355 23.3594L24.4791 23.2597C24.4107 22.4318 23.6243 21.9246 23.1968 21.7556C23.1755 21.6646 23.1327 21.5866 23.0686 21.5216L22.8249 21.2875L22.6112 21.5476L22.5044 21.6776L20.9229 21.0187L21.953 22.3191L21.5469 22.9432C21.4615 23.0299 21.4572 23.173 21.5469 23.264L21.9744 23.5587L22.4018 23.394H22.4445C22.4445 23.459 22.3975 23.7235 22.3762 23.7971L21.6324 23.6671L20.8374 24.1005C20.4699 24.3692 20.3417 24.8634 20.534 25.2795L20.6237 25.4746L20.7477 25.7519L21.0255 25.6349C20.9229 25.9167 20.9657 26.2288 21.1452 26.4672L21.3119 26.6839L21.5342 26.97L21.782 26.7012C21.9445 26.5365 22.0727 26.3458 22.1624 26.1334L22.2138 25.96L22.0941 25.8257V25.7997L22.2308 25.5742L23.2182 25.8083L23.4404 25.8603L23.5602 25.6609L23.6243 25.5526C23.6243 25.5309 23.6243 25.5266 23.6841 25.5266H23.791C24.1286 25.5959 24.4706 25.6306 24.8125 25.6349C25.0433 25.648 25.2741 25.6219 25.4964 25.5526L26.0434 26.1854L25.7186 27.1996V27.2603C25.2314 27.2517 24.7654 27.4554 24.4364 27.8152C23.9106 27.2863 23.5388 27.23 22.1326 27.23C20.4442 27.23 19.303 26.2288 19.303 24.6293V20.7283H29.5612V24.6293ZM29.839 14.387C29.6637 14.8075 29.5697 15.2583 29.5526 15.7177V18.6391C29.1808 18.5568 28.903 18.2361 28.8773 17.8503V17.7159H28.749C28.5268 17.6986 28.3216 17.5945 28.1678 17.4341C27.9797 17.2131 27.8771 16.9357 27.8728 16.6453C27.6891 16.9487 27.7061 17.3388 27.9199 17.6249C28.0865 17.8373 28.3302 17.9803 28.5952 18.015C28.6722 18.5178 29.0696 18.9079 29.5655 18.9729V20.4033H27.7702C27.3001 20.1606 27.1035 19.5927 27.3129 19.1029L27.3813 18.9468L27.2232 18.8862C26.7103 18.7041 26.4281 18.145 26.5906 17.6162L26.6248 17.4862L26.5051 17.4298C26.0563 17.1654 25.8084 16.6496 25.8811 16.1295C25.646 16.3722 25.5861 16.7406 25.7357 17.044C25.6503 17.1438 25.5391 17.2608 25.4152 17.3908C24.9664 17.2955 24.6416 16.901 24.6244 16.4372V16.3289L24.5261 16.2898C24.2654 16.2119 24.0517 16.0298 23.9277 15.7871C23.8465 15.5877 23.8294 15.3623 23.885 15.1543C23.9705 15.1716 24.0559 15.1846 24.1414 15.1933C24.2269 15.1976 24.3167 15.1976 24.4021 15.1933C25.0946 15.1933 25.7528 14.8899 26.2144 14.3697L29.839 14.387ZM27.0693 11.431L27.7702 11.8644L27.9455 11.9684C27.5822 12.0681 27.2531 12.2675 26.9924 12.5449L26.9625 12.5709C26.9026 12.6359 26.847 12.7009 26.7915 12.7703L26.7573 12.8137C26.7017 12.883 26.6504 12.9567 26.6034 13.0347L26.5778 13.0737C26.5179 13.1604 26.4623 13.2558 26.4068 13.3511C26.0178 14.1357 25.2613 14.6601 24.4021 14.7468C23.543 14.6601 22.7865 14.1357 22.3975 13.3511C22.342 13.2558 22.2864 13.1647 22.2308 13.0737L22.1967 13.026L22.0599 12.8006L22.0214 12.753C21.9658 12.6836 21.9103 12.6186 21.8547 12.5579L21.8248 12.5275C21.5641 12.2501 21.235 12.0508 20.8717 11.9511L21.0512 11.8471L21.7564 11.4136L22.4788 10.9802L24.4065 12.0421L26.3341 11.0148L27.0693 11.431ZM26.1204 10.564L24.586 11.3833V8.05008L26.6675 7.33491L26.1204 10.564ZM24.4107 7.69901L22.1283 6.77142C22.3206 6.3033 23.2182 5.90453 24.4107 5.90453C25.6032 5.90453 26.5008 6.3033 26.6932 6.77142L24.4107 7.69901Z" fill="#222220"/>
</svg>
