<svg width="142" height="35" viewBox="0 0 142 35" fill="none" xmlns="http://www.w3.org/2000/svg">
<path d="M8.75146 22.8887C5.75171 22.8887 3.30789 20.5157 3.30789 17.6023C3.30789 14.6889 5.751 12.3152 8.75004 12.3152H9.09084V9.1001H8.75075C3.92772 9.1001 0 12.9158 0 17.6016C0 22.3182 3.92772 26.1339 8.75146 26.1339H9.09155V22.8901H8.75146V22.8887Z" fill="#FF4B5F"/>
<path fill-rule="evenodd" clip-rule="evenodd" d="M10.5137 13.6978V9.28174C14.5343 10.0624 17.5335 13.4872 17.5335 17.6024C17.5335 21.7491 14.5329 25.1726 10.5137 25.9245V21.5085H8.75068C6.52482 21.5085 4.73145 19.7653 4.73145 17.6038C4.73145 15.4409 6.52482 13.6978 8.75154 13.6978H10.5137ZM27.3982 21.447C28.3098 21.4497 29.1937 21.1421 29.9023 20.5761L31.2939 21.9296C30.2736 22.8292 28.9132 23.3706 27.3982 23.3706C24.12 23.3706 21.4917 20.7565 21.4917 17.6024C21.4917 14.4483 24.12 11.8644 27.3982 11.8644C28.8708 11.8603 30.2921 12.3962 31.387 13.3669L29.9954 14.7177C29.2776 14.0956 28.3539 13.7538 27.3982 13.7579C25.2015 13.7579 23.4398 15.4696 23.4398 17.6024C23.4398 19.7353 25.2022 21.447 27.3982 21.447ZM88.4724 17.422L92.8325 12.3155H94.5641V22.8894H92.8325V15.2591L88.4724 20.2452L84.0505 15.1388V22.8907H82.2875V12.3155H84.0505V12.3757L84.081 12.3155L88.4724 17.422ZM38.592 23.3405C41.8388 23.3405 44.4986 20.7866 44.4986 17.6024C44.4986 14.4483 41.8388 11.8644 38.592 11.8644C35.3452 11.8644 32.6863 14.4483 32.6863 17.6024C32.6863 20.7565 35.3147 23.3405 38.592 23.3405ZM38.5615 13.7579C40.7575 13.7579 42.5197 15.4696 42.5197 17.6024C42.5197 19.7353 40.7575 21.447 38.5615 21.447C36.3654 21.447 34.6033 19.7353 34.6033 17.6024C34.6033 15.4696 36.3654 13.7579 38.5615 13.7579ZM74.5876 23.3405C77.8344 23.3405 80.4941 20.7866 80.4941 17.6024C80.4941 14.4483 77.8649 11.8644 74.5876 11.8644C71.3407 11.8644 68.6812 14.4483 68.6812 17.6024C68.6812 20.7565 71.3095 23.3405 74.5876 23.3405ZM74.5876 13.7579C76.7836 13.7579 78.5458 15.4696 78.5458 17.6024C78.5458 19.7353 76.7517 21.447 74.5876 21.447C72.3915 21.447 70.6294 19.7353 70.6294 17.6024C70.6294 15.4696 72.3915 13.7579 74.5876 13.7579ZM66.2685 12.3155H68.6505L63.2695 17.6325L68.5881 22.8907H66.238L61.7537 18.4733H59.9608V22.8907H58.2291V12.3155H59.9608V16.7616H61.7856L66.2685 12.3155ZM139.651 12.3155H142L136.65 17.6325L141.938 22.8907H139.588L135.136 18.4733H133.311V22.8907H131.579V12.3155H133.311V16.7616H135.136L139.651 12.3155ZM118.314 22.8894H116.395L115.345 20.6075H109.716L108.665 22.8907H106.749L111.541 12.3155H113.52L118.314 22.8894ZM112.531 14.4784L110.49 18.9245H114.572L112.531 14.4784ZM55.0128 17.6024C55.6434 18.1739 56.0026 18.9806 56.0026 19.8255C56.0026 21.5071 54.611 22.8907 52.8787 22.9208H46.5093V12.3155H52.8787C54.5989 12.3128 55.9969 13.6841 56.0026 15.3794C56.0026 16.2503 55.6001 17.0323 55.0128 17.6024ZM52.8482 14.0286H48.2715V16.7302H52.8482C53.6213 16.7302 54.239 16.13 54.239 15.3794C54.239 14.6274 53.6213 14.0286 52.8482 14.0286ZM48.2715 21.2077H52.8482C53.6219 21.2077 54.2397 20.5761 54.2702 19.8269C54.2702 19.47 54.1187 19.1351 53.8719 18.8876C53.62 18.636 53.269 18.4747 52.8787 18.4747H48.2715V21.2077ZM127.652 16.7616V12.3456H129.415V22.8593H127.652V18.472H121.313V22.8593H119.551V12.3456H121.313V16.7616H127.652ZM102.975 16.7616C104.707 16.7616 106.129 18.1425 106.129 19.8255C106.129 21.5071 104.707 22.8907 102.974 22.9194H96.6352V12.3155H105.078V14.0272H98.3982V16.7616H102.975ZM98.3989 21.2077H102.976C103.749 21.2077 104.367 20.5761 104.367 19.8269C104.367 19.105 103.749 18.4747 102.976 18.4747H98.3989V21.2077Z" fill="#003791"/>
</svg>
