<svg width="142" height="36" viewBox="0 0 142 36" fill="none" xmlns="http://www.w3.org/2000/svg">
<path fill-rule="evenodd" clip-rule="evenodd" d="M46.8599 14.6161C47.7829 14.6161 48.5639 14.8321 49.2739 15.0481L49.4159 13.0321C48.4929 12.7441 47.7119 12.6001 46.7179 12.6001C42.8839 12.6001 39.9729 14.6881 39.9729 18.7921C39.9729 23.1841 43.2389 24.9121 46.2209 24.9121C47.1439 24.9121 48.2799 24.7681 49.3449 24.4081L49.2739 22.3201C48.6349 22.6081 47.8539 22.8241 46.7889 22.8241C44.5879 22.8241 42.6709 21.6721 42.6709 18.7201C42.5999 16.2721 44.1619 14.6161 46.8599 14.6161ZM67.9468 24.7682H70.4318V14.6882H75.1888V24.7682H77.6738V12.7442H67.9468V24.7682ZM55.0959 12.7442L58.0779 21.3842L61.0599 12.7442H65.1779V24.7682H62.7639V14.4722H62.6929L59.2139 24.7682H56.8709L53.4629 14.4722H53.3919V24.7682H50.9779V12.7442H55.0959ZM88.9628 17.3522H86.9748V14.8322H92.2998V12.7442H84.5608V24.6962H88.9628C92.4418 24.6962 93.2938 22.4642 93.2938 21.2402C93.2938 19.7282 92.5128 17.3522 88.9628 17.3522ZM88.4658 22.8242H86.9748V19.1522H88.4658C89.8148 19.1522 90.6668 19.7282 90.6668 20.9522C90.6668 22.3202 89.8858 22.8242 88.4658 22.8242ZM93.4358 24.7682L98.2638 12.7442H100.962L105.79 24.7682H103.021L102.027 22.0322H97.0568L96.0628 24.7682H93.4358ZM99.6128 15.1202L97.9088 20.0162H101.459L99.6838 15.1202H99.6128ZM114.452 17.5682H109.482V12.7442H107.068V24.7682H109.482V19.5842H114.452V24.7682H116.866V12.7442H114.452V17.5682ZM129.646 12.7442L124.605 18.2162L129.93 24.7682H126.806L122.333 18.7922H122.262V24.7682H119.848V12.7442H122.262V17.8562H122.333L126.664 12.7442H129.646Z" fill="#00528E"/>
<path d="M38.9791 4.24802C38.8371 4.03202 36.8491 5.04002 36.8491 5.04002L36.9201 4.96802C37.2751 4.68002 37.9141 4.39202 37.7011 4.10402C37.5591 3.96002 37.3461 4.03202 36.5651 4.46402C36.2101 4.68002 34.3641 5.47202 32.4471 6.33602C30.8141 7.05602 27.9741 8.28002 27.7611 8.64002C27.7611 8.64002 27.7611 8.64002 27.6901 8.71202C27.6191 8.78402 27.6191 8.85602 27.6191 8.85602C27.4771 9.07202 27.4061 9.43202 27.3351 9.86402V9.93602C27.3351 10.008 27.3351 10.008 27.3351 10.008C27.1931 10.584 27.1221 11.304 26.9801 12.096C26.6251 14.4 26.2701 18 26.2701 18C26.2701 18 26.1991 20.448 25.9861 21.6C25.9151 21.816 25.9151 21.96 25.8441 22.104C25.8441 22.176 25.7731 22.248 25.7731 22.32C25.7021 22.536 25.5601 22.752 25.4181 22.896C24.9921 23.4 23.9271 23.256 23.5721 23.184C22.8621 23.112 22.1521 22.608 22.0811 22.464C22.0101 22.32 21.5131 21.672 20.8741 21.6C20.6611 21.6 19.9511 21.744 19.6671 21.744C19.3831 21.744 19.0281 21.384 18.6731 21.312C18.3181 21.168 17.7501 21.528 17.7501 21.528C17.7501 21.528 19.3121 22.104 19.5251 22.392C19.7381 22.68 20.1641 23.328 20.7321 23.616C21.3001 23.904 23.2881 26.136 23.2881 26.136C23.2881 26.136 23.7141 26.568 24.3531 27.144C23.7851 27.36 23.1461 27.504 22.5071 27.576C17.9631 28.08 14.2001 25.128 13.7031 20.664C13.5611 19.656 13.6321 18.72 13.9161 17.856C14.2001 16.776 14.6261 15.696 15.3361 14.76C16.6851 13.032 18.5311 11.952 20.7321 11.736C22.0811 11.592 23.4301 11.808 24.6371 12.24C24.6371 12.096 24.6371 11.952 24.5661 11.808C23.3591 11.304 22.0101 11.16 20.6611 11.304C18.4601 11.592 16.4721 12.6 15.0521 14.4C14.0581 15.624 13.4191 17.064 13.2771 18.576C13.2061 18.792 13.2061 18.936 13.2061 19.224C13.1351 19.728 13.1351 20.736 13.2771 21.24C13.7741 25.704 17.8211 28.944 22.3651 28.44C23.2881 28.296 24.2111 28.08 25.0631 27.648C25.7021 28.152 26.4831 28.656 27.3351 29.016C29.4651 29.952 32.0211 30.024 32.6601 30.096C33.8671 30.24 34.9321 31.824 35.2871 32.112C35.6421 32.4 37.9141 31.896 37.9141 31.896C37.9141 31.896 37.7011 31.536 37.6301 30.96C37.5591 30.384 36.8491 30.096 36.7781 29.952C36.6361 29.808 33.7251 28.44 33.2281 28.152C32.8021 27.864 32.1631 27.216 31.5241 26.208C30.8851 25.2 31.1691 24.408 31.2401 24.192C31.3821 23.976 31.5951 23.976 31.7371 23.688C31.8791 23.4 31.8081 23.4 31.7371 23.256C31.7371 23.112 31.8081 23.04 31.8791 22.824C32.0211 22.608 31.9501 22.608 31.9501 22.608C31.9501 22.608 31.9501 22.608 32.0211 22.32C32.0921 22.032 32.0211 22.32 32.0921 22.176C32.1631 22.032 32.1631 22.032 32.1631 22.032C32.1631 22.032 32.1631 21.888 32.2341 21.816C32.3051 21.744 32.1631 21.6 32.1631 21.528C32.2341 21.384 32.2341 21.384 32.2341 21.168C32.3051 20.952 32.2341 21.024 32.3051 20.808C32.3051 20.592 32.3761 20.664 32.5181 20.52C32.6601 20.376 32.3761 20.232 32.3761 20.232C32.3761 20.232 32.3761 20.088 32.5891 19.728C32.8021 19.296 32.5891 19.728 32.6601 19.512C32.7311 19.296 32.5891 19.152 32.5181 19.008C32.4471 18.792 32.5891 18.864 32.5891 18.648C32.6601 18.432 32.5891 18.648 32.6601 18.432C32.7311 18.216 32.7311 18.144 32.7311 18.144L32.5891 17.712C32.5891 17.712 32.5891 17.712 32.6601 17.568C32.7311 17.424 32.6601 17.208 32.6601 17.208L32.4471 16.704C32.4471 16.704 32.4471 16.488 32.5181 16.344C32.5891 16.2 32.3761 15.696 32.3761 15.696L32.5181 15.192L32.3761 14.4L32.2341 13.752C32.2341 13.752 32.1631 12.744 32.1631 12.384C32.1631 12.024 32.1631 11.52 32.2341 11.088C32.3051 10.584 33.7251 9.93602 33.9381 9.64802C34.0801 9.36002 33.0861 9.72002 33.0861 9.72002C33.0861 9.72002 34.9321 9.21602 35.0741 8.92802C35.1451 8.71202 33.8671 9.00002 33.8671 9.00002C33.7251 9.07202 33.8671 9.00002 33.8671 9.00002C34.3641 8.85602 35.7131 8.56802 36.1391 8.13602C36.6361 7.70402 35.2161 7.99202 35.0031 8.06402C35.2161 7.99202 36.7781 7.56002 36.9911 7.12802C37.1331 6.84002 35.8551 7.05602 35.8551 7.05602C36.4941 6.91202 37.2751 6.69602 37.7011 6.40802C38.6241 5.97602 38.6951 5.61602 38.4821 5.47202C38.2691 5.32802 36.7781 5.90402 36.7781 5.90402C36.7071 5.90402 36.7071 5.90402 36.7071 5.97602C36.7781 5.97602 36.7781 5.90402 36.7781 5.90402C37.2041 5.76002 37.7011 5.54402 37.9851 5.32802C38.4821 5.04002 39.1921 4.53602 38.9791 4.24802ZM36.5651 5.18402C36.6361 5.11202 36.7071 5.11202 36.7781 5.04002C36.7071 5.11202 36.6361 5.11202 36.5651 5.18402Z" fill="#00528E"/>
<path d="M35.003 3.60019C34.861 3.45619 33.867 3.88819 33.867 3.88819C33.867 3.88819 28.187 6.62419 25.631 7.99219C25.063 8.28019 24.424 8.78419 24.424 9.64819C24.424 12.4562 24.992 16.7042 25.276 18.9362C25.56 21.1682 25.773 22.0322 25.702 22.1042C25.702 22.0322 25.844 21.8162 25.915 21.4562C26.128 20.3042 26.199 17.8562 26.199 17.8562C26.199 17.8562 26.554 14.2562 26.909 11.8802C27.122 10.2962 27.335 9.00019 27.69 8.49619C27.903 8.13619 32.518 6.19219 33.37 5.83219C34.364 5.40019 34.506 5.25619 34.506 4.89619C34.506 4.68019 33.441 5.04019 33.441 5.04019C33.441 5.04019 34.364 4.53619 34.719 4.32019C35.003 4.10419 35.145 3.81619 35.003 3.60019ZM15.833 14.0402L17.324 11.9522L15.478 13.7522L14.697 10.6562L14.839 13.7522L13.348 12.7442L14.697 14.1842L12.78 14.6882L14.768 14.5442L13.135 16.8482L15.052 14.9762L15.833 17.7842L15.691 14.9762L17.111 15.9122L15.691 14.4722L17.608 13.8962L15.833 14.0402Z" fill="#00A1E9"/>
</svg>
