<svg width="141" height="35" viewBox="0 0 141 35" fill="none" xmlns="http://www.w3.org/2000/svg">
<path d="M38.3184 29.8128H29.2924V26.0258H38.2985V29.8128H38.3184ZM40.1356 24.1223H27.4951V33.5999H29.2924V31.6965H40.0957V24.1223H40.1356ZM29.2924 7.09041L32.9068 3.30335V16.568H29.2924V7.09041ZM27.4951 18.4516H34.684V1.3999H32.0082L27.4951 6.13869V18.4516ZM38.3184 3.30335H41.9329V16.568H38.3184V3.30335ZM36.5212 18.4516H43.7101V1.3999H36.5212V18.4516ZM56.3107 18.4516H58.1079V1.3999H55.3921V1.41973L52.6763 4.25508V1.3999H49.9605L45.4873 6.13869V18.4516H47.2846V7.09041L50.899 3.30335V18.4516H52.6963V7.09041L56.3107 3.30335V18.4516ZM27.4951 22.2387H58.1279V20.3353H27.4951V22.2387ZM50.919 26.0258H56.3107V29.8128H50.919V26.0258ZM49.1218 29.8128H43.7101V26.0258H49.1218V29.8128ZM50.919 31.6965H58.1279V24.1223H41.9329V31.6965H49.1218V33.5999H50.919V31.6965ZM84.9265 18.1344H86.5043C87.203 18.1344 87.6225 18.6301 87.6225 19.3042C87.6225 20.018 87.203 20.4741 86.5043 20.4741H84.9265V18.1344ZM84.9265 16.6473V14.9422H88.6807V13.4551H83.3093V21.981H86.5642C88.1815 21.981 89.2002 20.8706 89.2002 19.324C89.2002 17.7775 88.2013 16.6671 86.5642 16.6671C86.584 16.6473 84.9265 16.6473 84.9265 16.6473ZM95.051 19.0663H93.034L94.0725 15.9732L95.051 19.0663ZM95.9697 21.981H97.6271L94.6915 13.4551H93.4535L90.5179 21.981H92.1753L92.6745 20.4741H95.5304L95.9697 21.981ZM103.598 21.981H105.176V13.4551H103.598V16.9447H100.862V13.4551H99.2846V21.981H100.862V18.412H103.598V21.981ZM110.986 17.4404L113.703 13.4551H111.825L109.229 17.4999V13.4551H107.652V21.981H109.229V17.5197L112.065 21.981H114.001L110.986 17.4404Z" fill="#384249"/>
<path d="M72.1265 5.02832H70.7285V29.9714H72.1265V5.02832Z" fill="#99C45A"/>
</svg>
