<svg width="142" height="35" viewBox="0 0 142 35" fill="none" xmlns="http://www.w3.org/2000/svg">
<path d="M132.765 18.34H129.874V15.54H128.394V22.68H129.874V19.6H132.765V22.68H134.245V15.47H132.765V18.34ZM124.657 15.54H122.965L120.075 22.75H121.696L122.26 21.14H125.362L125.926 22.75H127.548L124.657 15.54ZM122.683 19.81L123.741 16.94L124.798 19.81H122.683ZM142 22.68L138.828 18.76L141.859 15.47H140.026L137.418 18.55V15.47H135.937V22.68H137.418V19.04L140.167 22.68H142ZM118.947 18.9C118.524 18.48 117.96 18.27 117.396 18.2H115.845V16.8H119.017V15.54H114.364V22.68H117.396C117.678 22.68 117.96 22.61 118.242 22.54C118.524 22.47 118.735 22.26 118.947 22.05C119.158 21.84 119.299 21.63 119.44 21.35C119.581 21.07 119.581 20.79 119.581 20.51C119.581 19.88 119.299 19.32 118.947 18.9ZM117.678 21.21C117.466 21.42 117.255 21.49 116.973 21.56H115.774V19.46H116.973C117.114 19.46 117.255 19.46 117.396 19.53C117.537 19.6 117.678 19.67 117.748 19.74C117.819 19.81 117.96 19.95 117.96 20.09C118.03 20.23 118.03 20.37 118.03 20.51C118.03 20.72 117.889 21 117.678 21.21ZM30.8216 23.87H27.3671L28.9181 21.14L25.0406 14.35H28.5656L30.6101 18.34L32.5841 14.35H35.9681L30.8216 23.87ZM73.9676 23.87H69.6671C67.3406 23.87 65.4371 21.91 65.4371 19.25C65.4371 16.17 67.3406 14.35 69.6671 14.35H73.9676V16.73H71.2181C69.5966 16.73 68.6096 17.22 68.6096 19.18C68.6096 21.14 69.5261 21.56 71.2181 21.56H73.9676V23.87ZM85.1771 23.87H82.0046V17.15L78.4091 23.87H74.6021V14.35H77.7746V20.86L81.3701 14.35H85.1771V23.87ZM62.1941 14.35H58.7396L55.3556 22.26L51.9716 14.35H48.4466L44.3576 23.94H47.6711L48.3761 21.91H51.9011L52.6766 23.94H57.8936L60.4316 17.01L62.8991 23.94H66.2126L62.1941 14.35ZM49.2926 19.74L50.3501 17.01L51.3371 19.74H49.2926ZM42.7361 14.35H36.2501V23.94H39.3521V21.14H42.7361C45.9791 21.14 45.9791 18.27 45.9791 17.64C45.9791 17.01 45.9791 14.35 42.7361 14.35ZM41.6786 18.76H39.4226V16.73H41.6786C42.0311 16.73 42.9476 16.73 42.9476 17.71C42.9476 18.69 42.0311 18.76 41.6786 18.76ZM92.1566 17.92H88.9841V16.66H94.9766V14.28H85.8116V23.87H92.1566C95.4701 23.87 95.4701 21.91 95.4701 20.86C95.4701 19.81 95.4701 17.99 92.1566 17.92ZM91.5926 21.7H88.9136V20.16H91.5926C92.2976 20.16 92.2976 20.65 92.2976 20.86C92.2976 21.07 92.2976 21.7 91.5926 21.7ZM11.0816 9.52C11.2931 9.52 11.5751 9.52 11.7866 9.59L11.7161 3.08H12.4916C12.4211 5.32 12.5621 7.49 12.7736 9.73C14.6066 10.15 16.2986 11.06 17.6381 12.46C18.9776 13.86 19.8236 15.54 20.1761 17.43C20.5286 19.32 20.2466 21.21 19.4711 22.96C18.6956 24.71 17.4266 26.11 15.8051 27.16C15.7346 27.09 15.6641 26.95 15.5231 26.81C12.6326 23.17 11.9276 17.78 11.7161 13.09C12.1391 13.16 12.4916 13.23 12.9146 13.3C13.5491 17.29 15.3116 21.07 18.1316 24.01C19.1186 22.82 19.6826 21.21 19.5416 19.67C19.4711 18.06 18.7661 16.59 17.7086 15.47C16.4396 14.14 14.8886 13.16 13.1261 12.74C12.2801 12.53 11.4341 12.39 10.5881 12.39C9.74206 12.39 8.82556 12.53 7.97956 12.74C4.31356 13.65 1.56406 16.52 1.56406 19.95C1.56406 21.42 2.05756 22.82 2.97406 24.01C5.79406 21.07 7.55656 17.29 8.19106 13.3C8.61406 13.23 8.96656 13.23 9.46006 13.09C9.24856 17.85 8.54356 23.17 5.65306 26.74C5.58256 26.88 5.44156 27.02 5.37106 27.09C3.74956 26.04 2.55106 24.57 1.77556 22.82C1.00006 21.07 0.788564 19.18 1.14106 17.29C1.49356 15.4 2.41006 13.72 3.67906 12.39C4.94806 11.06 6.71056 10.08 8.54356 9.73C8.82556 4.9 8.75506 3.08 8.75506 3.08H9.53056L9.46006 9.59C9.67156 9.52 9.88306 9.45 10.0946 9.52V0H10.9406C11.0111 0 11.0111 9.52 11.0816 9.52Z" fill="#0E3263"/>
<path d="M11.0815 13.0199C11.152 17.5699 11.5045 23.1699 12.985 27.0199C13.126 27.4399 13.3375 27.8599 13.6195 28.2799C12.6325 28.5599 11.6455 28.6999 10.6585 28.7699C9.67151 28.7699 8.68451 28.6299 7.69751 28.2799C7.97951 27.7899 8.19101 27.3699 8.40251 26.8799C9.74201 23.0999 10.0945 17.4999 10.165 13.0199H11.0815ZM104.494 11.8999H105.129V26.3199H104.494V11.8999Z" fill="#0E3263"/>
</svg>
