<svg width="142" height="35" viewBox="0 0 142 35" fill="none" xmlns="http://www.w3.org/2000/svg">
<path d="M31.95 0L14.2 13.3V16.17L31.95 2.87L40.825 9.03V6.09L31.95 0Z" fill="url(#paint0_linear_5434_4217)"/>
<path d="M14.2 17.6398V20.5098L31.95 7.27984L40.825 13.3698V10.4298L31.95 4.33984L14.2 17.6398Z" fill="url(#paint1_linear_5434_4217)"/>
<path d="M14.2 21.9802V24.9202L31.95 11.6202L40.825 17.7102V14.7702L31.95 8.68018L14.2 21.9802Z" fill="url(#paint2_linear_5434_4217)"/>
<path d="M34.7901 19.1802H29.0391V24.8502H34.7901V19.1802Z" fill="#EC6608"/>
<path d="M82.1469 14.3501H82.005V12.8101H79.6619V14.3501H79.449C78.597 14.3501 77.745 14.5601 76.964 14.9801C76.254 15.4001 75.686 15.9601 75.26 16.6601C74.834 17.4301 74.6209 18.2701 74.6209 19.1101C74.6209 19.9501 74.834 20.7901 75.26 21.5601C75.686 22.2601 76.254 22.8201 76.964 23.2401C77.745 23.6601 78.597 23.8701 79.449 23.8001H79.591V25.2701H81.934V23.8001C82.573 23.8001 83.2829 23.7301 83.9219 23.5201C84.5609 23.3101 85.1289 22.9601 85.6259 22.4701C86.0519 22.0501 86.407 21.4901 86.6199 20.9301C86.833 20.3701 86.975 19.7401 86.9039 19.1101C86.9039 18.2001 86.6909 17.3601 86.2649 16.5901C85.839 15.8901 85.271 15.2601 84.5609 14.9101C83.8509 14.4901 82.9989 14.2801 82.1469 14.3501ZM78.455 16.4501C78.8099 16.3101 79.094 16.2401 79.449 16.3101H79.591V21.9101H79.52C79.1649 21.9101 78.8099 21.9101 78.455 21.7701C78.1 21.6301 77.816 21.4201 77.603 21.2101C77.106 20.6501 76.893 19.9501 76.893 19.2501C76.822 18.4801 77.106 17.7101 77.603 17.1501C77.887 16.8001 78.1709 16.5901 78.455 16.4501ZM82.005 21.8401V16.3101H82.1469C82.5019 16.3101 82.8569 16.3101 83.2119 16.4501C83.5669 16.5901 83.851 16.8001 84.0639 17.0101C84.561 17.5701 84.774 18.3401 84.703 19.1101C84.774 19.8101 84.49 20.5801 83.993 21.1401C83.78 21.4201 83.4959 21.5601 83.1409 21.7001C82.7859 21.8401 82.5019 21.9101 82.1469 21.8401H82.005ZM57.2259 15.1901H52.043V17.4301H53.96C55.096 17.3601 56.3029 17.7101 57.2259 18.4101C57.6519 18.7601 57.936 19.1101 58.149 19.6001C58.362 20.0901 58.433 20.5801 58.433 21.0701C58.433 21.5601 58.362 22.1201 58.149 22.5401C57.936 23.0301 57.6519 23.4501 57.2259 23.7301C56.3029 24.4301 55.1669 24.7801 54.031 24.7801H49.7V13.3001H57.368V15.1901H57.2259ZM52.043 19.3901V22.9601H53.96C54.528 22.9601 55.025 22.8201 55.451 22.4701C55.6639 22.3301 55.806 22.1201 55.877 21.8401C55.948 21.6301 56.019 21.3501 56.019 21.1401C56.019 20.9301 56.019 20.6501 55.877 20.4401C55.806 20.2301 55.6639 20.0201 55.451 19.8801C55.025 19.5301 54.5279 19.3901 54.031 19.3901H52.043ZM69.58 20.1601H68.16V24.8501H65.7459V20.1601H64.3259L61.77 24.8501H58.788L62.409 18.6901L59.0009 13.3001H61.983L64.61 17.9201H65.8169V13.3001H68.16V17.9201H69.3669L71.923 13.3001H74.905L71.4969 18.6201L75.118 24.7801H72.065L69.58 20.1601ZM99.1869 15.1901H94.004V17.4301H95.8499C97.0569 17.3601 98.1929 17.7101 99.1159 18.4101C99.542 18.7601 99.826 19.1101 100.039 19.6001C100.252 20.0901 100.323 20.5801 100.323 21.0701C100.323 21.5601 100.252 22.1201 100.039 22.5401C99.826 23.0301 99.542 23.4501 99.1159 23.7301C98.1929 24.4301 97.0569 24.7801 95.9209 24.7801H91.519V13.3001H99.1869V15.1901ZM93.933 19.3901V22.9601H95.8499C96.4179 22.9601 96.9149 22.8201 97.341 22.4701C97.5539 22.3301 97.6959 22.1201 97.7669 21.8401C97.8379 21.6301 97.909 21.3501 97.909 21.1401C97.909 20.9301 97.9089 20.6501 97.7669 20.4401C97.6959 20.2301 97.5539 20.0201 97.341 19.8801C96.9149 19.5301 96.4179 19.3901 95.9209 19.3901H93.933ZM106.358 24.0801C106.429 24.3601 106.5 24.5701 106.571 24.8501H108.914V24.7101C108.63 24.1501 108.559 23.5201 108.559 22.8901V19.1801C108.559 18.7601 108.488 18.3401 108.346 17.9201C108.204 17.5001 107.92 17.2201 107.636 16.9401C106.926 16.3801 106.003 16.1001 105.08 16.1701C104.441 16.1701 103.731 16.3101 103.163 16.5201C102.666 16.7301 102.169 17.0801 101.814 17.5701C101.53 17.9901 101.317 18.4801 101.317 18.9701H103.66C103.66 18.8301 103.66 18.6901 103.731 18.5501C103.802 18.4101 103.873 18.2701 104.015 18.2001C104.299 17.9901 104.583 17.9201 104.938 17.9201C105.151 17.9201 105.293 17.9201 105.435 17.9901C105.577 18.0601 105.79 18.1301 105.861 18.2701C106.074 18.5501 106.216 18.9001 106.145 19.2501V19.6001H105.08C104.015 19.5301 103.021 19.8101 102.169 20.3001C101.814 20.5101 101.53 20.8601 101.388 21.2101C101.175 21.5601 101.104 21.9801 101.175 22.4001C101.175 22.7501 101.246 23.1001 101.388 23.3801C101.53 23.7301 101.743 24.0101 102.027 24.2201C102.595 24.7101 103.376 24.9901 104.157 24.9201C104.583 24.9201 105.009 24.8501 105.364 24.7101C105.719 24.6401 106.074 24.3601 106.358 24.0801ZM105.648 23.0301C105.364 23.1701 105.009 23.2401 104.725 23.2401C104.441 23.2401 104.157 23.1701 103.873 22.9601C103.802 22.8901 103.66 22.7501 103.66 22.6101C103.589 22.4701 103.589 22.3301 103.589 22.2601V22.1201C103.66 21.3501 104.299 20.9301 105.435 20.9301H106.287V22.4001C106.145 22.6801 105.861 22.8901 105.648 23.0301ZM117.718 24.8501H115.375V21.5601H112.464V24.8501H110.121V16.2401H112.464V19.6701H115.375V16.2401H117.718V24.8501ZM121.836 21.7001H122.759L124.676 24.8501H127.729L124.605 20.3701L127.445 16.3101H124.534L122.617 19.5301H121.765V16.3101H119.422V24.8501H121.765L121.836 21.7001Z" fill="#1B3F92"/>
<defs>
<linearGradient id="paint0_linear_5434_4217" x1="40.825" y1="8.085" x2="14.1293" y2="8.085" gradientUnits="userSpaceOnUse">
<stop stop-color="#13A538"/>
<stop offset="1" stop-color="#0B4697"/>
</linearGradient>
<linearGradient id="paint1_linear_5434_4217" x1="40.825" y1="12.4248" x2="14.1293" y2="12.4248" gradientUnits="userSpaceOnUse">
<stop stop-color="#13A538"/>
<stop offset="1" stop-color="#0B4697"/>
</linearGradient>
<linearGradient id="paint2_linear_5434_4217" x1="40.825" y1="16.8002" x2="14.1293" y2="16.8002" gradientUnits="userSpaceOnUse">
<stop stop-color="#13A538"/>
<stop offset="1" stop-color="#0B4697"/>
</linearGradient>
</defs>
</svg>
