<svg width="142" height="35" viewBox="0 0 142 35" fill="none" xmlns="http://www.w3.org/2000/svg">
<path d="M51.3811 12.2656C51.4024 11.8672 51.5016 11.5854 51.6764 11.413C51.8489 11.2429 52.1088 11.1567 52.4561 11.1567H57.9612C58.6772 11.1567 59.0363 11.5271 59.0363 12.2656V22.4615C59.0363 22.5827 59.015 22.6619 58.9701 22.6945C58.9253 22.7271 58.8402 22.7434 58.7173 22.7434H57.2902C57.1792 22.7434 57.0989 22.7271 57.0469 22.6945C56.9973 22.6619 56.9713 22.5827 56.9713 22.4615V12.9271H53.2618L53.1602 14.369C53.0704 15.6037 52.9806 16.7078 52.8861 17.6792C52.7916 18.6506 52.6286 19.4938 52.3947 20.2113C52.1631 20.9311 51.8229 21.5205 51.3787 21.9817C50.9345 22.4453 50.3179 22.7947 49.5358 23.0276C49.4247 23.0486 49.3326 23.0462 49.2594 23.0183C49.1885 22.9903 49.1294 22.9158 49.0845 22.7947L48.7301 21.8163C48.7089 21.7161 48.7041 21.6346 48.723 21.5694C48.7396 21.5018 48.808 21.4413 48.9333 21.3877C49.4011 21.1873 49.7697 20.9334 50.032 20.6236C50.2942 20.3162 50.4998 19.9015 50.6439 19.3844C50.7904 18.8649 50.8991 18.2149 50.9723 17.4392C51.0455 16.6612 51.1259 15.6992 51.2157 14.5508L51.3811 12.2656Z" fill="#0039A6"/>
<path d="M68.8368 18.3574C68.8368 19.8249 68.4919 20.9524 67.8043 21.7421C67.1145 22.5294 66.089 22.9255 64.7234 22.9255C63.3695 22.9255 62.3607 22.5411 61.692 21.7747C61.0257 21.0084 60.6949 19.8855 60.6949 18.4063C60.6949 17.6796 60.7942 17.032 60.9974 16.4706C61.1982 15.9092 61.4794 15.4339 61.8361 15.0473C62.1953 14.6606 62.6206 14.3671 63.1215 14.1621C63.6177 13.9594 64.1705 13.8569 64.7754 13.8569C66.1056 13.8569 67.1168 14.2576 67.8067 15.0566C68.4943 15.8556 68.8368 16.9574 68.8368 18.3574ZM66.8404 18.4063C66.8404 18.008 66.812 17.6283 66.7482 17.2742C66.6868 16.9178 66.5805 16.6057 66.4293 16.3331C66.278 16.0605 66.0725 15.8486 65.8079 15.6925C65.5456 15.5365 65.2125 15.4596 64.8085 15.4596C64.4517 15.4596 64.1374 15.5342 63.868 15.6832C63.6011 15.8323 63.3766 16.035 63.197 16.2912C63.0175 16.5474 62.8876 16.8502 62.8025 17.2067C62.7198 17.5607 62.6773 17.9428 62.6773 18.3528C62.6773 19.2752 62.8284 19.9997 63.1285 20.5238C63.431 21.0526 63.9673 21.3158 64.7399 21.3158C65.1321 21.3158 65.4629 21.2366 65.7299 21.0736C65.9993 20.9152 66.2142 20.7008 66.3773 20.433C66.5379 20.1674 66.6561 19.8599 66.7294 19.5105C66.8026 19.1634 66.8404 18.7954 66.8404 18.4063Z" fill="#0039A6"/>
<path d="M87.2238 18.3574C87.2238 19.8249 86.8812 20.9524 86.1912 21.7421C85.5037 22.5294 84.4759 22.9255 83.1102 22.9255C81.7564 22.9255 80.7451 22.5411 80.0788 21.7747C79.4149 21.0084 79.0818 19.8855 79.0818 18.4063C79.0818 17.6796 79.1834 17.032 79.3842 16.4706C79.5851 15.9092 79.8662 15.4339 80.223 15.0473C80.5797 14.6606 81.0098 14.3671 81.5083 14.1621C82.0068 13.9594 82.5597 13.8569 83.1622 13.8569C84.4948 13.8569 85.5037 14.2576 86.1936 15.0566C86.8812 15.8556 87.2238 16.9574 87.2238 18.3574ZM85.2296 18.4063C85.2296 18.008 85.1965 17.6283 85.1375 17.2742C85.0737 16.9178 84.9673 16.6057 84.8185 16.3331C84.6673 16.0605 84.457 15.8486 84.1971 15.6925C83.9348 15.5365 83.6017 15.4596 83.2001 15.4596C82.8432 15.4596 82.5266 15.5342 82.2596 15.6832C81.9926 15.8323 81.7682 16.035 81.5886 16.2912C81.409 16.5474 81.2744 16.8502 81.1917 17.2067C81.109 17.5607 81.0665 17.9428 81.0665 18.3528C81.0665 19.2752 81.2177 19.9997 81.5177 20.5238C81.8226 21.0526 82.3566 21.3158 83.1292 21.3158C83.5214 21.3158 83.8521 21.2366 84.1215 21.0736C84.3885 20.9152 84.6035 20.7008 84.7689 20.433C84.9295 20.1674 85.0477 19.8599 85.1185 19.5105C85.1918 19.1634 85.2296 18.7954 85.2296 18.4063Z" fill="#0039A6"/>
<path d="M90.1253 22.7434C89.7661 22.7434 89.5204 22.6712 89.3857 22.5268C89.2511 22.3847 89.1825 22.1471 89.1825 21.8163V12.2819C89.1825 11.5318 89.5393 11.1567 90.2575 11.1567H96.587C96.7101 11.1567 96.788 11.1824 96.8215 11.2313C96.8565 11.2802 96.8706 11.3664 96.8706 11.4875V12.6126C96.8706 12.7222 96.8565 12.799 96.8215 12.8433C96.788 12.8875 96.7101 12.9085 96.587 12.9085H91.2475V15.4732H94.0028C94.6401 15.4732 95.1815 15.5361 95.6279 15.6642C96.0767 15.79 96.453 15.9601 96.7623 16.1697C97.0692 16.3794 97.3146 16.6147 97.5016 16.8732C97.6863 17.1318 97.8281 17.3997 97.9223 17.6769C98.0166 17.9517 98.0781 18.2173 98.1062 18.4712C98.1327 18.7251 98.149 18.9511 98.149 19.1491C98.149 19.6662 98.0454 20.1484 97.8374 20.5887C97.6317 21.029 97.3481 21.4109 96.9913 21.7301C96.6345 22.0492 96.2138 22.2962 95.7323 22.4755C95.2524 22.6526 94.7375 22.7388 94.189 22.7388H90.1253V22.7434ZM96.0175 19.0256C96.0175 18.4991 95.8476 18.0589 95.5048 17.7002C95.1628 17.3438 94.6689 17.1644 94.0192 17.1644H91.2475V20.9218H93.9857C94.3877 20.9218 94.718 20.8589 94.9759 20.7308C95.2337 20.605 95.4386 20.4489 95.5976 20.2602C95.7557 20.0739 95.8617 19.8689 95.9255 19.6429C95.9871 19.4216 96.0175 19.2143 96.0175 19.0256Z" fill="#0039A6"/>
<path d="M107.014 21.798C107.014 22.0636 106.907 22.2476 106.694 22.3431C106.447 22.4549 106.182 22.5481 105.896 22.625C105.61 22.7042 105.315 22.7624 105.015 22.8066C104.715 22.851 104.413 22.8835 104.115 22.8975C103.82 22.9162 103.536 22.9255 103.269 22.9255C102.529 22.9255 101.917 22.8486 101.431 22.7019C100.942 22.5528 100.556 22.3524 100.27 22.1055C99.9843 21.8563 99.7864 21.5651 99.675 21.2273C99.562 20.8895 99.5051 20.5354 99.5051 20.1581C99.5051 19.7737 99.5713 19.401 99.6991 19.0422C99.8261 18.6835 100.039 18.3691 100.327 18.0989C100.618 17.8286 100.999 17.6097 101.461 17.4443C101.926 17.2789 102.494 17.1973 103.165 17.1973H105.046V16.9155C105.046 16.7058 105.024 16.5125 104.98 16.3354C104.935 16.1608 104.847 16.0047 104.717 15.8719C104.589 15.7391 104.413 15.6389 104.19 15.5667C103.968 15.4945 103.676 15.4596 103.319 15.4596C102.935 15.4596 102.522 15.4922 102.075 15.5574C101.627 15.625 101.263 15.7018 100.984 15.7904C100.861 15.823 100.771 15.83 100.715 15.8067C100.658 15.7857 100.62 15.7251 100.599 15.625L100.365 14.6839C100.32 14.5068 100.37 14.3927 100.514 14.3368C100.984 14.1621 101.499 14.0363 102.059 13.9641C102.619 13.8942 103.146 13.8569 103.637 13.8569C104.802 13.8569 105.655 14.1109 106.196 14.6187C106.742 15.1265 107.012 15.8649 107.012 16.8363V21.798H107.014ZM105.031 18.6719H103.42C103.231 18.6719 103.023 18.6835 102.806 18.7045C102.589 18.7278 102.381 18.7884 102.184 18.8862C101.988 18.984 101.825 19.1285 101.697 19.3171C101.57 19.5059 101.504 19.7644 101.504 20.0952C101.504 20.5704 101.667 20.9012 101.988 21.0875C102.314 21.2762 102.745 21.3694 103.281 21.3694C103.361 21.3694 103.468 21.3671 103.607 21.3601C103.746 21.3531 103.895 21.3414 104.053 21.3181C104.209 21.2949 104.374 21.2692 104.547 21.2343C104.719 21.2017 104.88 21.1574 105.026 21.1038V18.6719H105.031Z" fill="#0039A6"/>
<path d="M111.059 22.6847C111.002 22.722 110.908 22.7429 110.775 22.7429H109.561C109.438 22.7429 109.348 22.7196 109.287 22.6754C109.227 22.6312 109.195 22.5426 109.195 22.4122V14.3686C109.195 14.2475 109.225 14.1636 109.287 14.1194C109.348 14.0751 109.44 14.0518 109.561 14.0518H110.775C110.908 14.0518 111.002 14.0727 111.059 14.11C111.116 14.1473 111.141 14.2335 111.141 14.3662V17.3107H114.853V14.3686C114.853 14.2475 114.884 14.1636 114.946 14.1194C115.004 14.0751 115.097 14.0518 115.222 14.0518H116.445C116.592 14.0518 116.687 14.0727 116.731 14.11C116.777 14.1473 116.8 14.2335 116.8 14.3662V22.4099C116.8 22.5543 116.777 22.6451 116.731 22.6824C116.687 22.7196 116.592 22.7406 116.445 22.7406H115.222C115.097 22.7406 115.004 22.7173 114.946 22.6731C114.882 22.6288 114.853 22.5403 114.853 22.4099V18.8854H111.141V22.4099C111.141 22.5566 111.116 22.6474 111.059 22.6847Z" fill="#0039A6"/>
<path d="M127.052 22.4378L124.207 18.1353L126.771 14.3826C126.818 14.3267 126.827 14.2498 126.799 14.1846C126.771 14.1194 126.703 14.0751 126.632 14.0751H124.89C124.836 14.0751 124.786 14.0984 124.751 14.1403L122.499 17.3456H120.911V14.3174C120.911 14.1962 120.89 14.1194 120.845 14.0937C120.801 14.0657 120.723 14.0518 120.609 14.0518H119.265C119.163 14.0518 119.09 14.0657 119.037 14.0937C118.988 14.1194 118.962 14.1939 118.962 14.3174V22.4774C118.962 22.5985 118.988 22.6707 119.037 22.701C119.087 22.7266 119.163 22.7429 119.265 22.7429H120.609C120.723 22.7429 120.801 22.7289 120.845 22.701C120.89 22.6731 120.911 22.5985 120.911 22.4774V18.8528H122.391L124.976 22.6754C125.013 22.7173 125.063 22.7453 125.12 22.7453H126.91C126.983 22.7453 127.05 22.7034 127.081 22.6382C127.109 22.5706 127.099 22.4937 127.052 22.4378Z" fill="#0039A6"/>
<path d="M78.588 22.4378L75.7409 18.1353L78.3021 14.3826C78.3518 14.3267 78.3635 14.2498 78.3305 14.1846C78.3021 14.1194 78.236 14.0751 78.1627 14.0751H76.4238C76.3694 14.0751 76.3174 14.0984 76.2843 14.1403L74.0303 17.3456H72.445V14.3174C72.445 14.1962 72.4214 14.1194 72.3764 14.0937C72.3315 14.0657 72.2535 14.0518 72.1425 14.0518H70.8005C70.6989 14.0518 70.6233 14.0657 70.5737 14.0937C70.5241 14.1194 70.498 14.1939 70.498 14.3174V22.4774C70.498 22.5985 70.5241 22.6707 70.5737 22.701C70.6233 22.7266 70.6989 22.7429 70.8005 22.7429H72.1425C72.256 22.7429 72.3339 22.7289 72.3764 22.701C72.4214 22.6731 72.445 22.5985 72.445 22.4774V18.8528H73.924L76.5112 22.6754C76.5466 22.7173 76.5986 22.7453 76.6553 22.7453H78.4463C78.5172 22.7453 78.5833 22.7034 78.614 22.6382C78.6399 22.5706 78.6329 22.4937 78.588 22.4378Z" fill="#0039A6"/>
<path d="M35.2246 30.0999H20.1552C17.2632 30.0999 14.9099 27.7798 14.9099 24.9285V10.0713C14.9099 7.22003 17.2632 4.8999 20.1552 4.8999H35.2246C38.1166 4.8999 40.4675 7.22003 40.4675 10.0713V24.9285C40.4699 27.7798 38.1166 30.0999 35.2246 30.0999ZM20.1552 5.26563C17.4664 5.26563 15.2809 7.42036 15.2809 10.0713V24.9285C15.2809 27.5771 17.4664 29.7318 20.1552 29.7318H35.2246C37.911 29.7318 40.0966 27.5748 40.0966 24.9285V10.0713C40.0966 7.42036 37.911 5.26563 35.2246 5.26563H20.1552Z" fill="#0039A6"/>
<path d="M26.3717 8.56865C26.7616 8.34502 27.1869 8.23321 27.6098 8.21924C26.7237 8.24486 25.8732 8.70842 25.3983 9.5214L17.7525 22.5733C17.0224 23.8219 17.4571 25.4153 18.7212 26.135C19.9853 26.8548 21.6037 26.4285 22.3315 25.1823L27.6901 16.0322L25.4054 12.1304C24.6753 10.8818 25.1077 9.28845 26.3717 8.56865Z" fill="#00A1DE"/>
<path d="M37.6275 22.5739L29.9841 9.52433C29.5068 8.71135 28.6562 8.24779 27.7702 8.22217C28.1908 8.23381 28.6161 8.34795 29.0059 8.57159C30.27 9.29138 30.7047 10.8847 29.9722 12.131L27.6875 16.0328L33.0461 25.1829C33.7762 26.4291 35.3923 26.8554 36.6564 26.1356C37.9252 25.4158 38.3576 23.8225 37.6275 22.5739Z" fill="#0039A6"/>
<path d="M29.0087 8.56865C28.6188 8.34502 28.1935 8.23321 27.773 8.21924H27.7565H27.6265H27.6123C27.1894 8.23088 26.7664 8.34502 26.3742 8.56865C25.1102 9.28845 24.6778 10.8818 25.4079 12.128L27.6927 16.0299L29.9774 12.128C30.7051 10.8818 30.2727 9.28845 29.0087 8.56865Z" fill="#002C77"/>
<path d="M30.4116 23.8945C30.4116 25.3784 29.1948 26.5757 27.6921 26.5757C26.1894 26.5757 24.9702 25.376 24.9702 23.8945C24.9702 22.4153 26.1871 21.2134 27.6897 21.2134C29.1924 21.2134 30.4116 22.4153 30.4116 23.8945Z" fill="#EEAF30"/>
</svg>
