<svg width="141" height="36" viewBox="0 0 141 36" fill="none" xmlns="http://www.w3.org/2000/svg">
<path fill-rule="evenodd" clip-rule="evenodd" d="M14.1001 5.75977H38.1293V30.3002H14.1001V5.75977ZM47.9222 23.3995H43.443V30.4469H46.1305C46.6709 30.4909 47.2132 30.3881 47.7021 30.1489C47.9982 29.9689 48.2393 29.7082 48.3983 29.396C48.5515 29.0868 48.6288 28.7441 48.6235 28.3975C48.6339 27.991 48.5213 27.5912 48.301 27.2525C48.0973 26.9338 47.7915 26.6972 47.4359 26.5834C46.9633 26.4468 46.473 26.3851 45.9821 26.4004H44.3388V24.2307H47.9222V23.3995ZM46.1817 29.6731H44.3593V27.195H45.5776C46.0083 27.1854 46.4388 27.2204 46.8625 27.2996C47.101 27.3606 47.3099 27.5072 47.4512 27.7126C47.5965 27.9272 47.6701 28.1839 47.6611 28.4445C47.6737 28.6166 47.6469 28.7893 47.583 28.9489C47.519 29.1086 47.4196 29.2509 47.2926 29.3647C46.9683 29.5955 46.5758 29.7045 46.1817 29.6731ZM56.7322 23.4204L54.0856 30.4678L55.0532 30.4207L55.7852 28.3295H58.7133L59.517 30.4678H60.5409L57.7202 23.4204H56.7322ZM58.4164 27.5505H56.077L57.2134 24.1628L58.4164 27.5505ZM66.5968 23.3995V30.4469H67.5131V27.1218H71.0965V30.4469H72.0128V23.3995H71.0965V26.2906H67.5131V23.3995H66.5968ZM79.7581 23.3995H78.8469L78.8008 30.4469H79.712V27.148C80.0144 27.1375 80.3098 27.2418 80.5413 27.4408C80.8519 27.7675 81.1187 28.135 81.3348 28.5334L82.4917 30.4469H83.6025L82.1845 28.0995C81.914 27.5332 81.4522 27.0857 80.8843 26.8395C81.0949 26.7504 81.2888 26.6248 81.4576 26.4683C81.719 26.1313 81.9185 25.7487 82.0463 25.3391C82.1597 25.0027 82.3333 24.6907 82.5582 24.4189C82.6463 24.3391 82.7493 24.2784 82.8611 24.2407C82.9729 24.2029 83.0911 24.1889 83.2084 24.1994H83.5821V23.3942C83.3979 23.3838 83.2133 23.3838 83.0292 23.3942C82.7644 23.3893 82.5029 23.456 82.2716 23.5877C82.0671 23.7059 81.892 23.8705 81.7596 24.0687C81.5752 24.38 81.4176 24.7071 81.2887 25.0463C81.1343 25.4759 80.915 25.8781 80.6386 26.2383C80.3842 26.4271 80.0711 26.5144 79.7581 26.484V23.3995ZM60.495 15.5622V13.471H64.964V10.606H60.495V8.771H65.7012V5.78578H57.229V18.5474H65.865V15.5622H60.495ZM46.069 5.75977H54.8279V15.5624H56.0769V20.9211H53.328V18.5476H46.3506V20.9211H43.5965V15.5624H44.5077C45.0717 14.6173 45.4798 13.5841 45.7158 12.5039C45.9662 11.3189 46.0847 10.1088 46.069 8.89659V5.75977ZM48.086 15.5624H51.5619V8.76589H49.1661V9.90038C49.1765 11.0727 49.0685 12.243 48.8436 13.3927C48.6899 14.148 48.4349 14.8781 48.086 15.5624ZM122.457 5.78578H119.339L114.911 18.5265H118.366L119.073 16.2785H122.707L123.429 18.5474H126.9L122.457 5.78578ZM119.897 13.586L120.921 10.2924H120.952L121.975 13.586H119.897ZM97.342 5.78578H100.454L104.923 18.5474H101.453L100.731 16.2785H97.0962L96.3847 18.5474H90.0574L86.986 13.722V18.5422H83.72V13.7167L80.6485 18.5422H76.6709L81.4112 11.7458L76.7579 5.78578H80.6843L83.72 10.1303V5.78578H86.9706V10.1303L89.9909 5.79101H93.9224L89.264 11.751L93.2774 17.5018L97.342 5.78578ZM98.9033 10.2924L97.8488 13.6017L99.9271 13.586L98.9033 10.2924ZM75.8674 6.68493C74.9407 6.04568 73.8361 5.73019 72.7191 5.7857H67.8508V18.5421H71.1066V14.3597H72.6423C73.6205 14.3965 74.5915 14.1769 75.463 13.7219C76.451 13.1468 77.2547 12.0437 77.2547 10.01C77.2547 8.40495 76.7172 7.32797 75.8674 6.68493ZM73.4307 11.066C73.0709 11.3129 72.6388 11.4255 72.2072 11.3849H71.1271V8.77092H72.2072H72.2789C72.7908 8.77092 73.8146 8.77092 73.8146 10.0361C73.8301 10.2262 73.8036 10.4174 73.7372 10.5956C73.6707 10.7738 73.566 10.9346 73.4307 11.066ZM114.89 13.8997C114.957 14.1981 114.988 14.5035 114.983 14.8094L114.972 14.8355C114.972 16.4353 114.332 17.3816 113.437 17.9044C112.483 18.382 111.426 18.6033 110.365 18.5474H105.389V5.78578H110.652C112.228 5.78578 113.17 6.27722 113.723 6.94641C114.212 7.58305 114.464 8.37573 114.435 9.18401C114.46 9.85116 114.251 10.5056 113.846 11.0295C113.638 11.2905 113.385 11.5102 113.099 11.6778C113.764 11.9675 114.308 12.4878 114.634 13.1469C114.748 13.3869 114.834 13.6396 114.89 13.8997ZM109.997 8.771H108.66L108.65 10.559H110.109C110.259 10.5715 110.409 10.5487 110.548 10.4925C110.687 10.4363 110.812 10.3482 110.913 10.2348C111.042 10.0602 111.112 9.84731 111.113 9.62839C111.122 9.42471 111.052 9.22555 110.918 9.07422C110.794 8.96043 110.648 8.87462 110.489 8.82237C110.33 8.77013 110.162 8.75262 109.997 8.771ZM110.421 15.5622C110.681 15.5612 110.935 15.4851 111.153 15.3426C111.289 15.2534 111.4 15.129 111.474 14.9821C111.547 14.8352 111.582 14.671 111.573 14.5062C111.591 14.3413 111.564 14.1747 111.496 14.0244C111.427 13.8741 111.319 13.746 111.184 13.654C110.84 13.4855 110.459 13.4099 110.078 13.4344H108.66V15.5622H110.421Z" fill="#6A2538"/>
<path d="M26.0736 29.0877C28.4285 29.0841 30.6955 28.1734 32.4216 26.5375C34.1478 24.9016 35.2062 22.6608 35.3853 20.2627H16.7568C16.9337 22.6626 17.9921 24.9055 19.7198 26.5421C21.4476 28.1786 23.7171 29.0879 26.0736 29.0877ZM31.7866 22.8715C31.2129 23.9032 30.3817 24.7611 29.3777 25.358C28.3737 25.9548 27.2328 26.2692 26.0711 26.2692C24.9094 26.2692 23.7684 25.9548 22.7644 25.358C21.7604 24.7611 20.9293 23.9032 20.3556 22.8715H31.7866ZM25.5668 7.04102H23.0073V10.0158C21.1746 10.6665 19.586 11.8841 18.4622 13.4994C17.3383 15.1147 16.7351 17.0474 16.7363 19.0289V19.1492H25.5668V7.04102ZM23.0073 16.5195H19.9716C20.5546 15.043 21.6298 13.8246 23.0073 13.0794V16.5195ZM35.3853 19.0289C35.3865 17.0474 34.7833 15.1147 33.6595 13.4994C32.5357 11.8841 30.947 10.6665 29.1144 10.0158V7.04102H26.5548V19.1544H35.3853V19.0289ZM29.1144 16.5299V13.0794C30.4961 13.8255 31.5737 15.0483 32.1551 16.5299H29.1144Z" fill="white"/>
</svg>
