<svg width="142" height="35" viewBox="0 0 142 35" fill="none" xmlns="http://www.w3.org/2000/svg">
<path d="M92.5485 34.9162H40.47L45.1915 19.6982H97.27L92.5485 34.9162Z" fill="#00B2C3"/>
<path d="M62.686 13.993V4.473H66.9318V7.623H68.8843V4.473H73.123V13.993H68.8843V10.836H66.9318V13.993H62.686ZM83.6878 8.694L85.2995 4.473H81.1602L79.868 7.623H79.1154V4.473H74.8696V13.993H79.1154V10.836H80.1236L81.4158 13.993H85.6545L83.6878 8.694ZM93.1805 5.523C92.6643 5.50611 92.1503 5.59788 91.6724 5.79221C91.1953 5.98655 90.7651 6.27897 90.4115 6.65C90.4413 6.22051 90.589 5.80711 90.8389 5.45434C91.0895 5.10156 91.4325 4.82277 91.8315 4.648C93.2515 4.053 94.8987 4.466 96.0915 3.465V0C95.1742 0.319988 94.2199 0.526892 93.2515 0.616C91.818 0.764358 90.4349 1.21817 89.1974 1.946C87.4721 3.017 86.2438 4.746 86.2438 8.337C86.2438 12.985 88.9702 14.294 91.7818 14.294C94.5934 14.294 97.0216 12.894 97.0216 9.863C97.0216 6.937 95.2537 5.53 93.1663 5.53L93.1805 5.523ZM91.6398 11.088C90.6174 11.088 90.376 10.297 90.376 9.688C90.376 9.079 90.6174 8.288 91.6398 8.288C92.6622 8.288 92.8823 9.058 92.8823 9.688C92.8823 10.318 92.6409 11.088 91.6398 11.088ZM61.2163 9.233C61.2163 6.895 60.1513 4.683 57.7089 4.235L57.5101 4.2C57.3681 4.2 57.219 4.165 57.0699 4.158H56.4948C55.7894 4.19005 55.1065 4.41285 54.521 4.802C54.1909 5.02328 53.8965 5.29229 53.6477 5.6L53.2501 4.473H49.9131V17.773H54.1731V13.412C54.5013 13.6961 54.8822 13.9148 55.2949 14.056C55.778 14.2339 56.2917 14.3172 56.8072 14.301C59.8886 14.301 61.2305 11.844 61.2305 9.226L61.2163 9.233ZM55.3801 10.955C55.1275 10.9585 54.8785 10.8954 54.6588 10.7724C54.4391 10.6493 54.2568 10.4707 54.1305 10.255V8.155C54.2611 7.94304 54.4444 7.76755 54.6631 7.64505C54.8817 7.52255 55.1285 7.4571 55.3801 7.455C56.4025 7.455 56.8498 8.33 56.8498 9.177C56.8567 9.28186 56.8567 9.38714 56.8498 9.492C56.8391 9.85999 56.686 10.2099 56.422 10.4703C56.158 10.7305 55.803 10.8814 55.4298 10.892" fill="#2C384A"/>
</svg>
