<svg width="142" height="35" viewBox="0 0 142 35" fill="none" xmlns="http://www.w3.org/2000/svg">
<path d="M120.697 11.938H123.085L123.073 15.7381H123.59L124.949 11.938H127.533L125.68 16.9618L127.8 22.5244H125.003L123.625 18.2675H123.061L123.073 22.5244H120.685V11.938H120.697ZM112.65 11.938H115.026V15.7556H116.724V11.938H119.093V22.5244H116.724V18.2793H115.026V22.5244H112.65V11.938ZM104.377 22.5419H106.847L107.145 20.7092H108.843L109.14 22.5419H111.611L109.532 11.9556H106.467L104.377 22.5419ZM107.999 15.1642L108.451 18.3846H107.537L107.999 15.1642ZM97.7492 22.5244H100.641C101.271 22.5244 103.902 22.255 103.913 19.0463C103.913 16.3529 101.876 15.8844 100.558 15.8844H100.125V14.4792H103.343V11.938H97.7549L97.7492 22.5244ZM100.118 20.3989V18.004H100.469C100.766 18.004 101.52 18.0157 101.52 19.1107C101.52 20.2174 100.76 20.3989 100.469 20.3989H100.118ZM88.324 11.938H90.3908L92.214 14.4382L94.0551 11.938H96.1041V22.5244H93.6752V16.0718L92.214 17.9162L90.7529 16.0718V22.5244H88.324V11.938ZM83.3057 22.6532C86.1861 22.6532 87.1539 19.9246 87.1539 17.2194C87.1539 14.5143 86.1861 11.7857 83.3057 11.7857C80.4252 11.7857 79.4568 14.5085 79.4568 17.2194C79.4568 19.9304 80.4309 22.6532 83.3057 22.6532ZM83.3057 20.0827C82.4501 20.0827 82.0106 19.0756 82.0106 17.2194C82.0106 15.3633 82.4444 14.3503 83.3057 14.3503C84.1669 14.3503 84.5943 15.3575 84.5943 17.2194C84.5943 19.0814 84.1669 20.0885 83.3057 20.0827ZM72.4256 22.5244H74.8545V19.0346H75.6682C78.0673 19.0346 78.8156 16.8506 78.8156 15.457C78.8156 14.0986 77.9608 11.938 75.6682 11.938H72.4256V22.5244ZM74.8545 14.2684H75.4304C75.9771 14.2684 76.3271 14.608 76.3271 15.4863C76.3271 16.6222 75.7335 16.7041 75.4304 16.7041H74.8545V14.2684ZM64.4019 11.938H71.0298V22.5244H68.6007V14.4968H66.8309V22.5244H64.4019V11.938ZM59.4191 16.0425C59.8111 16.0425 60.5297 15.7849 60.5297 15.0062C60.5297 14.0868 59.7041 14.0283 59.4607 14.0283C59.1815 14.0283 58.647 14.0752 58.1244 14.3269L58.0947 12.0258C58.9202 11.815 59.5141 11.7565 60.2149 11.7565C62.2104 11.7565 63.0953 13.1617 63.0953 14.5377C63.0953 15.8728 62.3351 16.6808 61.5927 16.9911V17.0906C62.3113 17.319 63.2616 18.0157 63.2616 19.6318C63.2616 21.6343 61.8838 22.741 60.114 22.741C59.1756 22.7293 58.552 22.6005 57.8096 22.1906L57.8512 19.989C58.5402 20.2876 59.0034 20.3169 59.4666 20.3169C60.2506 20.3169 60.5593 19.7314 60.5593 19.3098C60.5593 18.7125 60.1793 18.3144 59.3538 18.3144H58.3679V16.0425H59.4191ZM49.8693 22.5244H52.328L52.6368 20.6916H54.3353L54.6323 22.5244H57.0911L55.0124 11.938H51.9538C51.9479 11.938 49.8693 22.5244 49.8693 22.5244ZM53.4742 15.135L53.9374 18.3671H53.011L53.4742 15.135ZM45.1656 11.938H50.1484V14.5787H47.6363V22.5244H45.1656V11.938ZM14.8176 17.3541C14.8176 23.8652 20.0736 29.1701 26.5351 29.1701C32.9848 29.1701 38.2348 23.8652 38.2348 17.3541C38.2348 10.8313 32.9848 5.52642 26.5351 5.52642C20.0676 5.52056 14.8176 10.8255 14.8176 17.3541ZM14.2 17.3541C14.2 10.4858 19.7291 4.8999 26.5351 4.8999C33.3233 4.8999 38.8525 10.48 38.8525 17.3541C38.8525 24.2107 33.3233 29.7907 26.5351 29.7907C19.7291 29.7907 14.2 24.2107 14.2 17.3541Z" fill="#0D356C"/>
<path d="M22.8529 9.49057C22.4253 9.67796 22.0214 9.91218 21.6473 10.1815C24.5811 8.86407 28.1623 8.94604 30.0865 9.81264C30.6923 10.0937 31.0961 10.2693 31.2802 10.609C29.2848 10.0702 28.4296 9.9707 26.7607 10.0117C24.3851 10.0527 21.2256 11.0012 20.02 11.7273L19.4855 12.4007C21.2256 11.3643 24.4683 10.6851 26.2678 10.6265C28.2752 10.5973 29.8371 10.7846 31.2684 11.3057C31.1852 11.6746 31.0011 11.8562 30.6923 12.0435C24.9612 11.0364 21.576 12.225 18.5175 14.2392L18.2918 14.9068C21.7067 12.5412 25.8877 11.8854 29.9202 12.5939C28.4771 13.1033 26.7488 13.2204 25.2998 13.5541C24.0644 13.8411 23.4052 13.923 21.7601 14.4793C20.0913 15.0297 19.1054 15.5977 18.4877 16.3237C18.1908 16.6633 17.9652 17.0615 17.9117 17.4889C17.8879 17.7407 17.8998 17.9749 17.9829 18.1974C18.0483 18.3965 18.2086 18.5955 18.3749 18.7946C18.179 19.1343 18.0067 19.5734 18.2918 20.0886C18.4165 20.3287 18.7431 20.5688 19.052 20.7972L18.9629 21.0489C18.9213 21.3475 18.8797 21.7047 19.0758 21.9975C19.4083 22.5362 19.8181 22.8933 20.4654 23.233C20.5664 23.6721 20.7149 24.0293 21.0534 24.3396C21.772 25.0071 23.3696 26.2836 26.2203 26.4827C28.3583 26.6231 29.8846 25.9733 30.4607 25.6863L31.1614 25.3174C29.9677 25.7976 27.9603 26.0845 26.3153 25.9381C23.9278 25.739 21.7958 24.164 21.5285 23.7072C21.6117 23.7658 21.7245 23.8068 21.8195 23.8478C24.6167 25.212 28.2217 25.9498 32.8481 24.0469L33.2282 23.678C29.0234 24.9954 25.3473 24.9544 21.3978 22.87C21.4394 22.6709 21.5285 22.4952 21.7067 22.3605C22.7163 22.8114 23.6903 23.1861 24.8662 23.4203C26.244 23.678 27.8178 23.7365 29.1066 23.678C30.4132 23.6194 32.9966 22.9695 34.22 22.3137C34.3329 22.2141 34.3863 22.0443 34.4992 21.9331C32.1117 22.8114 29.2728 23.2212 27.5625 23.0924C25.8877 22.9636 24.403 22.7645 22.4372 21.857C22.8172 21.7047 23.2092 21.5759 23.6012 21.4588C24.8959 21.857 26.2143 22.097 27.7703 22.1673C29.3145 22.2376 32.9253 21.6579 35.1999 20.2702C35.2712 20.0711 35.3425 19.8544 35.3425 19.8544C35.3425 19.8544 32.1829 21.5584 28.6018 21.5584C26.927 21.5584 25.9055 21.3183 25.1453 21.1309C26.8319 20.8206 28.9521 20.563 31.3397 19.954C32.5452 19.6437 34.0359 18.9293 34.7129 18.3379C35.289 17.811 35.7404 17.1318 35.586 16.435C35.5563 16.2476 35.3069 15.8084 34.992 15.6562C35.289 15.2756 35.2594 14.9477 35.2177 14.6667C35.1881 14.45 35.0871 14.21 34.9683 13.9991C34.7724 13.7415 34.5882 13.5425 34.2081 13.3141C34.2676 13.0155 34.2259 12.711 34.0953 12.4358C33.7983 11.9264 33.2698 11.4873 32.3552 11.0188C32.3136 10.8314 32.2007 10.5914 32.0048 10.3513C30.8527 9.20371 28.97 8.64742 27.3843 8.61816H27.123C25.27 8.63573 23.7794 9.05727 22.8529 9.49057ZM31.8445 12.3304C31.987 12.1723 32.1949 11.9322 32.2483 11.7332C32.6462 11.9908 33.0916 12.3714 33.145 12.7696C32.7293 12.6115 32.278 12.4416 31.8445 12.3304ZM32.1949 14.0577C31.5238 13.8703 30.9298 13.6479 30.1459 13.5073C30.627 13.3199 30.9477 13.1267 31.2268 12.8984C31.8563 13.0682 32.4443 13.279 32.9253 13.4956C32.8422 13.6185 32.3611 14.0694 32.2127 14.0694C32.2067 14.0636 32.2007 14.0636 32.1949 14.0577ZM33.4183 14.5554C33.6024 14.4149 33.7686 14.2568 33.9231 14.0753C34.3031 14.4032 34.416 14.6257 34.2319 14.9828C33.9765 14.7955 33.7093 14.6959 33.4183 14.5554ZM18.9925 18.0745C17.9532 16.6282 21.5582 15.5918 22.2471 15.381C23.9991 14.854 26.054 14.4618 27.9069 14.2334C29.1838 14.0753 29.8608 14.2217 31.0664 14.5437C27.9603 15.381 24.8959 15.6504 21.9799 16.517C19.6281 17.202 19.0045 18.0745 18.9925 18.0745ZM19.7647 18.7712C20.8633 17.8344 23.0964 17.3074 23.91 17.1259C26.5053 16.5579 28.9225 16.2008 29.9202 15.949C31.1258 15.6504 31.9691 15.3693 32.5571 15.0824C32.5868 15.0414 33.543 15.5098 33.638 15.6211C33.3173 15.8904 32.8659 16.1188 32.373 16.2886C30.9002 16.8273 28.2157 17.3953 26.7964 17.6119C25.3651 17.8519 24.1654 18.0334 22.5856 18.4609C21.671 18.7068 21.0534 18.9879 20.602 19.2865C20.2695 19.0816 20.0734 19.023 19.7647 18.7712ZM21.8017 19.9071C22.2649 19.7081 22.7697 19.55 23.2567 19.427C25.7273 18.8122 27.9069 18.701 30.912 17.8812C32.3552 17.4948 33.4123 17.0849 34.0715 16.5755C34.1666 16.4876 34.2676 16.4174 34.3685 16.3355C35.2415 17.6997 31.9691 18.7478 29.7302 19.2338C28.5602 19.468 27.3902 19.6905 26.2203 19.9013C24.7593 20.1414 24.2842 20.2702 23.2686 20.5688C22.7697 20.358 22.2649 20.1472 21.8017 19.9071ZM19.1708 19.4797C19.3964 19.6261 19.5627 19.7373 19.83 19.8779C19.729 19.9657 19.6043 20.0477 19.5093 20.1472C19.2895 20.0184 19.0638 19.7373 19.1708 19.4797ZM20.3407 20.7854C20.4833 20.6566 20.6614 20.5336 20.8574 20.4048C21.2791 20.6039 21.7126 20.7854 22.1224 20.9728C21.8492 21.0724 21.5879 21.2012 21.3385 21.3593C20.9999 21.166 20.6674 20.9787 20.3407 20.7854ZM19.9725 21.4764C20.2101 21.6345 20.4476 21.7633 20.6911 21.8862C20.5901 22.0267 20.5189 22.138 20.4833 22.2844C20.1269 21.9917 19.9606 21.7516 19.9725 21.4764Z" fill="#0D356C"/>
</svg>
