<svg width="142" height="35" viewBox="0 0 142 35" fill="none" xmlns="http://www.w3.org/2000/svg">
<path d="M35.5 0H70.29V34.3H35.5V0Z" fill="#15008F"/>
<path d="M72.5194 0H107.309V34.3H72.5194V0Z" fill="#DD002E"/>
<path d="M46.0932 11.0812C46.514 11.8721 47.1479 12.5334 47.925 12.9922C48.0912 13.0952 48.2139 13.2541 48.27 13.4396C48.3262 13.625 48.3121 13.8242 48.2303 14.0002C48.0315 14.4972 47.641 15.2182 47.8327 15.5192C48.0907 15.702 48.3944 15.8117 48.7111 15.8364C49.0277 15.8611 49.3452 15.7998 49.629 15.6592C49.7474 15.9137 49.8802 16.1614 50.0266 16.4012C49.9607 16.4744 49.8722 16.5244 49.7748 16.5433C49.6773 16.5623 49.5763 16.5493 49.487 16.5062C49.5776 16.5843 49.6337 16.6942 49.6434 16.8125C49.653 16.9308 49.6153 17.0481 49.5384 17.1394C49.4615 17.2307 49.3516 17.2888 49.2319 17.3013C49.1122 17.3137 48.9923 17.2796 48.8977 17.2062C48.8313 17.1557 48.7821 17.0864 48.7568 17.0076C48.7314 16.9288 48.731 16.8442 48.7557 16.7652C48.6264 16.9637 48.4379 17.1177 48.2161 17.2062C48.0976 17.1184 48.0099 16.9963 47.9654 16.857C47.9208 16.7177 47.9216 16.5681 47.9676 16.4292C47.8693 16.6003 47.7323 16.7467 47.5673 16.8571C47.4023 16.9676 47.2138 17.0391 47.0162 17.0662C46.8952 16.8889 46.8397 16.676 46.8591 16.4631C46.8785 16.2502 46.9716 16.0504 47.1227 15.8972C46.9751 16.0059 46.8018 16.0758 46.6193 16.1003C46.4367 16.1248 46.2508 16.1031 46.079 16.0372C46.079 16.0372 45.9725 15.7012 46.5831 15.2042C46.3823 15.1971 46.1865 15.1402 46.014 15.0387C45.8415 14.9371 45.6978 14.7941 45.5962 14.6232C45.7399 14.5051 45.9068 14.4175 46.0863 14.3657C46.2659 14.3139 46.4543 14.2991 46.6399 14.3222C46.426 14.2561 46.2344 14.1339 46.0856 13.9687C45.9367 13.8034 45.8363 13.6014 45.795 13.3842C45.9978 13.294 46.2229 13.2646 46.4426 13.2994C46.6622 13.3342 46.8666 13.4319 47.0304 13.5802C46.9008 13.3985 46.7507 13.2317 46.5831 13.0832C46.3402 12.8125 46.1691 12.4867 46.0849 12.135C46.0006 11.7832 46.0059 11.4164 46.1003 11.0672L46.0932 11.0812ZM48.8835 19.1032C48.7741 18.9909 48.6895 18.8574 48.635 18.7112C48.7415 19.6842 48.777 20.3212 49.345 20.9582C49.5546 20.5205 49.5926 20.0218 49.4515 19.5582C49.3533 19.5044 49.2513 19.4575 49.1462 19.4182C49.2188 19.6898 49.2381 19.9725 49.203 20.2512C49.0426 19.891 48.9397 19.5084 48.8977 19.1172L48.8835 19.1032ZM48.0031 19.0122C47.8937 18.8999 47.8091 18.7664 47.7546 18.6202C47.6978 19.2012 47.5558 20.6712 48.0599 21.1192C48.0599 21.1192 48.4007 20.8742 48.5072 18.7112C48.4007 18.8162 48.3652 18.9562 48.2587 19.0472C48.3096 19.4424 48.2609 19.844 48.1167 20.2162C48.1167 20.2162 47.8682 20.0902 48.0102 19.0122H48.0031ZM46.8103 20.1462C47.2576 19.6492 47.3499 18.1442 47.3499 18.1442L47.5487 18.0042L47.6055 17.9482V18.0882C47.6048 18.8724 47.4703 19.6509 47.2079 20.3912C47.0056 20.6831 46.7354 20.9231 46.4198 21.0912C45.9157 20.2582 46.5263 19.1242 47.0091 18.2912L47.2079 18.1862C47.0091 18.8862 46.6683 19.5862 46.8103 20.1532V20.1462ZM45.6246 17.5492C45.6172 17.6193 45.6376 17.6896 45.6814 17.7452V17.8012C45.2058 18.2888 44.7735 18.8157 44.3892 19.3762C44.2073 19.6151 43.9757 19.813 43.71 19.9566C43.4444 20.1003 43.1506 20.1864 42.8485 20.2092C42.9126 19.551 43.1888 18.9304 43.6366 18.4382C44.1249 17.9115 44.6728 17.4418 45.2696 17.0382C45.4271 17.1102 45.604 17.1298 45.7737 17.0942H45.8305C45.7643 17.1592 45.7261 17.247 45.724 17.3392C44.9668 17.6818 44.3188 18.2215 43.8496 18.9002C43.7573 18.9702 44.4389 18.7742 45.5891 17.5562L45.6246 17.5492ZM44.8365 16.7792L44.8933 16.7232L44.9501 16.6672C44.5525 16.8072 43.1538 17.3672 42.7065 17.5492C42.3583 17.74 42.0529 17.9983 41.8089 18.3088C41.5648 18.6192 41.3871 18.9752 41.2865 19.3552C41.5898 19.3808 41.8954 19.347 42.1853 19.2557C42.4754 19.1644 42.7442 19.0174 42.9763 18.8232C43.7644 18.1862 44.6661 17.3042 45.0069 17.0172L44.9004 16.9122C44.2464 17.4371 43.5313 17.8836 42.7704 18.2422C42.9368 17.9376 43.1817 17.6817 43.4804 17.5002C43.9088 17.1872 44.3894 16.9503 44.9004 16.8002L44.8365 16.7792ZM44.02 16.1002L44.0768 15.9952C43.6295 16.1002 42.4793 16.2402 41.9468 16.3872C41.5217 16.4991 41.1248 16.6968 40.7814 16.9679C40.4379 17.2391 40.1554 17.5777 39.9517 17.9622C39.9517 17.9622 40.7398 18.2072 42.2876 17.5212C43.0177 17.1426 43.7803 16.8287 44.5667 16.5832C44.3888 16.5832 44.2144 16.5348 44.0626 16.4432C43.3607 16.7803 42.5983 16.9777 41.819 17.0242C42.0605 16.8525 42.3228 16.7114 42.6 16.6042C43.0466 16.3704 43.5248 16.2007 44.02 16.1002ZM44.02 15.4002C44.162 15.4599 44.3133 15.4954 44.4673 15.5052C44.3532 15.5706 44.2501 15.6533 44.162 15.7502C43.1849 15.9921 42.1862 16.1398 41.18 16.1912C40.4186 16.2971 39.6432 16.2495 38.9009 16.0512C39.5061 15.7105 40.1594 15.4604 40.8392 15.3092C41.3788 15.2042 42.8698 15.2042 43.5656 15.1132C43.6275 15.1656 43.6941 15.2125 43.7644 15.2532C42.9694 15.258 42.1804 15.3903 41.4285 15.6452C42.3003 15.7432 43.1831 15.6598 44.02 15.4002ZM43.9277 14.5182C44.0259 14.4644 44.128 14.4175 44.233 14.3782C43.143 14.0066 42.0099 13.7715 40.8605 13.6782C40.0461 13.5807 39.2209 13.6162 38.4181 13.7832C39.1058 14.2286 39.864 14.5575 40.6617 14.7562C41.6172 14.9059 42.5874 14.9412 43.5514 14.8612C43.6065 14.7713 43.6733 14.6889 43.7502 14.6162C42.8274 14.611 41.9098 14.479 41.0238 14.2242C42.0033 14.1491 42.9885 14.2439 43.9348 14.5042L43.9277 14.5182ZM43.9348 13.6362C44.0347 13.9344 44.2452 14.1844 44.5241 14.3362C43.4307 13.8952 41.3433 13.5942 40.2002 13.1672C38.6595 12.5302 38.4039 11.7672 38.4039 11.7672C39.5024 11.7756 40.5928 11.9552 41.6344 12.2992C42.6213 12.6002 44.0768 13.1322 44.6164 13.3772C44.4036 13.3777 44.1967 13.4465 44.0271 13.5732C43.4875 13.3282 42.8769 13.1812 42.3373 12.9922C41.9394 12.8584 41.5224 12.7875 41.1019 12.7822C41.4755 13.0031 41.8733 13.1816 42.2876 13.3142C42.8414 13.4542 43.381 13.5592 43.9419 13.6712L43.9348 13.6362ZM43.8851 12.5372C43.9419 12.6422 44.0271 12.7822 44.0839 12.8732C42.4901 12.5395 41.0482 11.7072 39.973 10.5002C39.6174 9.90821 39.4772 9.21437 39.5754 8.5332C40.3599 8.88397 41.0668 9.38342 41.6557 10.0032C42.2521 10.6273 42.9005 11.2009 43.594 11.7182L43.7928 12.2992C43.2532 11.8582 42.5574 11.3612 42.1598 11.0252C41.7641 10.7228 41.3296 10.4733 40.8676 10.2832C41.107 10.5815 41.3705 10.8601 41.6557 11.1162C42.0234 11.4159 42.4207 11.6785 42.8414 11.9002C43.157 12.162 43.5144 12.3702 43.8993 12.5162" fill="white"/>
<path d="M48.6775 17.1501L48.8195 17.0101C49.0183 17.2551 49.1603 17.5071 49.3236 17.7521C49.4243 18.041 49.5073 18.3355 49.5721 18.6341C49.6253 18.9269 49.7286 19.2086 49.8774 19.4671C49.7442 19.4696 49.612 19.444 49.4895 19.3922C49.3671 19.3402 49.2573 19.2632 49.1674 19.1661C48.9307 18.867 48.7767 18.5125 48.7202 18.1371C48.6231 17.8147 48.6036 17.4743 48.6633 17.1431L48.6775 17.1501ZM47.9533 17.1991L48.0953 17.3391L48.1521 17.3951H48.2089L48.3509 17.3391C48.4159 17.4602 48.4523 17.5942 48.4574 17.7311C48.5111 17.9757 48.5111 18.2286 48.4574 18.4731C48.3904 18.6899 48.2738 18.8887 48.1166 19.0541C47.9724 18.8978 47.8571 18.7177 47.7758 18.5221C47.6679 18.2547 47.6679 17.9566 47.7758 17.6891C47.8468 17.4791 47.9036 17.3321 47.9533 17.1921V17.1991ZM47.0587 17.2271C47.2899 17.1939 47.5107 17.1102 47.7048 16.9821C47.7403 17.0405 47.7636 17.1052 47.7733 17.1725C47.7831 17.2398 47.7791 17.3083 47.7616 17.3741C47.6941 17.5764 47.5771 17.7591 47.4208 17.9061C47.2782 18.0277 47.1125 18.1199 46.9333 18.1776C46.7541 18.2353 46.565 18.2573 46.3771 18.2421C46.3061 18.2771 46.2138 17.9761 47.0871 17.2341L47.0587 17.2271ZM46.7463 16.7021C46.767 16.8652 46.8362 17.0187 46.9451 17.1431C46.8225 17.3398 46.6464 17.4985 46.4368 17.6012C46.2271 17.7039 45.9925 17.7465 45.7594 17.7241C45.7041 17.5855 45.7049 17.4311 45.7617 17.293C45.8186 17.1549 45.9271 17.0436 46.0647 16.9821C46.299 16.8911 46.4978 16.7861 46.7747 16.7021" fill="white"/>
<path d="M46.86 16.2119C46.612 16.2647 46.3554 16.2647 46.1074 16.2119H46.0009V16.0999C45.6033 16.4009 45.2128 16.4359 45.0495 16.7369C45.1287 16.8462 45.2367 16.9321 45.3619 16.9852C45.487 17.0382 45.6246 17.0565 45.7595 17.0379C45.9725 17.0203 46.1795 16.9597 46.3677 16.8597C46.5557 16.7597 46.7209 16.6227 46.8529 16.4569C46.8318 16.4194 46.8207 16.3772 46.8207 16.3344C46.8207 16.2916 46.8318 16.2493 46.8529 16.2119H46.86ZM46.008 15.7709C46.058 15.6226 46.1432 15.4882 46.2565 15.3789C45.9298 15.3259 45.5964 15.3259 45.2696 15.3789C45.0125 15.3769 44.7615 15.4569 44.5542 15.6071C44.347 15.7572 44.1944 15.9693 44.1194 16.2119C44.3564 16.3507 44.6363 16.4005 44.9075 16.3519C45.1208 16.3356 45.3283 16.2755 45.5166 16.1754C45.7049 16.0753 45.8699 15.9376 46.0009 15.7709H46.008ZM45.8021 15.0709C45.6917 14.9471 45.5897 14.8161 45.4968 14.6789L45.44 14.6019C45.0712 14.425 44.6493 14.3876 44.2543 14.4969C44.0105 14.5692 43.8012 14.7257 43.665 14.9379C43.9435 15.1457 44.2708 15.2806 44.6164 15.3299C45.0267 15.383 45.4432 15.3019 45.8021 15.0989V15.0709ZM45.9086 14.3009C45.9654 14.2449 46.0506 14.2449 46.1571 14.2449C45.9507 14.0434 45.812 13.7845 45.7595 13.5029C45.4972 13.5635 45.2223 13.544 44.9714 13.4469C44.8323 13.3968 44.683 13.3802 44.5361 13.3985C44.3891 13.4167 44.2487 13.4693 44.1265 13.5519C44.1782 13.7172 44.2763 13.8649 44.4095 13.9776C44.5427 14.0903 44.7055 14.1636 44.8791 14.1889C45.0294 14.2839 45.2001 14.3428 45.3777 14.3611C45.5552 14.3793 45.7346 14.3563 45.9015 14.2939L45.9086 14.3009ZM45.6814 13.2999L45.7879 13.2439C45.9108 13.1798 46.0467 13.1439 46.1855 13.1389C45.8596 12.8629 45.5104 12.6146 45.1418 12.3969C44.7207 12.1561 44.2663 11.9769 43.7928 11.8649C43.9264 12.2661 44.1468 12.634 44.4389 12.9429C44.5865 13.1156 44.7823 13.2415 45.002 13.305C45.2218 13.3685 45.4557 13.3667 45.6743 13.2999H45.6814ZM46.3204 12.9639C46.1562 12.7295 46.0404 12.4654 45.9796 12.1869C45.8731 11.8509 45.7808 11.4449 45.6388 11.1089C45.3913 10.6626 44.9796 10.327 44.4886 10.1709C44.3791 10.6403 44.429 11.1322 44.6306 11.5709C45.0693 12.1668 45.6495 12.6475 46.3204 12.9709V12.9639ZM50.197 16.4709C50.2855 16.5545 50.389 16.621 50.5023 16.6669C50.5685 16.8166 50.5979 16.9796 50.588 17.1426C50.5782 17.3056 50.5293 17.4641 50.4455 17.6049C50.2044 18.0276 50.0069 18.4732 49.8562 18.9349C49.8562 18.9349 49.7142 18.9349 49.5509 18.1019C49.5012 17.7927 49.3633 17.5038 49.1533 17.2689C49.2456 17.3266 49.35 17.3625 49.4586 17.3739H49.5651L49.6219 17.2689C49.71 17.1185 49.7473 16.9445 49.7284 16.7719V16.6319C49.814 16.6494 49.9028 16.6437 49.9853 16.6153C50.0678 16.587 50.141 16.537 50.197 16.4709Z" fill="white"/>
<path d="M44.2969 10.4998V10.9408C43.8993 10.4438 43.4023 9.8068 42.8769 9.2258C42.632 8.90408 42.3345 8.62492 41.9965 8.3998C42.1973 9.01643 42.5569 9.57111 43.0402 10.0098C43.4264 10.3966 43.8392 10.7568 44.2756 11.0878L44.3324 11.2278C44.3892 11.3678 44.4389 11.5288 44.4744 11.6198C44.5816 11.8142 44.7154 11.9932 44.872 12.1518C44.73 12.0958 44.5667 12.0118 44.4247 11.9558H44.2969C43.0515 11.2597 42.0209 10.2436 41.3149 9.0158C40.9645 8.16271 40.917 7.21792 41.18 6.3348C41.8247 6.91132 42.4076 7.55168 42.9195 8.2458C43.4431 8.95693 43.9039 9.71097 44.2969 10.4998ZM61.8339 14.5178C61.7357 14.464 61.6336 14.4171 61.5286 14.3778C62.6186 14.0062 63.7516 13.7711 64.9011 13.6778C65.7155 13.5803 66.5407 13.6158 67.3435 13.7828C66.6558 14.2282 65.8975 14.5571 65.0999 14.7558C64.1444 14.9055 63.1742 14.9408 62.2102 14.8608C62.1551 14.7709 62.0883 14.6885 62.0114 14.6158C62.9342 14.6106 63.8518 14.4786 64.7378 14.2238C63.7583 14.1487 62.773 14.2435 61.8268 14.5038L61.8339 14.5178ZM61.8268 13.6358C61.7269 13.934 61.5163 14.184 61.2375 14.3358C62.3309 13.8948 64.4183 13.5938 65.5613 13.1668C67.1021 12.5298 67.3577 11.7668 67.3577 11.7668C66.2591 11.7752 65.1688 11.9548 64.1272 12.2988C63.1403 12.5998 61.6848 13.1318 61.1452 13.3768C61.3579 13.3773 61.5648 13.4461 61.7345 13.5728C62.2741 13.3278 62.8847 13.1808 63.4243 12.9918C63.8251 12.8711 64.2407 12.8052 64.6597 12.7958C64.2861 13.0167 63.8883 13.1952 63.474 13.3278C62.9202 13.4538 62.3806 13.5588 61.8197 13.6638L61.8268 13.6358ZM61.9262 12.5298C61.8694 12.6348 61.7842 12.7748 61.7274 12.8658C63.3331 12.5411 64.7882 11.7107 65.8738 10.4998C66.2294 9.90781 66.3696 9.21397 66.2714 8.5328C65.4869 8.88357 64.78 9.38302 64.1911 10.0028C63.599 10.6312 62.9502 11.2052 62.2528 11.7178L62.054 12.2988C62.5936 11.8578 63.2894 11.3608 63.687 11.0248C64.0826 10.7224 64.5172 10.4729 64.9792 10.2828C64.7398 10.5811 64.4763 10.8597 64.1911 11.1158C63.8211 11.4158 63.4215 11.6785 62.9983 11.8998C62.6661 12.1375 62.3119 12.3437 61.9404 12.5158L61.9262 12.5298ZM61.4931 10.4998V10.9408C61.8907 10.4438 62.3877 9.8068 62.9131 9.2258C63.1579 8.90408 63.4554 8.62492 63.7935 8.3998C63.5926 9.01643 63.233 9.57111 62.7498 10.0098C62.3635 10.3966 61.9507 10.7568 61.5144 11.0878L61.4576 11.2278C61.4008 11.3678 61.3511 11.5288 61.3156 11.6198C61.2083 11.8142 61.0745 11.9932 60.918 12.1518C61.06 12.0958 61.2233 12.0118 61.3653 11.9558L61.5073 11.8998C62.7526 11.2037 63.7832 10.1876 64.4893 8.9598C64.83 8.1114 64.8725 7.1748 64.61 6.2998C63.9652 6.87632 63.3823 7.51668 62.8705 8.2108C62.3347 8.92697 61.8597 9.68556 61.4505 10.4788L61.4931 10.4998ZM45.8305 17.9268C45.3264 18.4238 44.233 19.5928 44.3395 20.8108C44.9151 20.6317 45.4143 20.27 45.7595 19.7818C46.0083 19.2966 46.2906 18.8289 46.6044 18.3818H46.1571C45.8684 18.9609 45.4451 19.4646 44.9217 19.8518C44.9217 19.8518 44.8152 19.2708 46.1571 17.9968C46.1571 17.9408 46.2139 17.8918 46.2636 17.8568C46.1188 17.9003 45.9675 17.9193 45.8163 17.9128L45.8305 17.9268ZM59.6755 11.0668C59.2546 11.8577 58.6208 12.519 57.8437 12.9778C57.6873 13.0926 57.5782 13.2592 57.5364 13.4469C57.4948 13.6348 57.5232 13.831 57.6165 13.9998C57.8153 14.4968 58.2058 15.2178 58.0141 15.5188C57.8224 15.8198 56.8639 15.9598 56.1326 15.6588C56.0142 15.9133 55.8814 16.161 55.735 16.4008C55.8009 16.474 55.8894 16.524 55.9868 16.5429C56.0843 16.5619 56.1853 16.5489 56.2746 16.5058C56.2305 16.6264 56.2127 16.7549 56.2225 16.8828C56.2323 17.0106 56.2694 17.135 56.3314 17.2478C56.4787 17.2194 56.6182 17.1604 56.7406 17.0747C56.8631 16.9889 56.9655 16.8786 57.0414 16.7508C57.1706 16.9493 57.3591 17.1033 57.581 17.1918C57.6995 17.104 57.7871 16.9819 57.8317 16.8426C57.8762 16.7033 57.8755 16.5537 57.8295 16.4148C57.9278 16.5858 58.0648 16.7323 58.2298 16.8427C58.3948 16.9532 58.5833 17.0247 58.7809 17.0518C58.9019 16.8745 58.9574 16.6616 58.938 16.4487C58.9186 16.2358 58.8255 16.036 58.6744 15.8828C58.822 15.9915 58.9953 16.0614 59.1778 16.0859C59.3604 16.1104 59.5463 16.0887 59.7181 16.0228C59.7181 16.0228 59.8246 15.6868 59.214 15.1898C59.4147 15.1827 59.6106 15.1258 59.7831 15.0243C59.9556 14.9227 60.0993 14.7797 60.2009 14.6088C60.0571 14.4907 59.8903 14.4031 59.7107 14.3513C59.5312 14.2995 59.3427 14.2847 59.1572 14.3078C59.3691 14.248 59.5578 14.1264 59.6985 13.9591C59.8391 13.7917 59.9251 13.5862 59.9453 13.3698C59.7425 13.2796 59.5173 13.2502 59.2977 13.285C59.0781 13.3198 58.8737 13.4175 58.7099 13.5658C58.8395 13.3841 58.9896 13.2173 59.1572 13.0688C59.4229 12.8106 59.6182 12.4905 59.7249 12.1381C59.8317 11.7856 59.8464 11.4123 59.7678 11.0528L59.6755 11.0668ZM56.9278 19.0888C57.0295 18.9708 57.1133 18.8387 57.1763 18.6968C57.0698 19.6698 57.0343 20.3068 56.4663 20.9438C56.2567 20.5061 56.2187 20.0074 56.3598 19.5438C56.4579 19.49 56.56 19.4431 56.6651 19.4038C56.5925 19.6754 56.5732 19.9581 56.6083 20.2368C56.7686 19.8765 56.8716 19.494 56.9136 19.1028L56.9278 19.0888ZM57.8082 18.9978C57.9176 18.8855 58.0022 18.752 58.0567 18.6058C58.1135 19.1868 58.2555 20.6568 57.7514 21.1048C57.7514 21.1048 57.4106 20.8598 57.3041 18.6968C57.4106 18.8018 57.4461 18.9418 57.5526 19.0328C57.5016 19.428 57.5504 19.8296 57.6946 20.2018C57.6946 20.2018 57.9431 20.0758 57.8011 18.9978H57.8082ZM58.9868 20.1318C58.5395 19.6348 58.4472 18.1298 58.4472 18.1298C58.3921 18.0693 58.3243 18.0215 58.2484 17.9898L58.22 17.9478V18.0878C58.2207 18.872 58.3551 19.6505 58.6176 20.3908C58.8061 20.6943 59.0798 20.9375 59.4057 21.0908C59.9098 20.2578 59.2992 19.1238 58.8164 18.2908C58.7405 18.2776 58.6708 18.2408 58.6176 18.1858C58.8164 18.8858 59.1714 19.5858 59.0152 20.1528L58.9868 20.1318ZM60.2151 17.5488C60.2225 17.6189 60.2021 17.6892 60.1583 17.7448V17.8008C60.6339 18.2884 61.0662 18.8153 61.4505 19.3758C61.6324 19.6147 61.864 19.8126 62.1296 19.9562C62.3953 20.0999 62.6891 20.186 62.9912 20.2088C62.9271 19.5506 62.6509 18.93 62.2031 18.4378C61.7148 17.9111 61.1669 17.4414 60.5701 17.0378C60.4126 17.1098 60.2357 17.1294 60.066 17.0938H60.0092C60.0754 17.1588 60.1136 17.2466 60.1157 17.3388C60.8546 17.6887 61.4848 18.2278 61.9404 18.8998C62.0327 18.9698 61.3298 18.7738 60.2009 17.5558L60.2151 17.5488ZM60.9109 16.7788V16.6738L60.8541 16.6178C61.2517 16.7578 62.6504 17.3178 63.0977 17.4998C63.4459 17.6906 63.7513 17.9489 63.9953 18.2594C64.2394 18.5698 64.4171 18.9258 64.5177 19.3058C64.2143 19.3314 63.9088 19.2976 63.6188 19.2063C63.3288 19.115 63.06 18.968 62.8279 18.7738C62.0753 18.1368 61.1381 17.2548 60.7973 16.9678L60.9038 16.8628C61.5578 17.3877 62.2728 17.8342 63.0338 18.1928C62.8674 17.8882 62.6224 17.6322 62.3238 17.4508C61.886 17.1531 61.408 16.9175 60.9038 16.7508L60.9109 16.7788ZM61.77 16.0998C61.77 16.0438 61.7132 16.0438 61.7132 15.9948C62.1605 16.0998 63.3107 16.2398 63.8432 16.3868C64.2683 16.4987 64.6652 16.6964 65.0086 16.9675C65.3521 17.2387 65.6346 17.5773 65.8383 17.9618C65.8383 17.9618 65.0502 18.2068 63.5024 17.5208C62.7723 17.1422 62.0097 16.8283 61.2233 16.5828C61.4012 16.5828 61.5756 16.5344 61.7274 16.4428C62.4293 16.7799 63.1917 16.9773 63.971 17.0238C63.7295 16.8521 63.4671 16.711 63.19 16.6038C62.7375 16.3832 62.2611 16.2141 61.77 16.0998ZM61.77 15.3998C61.628 15.4595 61.4767 15.495 61.3227 15.5048C61.4368 15.5702 61.5398 15.6529 61.628 15.7498C62.6051 15.9917 63.6038 16.1394 64.61 16.1908C65.3714 16.2967 66.1468 16.2491 66.8891 16.0508C66.2838 15.7101 65.6306 15.46 64.9508 15.3088C64.4112 15.2038 62.9202 15.2038 62.2244 15.1128C62.1624 15.1652 62.0959 15.2121 62.0256 15.2528C62.8206 15.2576 63.6096 15.3899 64.3615 15.6448C63.4897 15.7412 62.6072 15.6578 61.77 15.3998Z" fill="white"/>
<path d="M57.1124 17.1501L56.9704 17.0101C56.7889 17.2369 56.6385 17.4864 56.5231 17.7521C56.4224 18.0409 56.3394 18.3354 56.2746 18.6341C56.1969 18.9197 56.0947 19.1984 55.9693 19.4671C56.1086 19.4682 56.2469 19.4423 56.376 19.3906C56.5052 19.339 56.6228 19.2627 56.7219 19.1661C56.9586 18.8669 57.1127 18.5124 57.1692 18.1371C57.2358 17.8063 57.2162 17.4644 57.1124 17.1431V17.1501ZM57.8224 17.1991L57.6804 17.3391L57.6236 17.3951H57.5668L57.368 17.3391C57.303 17.4602 57.2666 17.5941 57.2615 17.7311C57.2079 17.9756 57.2079 18.2285 57.2615 18.4731C57.3286 18.6898 57.4451 18.8886 57.6023 19.0541C57.7465 18.8977 57.8618 18.7176 57.9431 18.5221C58.051 18.2546 58.051 17.9565 57.9431 17.6891C57.944 17.5154 57.9 17.3443 57.8153 17.1921L57.8224 17.1991ZM58.7099 17.2271C58.4787 17.1938 58.258 17.1102 58.0638 16.9821C58.0283 17.0404 58.0051 17.1051 57.9953 17.1724C57.9855 17.2397 57.9895 17.3083 58.007 17.3741C58.0745 17.5763 58.1916 17.7591 58.3478 17.9061C58.4904 18.0276 58.6561 18.1198 58.8353 18.1775C59.0145 18.2352 59.2036 18.2572 59.3915 18.2421C59.4483 18.2771 59.5548 17.9761 58.6815 17.2341L58.7099 17.2271ZM59.0223 16.7021C59.0016 16.8652 58.9324 17.0186 58.8235 17.1431C58.9461 17.3397 59.1222 17.4984 59.3318 17.6011C59.5415 17.7038 59.7762 17.7465 60.0092 17.7241C60.0645 17.5854 60.0637 17.431 60.0069 17.2929C59.95 17.1548 59.8415 17.0435 59.7039 16.9821C59.4696 16.8911 59.2708 16.7861 58.9939 16.7021H59.0223ZM58.93 16.2121C59.178 16.2649 59.4346 16.2649 59.6826 16.2121H59.7891V16.1001C60.1867 16.4011 60.5772 16.4361 60.776 16.7371C60.7049 16.839 60.6076 16.9207 60.4941 16.9735C60.3806 17.0264 60.255 17.0487 60.1299 17.0381C59.9169 17.0205 59.7099 16.9599 59.5218 16.8599C59.3337 16.7599 59.1685 16.6228 59.0365 16.4571C58.9696 16.3924 58.9313 16.3044 58.93 16.2121ZM59.7749 15.7711C59.725 15.6227 59.6397 15.4883 59.5264 15.3791C59.8531 15.3261 60.1865 15.3261 60.5133 15.3791C60.7704 15.3771 61.0214 15.4571 61.2287 15.6073C61.436 15.7573 61.5885 15.9695 61.6635 16.2121C61.4265 16.3509 61.1466 16.4006 60.8754 16.3521C60.6604 16.3432 60.4502 16.2863 60.2608 16.1857C60.0714 16.085 59.9076 15.9433 59.782 15.7711H59.7749ZM59.9808 15.0711C60.102 14.9564 60.205 14.8242 60.2861 14.6791L60.3429 14.5741C60.7117 14.3972 61.1336 14.3598 61.5286 14.4691C61.7725 14.5414 61.9817 14.6979 62.1179 14.9101C61.8394 15.1179 61.5121 15.2528 61.1665 15.3021C60.7595 15.3043 60.3563 15.2258 59.9808 15.0711ZM59.8175 14.2731C59.7607 14.2171 59.6755 14.2171 59.569 14.2171C59.773 14.0061 59.9258 13.7525 60.0163 13.4751C60.2786 13.5357 60.5535 13.5161 60.8044 13.4191C60.9435 13.3689 61.0928 13.3523 61.2397 13.3706C61.3867 13.3889 61.5271 13.4415 61.6493 13.5241C61.5976 13.6894 61.4995 13.837 61.3663 13.9497C61.2331 14.0624 61.0703 14.1357 60.8967 14.1611C60.7366 14.2579 60.5562 14.3176 60.3693 14.3358C60.1824 14.354 59.9937 14.3301 59.8175 14.2661V14.2731ZM60.0944 13.3001H59.9879C59.865 13.236 59.7292 13.2001 59.5903 13.1951C59.9162 12.919 60.2654 12.6708 60.634 12.4531C61.0438 12.1901 61.5022 12.0093 61.983 11.9211C61.8285 12.3126 61.6102 12.6768 61.3369 12.9991C61.1905 13.1732 60.9947 13.3003 60.7746 13.3639C60.5545 13.4275 60.32 13.4248 60.1015 13.3561L60.0944 13.3001ZM59.4554 13.0201C59.6196 12.7856 59.7354 12.5216 59.7962 12.2431C59.9027 11.9071 59.995 11.5011 60.137 11.1651C60.3846 10.7188 60.7962 10.3832 61.2872 10.2271C61.3967 10.6965 61.3468 11.1884 61.1452 11.6271C60.7109 12.227 60.1296 12.7087 59.4554 13.0271V13.0201ZM55.5788 16.5271C55.4903 16.6106 55.3868 16.6771 55.2735 16.7231C55.2073 16.8728 55.1779 17.0357 55.1878 17.1988C55.1976 17.3618 55.2465 17.5202 55.3303 17.6611C55.5715 18.0838 55.7689 18.5293 55.9196 18.9911C55.9196 18.9911 56.0616 18.9911 56.2249 18.1581C56.2746 17.8489 56.4125 17.56 56.6225 17.3251C56.5302 17.3827 56.4258 17.4186 56.3172 17.4301H56.2107L56.1539 17.3251C56.0658 17.1747 56.0286 17.0007 56.0474 16.8281V16.6881C55.9618 16.7027 55.8739 16.6955 55.7919 16.6674C55.7099 16.6392 55.6366 16.5909 55.5788 16.5271Z" fill="white"/>
<path d="M59.8956 17.9268C60.3997 18.4238 61.4931 19.5928 61.3866 20.8108C60.811 20.6317 60.3118 20.27 59.9666 19.7818C59.7178 19.2966 59.4355 18.8289 59.1217 18.3818H59.569C59.8577 18.9609 60.281 19.4646 60.8044 19.8518C60.8044 19.8518 60.9109 19.2708 59.569 17.9968C59.569 17.9408 59.5122 17.8918 59.4625 17.8568C59.6073 17.9003 59.7586 17.9193 59.9098 17.9128L59.8956 17.9268ZM49.4089 8.9738C49.7291 8.86761 50.0757 8.86761 50.3958 8.9738C50.073 9.06249 49.7318 9.06249 49.4089 8.9738ZM53.037 8.3998C53.037 8.5048 52.9802 8.5398 52.895 8.5398C52.8762 8.54078 52.8572 8.53791 52.8395 8.53119C52.8218 8.52454 52.8057 8.51425 52.7924 8.50102C52.779 8.48786 52.7685 8.47197 52.7618 8.45454C52.755 8.43711 52.752 8.41842 52.753 8.3998C52.753 8.2948 52.8098 8.2598 52.895 8.2598C52.9139 8.25882 52.9329 8.26169 52.9506 8.26841C52.9682 8.27506 52.9844 8.28535 52.9977 8.29858C53.0111 8.31174 53.0216 8.32763 53.0283 8.34506C53.0351 8.36249 53.038 8.38118 53.037 8.3998ZM52.0501 7.8678C51.8538 7.48021 51.7037 7.07148 51.6028 6.6498C51.6596 6.5448 51.7093 6.4538 51.8513 6.4538C51.9933 6.4538 52.0501 6.3978 52.0998 6.4538C52.2749 6.85809 52.3782 7.28904 52.4051 7.7278C52.2804 7.7635 52.1591 7.81033 52.043 7.8678H52.0501ZM52.5258 7.7628H52.7246C52.6733 7.39712 52.5902 7.03641 52.4761 6.6848C52.4632 6.60111 52.4291 6.52196 52.377 6.45467C52.3249 6.38738 52.2565 6.33412 52.1779 6.2998C52.2347 6.4958 52.3199 6.6918 52.3767 6.8808C52.4476 7.17865 52.5021 7.48014 52.54 7.7838L52.5258 7.7628ZM52.1424 8.8128C51.8831 8.95014 51.5918 9.01776 51.2975 9.0088C51.4111 8.81511 51.5633 8.64606 51.7448 8.5118C51.9942 8.35017 52.2935 8.28073 52.5897 8.3158C52.4791 8.51159 52.3265 8.6812 52.1424 8.8128ZM51.6951 8.8688C51.9184 8.78235 52.1196 8.64858 52.2844 8.4768C52.0431 8.52538 51.8312 8.66636 51.6951 8.8688Z" fill="white"/>
<path d="M49.3237 9.065C49.6424 9.1658 49.9759 9.21312 50.3106 9.205C50.8963 9.20969 51.4805 9.14389 52.0501 9.009C52.0274 9.07963 51.9878 9.14382 51.9347 9.19625C51.8815 9.24861 51.8164 9.28767 51.7448 9.31C51.8383 9.31203 51.9273 9.34969 51.9933 9.415C51.9623 9.47443 51.9192 9.52686 51.8667 9.56907C51.8141 9.61121 51.7533 9.64222 51.688 9.66C51.8985 9.86573 52.1798 9.98571 52.4761 9.996C52.397 10.0651 52.3018 10.114 52.1991 10.1384C52.0963 10.1627 51.9891 10.162 51.8868 10.136C51.6311 10.085 51.4021 9.94602 51.2407 9.744C51.2856 9.8378 51.3051 9.94154 51.2975 10.045C51.2303 10.0363 51.1656 10.0143 51.1071 9.98074C51.0486 9.94707 50.9975 9.90227 50.9567 9.849C51.0206 9.95022 51.0573 10.0659 51.0632 10.185C50.9526 10.183 50.8457 10.1462 50.7579 10.08C50.8017 10.1541 50.8215 10.2395 50.8147 10.325C50.5464 10.2297 50.2931 10.0978 50.0621 9.933V10.178C50.1189 10.234 49.3521 10.122 49.3521 9.044L49.3237 9.065ZM50.6443 9.485H49.771C49.7798 9.55122 49.8021 9.61499 49.8361 9.67267C49.8703 9.73035 49.9157 9.78075 49.9698 9.821C49.9698 9.485 50.6159 9.485 50.6159 9.485H50.6443ZM49.1959 9.149C49.2 9.36852 49.2483 9.58503 49.3379 9.786C49.1866 9.69241 49.0677 9.5557 48.9971 9.394C48.9403 9.149 48.9403 9.037 49.1959 9.149ZM49.3592 9.849L49.7568 10.15C49.6104 10.2046 49.461 10.2514 49.3095 10.29C49.1628 10.1699 48.9782 10.1042 48.7876 10.1042C48.597 10.1042 48.4124 10.1699 48.2658 10.29C48.193 10.2522 48.1292 10.1995 48.0789 10.1353C48.0285 10.0712 47.9927 9.99712 47.9739 9.91816C47.955 9.8392 47.9536 9.75716 47.9696 9.67764C47.9857 9.59805 48.0189 9.5228 48.067 9.457C48.1546 9.36201 48.2709 9.29726 48.3987 9.27206C48.5264 9.24686 48.659 9.26261 48.777 9.317C48.8318 9.44153 48.9126 9.55325 49.0141 9.64495C49.1156 9.73658 49.2356 9.80609 49.3663 9.849H49.3592ZM48.6563 9.954C48.6773 9.954 48.6979 9.94784 48.7154 9.93629C48.7329 9.92474 48.7466 9.90836 48.7547 9.88918C48.7627 9.87 48.7648 9.84886 48.7607 9.82849C48.7566 9.80812 48.7464 9.78943 48.7316 9.77473C48.7167 9.7601 48.6977 9.75009 48.6771 9.74603C48.6564 9.74197 48.635 9.74407 48.6155 9.75198C48.5961 9.75996 48.5794 9.7734 48.5677 9.79069C48.556 9.80791 48.5498 9.82821 48.5498 9.849C48.5498 9.905 48.5498 9.954 48.6563 9.954ZM49.7852 10.234C49.8903 10.3716 50.0042 10.5025 50.126 10.626C49.9149 10.6187 49.7066 10.676 49.5299 10.79C49.3532 10.9041 49.2167 11.0693 49.1391 11.263C49.0679 11.1616 49.0252 11.0435 49.0152 10.9206C49.0052 10.7976 49.0284 10.6743 49.0823 10.563C49.1703 10.4613 49.2789 10.3788 49.4012 10.321C49.5235 10.2631 49.6567 10.2311 49.7923 10.227L49.7852 10.234ZM50.6514 10.388L50.9922 10.493V10.297C51.0987 10.297 51.1342 10.353 51.2407 10.353C51.3271 10.6581 51.469 10.9451 51.6596 11.2C51.648 11.3071 51.6116 11.4101 51.5531 11.501C51.4329 11.2993 51.3002 11.1053 51.1555 10.92C51.0274 10.7155 50.8392 10.5544 50.6159 10.458L50.6514 10.388ZM49.9698 10.353C50.2241 10.4064 50.4654 10.5087 50.6798 10.654C50.8005 10.7283 50.9001 10.8313 50.9696 10.9537C51.0392 11.0761 51.0762 11.2137 51.0774 11.354C50.9686 11.2018 50.8341 11.0692 50.6798 10.962C50.3901 10.8316 50.1438 10.6229 49.9698 10.36V10.353ZM49.9698 7.861C50.0763 7.861 50.1686 7.917 50.1686 8.001C50.1082 8.18769 50.0247 8.3664 49.9201 8.533C49.8053 8.37193 49.7212 8.19168 49.6716 8.001C49.7041 7.95193 49.75 7.91287 49.804 7.88816C49.8579 7.86338 49.9178 7.854 49.9769 7.861H49.9698ZM49.8136 8.799C49.7718 8.55953 49.7052 8.32496 49.6148 8.099C49.5225 8.04132 49.4181 8.00541 49.3095 7.994C49.2729 7.99715 49.2386 8.0129 49.2126 8.03852C49.1866 8.06414 49.1707 8.09795 49.1675 8.134V8.19C49.2868 8.41008 49.4196 8.62281 49.5651 8.827C49.6439 8.79599 49.7291 8.78395 49.8136 8.792V8.799ZM50.0621 8.792C50.1038 8.55253 50.1704 8.31796 50.2609 8.092C50.3531 8.03432 50.4575 7.99841 50.5662 7.987C50.6027 7.99015 50.637 8.0059 50.663 8.03152C50.689 8.05714 50.705 8.09095 50.7082 8.127V8.183C50.6012 8.40987 50.4678 8.62365 50.3106 8.82C50.2321 8.78759 50.1465 8.77548 50.0621 8.785V8.792ZM50.3106 7.266H50.0053V7H49.8633V7.245H49.558V7.441H49.8633V7.7H50.0053V7.42H50.3106V7.266ZM47.2789 9.016V8.54C47.1578 8.57941 47.0468 8.64423 46.9537 8.73005C46.8605 8.81587 46.7873 8.92059 46.7393 9.037C46.7393 9.037 47.1369 8.792 47.2789 9.037V9.016ZM47.6197 9.674C47.6765 9.478 47.7262 9.233 47.7617 9.037C47.8119 8.89147 47.8283 8.7367 47.8099 8.5841C47.7915 8.43143 47.7386 8.28485 47.6552 8.155C47.5499 7.93681 47.5012 7.69629 47.5132 7.455L47.1724 7.595C47.1878 7.83958 47.2555 8.07814 47.3712 8.295C47.4425 8.48015 47.4621 8.68084 47.428 8.876C47.4006 9.0153 47.4041 9.15873 47.4384 9.29656C47.4728 9.43432 47.537 9.56312 47.6268 9.674H47.6197ZM47.6268 7.574V7.434C47.8121 7.22848 48.0622 7.09037 48.3368 7.042C48.4788 6.986 48.5853 7.042 48.7344 7.147C48.6408 7.14903 48.5518 7.18669 48.4859 7.252C48.334 7.38591 48.1644 7.49896 47.9818 7.588C47.8683 7.57967 47.7544 7.57967 47.641 7.588" fill="white"/>
<path d="M48.7131 7.09782C48.8344 7.20058 48.921 7.33736 48.9616 7.48982C48.9173 7.69737 48.8329 7.89463 48.7131 8.07082C48.5924 8.20991 48.5224 8.38491 48.5143 8.56782C48.5143 8.67282 48.6208 8.76382 48.6563 8.86882C48.5503 8.83935 48.4512 8.78958 48.3647 8.72231C48.2782 8.65504 48.206 8.5716 48.1522 8.47682C48.1253 8.38372 48.1243 8.28523 48.1492 8.19164C48.1742 8.09798 48.2243 8.01279 48.2942 7.94482C48.3822 7.75274 48.497 7.57368 48.635 7.41282C48.6913 7.3151 48.7161 7.20275 48.706 7.09082L48.7131 7.09782ZM51.3472 10.1848C51.4315 10.4825 51.5659 10.7641 51.7448 11.0178C51.8687 11.2314 51.937 11.4719 51.9436 11.7178C52.0469 11.4846 52.0837 11.2281 52.0501 10.9758C51.9242 10.6361 51.6697 10.3576 51.3401 10.1988L51.3472 10.1848ZM51.8442 10.2898C51.9983 10.2996 52.1495 10.3351 52.2915 10.3948C52.5203 10.5684 52.6788 10.8165 52.7388 11.0948C52.5809 11.0511 52.4303 10.9851 52.2915 10.8988C52.09 10.7417 51.9353 10.5337 51.8442 10.2968V10.2898ZM50.2467 10.8988C50.1402 10.8988 50.0479 10.9548 49.9414 10.9548C50.0808 11.0056 50.2142 11.0714 50.339 11.1508C50.4126 11.2126 50.4726 11.2886 50.5153 11.374C50.558 11.4595 50.5826 11.5527 50.5875 11.6478C50.6566 11.9182 50.7591 12.1792 50.8928 12.4248C50.8966 12.1599 50.9446 11.8974 51.0348 11.6478C50.9207 11.5825 50.8177 11.4998 50.7295 11.4028C50.6333 11.1861 50.4622 11.01 50.2467 10.9058V10.8988ZM51.6667 11.6058C51.779 11.8323 51.8349 12.0818 51.83 12.3338C51.7147 12.5995 51.5642 12.8489 51.3827 13.0758C51.321 12.7855 51.2853 12.4903 51.2762 12.1938C51.2713 12.0651 51.3025 11.9375 51.3663 11.8251C51.4302 11.7127 51.5244 11.6199 51.6383 11.5568L51.6667 11.6058ZM52.1779 11.5568C52.3312 11.8197 52.4526 12.0992 52.54 12.3898C52.5646 12.4806 52.5678 12.5758 52.5493 12.668C52.5309 12.7602 52.4913 12.8471 52.4335 12.9218C52.2915 13.1178 52.1282 13.3138 51.9862 13.5028C51.8916 13.3881 51.8237 13.2542 51.7874 13.1108C51.7752 12.9161 51.7895 12.7207 51.83 12.5298C51.9853 12.219 52.1067 11.8929 52.1921 11.5568H52.1779ZM52.3909 13.4678C52.1992 13.6608 52.0301 13.8745 51.8868 14.1048C51.834 14.1838 51.8058 14.2762 51.8058 14.3708C51.8058 14.4654 51.834 14.5579 51.8868 14.6368C52.0432 14.853 52.244 15.0343 52.4761 15.1688C52.3361 14.9622 52.2665 14.717 52.2773 14.4688C52.3309 14.2985 52.3974 14.1323 52.4761 13.9718C52.4849 13.7968 52.4533 13.6221 52.3838 13.4608L52.3909 13.4678ZM51.6738 13.2158C51.7705 13.3427 51.8206 13.4982 51.8158 13.6568C51.8063 13.8542 51.7705 14.0496 51.7093 14.2378C51.6023 14.5266 51.4692 14.8054 51.3117 15.0708C51.2089 14.9356 51.1253 14.7873 51.0632 14.6298C51.2052 14.4338 51.3117 14.2378 51.4608 14.0488C51.5528 13.7768 51.624 13.4983 51.6738 13.2158ZM51.5673 13.0758C51.4656 13.5977 51.2657 14.0964 50.978 14.5458C50.8973 14.6932 50.7849 14.8215 50.6489 14.9219C50.5128 15.0222 50.3562 15.0921 50.1899 15.1268C50.0433 15.12 49.9025 15.0685 49.7868 14.9795C49.6711 14.8905 49.5862 14.7683 49.5438 14.6298C49.4936 14.502 49.477 14.3637 49.4957 14.2278C49.5143 14.0919 49.5675 13.9629 49.6503 13.8528C49.6815 13.9764 49.7442 14.0902 49.8324 14.1833C49.9206 14.2764 50.0315 14.3458 50.1544 14.3848C50.5307 14.3498 51.0348 13.9088 51.5744 13.0758" fill="white"/>
<path d="M51.12 12.7402C51.1693 12.9236 51.1693 13.1167 51.12 13.3002C51.1009 13.4017 51.0609 13.4983 51.0022 13.5838C50.9436 13.6693 50.8676 13.7419 50.7791 13.7972C50.6638 13.8632 50.528 13.8854 50.3972 13.8597C50.2665 13.8338 50.1498 13.7619 50.0691 13.6572L50.0124 13.6012C50.2609 13.5764 50.4971 13.4822 50.6933 13.3297C50.8895 13.1772 51.0375 12.9727 51.12 12.7402ZM52.3412 16.1002C52.5308 16.3344 52.6817 16.5966 52.7885 16.8772C52.7787 17.2405 52.6735 17.595 52.4832 17.9062C52.2562 17.72 52.0825 17.4787 51.9791 17.2062C51.9526 17.0069 51.9714 16.8043 52.034 16.613C52.0966 16.4218 52.2016 16.2466 52.3412 16.1002ZM51.8584 16.4362C51.9448 16.199 52.0801 15.9821 52.256 15.7992C52.3082 15.5897 52.2868 15.3691 52.1952 15.1732C52.1036 14.9774 51.9473 14.818 51.7519 14.7212C51.5704 14.9529 51.4355 15.2166 51.3543 15.4982C51.2975 15.9042 51.6951 16.1002 51.8584 16.4362ZM50.9638 14.7702C50.855 14.9223 50.7205 15.0549 50.5662 15.1622V15.6592C50.6438 15.9448 50.746 16.2235 50.8715 16.4922C51.0262 16.3038 51.142 16.0874 51.2122 15.8552C51.2532 15.6642 51.2722 15.4693 51.2691 15.2742C51.1807 15.1008 51.0786 14.9347 50.9638 14.7772V14.7702ZM50.1188 16.1772C49.9072 15.88 49.7643 15.5407 49.7 15.1832C49.8072 15.2424 49.9262 15.2781 50.0487 15.2878C50.1713 15.2975 50.2945 15.2809 50.41 15.2392C50.4638 15.4482 50.4638 15.6671 50.41 15.8762C50.3168 15.9954 50.2147 16.1078 50.1047 16.2122L50.1188 16.1772ZM50.1615 16.3172L50.41 16.1002C50.4668 16.0442 50.6585 16.5412 50.7153 16.6812C50.6088 16.6812 50.5165 16.6812 50.4668 16.6252C50.3745 16.5222 50.2723 16.4285 50.1615 16.3452V16.3172ZM51.2975 16.1002C51.1465 16.345 50.978 16.579 50.7934 16.8002C50.847 16.9705 50.9134 17.1366 50.9922 17.2972C51.1121 17.511 51.2628 17.7067 51.4394 17.8782C51.5607 17.6951 51.663 17.5004 51.7447 17.2972C51.8274 17.1451 51.8573 16.9705 51.83 16.8002C51.7235 16.5552 51.4324 16.3032 51.3259 16.0582L51.2975 16.1002ZM51.83 17.4302C51.9947 17.6442 52.1285 17.8798 52.2275 18.1302C52.2623 18.2791 52.2422 18.4355 52.1708 18.5712C52.114 18.6762 51.972 18.9072 51.8655 19.1032C51.6652 18.9536 51.5104 18.7526 51.4181 18.5222C51.3877 18.4265 51.377 18.3258 51.3868 18.226C51.3966 18.1262 51.4265 18.0294 51.475 17.9412C51.5815 17.8012 51.7803 17.6612 51.8371 17.4442L51.83 17.4302ZM50.8288 17.4092C50.9686 17.5867 51.0833 17.7821 51.1697 17.9902C51.222 18.0782 51.2497 18.1785 51.2497 18.2807C51.2497 18.3828 51.222 18.4831 51.1697 18.5712C51.0632 18.7672 50.9709 18.9072 50.9212 19.0122C50.777 18.8558 50.6616 18.6757 50.5803 18.4802C50.5271 18.29 50.5271 18.0893 50.5803 17.8992C50.6982 17.7529 50.7829 17.5834 50.8288 17.4022V17.4092ZM52.2488 18.8022C52.0458 19.0678 51.9029 19.3734 51.83 19.6982C51.9076 19.9998 52.0097 20.2947 52.1353 20.5802C52.279 20.4367 52.3946 20.2682 52.4761 20.0832C52.5992 19.8944 52.6495 19.6684 52.6181 19.4462C52.6242 19.3255 52.6017 19.2051 52.5524 19.0945C52.5031 18.984 52.4283 18.8863 52.3341 18.8092L52.2488 18.8022ZM51.3827 18.7532C51.5352 18.9723 51.6214 19.2296 51.6312 19.4952C51.5248 19.742 51.3915 19.9768 51.2336 20.1952C51.1284 20.0115 51.045 19.8166 50.985 19.6142C50.9806 19.4523 51.0142 19.2917 51.0832 19.1447C51.1521 18.9978 51.2546 18.8686 51.3827 18.7672V18.7532ZM56.4094 8.96716C56.0893 8.86097 55.7427 8.86097 55.4225 8.96716C55.7454 9.05585 56.0866 9.05585 56.4094 8.96716ZM52.895 7.39916C53.021 7.09466 53.1231 6.78109 53.2003 6.46116C53.2003 6.38133 53.1681 6.30477 53.1109 6.24832C53.0536 6.19187 52.9759 6.16016 52.895 6.16016C52.814 6.16016 52.7363 6.19187 52.679 6.24832C52.6218 6.30477 52.5897 6.38133 52.5897 6.46116C52.6589 6.78323 52.7612 7.09753 52.895 7.39916ZM53.7399 7.89616C53.9362 7.50857 54.0863 7.09984 54.1872 6.67816C54.1304 6.57316 54.0807 6.48216 53.9884 6.48216C53.8961 6.48216 53.7896 6.42616 53.7399 6.48216C53.5648 6.88644 53.4615 7.3174 53.4346 7.75616C53.4914 7.79116 53.6334 7.84716 53.7399 7.89616ZM53.25 7.78416H53.0369C53.0883 7.41848 53.1714 7.05777 53.2855 6.70616C53.2852 6.61408 53.3156 6.52446 53.3721 6.4511C53.4285 6.37775 53.5078 6.32471 53.5978 6.30016C53.541 6.49616 53.4559 6.69216 53.3991 6.88116C53.3423 7.18216 53.2926 7.48316 53.2358 7.76316L53.25 7.78416ZM53.2925 8.30916C53.5868 8.3002 53.8782 8.36782 54.1375 8.50516C54.3309 8.62619 54.4859 8.79839 54.5847 9.00216C54.2905 9.01112 53.9991 8.9435 53.7399 8.80616C53.6294 8.76633 53.5307 8.70004 53.4526 8.61331C53.3745 8.52658 53.3195 8.42207 53.2925 8.30916ZM53.4913 8.44916C53.6561 8.62108 53.8573 8.75492 54.0807 8.84116C54.0172 8.73756 53.9316 8.6488 53.8299 8.58111C53.7281 8.51335 53.6125 8.46834 53.4913 8.44916ZM55.6782 10.2202V9.97516C55.461 10.1376 55.222 10.2695 54.9682 10.3672C54.9613 10.2817 54.9811 10.1962 55.025 10.1222C54.9327 10.1798 54.8283 10.2157 54.7197 10.2272C54.7765 10.1222 54.7764 9.98216 54.8616 9.89116C54.822 9.94562 54.7712 9.99126 54.7125 10.0251C54.6538 10.0588 54.5884 10.08 54.5209 10.0872C54.5132 9.9837 54.5327 9.87996 54.5777 9.78616C54.4384 9.98545 54.2279 10.1254 53.9884 10.1782C53.886 10.2041 53.7788 10.2049 53.676 10.1805C53.5733 10.1561 53.4781 10.1072 53.3991 10.0382C53.696 10.0314 53.9787 9.9109 54.1872 9.70216C54.073 9.63678 53.97 9.55411 53.8819 9.45716C53.9478 9.39185 54.0368 9.35419 54.1304 9.35216C54.0587 9.32983 53.9936 9.29077 53.9404 9.23841C53.8873 9.18598 53.8477 9.12179 53.825 9.05116C54.3941 9.18899 54.9787 9.25486 55.5646 9.24716C55.8987 9.24786 56.2311 9.20068 56.5515 9.10716C56.4095 10.1362 55.6711 10.2412 55.6711 10.2412L55.6782 10.2202ZM55.8131 9.80016C55.8683 9.7611 55.9146 9.71098 55.9489 9.65309C55.9831 9.5952 56.0046 9.5308 56.0119 9.46416C55.7126 9.47179 55.4132 9.45303 55.1172 9.40816V9.46416C55.174 9.49916 55.8272 9.49916 55.8272 9.80016H55.8131ZM56.6154 9.16316C56.6112 9.38268 56.563 9.59919 56.4734 9.80016C56.6247 9.70657 56.7435 9.56986 56.8141 9.40816C56.8709 9.19816 56.871 9.05116 56.6154 9.16316ZM57.1194 9.39416C57.2375 9.33977 57.37 9.32402 57.4977 9.34922C57.6255 9.37442 57.7418 9.43924 57.8294 9.53416C57.8944 9.67514 57.9102 9.83334 57.8742 9.98412C57.8382 10.1348 57.7526 10.2696 57.6307 10.3672C57.484 10.247 57.2994 10.1813 57.1088 10.1813C56.9182 10.1813 56.7336 10.247 56.5869 10.3672C56.4467 10.2964 56.2956 10.2491 56.1397 10.2272C56.2511 10.1023 56.3862 10.0001 56.5372 9.92616C56.7919 9.82396 57.0009 9.63524 57.1266 9.39416H57.1194ZM57.3254 9.94016C57.3254 9.91937 57.3191 9.89907 57.3074 9.88185C57.2957 9.86456 57.2791 9.85112 57.2596 9.84314C57.2402 9.83523 57.2187 9.83313 57.198 9.83719C57.1774 9.84125 57.1584 9.85126 57.1435 9.86589C57.1287 9.88059 57.1185 9.89928 57.1144 9.91965C57.1103 9.94002 57.1124 9.96116 57.1204 9.98034C57.1285 9.99952 57.1422 10.0159 57.1597 10.0274C57.1772 10.039 57.1978 10.0452 57.2188 10.0452C57.2756 10.0452 57.3254 9.98916 57.3254 9.94016ZM56.0332 10.2762C55.928 10.4137 55.8141 10.5446 55.6924 10.6682C55.9034 10.6608 56.1117 10.7181 56.2884 10.8322C56.4651 10.9463 56.6016 11.1115 56.6793 11.3052C56.7504 11.2037 56.7931 11.0856 56.8031 10.9627C56.8131 10.8398 56.7899 10.7165 56.7361 10.6052C56.6509 10.5002 56.5428 10.4155 56.4199 10.3574C56.297 10.2993 56.1624 10.2691 56.0261 10.2692" fill="white"/>
<path d="M55.1741 10.4438L54.8333 10.5488V10.3528C54.7268 10.3528 54.6913 10.4088 54.5848 10.4088C54.4815 10.6967 54.3277 10.9644 54.1304 11.1998C54.142 11.3069 54.1784 11.4099 54.2369 11.5008C54.3571 11.2991 54.4898 11.1051 54.6345 10.9198C54.7731 10.7244 54.9584 10.5657 55.1741 10.4578V10.4438ZM55.8202 10.3528C55.5658 10.4062 55.3246 10.5085 55.1102 10.6538C54.9895 10.7281 54.8899 10.8311 54.8203 10.9535C54.7508 11.0759 54.7138 11.2136 54.7126 11.3538C54.8214 11.2016 54.9559 11.0691 55.1102 10.9618C55.3893 10.8156 55.6318 10.6099 55.8202 10.3598V10.3528ZM55.8202 7.86081C55.7137 7.86081 55.6214 7.91681 55.6214 8.00081C55.6818 8.1875 55.7653 8.36621 55.8699 8.53281C55.9847 8.37174 56.0688 8.19149 56.1184 8.00081C56.0374 7.91898 55.9288 7.86921 55.8131 7.86081H55.8202ZM55.9551 8.79881C55.9705 8.55423 56.0383 8.31567 56.1539 8.09881C56.2462 8.04113 56.3506 8.00522 56.4592 7.99381C56.516 7.99381 56.6012 8.04981 56.5657 8.13381V8.18981C56.4464 8.40989 56.3136 8.62262 56.1681 8.82681C56.1681 8.79181 56.0616 8.79181 55.9551 8.79181V8.79881ZM55.7208 8.79181C55.6791 8.55234 55.6125 8.31784 55.522 8.09181C55.4298 8.03413 55.3254 7.99822 55.2167 7.98681C55.1802 7.98996 55.1459 8.00571 55.1199 8.03133C55.0939 8.05695 55.0779 8.09076 55.0747 8.12681V8.18281C55.1941 8.40289 55.3269 8.61562 55.4723 8.81981C55.5508 8.7874 55.6364 8.77529 55.7208 8.78481V8.79181ZM55.4723 7.26581H55.7563V6.99981H55.9551V7.24481H56.2036V7.44081H55.9551V7.69981H55.7563V7.41981H55.4723V7.26581ZM52.54 5.68381H52.7885V5.38281H52.9873V5.68381H53.25V5.82381H53.0015V6.18081H52.8027V5.82381H52.54V5.68381ZM58.5182 9.00881V8.53281C58.6393 8.57222 58.7503 8.63704 58.8434 8.72286C58.9366 8.80868 59.0098 8.9134 59.0578 9.02981C59.0578 9.02981 58.6602 8.78481 58.5182 9.02981V9.00881ZM58.1561 9.66681C58.0993 9.47081 58.0496 9.22581 58.0141 9.02981C57.9238 8.73875 57.944 8.42522 58.0709 8.14781C58.2021 7.93886 58.2525 7.69036 58.2129 7.44781L58.5537 7.58781C58.5383 7.83239 58.4706 8.07095 58.3549 8.28781C58.2836 8.47296 58.264 8.67365 58.2981 8.86881C58.3529 9.00153 58.3686 9.14678 58.3434 9.2879C58.3183 9.42909 58.2534 9.56034 58.1561 9.66681ZM58.1561 7.56681V7.42681C57.9708 7.22129 57.7207 7.08318 57.4461 7.03481C57.3041 6.97881 57.1976 7.03481 57.0485 7.13981C57.142 7.14184 57.2311 7.1795 57.297 7.24481C57.4489 7.37872 57.6185 7.49177 57.8011 7.58081C57.9147 7.57444 58.0284 7.57444 58.1419 7.58081" fill="white"/>
<path d="M57.0628 7.09782C56.9415 7.20058 56.8548 7.33736 56.8142 7.48982C56.8586 7.69737 56.943 7.89463 57.0628 8.07082C57.1835 8.20991 57.2535 8.38491 57.2616 8.56782C57.2616 8.67282 57.155 8.76382 57.1195 8.86882C57.2256 8.83935 57.3247 8.78958 57.4112 8.72231C57.4977 8.65504 57.5699 8.5716 57.6237 8.47682C57.6506 8.38372 57.6517 8.28523 57.6267 8.19164C57.6017 8.09798 57.5516 8.01279 57.4817 7.94482C57.3937 7.75274 57.2789 7.57368 57.1409 7.41282C57.0846 7.3151 57.0598 7.20275 57.0698 7.09082L57.0628 7.09782ZM54.45 10.1848C54.3657 10.4825 54.2313 10.7641 54.0523 11.0178C53.914 11.2407 53.8448 11.4986 53.8536 11.7598C53.7503 11.5266 53.7135 11.2701 53.747 11.0178C53.7857 10.8317 53.8709 10.6579 53.9948 10.5125C54.1188 10.367 54.2777 10.2544 54.457 10.1848H54.45ZM53.953 10.2758C53.7989 10.2856 53.6477 10.3211 53.5057 10.3808C53.2769 10.5543 53.1183 10.8025 53.0584 11.0808C53.2163 11.0371 53.3669 10.9711 53.5057 10.8848C53.703 10.7237 53.8567 10.5169 53.953 10.2828V10.2758ZM55.5505 10.8848C55.657 10.8848 55.7493 10.9408 55.8558 10.9408C55.7163 10.9916 55.583 11.0574 55.4582 11.1368C55.3846 11.1986 55.3246 11.2746 55.2819 11.3601C55.2392 11.4455 55.2146 11.5387 55.2097 11.6338C55.1406 11.9042 55.0381 12.1652 54.9044 12.4108C54.9006 12.1459 54.8526 11.8834 54.7623 11.6338C54.8765 11.5685 54.9795 11.4858 55.0677 11.3888C55.1099 11.2781 55.1744 11.177 55.2574 11.0915C55.3404 11.0061 55.44 10.9382 55.5505 10.8918V10.8848ZM54.1305 11.5918C54.0135 11.8219 53.9551 12.0766 53.9601 12.3338C54.0754 12.5995 54.2259 12.8489 54.4073 13.0758C54.4691 12.7855 54.5048 12.4903 54.5139 12.1938C54.5117 12.0664 54.4774 11.9415 54.4142 11.8303C54.3511 11.7191 54.2609 11.6251 54.1517 11.5568L54.1305 11.5918ZM52.8951 12.4388C52.8951 12.2428 53.3424 11.8018 53.3424 11.5568C53.3074 11.4542 53.2488 11.361 53.1712 11.2845C53.0936 11.208 52.9991 11.1503 52.8951 11.1158C52.7046 11.2155 52.5489 11.3691 52.4478 11.5568C52.4478 11.8018 52.8951 12.2988 52.8951 12.4388ZM53.6051 11.5568C53.4543 11.82 53.3352 12.0995 53.2501 12.3898C53.2255 12.4806 53.2223 12.5758 53.2408 12.668C53.2592 12.7602 53.2988 12.8471 53.3566 12.9218C53.4986 13.1178 53.6619 13.3138 53.8039 13.5028C53.8985 13.3881 53.9664 13.2542 54.0027 13.1108C54.0149 12.9161 54.0006 12.7207 53.9601 12.5298C53.7969 12.2224 53.6751 11.8953 53.598 11.5568H53.6051ZM52.888 13.8598C53.025 13.7599 53.1308 13.6241 53.1933 13.4678C53.2241 13.4043 53.2351 13.3331 53.2251 13.2634C53.2149 13.1936 53.1841 13.1283 53.1364 13.0758C53.0155 12.9531 52.9297 12.8009 52.888 12.6348C52.8259 12.7923 52.7423 12.9406 52.6395 13.0758C52.591 13.1279 52.5596 13.1931 52.5494 13.2631C52.5393 13.3331 52.5508 13.4045 52.5827 13.4678C52.6498 13.6215 52.7548 13.7561 52.888 13.8598ZM53.392 13.4678C53.5838 13.6608 53.7529 13.8745 53.8962 14.1048C53.949 14.1838 53.9772 14.2762 53.9772 14.3708C53.9772 14.4654 53.949 14.5579 53.8962 14.6368C53.7398 14.853 53.539 15.0343 53.3069 15.1688C53.4469 14.9622 53.5165 14.717 53.5057 14.4688C53.452 14.2985 53.3856 14.1323 53.3069 13.9718C53.2981 13.7968 53.3297 13.6221 53.3992 13.4608L53.392 13.4678ZM54.1092 13.2158C54.0124 13.3427 53.9624 13.4982 53.9672 13.6568C53.9767 13.8542 54.0125 14.0496 54.0737 14.2378C54.1807 14.5266 54.3138 14.8054 54.4713 15.0708C54.5741 14.9356 54.6577 14.7873 54.7198 14.6298C54.5778 14.4338 54.4713 14.2378 54.3222 14.0488C54.1731 13.8598 54.1589 13.4678 54.1092 13.2158ZM54.2725 13.0758C54.3742 13.5977 54.5741 14.0964 54.8617 14.5458C54.9425 14.6932 55.0549 14.8215 55.1909 14.9219C55.327 15.0222 55.4836 15.0921 55.6498 15.1268C55.7965 15.12 55.9373 15.0685 56.053 14.9795C56.1686 14.8905 56.2536 14.7683 56.296 14.6298C56.3461 14.502 56.3628 14.3637 56.3441 14.2278C56.3255 14.0919 56.2723 13.9629 56.1895 13.8528C56.1583 13.9764 56.0956 14.0902 56.0074 14.1833C55.9192 14.2764 55.8083 14.3458 55.6854 14.3848C55.3091 14.3498 54.805 13.9088 54.2654 13.0758" fill="white"/>
<path d="M54.67 12.7402C54.6206 12.9237 54.6206 13.1168 54.67 13.3002C54.689 13.4017 54.729 13.4983 54.7877 13.5839C54.8463 13.6693 54.9223 13.742 55.0108 13.7972C55.1261 13.8633 55.2619 13.8855 55.3927 13.8597C55.5234 13.8339 55.6401 13.762 55.7208 13.6572L55.7776 13.6012C55.5282 13.579 55.2907 13.4857 55.0941 13.3329C54.8975 13.18 54.7501 12.9741 54.67 12.7402ZM52.895 15.1832C53.024 15.1418 53.1329 15.0544 53.2003 14.9382C53.2973 14.7597 53.3462 14.5597 53.3423 14.3572C53.2881 14.1962 53.2038 14.0466 53.0938 13.9162C53.0387 13.9767 52.9709 14.0245 52.895 14.0562C52.8331 14.0038 52.7665 13.957 52.6962 13.9162C52.5934 14.0514 52.5097 14.1997 52.4477 14.3572C52.4264 14.4584 52.4281 14.563 52.4526 14.6634C52.4771 14.7639 52.524 14.8577 52.5897 14.9382C52.6465 15.0992 52.753 15.1342 52.895 15.1832ZM52.895 16.6532C52.9518 16.4082 53.3991 16.0162 53.3991 15.7712C53.3991 15.5262 53.0938 15.4702 52.895 15.3302C52.6962 15.4702 52.4974 15.4352 52.3909 15.7712C52.3909 15.9672 52.8382 16.4082 52.895 16.6532ZM53.4346 16.1212C53.2449 16.3555 53.094 16.6177 52.9873 16.8982C52.997 17.2615 53.1022 17.6161 53.2926 17.9272C53.5195 17.7411 53.6932 17.4998 53.7967 17.2272C53.8308 17.0245 53.8158 16.8168 53.7529 16.6209C53.6899 16.425 53.5808 16.2466 53.4346 16.1002V16.1212ZM53.9387 16.4362C53.8523 16.1991 53.7169 15.9821 53.5411 15.7992C53.4888 15.5898 53.5103 15.3692 53.6018 15.1733C53.6934 14.9774 53.8497 14.818 54.0452 14.7212C54.2059 14.9653 54.3393 15.2257 54.4428 15.4982C54.4783 15.9042 54.0807 16.1002 53.9387 16.4362ZM54.8333 14.7702C54.942 14.9224 55.0765 15.055 55.2309 15.1622V15.6592C55.1532 15.9449 55.051 16.2236 54.9256 16.4922C54.7709 16.3039 54.6551 16.0875 54.5848 15.8552C54.5438 15.6643 54.5248 15.4694 54.528 15.2742C54.5848 15.2182 54.7268 14.9172 54.8333 14.7772V14.7702ZM55.6782 16.1772C55.8873 15.8795 56.0278 15.5402 56.09 15.1832C55.9828 15.2425 55.8638 15.2782 55.7412 15.2879C55.6186 15.2975 55.4954 15.281 55.38 15.2392C55.3262 15.4483 55.3262 15.6672 55.38 15.8762C55.468 15.9997 55.5705 16.1125 55.6853 16.2122L55.6782 16.1772ZM55.6285 16.3172C55.522 16.2122 55.4297 16.1772 55.38 16.0722C55.2735 16.2682 55.1812 16.4642 55.0747 16.6532C55.1812 16.6532 55.2735 16.6532 55.3232 16.5972C55.4154 16.4943 55.5176 16.4005 55.6285 16.3172ZM54.4712 16.1002C54.6221 16.3451 54.7906 16.579 54.9753 16.8002C54.9217 16.9705 54.8552 17.1367 54.7765 17.2972C54.6565 17.5111 54.5058 17.7068 54.3292 17.8782C54.2079 17.6951 54.1056 17.5005 54.0239 17.2972C53.9485 17.1427 53.9261 16.9684 53.96 16.8002C54.0665 16.5552 54.3718 16.3032 54.4641 16.0582L54.4712 16.1002ZM52.895 19.2012C53.0232 19.0136 53.1417 18.8197 53.25 18.6202C53.2981 18.4842 53.2981 18.3362 53.25 18.2002C53.1932 18.0602 52.9447 17.7032 52.9092 17.6192C52.7716 17.8035 52.6482 17.9978 52.54 18.2002C52.4867 18.3425 52.4867 18.4989 52.54 18.6412C52.6323 18.9422 52.8808 19.0822 52.8808 19.2222L52.895 19.2012ZM53.8677 17.4512C53.703 17.6653 53.5691 17.9009 53.4701 18.1512C53.4353 18.3002 53.4554 18.4565 53.5269 18.5922C53.5837 18.6972 53.7257 18.9282 53.8322 19.1242C54.0325 18.9746 54.1872 18.7737 54.2795 18.5432C54.3099 18.4475 54.3206 18.3469 54.3109 18.2471C54.3011 18.1472 54.2711 18.0504 54.2227 17.9622C54.1659 17.8222 53.9742 17.6822 53.8606 17.4652L53.8677 17.4512ZM54.9043 17.4302C54.7645 17.6078 54.6498 17.8032 54.5635 18.0112C54.5111 18.0993 54.4834 18.1996 54.4834 18.3017C54.4834 18.4039 54.5111 18.5042 54.5635 18.5922C54.67 18.7882 54.7623 18.9282 54.812 19.0332C54.9562 18.8769 55.0715 18.6968 55.1528 18.5012C55.206 18.3111 55.206 18.1104 55.1528 17.9202C55.0487 17.7657 54.9651 17.5987 54.9043 17.4232V17.4302ZM52.895 22.0502C53.0932 21.6286 53.2272 21.1805 53.2926 20.7202C53.24 20.3802 53.1034 20.0581 52.895 19.7822C52.6627 20.0441 52.5231 20.3733 52.4974 20.7202C52.5469 21.1837 52.6816 21.6344 52.895 22.0502ZM53.4843 18.8092C53.7067 19.0678 53.8691 19.3713 53.96 19.6982C53.8824 19.9998 53.7803 20.2948 53.6547 20.5802C53.5109 20.4367 53.3953 20.2682 53.3139 20.0832C53.2452 19.9934 53.197 19.8899 53.1725 19.78C53.148 19.6701 53.1478 19.5562 53.1719 19.4462C53.1587 19.3249 53.1781 19.2022 53.2279 19.0905C53.2777 18.9787 53.3563 18.8818 53.4559 18.8092H53.4843ZM54.4073 18.7532C54.2547 18.9723 54.1685 19.2297 54.1588 19.4952C54.2651 19.7421 54.3984 19.9768 54.5564 20.1952C54.6615 20.0116 54.7449 19.8167 54.8049 19.6142C54.8093 19.4524 54.7758 19.2917 54.7067 19.1448C54.6378 18.9979 54.5353 18.8687 54.4073 18.7672" fill="white"/>
<path d="M53.2501 23.023C53.3144 22.6839 53.4293 22.356 53.5909 22.05C53.6217 21.9053 53.6199 21.7557 53.5855 21.6117C53.5512 21.4678 53.4851 21.333 53.3921 21.217C53.2567 21.6536 53.0882 22.0794 52.888 22.491C52.6953 22.0762 52.527 21.6509 52.3839 21.217C52.2908 21.333 52.2247 21.4678 52.1904 21.6117C52.156 21.7557 52.1542 21.9053 52.1851 22.05C52.3328 22.3631 52.4517 22.6889 52.5401 23.023C52.5331 23.1676 52.4809 23.3064 52.3906 23.4205C52.3004 23.5345 52.1765 23.6182 52.036 23.66C52.1598 23.7081 52.2962 23.715 52.4243 23.6796C52.5526 23.6442 52.6654 23.5685 52.746 23.464C52.8073 23.4098 52.8558 23.3429 52.888 23.268C52.9411 23.3291 52.9886 23.3947 53.03 23.464C53.1097 23.5695 53.2226 23.6459 53.3511 23.6814C53.4795 23.7168 53.6163 23.7093 53.74 23.66C53.6225 23.5902 53.5205 23.4979 53.44 23.3885C53.3595 23.279 53.3022 23.1548 53.2714 23.023H53.2501ZM51.6384 19.943C51.6952 20.083 51.8372 20.44 51.8869 20.524C51.9062 20.6521 51.8834 20.783 51.8222 20.8976C51.7609 21.0121 51.6642 21.1044 51.5461 21.161C51.4126 21.0816 51.3062 20.9645 51.2408 20.825C51.208 20.7619 51.1958 20.6904 51.206 20.6201C51.2162 20.5499 51.2481 20.4846 51.2976 20.433C51.3746 20.2456 51.4907 20.0763 51.6384 19.936V19.943ZM52.3484 20.636C52.3249 20.9379 52.258 21.2348 52.1496 21.518C52.0741 21.675 51.9642 21.8136 51.828 21.9237C51.6918 22.0339 51.5324 22.1128 51.3615 22.155C51.198 22.1277 51.0442 22.0604 50.9142 21.959C50.9267 21.8683 50.9655 21.7831 51.026 21.7135C51.0864 21.644 51.1659 21.5931 51.255 21.567C51.7068 21.3699 52.0879 21.043 52.3484 20.629V20.636ZM51.397 21.329C51.335 21.2766 51.2685 21.2298 51.1982 21.189C51.0217 21.2527 50.8527 21.3348 50.6941 21.434C50.4882 21.5838 50.3063 21.7631 50.1545 21.966C50.3303 22.0194 50.5183 22.0194 50.6941 21.966C50.7328 21.785 50.8425 21.6265 50.9994 21.525C51.1179 21.4352 51.2529 21.3686 51.397 21.329ZM51.1201 21.063C51.0234 20.9361 50.9733 20.7807 50.9781 20.622L50.3888 21.014C50.1989 21.1567 50.0294 21.3239 49.8847 21.511C50.0778 21.4517 50.2746 21.4049 50.474 21.371C50.7225 21.266 50.9213 21.175 51.1201 21.07V21.063ZM50.332 21.567C49.9906 21.6738 49.6418 21.7557 49.2883 21.812C49.0454 21.9154 48.8258 22.0652 48.6422 22.253L49.1818 22.393C49.3661 22.2616 49.5635 22.1489 49.7711 22.057C49.9871 21.929 50.1753 21.7601 50.3249 21.56L50.332 21.567ZM49.8208 23.17C49.9273 23.114 49.9273 23.03 49.8776 22.925C49.7946 22.8085 49.6747 22.7223 49.5368 22.68C49.2315 22.575 48.8907 22.484 48.5854 22.379C48.5322 22.4401 48.4847 22.5057 48.4434 22.575C48.4434 22.631 48.4434 22.68 48.5499 22.68H49.196C49.231 22.7094 49.2554 22.7491 49.2656 22.7932C49.2759 22.8374 49.2714 22.8836 49.2528 22.925C49.345 22.8674 49.4494 22.8314 49.5581 22.82C49.6262 22.8571 49.6856 22.9082 49.7321 22.9698C49.7786 23.0314 49.8112 23.102 49.8279 23.177L49.8208 23.17ZM49.3238 22.4C49.4996 22.4439 49.669 22.5098 49.8279 22.596C49.8847 22.54 49.9344 22.54 49.9699 22.491C50.0632 22.3267 50.2008 22.1911 50.3675 22.099C50.2808 22.1058 50.1941 22.0863 50.119 22.043C50.0125 22.099 49.9202 22.099 49.8137 22.148C49.6408 22.2046 49.478 22.2873 49.3309 22.393L49.3238 22.4ZM50.7509 22.057C50.6941 22.113 50.6089 22.113 50.5024 22.113C50.2375 22.2688 50.0441 22.5197 49.9628 22.813C49.9303 22.8975 49.9329 22.9913 49.9702 23.0739C50.0074 23.1564 50.0762 23.2211 50.1616 23.254C50.2669 23.2997 50.3857 23.3049 50.4947 23.2686C50.6037 23.2323 50.6951 23.1572 50.7509 23.058C50.7509 23.002 50.8077 23.002 50.8077 22.953C50.7713 22.982 50.7295 23.0036 50.6847 23.0167C50.6398 23.0297 50.5928 23.0339 50.5464 23.029C50.4999 23.0241 50.4549 23.0102 50.4138 22.9882C50.3727 22.9662 50.3365 22.9364 50.3071 22.9005C50.2478 22.8282 50.2201 22.7355 50.2301 22.6429C50.2401 22.5503 50.2869 22.4655 50.3604 22.407C50.4172 22.407 50.4172 22.351 50.4669 22.351C50.6272 22.2493 50.8161 22.2003 51.0065 22.211C50.9 22.155 50.8077 22.071 50.758 22.071" fill="white"/>
<path d="M47.5274 25.9C47.5885 25.6597 47.6717 25.4254 47.7759 25.2C48.0244 24.703 48.5285 23.485 49.6574 23.289C49.7639 23.289 49.5509 22.988 49.4089 23.044C49.2648 23.0835 49.1299 23.1501 49.0113 23.24V22.939C49.0113 22.883 48.9545 22.883 48.9048 22.883C48.7656 22.8854 48.629 22.9215 48.5072 22.988C48.1208 23.5072 47.8057 24.0744 47.57 24.675C47.3215 25.256 47.1724 25.452 46.86 25.375C46.5476 25.298 46.4624 24.983 45.9654 25.074C45.7719 25.1252 45.5971 25.2296 45.4613 25.375C45.4864 25.4308 45.5311 25.4758 45.5873 25.5015C45.6434 25.5273 45.7072 25.532 45.7666 25.515C46.065 25.5229 46.3563 25.6073 46.6115 25.76C46.9138 25.8293 47.2195 25.883 47.5274 25.921V25.9ZM52.0501 22.064C52.0843 22.2597 52.17 22.4432 52.2986 22.596C52.2986 22.596 51.9578 24.171 50.7011 24.311C50.7546 24.0748 50.8966 23.8672 51.0987 23.73C51.4963 23.485 52.0501 23.093 51.9933 22.512C51.8791 22.5773 51.7761 22.66 51.688 22.757C51.4892 23.002 51.1484 23.639 50.5023 23.639C50.5613 23.4427 50.6803 23.2691 50.8431 23.142C51.1367 22.9843 51.3932 22.7673 51.5957 22.505C51.6864 22.3099 51.8451 22.1534 52.043 22.064H52.0501ZM51.4537 27.832L52.2063 28.91L52.7956 27.881L52.5968 27.545L52.1992 28.287L51.6951 27.545L51.4466 27.825" fill="white"/>
<path d="M51.262 26.936L49.5225 24.5L49.8278 24.304L48.9332 23.968V24.941L49.2385 24.696L51.0703 27.244L51.2691 26.943L51.262 26.936ZM45.0069 21.175C45.2554 20.93 45.5962 21.119 45.9938 21.511C46.3914 21.903 46.6399 22.211 46.3914 22.449C46.1429 22.687 45.8021 22.505 45.4045 22.148C45.0069 21.791 44.8152 21.448 45.0069 21.175Z" fill="white"/>
<path d="M45.6459 25.466C45.533 25.3706 45.4436 25.2509 45.3846 25.1163C45.3256 24.9817 45.2984 24.8355 45.3051 24.689C45.2933 24.5472 45.3113 24.4046 45.3581 24.27C45.405 24.1354 45.4797 24.0119 45.5775 23.9073C45.6752 23.8026 45.7939 23.719 45.9261 23.6619C46.0582 23.6047 46.201 23.5753 46.3453 23.5753C46.4896 23.5753 46.6323 23.6047 46.7644 23.6619C46.8966 23.719 47.0154 23.8026 47.1131 23.9073C47.2108 24.0119 47.2855 24.1354 47.3324 24.27C47.3792 24.4046 47.3973 24.5472 47.3854 24.689V24.885C47.4542 24.7016 47.5373 24.5238 47.6339 24.353C47.539 24.0179 47.3153 23.7325 47.0105 23.5573C46.7055 23.3822 46.3434 23.3312 46.0009 23.415C45.637 23.53 45.3335 23.7814 45.156 24.115C45.2147 23.6813 45.4024 23.2745 45.6956 22.946C45.8723 22.8118 46.0718 22.7099 46.2849 22.645C46.1031 22.6455 45.9234 22.6063 45.7589 22.53C45.5944 22.4537 45.4491 22.3424 45.3335 22.204C45.0512 22.0055 44.8579 21.707 44.7939 21.371C44.838 21.6347 44.8009 21.9053 44.6874 22.148C44.3964 22.6914 44.2777 23.3084 44.3466 23.919C44.4817 24.5031 44.7937 25.0329 45.2412 25.438C45.2904 25.4906 45.3283 25.5524 45.3527 25.6198C45.3771 25.6871 45.3875 25.7586 45.3832 25.83H46.3346C46.3346 25.83 46.5334 25.83 46.5334 25.69C46.5334 25.55 46.4269 25.55 46.3346 25.55C46.0956 25.5749 45.8539 25.5511 45.6246 25.48L45.6459 25.466ZM49.7355 25.69C49.2695 25.8304 48.7953 25.9426 48.3155 26.026C48.0361 26.0695 47.7534 26.0883 47.4706 26.082V26.222C47.4897 26.24 47.5046 26.2618 47.5144 26.2859C47.5242 26.3101 47.5286 26.3361 47.5274 26.362C47.8267 26.3697 48.1261 26.3509 48.422 26.306C48.9546 26.2426 49.4756 26.106 49.9698 25.9L49.7568 25.669L49.7355 25.69ZM50.5662 25.669C51.3303 25.2814 51.966 24.6864 52.398 23.954L52.5045 23.814C52.4517 23.8405 52.3933 23.8542 52.3341 23.8542C52.2749 23.8542 52.2165 23.8405 52.1637 23.814L52.1069 23.919C51.667 24.5637 51.0874 25.104 50.41 25.501L50.552 25.676L50.5662 25.669ZM46.292 25.956H45.7524C45.717 25.9455 45.6797 25.9423 45.643 25.9467C45.6062 25.9509 45.5708 25.9626 45.5388 25.981C45.5068 25.9994 45.4791 26.0241 45.4572 26.0535C45.4353 26.0829 45.4198 26.1165 45.4116 26.152C45.3548 26.257 45.4116 26.348 45.5181 26.453C45.6246 26.558 45.7169 26.509 45.7666 26.453C45.9705 26.3543 46.1674 26.2421 46.3559 26.117C46.3914 26.012 46.4482 25.907 46.2849 25.956H46.292ZM46.7322 26.201C46.6553 26.1625 46.57 26.1433 46.4837 26.145C46.2865 26.2508 46.105 26.3827 45.9441 26.537C45.8873 26.642 45.9441 26.677 46.0506 26.733C46.1071 26.7763 46.1783 26.7964 46.2494 26.789C46.3429 26.787 46.4319 26.7493 46.4979 26.684C46.5547 26.628 46.7464 26.383 46.8032 26.348C46.7906 26.2967 46.7663 26.2488 46.7322 26.208V26.201ZM46.789 26.453C46.7322 26.509 46.5405 26.754 46.5405 26.754C46.5405 26.754 46.5405 26.81 46.5973 26.859H46.6541C46.832 26.859 47.0065 26.8106 47.1582 26.719C47.3215 26.628 47.4635 26.383 47.3002 26.327C47.2592 26.3009 47.2132 26.2834 47.165 26.2757C47.1169 26.2678 47.0676 26.2699 47.0203 26.2817C46.973 26.2936 46.9287 26.3149 46.8901 26.3443C46.8516 26.3738 46.8195 26.4108 46.7961 26.453H46.789ZM46.9026 25.816C46.8562 25.7896 46.8036 25.7757 46.75 25.7757C46.6964 25.7757 46.6437 25.7896 46.5973 25.816C46.5405 25.921 46.5973 26.012 46.7393 26.061C46.8196 26.1088 46.9095 26.1386 47.0028 26.1483C47.096 26.158 47.1903 26.1473 47.2789 26.117C47.3499 26.061 47.2434 25.907 46.9026 25.816ZM54.244 19.943C54.1872 20.083 54.0452 20.44 53.9955 20.524C53.9763 20.6521 53.9989 20.783 54.0602 20.8976C54.1215 21.0121 54.2182 21.1044 54.3363 21.161C54.4698 21.0816 54.5761 20.9645 54.6416 20.825C54.6744 20.7619 54.6866 20.6904 54.6764 20.6201C54.6662 20.5499 54.6342 20.4846 54.5848 20.433C54.4428 20.223 54.3363 20.076 54.244 19.936V19.943ZM53.4914 20.636C53.5075 20.9445 53.5923 21.2456 53.7399 21.518C53.8154 21.675 53.9252 21.8136 54.0615 21.9237C54.1977 22.0339 54.3571 22.1128 54.528 22.155C54.6915 22.1277 54.8452 22.0604 54.9753 21.959C54.9669 21.8712 54.934 21.7873 54.88 21.7168C54.8261 21.6464 54.7534 21.5921 54.67 21.56C54.2018 21.365 53.8019 21.0389 53.5198 20.622" fill="white"/>
<path d="M54.3859 21.3079C54.4479 21.2555 54.5144 21.2087 54.5847 21.1679C54.7612 21.2315 54.9302 21.3137 55.0888 21.4129C55.2947 21.5626 55.4766 21.742 55.6284 21.9449C55.4526 21.9983 55.2646 21.9983 55.0888 21.9449C55.0501 21.7639 54.9404 21.6053 54.7835 21.5039C54.7267 21.4129 54.5847 21.3639 54.3859 21.3079ZM54.6912 21.0629C54.7947 20.9181 54.8447 20.7427 54.8332 20.5659L55.4225 20.9579C55.6124 21.1006 55.7819 21.2677 55.9266 21.4549C55.7335 21.3956 55.5367 21.3488 55.3373 21.3149C55.1176 21.2542 54.914 21.1466 54.7409 20.9999L54.6912 21.0629ZM55.4509 21.5459C55.7923 21.6527 56.1411 21.7346 56.4946 21.7909C56.7375 21.8942 56.9571 22.0442 57.1407 22.2319L56.6011 22.3719C56.4168 22.2405 56.2194 22.1279 56.0118 22.0359C55.7922 21.9128 55.603 21.743 55.458 21.5389L55.4509 21.5459ZM55.9408 23.1489C55.8343 23.0929 55.8343 23.0089 55.884 22.9039C55.967 22.7874 56.0869 22.7012 56.2248 22.6589C56.5301 22.5539 56.8709 22.4629 57.1762 22.3579C57.2294 22.419 57.2769 22.4845 57.3182 22.5539C57.3182 22.6099 57.3182 22.6589 57.2117 22.6589H56.5656C56.5306 22.6882 56.5062 22.7279 56.496 22.7721C56.4857 22.8163 56.4902 22.8625 56.5088 22.9039C56.4166 22.8462 56.3122 22.8103 56.2035 22.7989C56.0706 22.8796 55.9741 23.0073 55.9337 23.1559L55.9408 23.1489ZM56.4662 22.3999C56.2904 22.4438 56.121 22.5097 55.9621 22.5959C55.9344 22.5942 55.9083 22.5827 55.8887 22.5633C55.8691 22.544 55.8573 22.5182 55.8556 22.4909C55.7623 22.3266 55.6247 22.191 55.458 22.0989C55.5447 22.1057 55.6314 22.0862 55.7065 22.0429C55.813 22.0989 55.9053 22.0989 56.0118 22.1479C56.1701 22.2122 56.3202 22.2944 56.4591 22.3929L56.4662 22.3999ZM55.0391 22.0569C55.0959 22.1129 55.1811 22.1129 55.2876 22.1129C55.5525 22.2687 55.7459 22.5195 55.8272 22.8129C55.8597 22.8974 55.8571 22.9911 55.8198 23.0737C55.7826 23.1563 55.7138 23.2211 55.6284 23.2539C55.5231 23.2996 55.4043 23.3047 55.2953 23.2685C55.1863 23.2322 55.0949 23.1571 55.0391 23.0579C55.0391 23.0019 54.9823 23.0019 54.9823 22.9529C55.0558 23.0114 55.1498 23.0387 55.2436 23.0289C55.3375 23.0191 55.4236 22.9728 55.4829 22.9004C55.5422 22.828 55.5699 22.7354 55.5599 22.6428C55.5499 22.5503 55.5031 22.4654 55.4296 22.4069C55.3728 22.4069 55.3728 22.3509 55.3231 22.3509C55.1628 22.2492 54.9739 22.2001 54.7835 22.2109C54.89 22.1549 54.9823 22.0709 55.032 22.0709L55.0391 22.0569ZM58.3193 25.8999C58.256 25.6594 58.1704 25.4251 58.0637 25.1999C57.8152 24.7029 57.3111 23.4849 56.1822 23.2889C56.0757 23.2889 56.2887 22.9879 56.4307 23.0439C56.5748 23.0835 56.7098 23.15 56.8283 23.2399V22.9389C56.8283 22.8829 56.8851 22.8829 56.9348 22.8829C57.0048 22.8714 57.0766 22.8748 57.1452 22.8929C57.2138 22.9111 57.2776 22.9435 57.3324 22.9879C57.726 23.515 58.0459 24.0919 58.2838 24.7029C58.5323 25.2839 58.6814 25.4799 58.9938 25.4029C59.3062 25.3259 59.4411 25.0109 59.8884 25.1019C60.082 25.1532 60.2568 25.2575 60.3925 25.4029C60.3675 25.4588 60.3227 25.5037 60.2666 25.5295C60.2104 25.5552 60.1467 25.56 60.0872 25.5429C59.7888 25.5508 59.4976 25.6352 59.2423 25.7879C58.9205 25.8579 58.6152 25.9116 58.3264 25.9489L58.3193 25.8999ZM53.7398 22.0499C53.7057 22.2456 53.62 22.4291 53.4913 22.5819C53.4913 22.5819 53.8321 24.1569 55.0888 24.2969C55.0354 24.0607 54.8934 23.8532 54.6912 23.7159C54.2936 23.4709 53.7398 23.0789 53.7966 22.4979C53.9108 22.5633 54.0138 22.646 54.1019 22.7429C54.3007 22.9879 54.6415 23.6249 55.2876 23.6249C55.2286 23.4286 55.1096 23.255 54.9468 23.1279C54.6533 22.9703 54.3967 22.7532 54.1942 22.4909C54.0982 22.2995 53.9411 22.1446 53.7469 22.0499H53.7398ZM52.8949 23.5549C53.0958 23.9458 53.3489 24.3084 53.6475 24.6329C53.8463 24.8289 54.3575 25.3329 54.6344 25.5709C54.1983 25.4721 53.792 25.273 53.4487 24.9899C53.2824 25.0869 53.0996 25.1533 52.9091 25.1859C52.7168 25.1607 52.5325 25.0937 52.3695 24.9899C52.0329 25.2829 51.624 25.4833 51.1838 25.5709C51.4323 25.3259 51.9719 24.8289 52.1707 24.6329C52.4949 24.3375 52.7389 23.9669 52.8807 23.5549" fill="white"/>
<path d="M52.8951 25.3262C53.0491 25.3164 53.2003 25.2809 53.3424 25.2212C53.2501 25.4516 53.0953 25.6526 52.8951 25.8022C52.7065 25.6413 52.5542 25.4434 52.4478 25.2212C52.5898 25.2809 52.741 25.3164 52.8951 25.3262Z" fill="white"/>
<path d="M53.5411 28.9031L56.5728 24.7451L56.8781 24.9901V24.0171L55.9835 24.3531L56.2888 24.5491L53.6121 28.2661L52.1921 25.8231L52.0501 26.0681L50.8644 27.8741L50.5591 27.6781V28.6511L51.5105 28.3151L51.2052 28.1191L52.2489 26.5441L53.5411 28.8961" fill="white"/>
<path d="M54.0807 27.2372L53.5766 26.4602C53.5198 26.6002 53.3281 26.8522 53.179 27.2022L52.9802 26.8102L53.5695 25.7812L53.7115 26.0262L54.2511 26.9642L54.0736 27.2302L54.0807 27.2372ZM54.7197 27.4752L54.9185 27.8112L55.2238 27.6152V28.5882L54.2724 28.2522L54.5777 28.0562L54.4357 27.8602L54.7197 27.4682V27.4752ZM60.7902 21.1682C60.5417 20.9232 60.2009 21.1122 59.8033 21.5042C59.4057 21.8962 59.1572 22.2042 59.4057 22.4422C59.6542 22.6802 59.995 22.4982 60.3926 22.1412C60.7902 21.7842 60.9819 21.4412 60.7902 21.1682Z" fill="white"/>
<path d="M60.2009 25.4658C60.3138 25.3703 60.4031 25.2507 60.4622 25.1161C60.5212 24.9814 60.5484 24.8353 60.5417 24.6888C60.5201 24.4314 60.4012 24.1915 60.2085 24.0166C60.0158 23.8416 59.7634 23.7445 59.5015 23.7445C59.2396 23.7445 58.9873 23.8416 58.7946 24.0166C58.6019 24.1915 58.4829 24.4314 58.4614 24.6888V24.8848C58.4046 24.7798 58.2129 24.3878 58.2129 24.3528C58.3078 24.0177 58.5314 23.7323 58.8363 23.5571C59.1413 23.382 59.5034 23.3309 59.8459 23.4148C60.2098 23.5297 60.5133 23.7811 60.6908 24.1148C60.6321 23.681 60.4443 23.2743 60.1512 22.9458C59.9745 22.8116 59.7749 22.7096 59.5619 22.6448C59.7437 22.6453 59.9233 22.606 60.0878 22.5297C60.2523 22.4535 60.3977 22.3421 60.5133 22.2038C60.7998 22.0049 60.9959 21.7034 61.06 21.3638C61.0159 21.6275 61.053 21.8981 61.1665 22.1408C61.4575 22.6841 61.5762 23.3011 61.5073 23.9118C61.3722 24.4958 61.0602 25.0256 60.6127 25.4308C60.5635 25.4833 60.5255 25.5451 60.5012 25.6125C60.4768 25.6798 60.4664 25.7514 60.4707 25.8228H59.498C59.498 25.8228 59.2992 25.8228 59.2992 25.6828C59.2992 25.5428 59.4057 25.5428 59.498 25.5428C59.737 25.562 59.9776 25.5383 60.208 25.4728L60.2009 25.4658ZM55.2877 25.6828C54.5349 25.2796 53.9031 24.6881 53.4559 23.9678L53.3494 23.8278C53.4022 23.8542 53.4605 23.868 53.5198 23.868C53.579 23.868 53.6373 23.8542 53.6902 23.8278L53.747 23.9328C54.1857 24.5741 54.7627 25.1119 55.4368 25.5078L55.2948 25.6828H55.2877ZM56.0048 25.6828C56.4707 25.8231 56.9449 25.9353 57.4248 26.0188C57.7041 26.0623 57.9869 26.081 58.2697 26.0748V26.2148C58.2506 26.2328 58.2357 26.2545 58.2259 26.2787C58.2161 26.3028 58.2117 26.3288 58.2129 26.3548C57.9136 26.3624 57.6142 26.3436 57.3183 26.2988C56.7981 26.2344 56.2893 26.1002 55.806 25.8998L56.019 25.6688L56.0048 25.6828ZM59.4483 25.9488H59.9879C60.1334 25.9454 60.275 25.9953 60.3855 26.0888C60.3865 26.1514 60.3745 26.2136 60.35 26.2714C60.3256 26.3292 60.2893 26.3814 60.2435 26.4248C60.137 26.4808 60.0447 26.4808 59.995 26.4248C59.7911 26.3261 59.5942 26.2138 59.4057 26.0888C59.3702 26.0538 59.3134 25.8928 59.4625 25.9488H59.4483ZM59.0152 26.1938C59.1103 26.1495 59.2155 26.1302 59.3205 26.1378C59.5176 26.2435 59.6992 26.3754 59.8601 26.5298C59.9169 26.6348 59.8601 26.6698 59.7536 26.7258C59.6971 26.769 59.6259 26.7891 59.5548 26.7818C59.4613 26.7797 59.3722 26.7421 59.3063 26.6768C59.2495 26.6208 59.0578 26.3758 59.001 26.3408C59.0107 26.2946 59.0107 26.247 59.001 26.2008L59.0152 26.1938ZM58.93 26.4598C58.9868 26.5158 59.1785 26.7608 59.1785 26.7608C59.1785 26.7608 59.1785 26.8168 59.1217 26.8658H59.0649C58.8869 26.8658 58.7125 26.8173 58.5608 26.7258C58.4188 26.6208 58.2555 26.3898 58.4188 26.3338C58.459 26.3054 58.5051 26.2861 58.5537 26.2771C58.6024 26.2681 58.6524 26.2697 58.7004 26.2816C58.7484 26.2936 58.7931 26.3158 58.8316 26.3465C58.87 26.3773 58.9011 26.4159 58.9229 26.4598H58.93ZM58.8164 25.8228C58.8628 25.7964 58.9154 25.7825 58.969 25.7825C59.0226 25.7825 59.0752 25.7964 59.1217 25.8228C59.1785 25.9278 59.1217 26.0188 58.9797 26.0678C58.9 26.117 58.81 26.1476 58.7165 26.1573C58.623 26.167 58.5284 26.1555 58.4401 26.1238C58.3691 26.0678 58.4756 25.9138 58.8164 25.8228Z" fill="white"/>
<path d="M103.426 10.2832C103.284 8.9532 102.638 8.2812 101.147 8.2812H99.2651L99.0166 15.7852H100.437C100.437 15.7852 100.579 12.2852 100.579 12.1592H102.318C102.318 12.2992 102.623 15.7852 102.623 15.7852H104.043C103.987 15.7292 103.49 10.5842 103.433 10.2832H103.426ZM100.593 10.8852C100.593 10.7452 100.65 9.6672 100.65 9.4852H100.898C101.885 9.4852 102.084 9.6812 102.19 10.8852H100.593ZM86.6768 20.5872C86.5348 19.2572 85.8887 18.5852 84.3977 18.5852H82.5162L82.2677 26.0892H83.6877C83.6877 26.0892 83.8297 22.5892 83.8297 22.4632H85.5692C85.5692 22.6032 85.8745 26.0892 85.8745 26.0892H87.2945C87.2377 26.0192 86.7407 20.8672 86.6839 20.5872H86.6768ZM83.8439 21.1682C83.8439 21.0282 83.9007 19.9502 83.9007 19.7682H84.1492C85.1361 19.7682 85.3349 19.9642 85.4414 21.1682H83.8439ZM76.3392 8.2812V15.7712H77.7592V9.4712H79.449V15.7712H80.869V8.2812H76.3392ZM91.1143 10.8852H90.3617C90.1097 10.8959 89.8612 10.8272 89.6517 10.6892C89.6027 10.6366 89.5644 10.5748 89.5403 10.5075C89.5161 10.4401 89.5055 10.3686 89.5097 10.2972V8.2812H88.0897V10.4372C88.0819 10.672 88.1309 10.9051 88.2332 11.1172C88.3361 11.3292 88.4888 11.5137 88.679 11.6552C89.0752 11.9859 89.58 12.1626 90.099 12.1522H91.0859V15.7782H92.5059V8.2812H91.0859V10.8852H91.1143ZM94.0324 8.2812V9.4992H95.1826V15.7992H96.6026V9.4992H97.7528V8.2812H94.0324ZM91.9876 18.5082V20.9162H90.0493V18.5152H88.6648V26.0192H90.0493V22.1972H91.9876V26.0192H93.4076V18.5152L91.9876 18.5082ZM78.384 21.0002H77.7379V19.8032H80.23V18.5852H76.3534V26.0892H78.4834C78.8186 26.0938 79.1501 26.03 79.459 25.9019C79.7678 25.7737 80.0461 25.5841 80.2769 25.3448C80.5076 25.1055 80.6859 24.8217 80.7995 24.5113C80.9138 24.2009 80.9613 23.8707 80.94 23.5412C80.8832 22.6942 80.5992 21.0282 78.4053 21.0282L78.384 21.0002ZM78.2065 24.8852C78.0645 24.8852 77.7024 24.8292 77.7024 24.8292V22.1972H77.9509C78.6609 22.1972 79.4916 22.1412 79.4916 23.5272C79.4916 24.8012 78.597 24.8922 78.1994 24.8922L78.2065 24.8852ZM87.0886 11.7602C87.0986 10.9311 86.9268 10.1097 86.5845 9.3522C86.4283 8.97287 86.16 8.64856 85.8142 8.42141C85.4684 8.19426 85.0616 8.0747 84.6462 8.0782H84.5894C84.1755 8.08205 83.7722 8.20455 83.4279 8.43079C83.0835 8.65703 82.8137 8.97721 82.6511 9.3522C82.3125 10.1107 82.1406 10.9314 82.147 11.7602V12.0052C82.1293 12.6165 82.2131 13.2266 82.3955 13.8112C82.7931 15.3302 83.6309 15.8622 84.5823 15.9112H84.6391C85.5905 15.9112 86.4354 15.3792 86.8259 13.8112C86.9793 13.2206 87.0624 12.6146 87.0744 12.0052V11.7602H87.0886ZM83.5244 12.0052C83.5244 10.0032 84.0285 9.3172 84.5681 9.3172C85.1077 9.3172 85.6118 10.0172 85.6118 12.0052C85.6118 13.9932 85.1077 14.6442 84.5681 14.6442C84.0285 14.6442 83.5812 13.9442 83.5244 12.0052ZM100.273 26.0052L98.5835 21.5952C98.9847 21.2952 99.2722 20.8713 99.4 20.3912C99.5065 19.8942 99.6485 18.5362 99.6485 18.5362H98.2285C98.2285 18.6762 98.1717 19.1172 98.122 19.6142C98.0652 20.3562 97.8167 21.0142 97.1351 21.0142H96.631V18.5502H95.211V26.0192H96.631V22.1972H97.4759L98.8959 26.0192L100.273 26.0052Z" fill="white"/>
</svg>
