<svg width="141" height="35" viewBox="0 0 141 35" fill="none" xmlns="http://www.w3.org/2000/svg">
<path d="M17.625 19.2711C17.625 22.5751 19.4932 25.9001 23.6668 25.9001C27.8404 25.9001 29.7087 22.5751 29.7087 19.2711C29.7087 17.0171 28.9403 14.4201 27.6642 12.3271C26.4234 10.3041 24.9288 9.1001 23.6668 9.1001C22.4049 9.1001 20.9103 10.3041 19.6765 12.3271C18.3934 14.4271 17.625 17.0171 17.625 19.2711ZM60.5313 14.0491H56.3013V10.0031H69.2944V14.0561H65.0644V25.0041H60.5313V14.0491ZM78.96 14.0491H85.6081V10.0031H78.96C72.8547 10.0031 69.5905 13.0201 69.5905 17.5001C69.5905 21.9871 72.8547 24.9971 78.96 24.9971H85.6081V20.9441H78.96C76.1329 20.9441 74.2717 19.9431 74.2717 17.4931C74.2717 15.0501 76.1329 14.0491 78.96 14.0491ZM44.6617 18.9561L47.0799 10.0031H55.0887V25.0041H50.5555V12.7891L47.2632 24.9971H42.0673L38.775 12.7961V24.9971H34.2418V10.0031H42.2507L44.6617 18.9561ZM96.8952 14.3501H95.2948V15.8201H96.8952C97.2971 15.8201 97.5438 15.6101 97.5438 15.2321V14.9591C97.5368 14.5671 97.3323 14.3501 96.8952 14.3501ZM97.297 17.5001H93.1587V10.0031H99.2429V11.7951H95.2878V12.7751H97.29C98.9679 12.7751 99.7786 13.6011 99.7786 15.0571C99.7857 16.5901 98.9749 17.5001 97.297 17.5001ZM104.707 14.4341H103.022L103.868 11.6621L104.707 14.4341ZM107.95 17.5001L105.616 10.0031H102.444L100.11 17.5001H102.105L102.535 16.0651H105.207L105.644 17.5001H107.95ZM113.343 17.5001V14.5951H110.904V17.5001H108.718V10.0031H110.904V12.7541H113.343V10.0031H115.535V17.5001H113.343ZM119.42 12.7471H119.039V10.0031H116.854V17.5001H119.039V14.5951H119.356L121.38 17.5001H123.911L121.175 13.5731L123.692 9.9961H121.38L119.42 12.7471Z" fill="#E30600"/>
</svg>
