<svg width="141" height="36" viewBox="0 0 141 36" fill="none" xmlns="http://www.w3.org/2000/svg">
<path d="M17.6251 5.93286C17.625 5.71625 17.7073 5.50806 17.8546 5.35223C18.0019 5.1964 18.2027 5.10512 18.4147 5.09766H42.3354C42.4409 5.09953 42.545 5.12263 42.6418 5.16561C42.7386 5.2086 42.8262 5.27065 42.8996 5.34821C42.9729 5.42577 43.0305 5.51732 43.0692 5.61763C43.1078 5.71795 43.1268 5.82506 43.125 5.93286V30.3337C43.125 30.5502 43.0428 30.7585 42.8955 30.9143C42.7482 31.0701 42.5473 31.1614 42.3354 31.1689H18.4147C18.3091 31.167 18.205 31.1439 18.1082 31.1009C18.0114 31.0579 17.9238 30.9958 17.8505 30.9183C17.7772 30.8408 17.7195 30.7492 17.6808 30.6489C17.6422 30.5486 17.6232 30.4414 17.6251 30.3337V5.93286Z" fill="#003870"/>
<path d="M67.0244 13.4354H65.9669C65.9469 13.4371 65.928 13.4459 65.9138 13.4605C65.8996 13.475 65.8909 13.4942 65.8893 13.5146V15.941H62.745V13.5146C62.7434 13.4942 62.7348 13.475 62.7205 13.4605C62.7063 13.4459 62.6875 13.4371 62.6675 13.4354H61.61C61.5606 13.4354 61.5324 13.4858 61.5324 13.5434V19.4402C61.5324 19.4906 61.5818 19.5194 61.6382 19.5482H62.745C62.7944 19.5482 62.8226 19.4978 62.8508 19.469V16.9706H65.9669V19.4402C65.9669 19.4906 66.0162 19.5194 66.0726 19.5194H67.1301C67.1795 19.5194 67.2077 19.469 67.2359 19.4114V13.5434C67.1301 13.493 67.1019 13.4642 67.0526 13.4354H67.0244ZM52.875 16.4306C52.737 16.265 52.5615 16.1364 52.3636 16.0562C52.1657 15.9758 51.9516 15.9462 51.74 15.9698H48.8636V14.7602C48.8636 14.681 48.8636 14.5442 48.9411 14.4938C49.0307 14.4491 49.1311 14.4317 49.2302 14.4434H52.17C52.1975 14.4417 52.2235 14.4298 52.2429 14.4099C52.2624 14.39 52.2741 14.3635 52.2758 14.3354V13.5434C52.2741 13.5153 52.2624 13.4888 52.2429 13.469C52.2235 13.449 52.1975 13.4372 52.17 13.4354H48.497C48.3761 13.4292 48.2552 13.4476 48.1415 13.4896C48.0277 13.5316 47.9232 13.5964 47.8343 13.6802C47.7516 13.7706 47.6877 13.8772 47.6465 13.9935C47.6053 14.1098 47.5876 14.2335 47.5946 14.357V18.677C47.5821 18.8902 47.6474 19.1005 47.7779 19.2674C47.8659 19.3526 47.9702 19.4183 48.0842 19.4605C48.1982 19.5026 48.3195 19.5201 48.4406 19.5122H51.7682C51.9685 19.5308 52.1705 19.5065 52.361 19.4407C52.5517 19.375 52.7267 19.2694 52.875 19.1306C53.1462 18.7285 53.2686 18.2411 53.2205 17.7554C53.2574 17.2864 53.1355 16.8187 52.875 16.4306ZM51.74 18.4034C51.6593 18.4687 51.5664 18.5165 51.4669 18.5437C51.3675 18.5709 51.2637 18.5771 51.1619 18.5618H49.2584C49.1244 18.5618 48.9411 18.5618 48.8918 18.4826C48.8785 18.3847 48.8785 18.2853 48.8918 18.1874V16.9994H51.2183C51.3201 16.9842 51.4239 16.9904 51.5233 17.0176C51.6228 17.0448 51.7157 17.0925 51.7964 17.1578C51.8664 17.243 51.9188 17.3418 51.9503 17.4482C51.9818 17.5546 51.9918 17.6665 51.9797 17.777C51.987 18.004 51.9145 18.2263 51.7752 18.4034H51.74ZM60.5243 19.4402L58.3035 14.0834C58.2243 13.8544 58.0722 13.6591 57.8717 13.5285C57.671 13.3981 57.4334 13.3399 57.1967 13.3634C56.9588 13.3317 56.7175 13.3865 56.5152 13.5181C56.3128 13.6497 56.1622 13.8499 56.0898 14.0834L53.862 19.4042C53.8637 19.4323 53.8754 19.4588 53.8948 19.4787C53.9144 19.4986 53.9403 19.5105 53.9678 19.5122H54.99C54.99 19.5122 55.0676 19.5122 55.0676 19.4618L55.6739 17.921H58.7265L59.3328 19.4618C59.3328 19.4618 59.3822 19.5122 59.4104 19.5122H60.4185C60.446 19.5105 60.472 19.4986 60.4914 19.4787C60.5109 19.4588 60.5226 19.4323 60.5243 19.4042V19.4402ZM56.0546 16.985L57.0063 14.5802C57.0063 14.5802 57.0839 14.3642 57.1614 14.3642C57.239 14.3642 57.3165 14.5802 57.3165 14.5802L58.2683 16.985H56.0546ZM74.025 19.3754L71.205 16.9202C71.0711 16.8122 70.8384 16.5962 70.8384 16.409C70.8384 16.2218 70.9935 16.1426 71.1557 15.977L73.7219 13.601C73.7268 13.5846 73.7268 13.567 73.7219 13.5506C73.7205 13.5269 73.7127 13.504 73.6986 13.4848C73.6852 13.4657 73.6662 13.451 73.6443 13.4426H72.2978L69.8655 15.6818C69.7703 15.7661 69.6894 15.8659 69.6258 15.977V13.5434C69.6242 13.523 69.6155 13.5038 69.6013 13.4893C69.5871 13.4747 69.5683 13.4659 69.5483 13.4642H68.4908C68.4414 13.4642 68.4132 13.5146 68.4132 13.5722V19.4834C68.4132 19.5338 68.4626 19.5626 68.4908 19.5914H69.5483C69.5683 19.5898 69.5871 19.5809 69.6013 19.5664C69.6155 19.5519 69.6242 19.5327 69.6258 19.5122V16.8914C69.7064 17.0363 69.8142 17.1635 69.9431 17.2658L72.615 19.5626H73.9827C74.0102 19.5609 74.0363 19.549 74.0554 19.5291C74.0751 19.5092 74.0871 19.4827 74.0885 19.4546C74.0885 19.4042 74.0885 19.3754 74.0391 19.3466L74.025 19.3754ZM117.164 6.22822C117.174 5.99486 117.128 5.76259 117.03 5.55142C116.946 5.4006 116.822 5.27721 116.673 5.19563C116.522 5.11404 116.353 5.07762 116.184 5.09062C115.958 5.08918 115.736 5.15698 115.547 5.28529C115.359 5.4136 115.213 5.59655 115.127 5.81062L112.645 9.74902C112.645 9.79942 112.567 9.85702 112.539 9.85702C112.511 9.85702 112.539 9.74902 112.539 9.66982V5.17702C112.538 5.15657 112.529 5.13737 112.515 5.12285C112.5 5.10834 112.481 5.09946 112.462 5.09782H111.404C111.355 5.09782 111.327 5.14822 111.327 5.20582V10.145C111.327 10.469 111.327 11.225 112.278 11.225C112.485 11.2466 112.693 11.2012 112.873 11.0951C113.052 10.9892 113.195 10.828 113.279 10.6346L115.846 6.63862C115.895 6.55942 115.951 6.45142 116.001 6.45142C116.05 6.45142 116.05 6.45142 116.05 6.60982V11.1458C116.05 11.1962 116.099 11.225 116.128 11.2538H117.185C117.205 11.2522 117.224 11.2433 117.238 11.2288C117.252 11.2143 117.261 11.1951 117.263 11.1746L117.164 6.22822ZM52.875 8.41702C52.7312 8.25214 52.5329 8.1471 52.3181 8.12182C52.4962 8.07697 52.6549 7.97314 52.7693 7.82662C52.8816 7.68867 52.9652 7.52876 53.0149 7.35668C53.0646 7.1846 53.0794 7.00395 53.0583 6.82582C53.0966 6.349 52.9555 5.8752 52.6635 5.50102C52.3365 5.2297 51.9205 5.09582 51.5003 5.12662H48.497C48.3674 5.11363 48.2366 5.13086 48.1145 5.177C47.9924 5.22315 47.8821 5.29701 47.792 5.39302C47.6518 5.57842 47.5772 5.80683 47.5805 6.04102V10.361C47.5738 10.5957 47.6487 10.8254 47.792 11.009C47.8915 11.1098 48.0132 11.1846 48.147 11.2271C48.2807 11.2697 48.4225 11.2789 48.5604 11.2538H51.599C51.8162 11.2765 52.0356 11.2473 52.2399 11.1686C52.4442 11.0899 52.6279 10.9638 52.7763 10.8002C52.919 10.6202 53.025 10.4126 53.088 10.1901C53.151 9.96754 53.1696 9.73434 53.1429 9.50422C53.1798 9.31407 53.1749 9.11787 53.1286 8.92988C53.0822 8.74189 52.9957 8.56671 52.875 8.41702ZM48.8565 7.63222V6.38662C48.8528 6.3426 48.8577 6.29826 48.8711 6.25622C48.8844 6.21418 48.9058 6.17528 48.9341 6.14182C48.9643 6.11956 48.9986 6.10365 49.0349 6.09499C49.0712 6.08635 49.1088 6.08513 49.1456 6.09142H51.1125C51.3082 6.06825 51.5055 6.11672 51.6695 6.22822C51.8075 6.40223 51.8732 6.62449 51.8528 6.84742C51.8775 7.05419 51.8301 7.26322 51.7188 7.43782C51.639 7.51515 51.5427 7.57239 51.4374 7.60486C51.3322 7.63741 51.2209 7.64425 51.1125 7.62502L48.8565 7.63222ZM51.74 10.037C51.5515 10.1856 51.3136 10.2528 51.0773 10.2242H49.2654C49.1879 10.2242 49.0046 10.2242 48.9482 10.145C48.9093 10.0418 48.8926 9.9314 48.8988 9.82102V8.64022H51.2253C51.5919 8.64022 51.7541 8.77702 51.8034 8.88502C51.9031 9.06445 51.9496 9.2695 51.9374 9.47542C51.9451 9.67573 51.8881 9.87301 51.7752 10.037H51.74ZM59.777 5.71702C59.0654 5.19754 58.1944 4.95727 57.3236 5.04022C56.4464 4.93572 55.5624 5.16655 54.842 5.68822C54.5637 6.03063 54.3576 6.42791 54.2363 6.85527C54.115 7.28266 54.0812 7.73094 54.137 8.17222C54.0824 8.61351 54.1168 9.0615 54.2381 9.48867C54.3594 9.91578 54.5649 10.3131 54.842 10.6562C55.5649 11.1723 56.4468 11.4026 57.3236 11.3042C58.0286 11.3042 59.1495 11.3042 59.8052 10.6562C60.4608 10.0082 60.5102 8.71222 60.5102 8.17222C60.5243 7.33702 60.4397 6.27862 59.8122 5.68822L59.777 5.71702ZM55.7655 6.52342C56.2218 6.20614 56.761 6.03646 57.313 6.03646C57.865 6.03646 58.4042 6.20614 58.8605 6.52342C59.1603 7.01531 59.2872 7.59687 59.22 8.17222C59.2722 8.7385 59.1436 9.3068 58.8534 9.79222C58.6484 9.99217 58.4017 10.142 58.1319 10.2306C57.862 10.3191 57.576 10.344 57.2954 10.3034C56.5904 10.3034 56.0828 10.2242 55.7655 9.79222C55.4554 9.31465 55.316 8.74254 55.3707 8.17222C55.3081 7.59226 55.4479 7.00838 55.7655 6.52342ZM80.0034 5.68822C79.2879 5.1789 78.4172 4.94893 77.55 5.04022C76.673 4.93572 75.789 5.16655 75.0684 5.68822C74.79 6.03063 74.5841 6.42791 74.4629 6.85527C74.3416 7.28266 74.3078 7.73094 74.3634 8.17222C74.3092 8.61351 74.343 9.0615 74.4643 9.48867C74.5855 9.91578 74.7914 10.3131 75.0684 10.6562C75.7911 11.1723 76.673 11.4026 77.55 11.3042C78.255 11.3042 79.376 11.3042 80.0316 10.6562C80.6873 10.0082 80.7366 8.71222 80.7366 8.17222C80.7155 7.33702 80.6379 6.27862 80.0034 5.68822ZM75.9567 6.52342C76.4129 6.20614 76.9522 6.03646 77.5042 6.03646C78.0562 6.03646 78.5956 6.20614 79.0517 6.52342C79.3541 7.01441 79.4832 7.59601 79.4183 8.17222C79.4705 8.7385 79.3422 9.3068 79.0517 9.79222C78.8465 9.99217 78.5998 10.142 78.3298 10.2306C78.0605 10.3191 77.7742 10.344 77.4936 10.3034C76.7886 10.3034 76.281 10.2242 75.9638 9.79222C75.6536 9.31465 75.514 8.74254 75.569 8.17222C75.5041 7.59313 75.6416 7.00932 75.9567 6.52342ZM103.078 10.2242H99.8281C99.673 10.2242 99.5108 10.2242 99.4614 10.1738C99.434 10.1519 99.4121 10.1233 99.3987 10.0905C99.3853 10.0578 99.3804 10.022 99.3839 9.98662V8.64022H102.373C102.401 8.6385 102.427 8.62662 102.446 8.60667C102.465 8.5868 102.477 8.5603 102.479 8.53222V7.74022C102.477 7.71214 102.465 7.68565 102.446 7.66578C102.427 7.64583 102.401 7.63395 102.373 7.63222H99.405V6.44422C99.3994 6.39677 99.4036 6.34869 99.417 6.30289C99.4304 6.2571 99.453 6.21455 99.4826 6.17782C99.5693 6.12392 99.6701 6.09645 99.7716 6.09862H103.05C103.077 6.09692 103.103 6.08499 103.123 6.06509C103.142 6.0452 103.154 6.01871 103.156 5.99062V5.19862C103.154 5.17054 103.142 5.14405 103.123 5.12415C103.103 5.10426 103.077 5.09233 103.05 5.09062H99.1371C98.9997 5.07445 98.8601 5.08787 98.7275 5.13003C98.595 5.17219 98.473 5.24215 98.3687 5.33542C98.2284 5.52082 98.1537 5.74923 98.1572 5.98342V10.2458C98.1431 10.3764 98.1572 10.5086 98.1988 10.633C98.2404 10.7573 98.3081 10.8709 98.3969 10.9658C98.6021 11.1127 98.8523 11.1792 99.1019 11.153H103.064C103.091 11.1513 103.118 11.1394 103.137 11.1195C103.156 11.0996 103.168 11.0731 103.17 11.045V10.2746C103.141 10.2465 103.103 10.2288 103.064 10.2242H103.078ZM123.248 10.2242H119.991C119.836 10.2242 119.674 10.2242 119.624 10.1738C119.597 10.1519 119.575 10.1233 119.562 10.0905C119.548 10.0578 119.543 10.022 119.547 9.98662V8.64022H122.557C122.585 8.6385 122.611 8.62662 122.63 8.60667C122.65 8.5868 122.662 8.5603 122.663 8.53222V7.74022C122.662 7.71214 122.65 7.68565 122.63 7.66578C122.611 7.64583 122.585 7.63395 122.557 7.63222H119.568V6.44422C119.562 6.39677 119.567 6.34869 119.58 6.30289C119.593 6.2571 119.616 6.21455 119.646 6.17782C119.732 6.12392 119.833 6.09645 119.935 6.09862H123.213C123.24 6.09692 123.266 6.08499 123.286 6.06509C123.305 6.0452 123.317 6.01871 123.319 5.99062V5.19862C123.317 5.17054 123.305 5.14405 123.286 5.12415C123.266 5.10426 123.24 5.09233 123.213 5.09062H119.3C119.163 5.07445 119.023 5.08787 118.891 5.13003C118.758 5.17219 118.636 5.24215 118.532 5.33542C118.391 5.52082 118.317 5.74923 118.32 5.98342V10.2458C118.306 10.3764 118.32 10.5086 118.362 10.633C118.403 10.7573 118.471 10.8709 118.56 10.9658C118.765 11.1127 119.015 11.1792 119.265 11.153H123.227C123.254 11.1513 123.281 11.1394 123.3 11.1195C123.319 11.0996 123.331 11.0731 123.333 11.045V10.2746C123.333 10.2746 123.255 10.2242 123.199 10.2242H123.248ZM109.895 5.11942H108.838C108.818 5.12106 108.799 5.12994 108.785 5.14445C108.771 5.15897 108.762 5.17817 108.76 5.19862V7.63222H105.644V5.19862C105.643 5.17817 105.634 5.15897 105.62 5.14445C105.606 5.12994 105.586 5.12106 105.567 5.11942H104.509C104.46 5.11942 104.432 5.16982 104.432 5.22742V11.1386C104.432 11.189 104.481 11.2178 104.537 11.2466H105.595C105.644 11.2466 105.672 11.1962 105.701 11.1674V8.64022H108.817V11.1242C108.817 11.1746 108.866 11.2034 108.923 11.2034H109.98C110.029 11.2034 110.058 11.153 110.086 11.0954V5.19862C109.98 5.14822 109.952 5.11942 109.902 5.11942H109.895ZM72.8688 5.47222C72.5178 5.18864 72.0736 5.05449 71.628 5.09782H68.6882C68.5607 5.08895 68.4326 5.10602 68.3117 5.14805C68.1906 5.19007 68.079 5.25621 67.9832 5.34262C67.8996 5.44023 67.8375 5.55499 67.801 5.6792C67.7645 5.8034 67.7545 5.93415 67.7717 6.06262V11.1026C67.7717 11.153 67.821 11.1818 67.8492 11.2106H68.9067C68.9268 11.209 68.9456 11.2001 68.9598 11.1856C68.974 11.1711 68.9827 11.1519 68.9843 11.1314V9.08662H71.8043C72.1533 9.09663 72.4966 8.99324 72.7842 8.79142C72.9957 8.57463 73.1551 8.31147 73.2517 8.02203C73.3482 7.73252 73.3793 7.42436 73.3412 7.12102C73.3842 6.52661 73.2051 5.93762 72.8406 5.47222H72.8688ZM71.8677 7.87702C71.7712 7.96083 71.6591 8.02333 71.5371 8.06048C71.4158 8.09763 71.2882 8.10872 71.1627 8.09302H68.9561V6.41542C68.9561 6.30742 68.9561 6.22822 69.0336 6.17062C69.0972 6.13151 69.1712 6.11387 69.2451 6.12022H71.1486C71.3982 6.0907 71.6499 6.15747 71.8536 6.30742C72.0151 6.53402 72.0905 6.81306 72.0651 7.09222C72.0884 7.22888 72.0842 7.36892 72.0525 7.50385C72.0207 7.63877 71.9629 7.76578 71.8818 7.87702H71.8677ZM89.7113 11.0594L87.272 8.64022C87.1091 8.50227 86.997 8.31183 86.9547 8.10022C86.9815 7.93959 87.0675 7.79538 87.1944 7.69702L89.387 5.32102V5.27062C89.387 5.22022 89.387 5.16262 89.3094 5.16262H87.9911L86.0594 7.37302C85.9804 7.46482 85.9099 7.56361 85.8479 7.66822V5.19862C85.8465 5.17817 85.8373 5.15897 85.8232 5.14445C85.8091 5.12994 85.7901 5.12106 85.7703 5.11942H84.7128C84.6635 5.11942 84.6353 5.16982 84.6353 5.22742V7.68262C84.5733 7.57801 84.5028 7.47922 84.4238 7.38742L82.485 5.17702H81.1667C81.1173 5.17702 81.0891 5.22742 81.0891 5.28502V5.33542L83.2817 7.71142C83.4156 7.84822 83.5214 7.95622 83.5214 8.11462C83.5059 8.22154 83.4699 8.32429 83.4156 8.41695C83.3614 8.50962 83.2894 8.5904 83.2041 8.65462L80.7719 11.081C80.767 11.0974 80.767 11.115 80.7719 11.1314C80.7733 11.1595 80.7853 11.186 80.805 11.2059C80.8241 11.2258 80.8502 11.2377 80.8776 11.2394H82.2453L84.3603 8.97142C84.4696 8.8473 84.5669 8.71222 84.6494 8.56822V11.189C84.6494 11.2394 84.6987 11.2682 84.7269 11.297H85.7844C85.8042 11.2954 85.8232 11.2865 85.8373 11.272C85.8514 11.2575 85.8606 11.2383 85.862 11.2178V8.52502C85.9381 8.67327 86.0354 8.80921 86.151 8.92822L88.266 11.1962H89.6337C89.6612 11.1945 89.6873 11.1826 89.7064 11.1627C89.7261 11.1428 89.7381 11.1163 89.7395 11.0882C89.7254 11.0882 89.7254 11.0594 89.7042 11.0594H89.7113ZM97.2407 10.2242H96.7683L94.9353 5.76022C94.8585 5.52971 94.7069 5.33284 94.5053 5.20199C94.3044 5.07113 94.0654 5.01408 93.8285 5.04022C93.593 5.0065 93.3533 5.06076 93.1538 5.19306C92.9543 5.32534 92.8084 5.52676 92.7428 5.76022L90.945 10.2242H90.4727C90.4452 10.226 90.4191 10.2378 90.4001 10.2578C90.3803 10.2776 90.3684 10.3041 90.3669 10.3322V11.117C90.3684 11.1451 90.3803 11.1716 90.4001 11.1915C90.4191 11.2114 90.4452 11.2233 90.4727 11.225H97.29C97.3175 11.2233 97.3436 11.2114 97.3627 11.1915C97.3824 11.1716 97.3944 11.1451 97.3958 11.117V10.3322C97.3817 10.3 97.3591 10.2727 97.3302 10.2535C97.302 10.2342 97.2682 10.2241 97.2336 10.2242H97.2407ZM93.6734 6.22822C93.6734 6.22822 93.7509 6.01222 93.8285 6.01222C93.906 6.01222 93.9836 6.22822 93.9836 6.22822L95.5698 10.2242H92.0801L93.6734 6.22822ZM66.27 8.41702C66.1262 8.25214 65.9279 8.1471 65.7131 8.12182C65.8912 8.07697 66.0499 7.97314 66.1643 7.82662C66.2766 7.68867 66.3602 7.52876 66.4099 7.35668C66.4596 7.1846 66.4744 7.00395 66.4533 6.82582C66.4916 6.349 66.3504 5.8752 66.0585 5.50102C65.7235 5.21819 65.2931 5.08113 64.86 5.11942H61.476C61.4485 5.12113 61.4226 5.13306 61.4031 5.15295C61.3836 5.17285 61.3719 5.19934 61.3703 5.22742V6.01222C61.3719 6.04031 61.3836 6.0668 61.4031 6.08669C61.4226 6.10659 61.4485 6.11852 61.476 6.12022H64.3806C64.5763 6.09705 64.7736 6.14552 64.9376 6.25702C65.0756 6.43103 65.1413 6.65329 65.1209 6.87622C65.1456 7.08299 65.0982 7.29202 64.9869 7.46662C64.9071 7.54395 64.8108 7.60119 64.7055 7.63366C64.6003 7.66621 64.489 7.67305 64.3806 7.65382H62.1599C62.1324 7.65555 62.1065 7.66743 62.0869 7.68738C62.0675 7.70725 62.0558 7.73374 62.0541 7.76182V8.54662C62.0558 8.5747 62.0675 8.6012 62.0869 8.62107C62.1065 8.64102 62.1324 8.6529 62.1599 8.65462H64.5357C64.9023 8.65462 65.0645 8.79142 65.1138 8.89942C65.2135 9.07885 65.26 9.2839 65.2478 9.48982C65.2617 9.69877 65.2071 9.90649 65.0927 10.0802C64.9042 10.2288 64.6664 10.296 64.43 10.2674H61.4478C61.4204 10.2692 61.3944 10.281 61.3749 10.301C61.3554 10.3208 61.3437 10.3473 61.3421 10.3754V11.1602C61.3437 11.1883 61.3554 11.2148 61.3749 11.2347C61.3944 11.2546 61.4204 11.2665 61.4478 11.2682H64.9728C65.1839 11.295 65.3982 11.2726 65.5997 11.2028C65.8011 11.133 65.9845 11.0175 66.1361 10.865C66.2788 10.685 66.3847 10.4774 66.4478 10.2549C66.5107 10.0323 66.5294 9.79914 66.5027 9.56902C66.5416 9.37088 66.5411 9.16676 66.5011 8.96883C66.4612 8.7709 66.3826 8.58327 66.27 8.41702ZM48.9693 31.169H47.6228V28.145H49.8717V28.6562H48.2855V29.2754H48.9905C49.6955 29.2754 50.0973 29.6498 50.0973 30.2186C50.0973 30.7874 49.6602 31.169 48.9693 31.169ZM48.9693 29.7938H48.3066V30.629H48.9693C49.2584 30.629 49.4417 30.4706 49.4417 30.2258C49.4413 30.1629 49.4277 30.1008 49.4019 30.0436C49.3759 29.9865 49.3383 29.9357 49.2915 29.8948C49.2447 29.8538 49.1898 29.8236 49.1306 29.8061C49.0714 29.7887 49.0091 29.7845 48.9482 29.7938H48.9693ZM52.6988 31.169L52.4873 30.629H51.2465L51.035 31.169H50.33L51.5708 28.145H52.0995L53.3403 31.169H52.6353H52.6988ZM51.9092 29.009L51.465 30.1466H52.311L51.888 29.0378L51.9092 29.009ZM55.6386 31.169V29.9018H54.4683V31.169H53.8056V28.145H54.4683V29.3834H55.6034V28.145H56.2661V31.169H55.6386ZM57.0909 31.169V28.145H57.7536V29.585L58.8393 28.145H59.6289L58.4586 29.5202L59.6994 31.1114H58.8816L57.6902 29.549V31.1114H57.0557L57.0909 31.169ZM60.0519 31.8458V30.5498H60.7569V31.385L60.0519 31.8458ZM62.5617 31.169V28.145H63.2244V29.585L64.3101 28.145H65.0715L63.9294 29.5202L65.1702 31.1114H64.4088L63.2174 29.549V31.1114H62.5124L62.5617 31.169ZM67.8986 29.765C67.9295 29.9601 67.9144 30.16 67.8542 30.3479C67.7942 30.5358 67.6909 30.7062 67.5531 30.845C67.2888 31.054 66.9639 31.1674 66.6296 31.1674C66.2952 31.1674 65.9704 31.054 65.706 30.845C65.5797 30.6984 65.484 30.5269 65.4246 30.3413C65.3652 30.1556 65.3434 29.9596 65.3606 29.765V29.5202C65.3606 28.9298 65.4381 28.685 65.706 28.4402C65.9704 28.2312 66.2952 28.1178 66.6296 28.1178C66.9639 28.1178 67.2888 28.2312 67.5531 28.4402C67.681 28.5695 67.7785 28.7268 67.8383 28.9002C67.8981 29.0735 67.9188 29.2584 67.8986 29.441V29.765ZM67.0526 28.8002C66.9356 28.6954 66.7852 28.6376 66.6296 28.6376C66.4739 28.6376 66.3236 28.6954 66.2066 28.8002C66.0515 28.937 66.0515 29.2322 66.0515 29.6066V29.765C66.0515 30.089 66.0515 30.3554 66.2066 30.485C66.3236 30.5899 66.4739 30.6476 66.6296 30.6476C66.7852 30.6476 66.9356 30.5899 67.0526 30.485C67.1865 30.3482 67.2077 30.1898 67.2077 29.5922C67.2077 28.9946 67.1795 28.9298 67.0526 28.8002ZM69.7457 28.6634V31.1474H69.09V28.6562H68.1876V28.145H70.6199V28.6562L69.7457 28.6634ZM73.4751 29.7722C73.5062 29.9673 73.4907 30.1672 73.4307 30.3551C73.3708 30.543 73.2672 30.7134 73.1297 30.8522C72.8653 31.0612 72.5403 31.1746 72.2061 31.1746C71.872 31.1746 71.547 31.0612 71.2826 30.8522C71.1564 30.7056 71.0605 30.5341 71.0013 30.3485C70.9421 30.1628 70.9202 29.9668 70.9371 29.7722V29.5202C70.9371 28.9298 71.0147 28.685 71.2826 28.4402C71.547 28.2312 71.872 28.1178 72.2061 28.1178C72.5403 28.1178 72.8653 28.2312 73.1297 28.4402C73.2573 28.5695 73.3553 28.7268 73.4145 28.9002C73.4744 29.0735 73.4956 29.2584 73.4751 29.441V29.7722ZM72.6573 28.8002C72.5403 28.6954 72.3902 28.6376 72.2343 28.6376C72.0785 28.6376 71.9284 28.6954 71.8113 28.8002C71.6562 28.937 71.6562 29.2322 71.6562 29.6066V29.765C71.6562 30.089 71.6562 30.3554 71.8113 30.485C71.9284 30.5899 72.0785 30.6476 72.2343 30.6476C72.3902 30.6476 72.5403 30.5899 72.6573 30.485C72.7913 30.3482 72.8124 30.1898 72.8124 29.5922C72.8124 28.9946 72.7842 28.9298 72.6573 28.8002ZM75.4773 28.1522C76.14 28.1522 76.5842 28.5266 76.5842 29.0954C76.5842 29.6642 76.133 30.0386 75.4773 30.0386H74.8146V31.169H74.1519V28.145L75.4773 28.1522ZM75.435 29.5202C75.7241 29.5202 75.9356 29.3618 75.9356 29.117C75.9356 28.8722 75.7523 28.7138 75.435 28.7138H74.8287V29.5202H75.435ZM78.5018 31.1906H77.1834V28.1666H77.8461V29.297H78.5088C79.1715 29.297 79.6157 29.6714 79.6157 30.2402C79.5875 30.515 79.4535 30.7671 79.2435 30.9412C79.0334 31.1153 78.7641 31.1972 78.4947 31.169L78.5018 31.1906ZM78.4524 29.8154H77.8461V30.6506H78.4524C78.7415 30.6506 78.953 30.4922 78.953 30.2474C78.9495 30.1834 78.9333 30.1207 78.9058 30.0631C78.8783 30.0054 78.8395 29.954 78.7923 29.9118C78.745 29.8696 78.69 29.8374 78.6308 29.8171C78.5709 29.7968 78.5081 29.7889 78.4454 29.7938L78.4524 29.8154ZM79.9611 31.1906V28.1666H80.6238V31.1906H79.9611ZM83.3169 31.1906V29.2466L81.9986 31.1906H81.4205V28.1666H82.0832V30.0818L83.4015 28.1666H83.9796V31.1906H83.3169ZM82.7106 28.0082C82.344 28.0082 82.0056 27.8714 81.9422 27.4178H82.4145C82.4174 27.4571 82.4272 27.4953 82.4449 27.5302C82.4625 27.5651 82.4872 27.5961 82.5168 27.621C82.5464 27.646 82.5809 27.6644 82.6176 27.6753C82.655 27.6862 82.6937 27.6892 82.7318 27.6842C82.8079 27.6903 82.8841 27.666 82.9433 27.6163C83.0018 27.5666 83.0399 27.4955 83.049 27.4178H83.5214C83.4749 27.5988 83.3656 27.7562 83.214 27.8608C83.0617 27.9655 82.8784 28.0102 82.6965 27.9866L82.7106 28.0082ZM88.125 29.765C88.1977 29.8268 88.2548 29.9054 88.2914 29.9944C88.3281 30.0833 88.3436 30.18 88.3365 30.2762C88.3365 30.8162 87.9417 31.1402 87.3072 31.1402H85.8972V28.145H87.272C87.9065 28.145 88.3295 28.469 88.3295 28.9802C88.3351 29.12 88.2971 29.258 88.2209 29.3744C88.1448 29.4908 88.0348 29.5797 87.9065 29.6282C87.9876 29.658 88.0623 29.7045 88.125 29.765ZM87.2015 29.3618C87.4623 29.3618 87.6527 29.225 87.6527 29.009C87.6527 28.793 87.4976 28.6562 87.2015 28.6562H86.5388V29.3762L87.2015 29.3618ZM87.2015 30.629C87.4623 30.629 87.6527 30.4922 87.6527 30.2546C87.6527 30.017 87.4976 29.8802 87.2015 29.8802H86.4965V30.6002H87.2015V30.629ZM90.1343 31.169C89.798 31.1821 89.4681 31.0666 89.2107 30.845C88.8653 30.5498 88.8653 30.1682 88.8653 29.6282C88.8279 29.4119 88.8399 29.1898 88.8998 28.9789C88.9598 28.768 89.0662 28.5739 89.2107 28.4114C89.4681 28.1898 89.798 28.0743 90.1343 28.0874C90.4191 28.057 90.7046 28.1371 90.9345 28.3118C91.165 28.4866 91.3215 28.7431 91.3751 29.0306H90.7124C90.6793 28.9316 90.6222 28.8426 90.5474 28.7714C90.472 28.7003 90.3811 28.6492 90.2816 28.6228C90.1829 28.5965 90.0786 28.5955 89.9792 28.6202C89.8798 28.6449 89.7874 28.6944 89.7113 28.7642C89.5773 28.901 89.5562 29.0306 89.5562 29.6282C89.5562 30.2258 89.5562 30.3482 89.7113 30.4922C89.7867 30.5673 89.8791 30.6217 89.9806 30.6502C90.0814 30.6787 90.1886 30.6804 90.2908 30.6552C90.393 30.63 90.4875 30.5788 90.5644 30.5061C90.6419 30.4335 90.7004 30.342 90.7335 30.2402H91.3962C91.337 30.5249 91.177 30.7771 90.9465 30.9486C90.7159 31.12 90.4318 31.1985 90.1484 31.169H90.1343ZM91.9602 31.169V28.145H94.2092V28.6562H92.6511V29.3762H93.9977V29.8874H92.6511V30.6074H94.2092V31.1186H91.9602V31.169ZM95.4852 28.6562V31.1402H94.8225V28.145H96.9375V28.6562H95.4852ZM99.5037 31.817V31.1402H97.6284V31.817H96.9939V30.629H97.3112C97.6143 30.1085 97.7525 29.5048 97.706 28.901V28.1162H99.7434V30.6002H100.138V31.7882H99.5037V31.817ZM99.0807 28.6562H98.3757V29.0882C98.3983 29.6178 98.2989 30.1454 98.0867 30.629H99.1442V28.6562H99.0807ZM102.606 31.169L102.394 30.629H101.182L100.97 31.169H100.265L101.506 28.145H102.035L103.276 31.169H102.57H102.606ZM101.816 29.009L101.393 30.1178H102.225L101.816 29.009ZM105.94 31.169C105.604 31.1821 105.274 31.0666 105.017 30.845C104.671 30.5498 104.671 30.1682 104.671 29.6282C104.634 29.4119 104.646 29.1898 104.706 28.9789C104.766 28.768 104.872 28.5739 105.017 28.4114C105.274 28.1898 105.604 28.0743 105.94 28.0874C106.225 28.057 106.511 28.1371 106.741 28.3118C106.97 28.4866 107.128 28.7431 107.181 29.0306H106.518C106.485 28.9316 106.428 28.8426 106.354 28.7714C106.278 28.7003 106.187 28.6492 106.088 28.6228C105.989 28.5965 105.885 28.5955 105.785 28.6202C105.686 28.6449 105.594 28.6944 105.517 28.7642C105.383 28.901 105.362 29.0306 105.362 29.6282C105.362 30.2258 105.362 30.3482 105.517 30.4922C105.594 30.5621 105.686 30.6115 105.785 30.6362C105.885 30.6609 105.989 30.66 106.088 30.6336C106.187 30.6072 106.278 30.5562 106.354 30.485C106.428 30.4139 106.485 30.3248 106.518 30.2258H107.181C107.133 30.513 106.979 30.7704 106.75 30.9456C106.523 31.1209 106.238 31.2008 105.954 31.169H105.94ZM110.17 28.6562V31.1402H109.508V28.6562H108.612V28.145H111.045V28.6562H110.17ZM113.9 29.765C113.931 29.9601 113.915 30.16 113.855 30.3479C113.796 30.5358 113.692 30.7062 113.554 30.845C113.29 31.054 112.965 31.1674 112.631 31.1674C112.297 31.1674 111.972 31.054 111.707 30.845C111.581 30.6984 111.485 30.5269 111.426 30.3413C111.367 30.1556 111.345 29.9596 111.362 29.765V29.5202C111.362 28.9298 111.439 28.685 111.707 28.4402C111.972 28.2312 112.297 28.1178 112.631 28.1178C112.965 28.1178 113.29 28.2312 113.554 28.4402C113.682 28.5695 113.78 28.7268 113.839 28.9002C113.899 29.0735 113.92 29.2584 113.9 29.441V29.765ZM113.096 28.8002C112.979 28.6954 112.829 28.6376 112.673 28.6376C112.517 28.6376 112.367 28.6954 112.25 28.8002C112.095 28.937 112.095 29.2322 112.095 29.6066V29.765C112.095 30.089 112.095 30.3554 112.25 30.485C112.367 30.5899 112.517 30.6476 112.673 30.6476C112.829 30.6476 112.979 30.5899 113.096 30.485C113.23 30.3482 113.251 30.1898 113.251 29.5922C113.251 28.9946 113.223 28.9298 113.096 28.8002ZM115.916 31.1762H114.57V28.1522H116.819V28.6634H115.232V29.2826H115.937C116.642 29.2826 117.044 29.657 117.044 30.2258C117.044 30.7946 116.635 31.169 115.951 31.169L115.916 31.1762ZM115.916 29.801H115.253V30.6362H115.916C116.205 30.6362 116.388 30.4778 116.388 30.233C116.388 30.1722 116.377 30.112 116.353 30.0562C116.329 30.0004 116.294 29.9503 116.25 29.909C116.207 29.8677 116.155 29.8362 116.099 29.8164C116.042 29.7965 115.982 29.7889 115.923 29.7938L115.916 29.801ZM120.09 29.801C120.121 29.9961 120.105 30.196 120.045 30.3839C119.985 30.5718 119.882 30.7422 119.744 30.881C119.48 31.09 119.155 31.2034 118.821 31.2034C118.487 31.2034 118.162 31.09 117.897 30.881C117.771 30.7344 117.675 30.5629 117.616 30.3773C117.557 30.1916 117.535 29.9956 117.552 29.801V29.5202C117.552 28.9298 117.629 28.685 117.897 28.4402C118.162 28.2312 118.487 28.1178 118.821 28.1178C119.155 28.1178 119.48 28.2312 119.744 28.4402C119.872 28.5695 119.97 28.7268 120.029 28.9002C120.089 29.0735 120.11 29.2584 120.09 29.441V29.801ZM119.279 28.8002C119.162 28.6954 119.012 28.6376 118.856 28.6376C118.7 28.6376 118.55 28.6954 118.433 28.8002C118.278 28.937 118.278 29.2322 118.278 29.6066V29.765C118.278 30.089 118.278 30.3554 118.433 30.485C118.55 30.5899 118.7 30.6476 118.856 30.6476C119.012 30.6476 119.162 30.5899 119.279 30.485C119.413 30.3482 119.434 30.1898 119.434 29.5922C119.434 28.9946 119.413 28.9298 119.279 28.8002ZM122.691 31.1762V29.2322L121.373 31.1762H120.795V28.1522H121.457V30.0674L122.776 28.1522H123.375V31.1762H122.691ZM122.057 27.9938C121.69 27.9938 121.352 27.857 121.288 27.4034H121.761C121.763 27.4427 121.773 27.4809 121.791 27.5158C121.809 27.5507 121.833 27.5817 121.863 27.6066C121.892 27.6316 121.927 27.65 121.964 27.6609C122.001 27.6718 122.04 27.6748 122.078 27.6698C122.154 27.6759 122.23 27.6516 122.289 27.6019C122.348 27.5522 122.386 27.4811 122.395 27.4034H122.867C122.818 27.821 122.451 27.9866 122.057 27.9866V27.9938Z" fill="#003870"/>
<path d="M28.5386 10.1954C28.6161 10.1954 28.6725 10.145 28.6161 10.0586L28.461 9.65536C28.4422 9.61432 28.4122 9.57968 28.3748 9.55542C28.3373 9.53116 28.2939 9.51841 28.2495 9.51856H21.4815C21.404 9.51856 21.3476 9.56896 21.404 9.65536L21.5873 10.0586C21.6061 10.0996 21.636 10.1342 21.6734 10.1585C21.7109 10.1828 21.7543 10.1955 21.7988 10.1954H28.5386ZM29.0673 10.9802C29.0485 10.9391 29.0185 10.9045 28.9811 10.8802C28.9436 10.856 28.9002 10.8432 28.8558 10.8434H22.116C22.0385 10.8434 21.9821 10.8938 22.0385 10.9802L22.2218 11.3834C22.2406 11.4244 22.2705 11.459 22.3079 11.4833C22.3454 11.5076 22.3888 11.5203 22.4333 11.5202H29.1731C29.2506 11.5202 29.307 11.4698 29.2506 11.3834L29.0673 10.9802ZM29.7018 12.3266C29.683 12.2855 29.653 12.2509 29.6156 12.2266C29.5781 12.2024 29.5347 12.1896 29.4903 12.1898H22.7223C22.6448 12.1898 22.5884 12.2402 22.6448 12.3266L22.8281 12.7298C22.8469 12.7708 22.8768 12.8054 22.9142 12.8297C22.9517 12.854 22.9951 12.8667 23.0396 12.8666H29.7794C29.8569 12.8666 29.9133 12.8162 29.8569 12.7298L29.7018 12.3266ZM30.3152 13.6802C30.2963 13.6391 30.2664 13.6045 30.2289 13.5802C30.1914 13.556 30.148 13.5432 30.1037 13.5434H23.3639C23.2863 13.5434 23.2299 13.5938 23.2863 13.6802L23.4696 14.0834C23.4884 14.1244 23.5183 14.159 23.5558 14.1833C23.5933 14.2076 23.6367 14.2203 23.6811 14.2202H30.4209C30.4985 14.2202 30.5549 14.1698 30.4985 14.0834L30.3152 13.6802ZM30.9497 15.005C30.9308 14.9639 30.9009 14.9293 30.8634 14.905C30.8259 14.8808 30.7825 14.868 30.7382 14.8682H23.9702C23.8926 14.8682 23.8362 14.9186 23.8926 15.005L24.0759 15.4082C24.0947 15.4492 24.1246 15.4838 24.1621 15.5081C24.1996 15.5324 24.243 15.5451 24.2874 15.545H31.0202C31.0977 15.545 31.1541 15.4946 31.0977 15.4082L30.9497 15.005ZM31.5842 16.3514C31.5653 16.3103 31.5354 16.2757 31.4979 16.2514C31.4604 16.2272 31.417 16.2144 31.3727 16.2146H24.6047C24.5271 16.2146 24.4707 16.265 24.5271 16.3514L24.7104 16.7546C24.7292 16.7956 24.7591 16.8302 24.7966 16.8545C24.8341 16.8788 24.8775 16.8915 24.9219 16.8914H31.6617C31.7393 16.8914 31.7957 16.841 31.7393 16.7546L31.5842 16.3514ZM32.1905 17.6762C32.1716 17.6351 32.1417 17.6005 32.1042 17.5762C32.0667 17.552 32.0233 17.5392 31.979 17.5394H25.2392C25.1616 17.5394 25.1052 17.5898 25.1616 17.6762L25.3449 18.0794C25.3637 18.1204 25.3936 18.155 25.4311 18.1793C25.4686 18.2036 25.512 18.2163 25.5564 18.2162H32.2962C32.3738 18.2162 32.4302 18.1658 32.3738 18.0794L32.1905 17.6762Z" fill="white"/>
<path d="M30.2586 8.84867C30.2987 8.84536 30.3362 8.82765 30.3647 8.79863C30.3931 8.76962 30.4105 8.73117 30.4137 8.69027V8.33747C30.4105 8.29658 30.3931 8.25813 30.3647 8.22911C30.3362 8.2001 30.2987 8.18239 30.2586 8.17907H19.7894C19.7493 8.18239 19.7117 8.2001 19.6833 8.22911C19.6549 8.25813 19.6374 8.29658 19.6343 8.33747V8.69027C19.6374 8.73117 19.6549 8.76962 19.6833 8.79863C19.7117 8.82765 19.7493 8.84536 19.7894 8.84867H30.2586ZM25.7889 18.8855C25.7114 18.8855 25.655 18.9359 25.7114 19.0223L29.9414 28.0367C29.9479 28.0521 29.9588 28.0652 29.9725 28.0744C29.9864 28.0836 30.0024 28.0885 30.0189 28.0885C30.0354 28.0885 30.0515 28.0836 30.0652 28.0744C30.0791 28.0652 30.0898 28.0521 30.0965 28.0367L33.981 19.6703C33.9999 19.6292 34.0297 19.5946 34.0672 19.5703C34.1047 19.5461 34.1482 19.5333 34.1925 19.5335H40.4811C40.5212 19.5302 40.5587 19.5125 40.5872 19.4834C40.6156 19.4544 40.633 19.416 40.6362 19.3751V19.0223C40.633 18.9814 40.6156 18.9429 40.5872 18.9139C40.5587 18.8849 40.5212 18.8672 40.4811 18.8639L25.7889 18.8855ZM40.5375 8.17188H35.1513C35.1113 8.17519 35.0736 8.1929 35.0452 8.22191C35.0168 8.25093 34.9994 8.28938 34.9962 8.33027V8.68308C34.9994 8.72397 35.0168 8.76242 35.0452 8.79143C35.0736 8.82045 35.1113 8.83816 35.1513 8.84147H35.955C36.1665 8.84147 37.3016 8.84147 36.8504 10.2167L33.2549 18.0431C33.2549 18.1223 33.2549 18.1799 33.3324 18.1799H34.545C34.5894 18.18 34.6329 18.1673 34.6703 18.143C34.7078 18.1187 34.7377 18.0841 34.7565 18.0431L38.6411 9.75587C38.7786 9.45736 38.9994 9.20695 39.2756 9.03587C39.5894 8.89115 39.933 8.82693 40.2767 8.84867H40.5164C40.5564 8.84536 40.594 8.82765 40.6225 8.79863C40.6509 8.76962 40.6682 8.73117 40.6715 8.69027V8.33747C40.6744 8.31746 40.6732 8.29694 40.668 8.27743C40.6627 8.25784 40.6534 8.2397 40.6408 8.22407C40.6281 8.20845 40.6124 8.19571 40.5946 8.18671C40.5768 8.17771 40.5573 8.17267 40.5375 8.17188Z" fill="white"/>
<path d="M39.0359 18.2159C39.3584 18.2088 39.6716 18.1044 39.9362 17.916C40.2008 17.7275 40.4049 17.4634 40.5229 17.1568C40.6408 16.8502 40.6674 16.5148 40.5992 16.1928C40.531 15.8708 40.3711 15.5766 40.1396 15.3471C39.9081 15.1177 39.6154 14.9634 39.2982 14.9034C38.9811 14.8434 38.6536 14.8806 38.3571 15.0102C38.0605 15.1398 37.8081 15.3561 37.6315 15.6318C37.4551 15.9076 37.3623 16.2305 37.365 16.5599C37.3725 17.0055 37.5524 17.43 37.8656 17.7403C38.1788 18.0507 38.5995 18.2217 39.0359 18.2159Z" fill="#ED1B34"/>
</svg>
