<svg width="141" height="35" viewBox="0 0 141 35" fill="none" xmlns="http://www.w3.org/2000/svg">
<path d="M63.8026 13.6505L66.4816 11.6905H57.5986V23.3105H66.4816V21.3505H60.1366V18.4105H65.4946V16.4505H60.1366V13.6505H63.8026ZM52.7341 13.6505L55.4131 11.6905H45.2611V23.3105H50.5486C53.5096 23.3105 55.2016 21.9805 55.2016 19.6705C55.2016 17.4305 53.6506 16.2405 50.8306 16.2405H47.7286V13.6505H52.7341ZM50.4781 18.1305C52.0996 18.1305 52.8046 18.6905 52.8046 19.7405C52.8046 20.7905 52.0291 21.3505 50.4781 21.3505H47.7991V18.1305H50.4781ZM73.6021 11.6905H68.8081V23.3105H71.3461V20.0205H73.6726C76.7746 20.0205 78.6781 18.4105 78.6781 15.8205C78.6781 13.2305 76.7041 11.6905 73.6021 11.6905ZM73.6021 18.0605H71.3461V13.5805H73.6021C75.2236 13.5805 76.1401 14.3505 76.1401 15.8205C76.0696 17.2905 75.2236 18.0605 73.6021 18.0605ZM40.9606 20.7905C40.2556 21.1405 39.5506 21.3505 38.7751 21.3505C36.5191 21.3505 34.8271 19.7405 34.8271 17.5005C34.8271 15.2605 36.4486 13.6505 38.7751 13.6505C39.6211 13.6505 40.3966 13.9305 41.1016 14.3505L42.9346 13.0205L42.7936 12.8805C41.7361 11.9705 40.3261 11.4805 38.7046 11.4805C36.9421 11.4805 35.3911 12.0405 34.1926 13.1605C33.0646 14.2805 32.3596 15.8205 32.4301 17.4305C32.4301 19.0405 33.0646 20.5805 34.1926 21.7705C35.3911 22.8905 37.0126 23.5205 38.6341 23.4505C40.4671 23.4505 42.0181 22.8205 43.1461 21.7005L41.5246 20.5105L40.9606 20.7905ZM117.03 16.4505H111.602V11.6905H109.064V23.3105H111.602V18.5505H117.03V23.3105H119.568V11.6905H117.03V16.4505ZM99.8986 11.6905L94.8226 23.3105H97.3606L98.3476 21.0005H103.706L104.693 23.3105H107.372L102.437 11.6905H99.8986ZM99.1936 19.0405L101.168 14.3505L103.001 19.0405H99.1936ZM128.733 17.2905L133.316 11.6905H130.425L126.618 16.6605H125.208V11.6905H122.67V23.3105H125.208V18.6205H126.83L130.707 23.3105H133.95L128.733 17.2905ZM89.5351 16.2405H86.4331V13.6505H93.0601V11.6905H83.8951V23.3105H89.1826C92.1436 23.3105 93.8356 21.9805 93.8356 19.6705C93.9061 17.4305 92.3551 16.2405 89.5351 16.2405ZM89.1121 21.4205H86.4331V18.2005H89.1121C90.7336 18.2005 91.4386 18.7605 91.4386 19.8105C91.5091 20.8605 90.6631 21.4205 89.1121 21.4205Z" fill="#21A038"/>
<path d="M24.3091 11.4668C24.7668 12.0622 25.1543 12.7091 25.4637 13.3945L16.6872 19.9047L13.0193 17.591V14.8075L16.6872 17.1212L24.3091 11.4668Z" fill="#21A038"/>
<path d="M9.27594 17.3945C9.27594 17.2696 9.27897 17.1456 9.28502 17.0222L7.06215 16.9126C7.05459 17.0725 7.05005 17.2339 7.05005 17.3968C7.04911 18.6696 7.29791 19.9301 7.78219 21.1059C8.26648 22.2818 8.9767 23.3498 9.87214 24.2488L11.4489 22.663C10.7596 21.9722 10.2128 21.1511 9.83989 20.247C9.46698 19.3428 9.27533 18.3734 9.27594 17.3945Z" fill="url(#paint0_linear_5434_4229)"/>
<path d="M16.6852 9.9395C16.8093 9.9395 16.9325 9.94407 17.0551 9.95016L17.1663 7.7126C17.007 7.70499 16.8466 7.70118 16.6852 7.70118C15.4197 7.69963 14.1664 7.94963 12.9972 8.43683C11.828 8.92403 10.766 9.63884 9.87207 10.5402L11.4488 12.1268C12.1353 11.433 12.9514 10.8826 13.85 10.5072C14.7487 10.1318 15.7122 9.93889 16.6852 9.9395Z" fill="url(#paint1_linear_5434_4229)"/>
<path d="M16.6853 24.8506C16.5612 24.8506 16.4379 24.8506 16.3146 24.8407L16.2034 27.0775C16.3633 27.0856 16.5239 27.0897 16.6853 27.0897C17.9503 27.091 19.203 26.8408 20.3715 26.3535C21.5401 25.8662 22.6014 25.1513 23.4947 24.2499L21.921 22.6641C21.2343 23.3575 20.4183 23.9076 19.5199 24.2829C18.6214 24.6581 17.6581 24.8511 16.6853 24.8506Z" fill="url(#paint2_linear_5434_4229)"/>
<path d="M20.8616 11.2404L22.7349 9.85098C21.0227 8.4558 18.8854 7.69632 16.6821 7.70021V9.93929C18.174 9.93743 19.6313 10.3911 20.8616 11.2404Z" fill="url(#paint3_linear_5434_4229)"/>
<path d="M26.3197 17.3951C26.3209 16.8126 26.2703 16.2311 26.1684 15.6577L24.0946 17.1956C24.0946 17.2619 24.0946 17.3281 24.0946 17.3951C24.0951 18.4368 23.8781 19.467 23.4577 20.4189C23.0372 21.3708 22.4226 22.2232 21.6538 22.9208L23.1496 24.5844C24.1491 23.6764 24.9478 22.5672 25.4939 21.3288C26.0401 20.0902 26.3214 18.75 26.3197 17.3951Z" fill="#21A038"/>
<path d="M16.6853 24.8511C15.65 24.8514 14.6261 24.633 13.68 24.2099C12.7339 23.7868 11.8867 23.1685 11.1932 22.395L9.54077 23.8994C10.443 24.9053 11.5452 25.7092 12.776 26.2589C14.0068 26.8085 15.3387 27.0917 16.6853 27.0901V24.8511Z" fill="url(#paint4_linear_5434_4229)"/>
<path d="M11.7167 11.8691L10.2217 10.2056C9.2219 11.1134 8.42291 12.2225 7.87652 13.461C7.33014 14.6995 7.04856 16.0398 7.05005 17.3948H9.27595C9.27549 16.3532 9.49253 15.323 9.91298 14.371C10.3334 13.4192 10.948 12.5668 11.7167 11.8691Z" fill="url(#paint5_linear_5434_4229)"/>
<defs>
<linearGradient id="paint0_linear_5434_4229" x1="10.3223" y1="23.9694" x2="7.86334" y2="16.9053" gradientUnits="userSpaceOnUse">
<stop offset="0.14" stop-color="#F1E813"/>
<stop offset="0.3" stop-color="#E6E418"/>
<stop offset="0.58" stop-color="#C9DA26"/>
<stop offset="0.89" stop-color="#A2CC39"/>
</linearGradient>
<linearGradient id="paint1_linear_5434_4229" x1="10.5076" y1="10.9361" x2="16.7813" y2="8.56018" gradientUnits="userSpaceOnUse">
<stop offset="0.06" stop-color="#0FA7DF"/>
<stop offset="0.54" stop-color="#0098F8"/>
<stop offset="0.92" stop-color="#0290EA"/>
</linearGradient>
<linearGradient id="paint2_linear_5434_4229" x1="16.0566" y1="25.7383" x2="23.1441" y2="24.1472" gradientUnits="userSpaceOnUse">
<stop offset="0.12" stop-color="#A2CC39"/>
<stop offset="0.28" stop-color="#86C239"/>
<stop offset="0.87" stop-color="#219F38"/>
</linearGradient>
<linearGradient id="paint3_linear_5434_4229" x1="16.2191" y1="8.45012" x2="22.2814" y2="10.3093" gradientUnits="userSpaceOnUse">
<stop offset="0.06" stop-color="#0290EA"/>
<stop offset="0.79" stop-color="#0C89CA"/>
</linearGradient>
<linearGradient id="paint4_linear_5434_4229" x1="10.0991" y1="23.6269" x2="16.7006" y2="26.0787" gradientUnits="userSpaceOnUse">
<stop offset="0.13" stop-color="#F1E813"/>
<stop offset="0.3" stop-color="#EAE616"/>
<stop offset="0.53" stop-color="#D8DF1F"/>
<stop offset="0.8" stop-color="#BAD52D"/>
<stop offset="0.98" stop-color="#A2CC39"/>
</linearGradient>
<linearGradient id="paint5_linear_5434_4229" x1="7.87928" y1="17.6659" x2="10.554" y2="10.7512" gradientUnits="userSpaceOnUse">
<stop offset="0.07" stop-color="#A2CC39"/>
<stop offset="0.26" stop-color="#81C45E"/>
<stop offset="0.92" stop-color="#0FA7DF"/>
</linearGradient>
</defs>
</svg>
