<svg width="142" height="35" viewBox="0 0 142 35" fill="none" xmlns="http://www.w3.org/2000/svg">
<path d="M40.4023 4.8999L39.1755 8.21773H56.1707L57.3975 4.8999H40.4023ZM38.5628 9.87524L37.336 13.1924H54.3311L55.558 9.87524H38.5628ZM36.7268 14.8506L35.5 18.167H52.4952L53.7206 14.8499C53.7213 14.8506 36.7268 14.8506 36.7268 14.8506Z" fill="#009FDF"/>
<path d="M71.2286 19.2084V19.2773C71.9918 19.5537 72.7214 20.0375 73.103 20.3483C74.2828 21.316 74.8042 22.5938 74.8042 24.252C74.8042 26.9826 73.3463 28.9509 70.9504 29.5733C70.2207 29.7807 69.4575 29.8497 68.0345 29.8497H60.7805V9.87939H67.2028C68.5224 9.87939 69.424 9.94831 70.2221 10.1551C72.5481 10.7774 74.0759 12.3667 74.0759 14.8885C74.0759 16.2366 73.5902 17.3772 72.792 18.1367C72.4447 18.482 71.9589 18.8969 71.23 19.2077L71.2286 19.2084ZM64.8069 21.316V26.5677H67.5844C68.4168 26.5677 69.1815 26.4988 69.7364 25.9805C70.292 25.4622 70.5345 24.8054 70.5345 23.9418C70.5345 23.2864 70.3605 22.6641 70.0138 22.2147C69.424 21.489 68.6943 21.316 67.4453 21.316H64.8062H64.8069ZM64.7713 17.8603H67.0281C67.7221 17.8603 68.0695 17.8603 68.4161 17.757C69.3541 17.4799 69.9439 16.6522 69.9439 15.5115C69.9439 14.1642 69.3191 13.5763 68.4161 13.3006C68.0338 13.1965 67.6529 13.1628 66.889 13.1628H64.7713V17.861V17.8603ZM80.8442 29.8504V13.231H75.0474V9.8801H91.1553L90.0098 13.231H84.8713V29.8504H80.8442ZM92.4049 29.8504V9.8801H105.458L104.312 13.231H96.3978V17.6543H99.6268C102.23 17.6543 103.584 18.2766 104.522 19.0706C105.252 19.6929 106.501 21.0741 106.501 23.8047C106.501 26.4995 105.217 27.9847 104.14 28.7456C102.89 29.6084 101.571 29.8511 98.8972 29.8511H92.4057H92.4049V29.8504ZM96.3971 26.4981H99.4171C100.563 26.4981 101.257 26.2217 101.742 25.5993C101.985 25.2892 102.332 24.7351 102.332 23.6992C102.332 22.6634 101.985 21.9369 101.291 21.4187C100.875 21.1085 100.319 20.9362 99.3815 20.9362H96.3957V26.4981H96.3971Z" fill="#0A2973"/>
</svg>
