<svg width="141" height="35" viewBox="0 0 141 35" fill="none" xmlns="http://www.w3.org/2000/svg">
<path d="M30.0119 5.9502C28.0821 5.9502 26.1956 6.5184 24.591 7.58295C22.9865 8.64744 21.7359 10.1605 20.9974 11.9308C20.2589 13.701 20.0656 15.649 20.4421 17.5283C20.8186 19.4076 21.7479 21.1338 23.1124 22.4887C24.477 23.8435 26.2156 24.7663 28.1083 25.1401C30.001 25.5139 31.9629 25.322 33.7457 24.5887C35.5287 23.8555 37.0525 22.6138 38.1246 21.0206C39.1968 19.4274 39.7691 17.5543 39.7691 15.6382C39.77 14.3657 39.5182 13.1055 39.0282 11.9297C38.5382 10.7539 37.8195 9.68547 36.9133 8.78569C36.0071 7.88591 34.9311 7.17233 33.7469 6.68578C32.5626 6.19924 31.2935 5.94928 30.0119 5.9502ZM28.6019 19.7472L27.8969 21.8472C26.5778 21.3907 25.4351 20.537 24.6279 19.405C23.8208 18.273 23.3895 16.9192 23.3942 15.5322C23.3988 14.1453 23.8392 12.7943 24.6539 11.6677C25.4686 10.5411 26.6171 9.69492 27.9392 9.2472L28.6442 11.3472C27.7716 11.6397 27.0145 12.1987 26.4814 12.9442C25.9483 13.6899 25.6664 14.5839 25.6761 15.4982C25.6208 16.4301 25.8798 17.3538 26.4123 18.1232C26.9446 18.8926 27.72 19.4641 28.616 19.7472H28.6019ZM31.9295 21.9382L31.2245 19.7962C32.1112 19.5112 32.8848 18.9557 33.435 18.2087C33.9851 17.4617 34.2838 16.5613 34.2885 15.6359C34.2932 14.7105 34.0036 13.8072 33.4611 13.0547C32.9185 12.3023 32.1505 11.739 31.2668 11.4452L31.9718 9.3032C33.3122 9.74644 34.4768 10.5995 35.2989 11.7403C36.121 12.8811 36.5583 14.251 36.5481 15.6537C36.538 17.0565 36.0808 18.42 35.2423 19.5489C34.4037 20.6778 33.2268 21.5142 31.8801 21.9382H31.9295Z" fill="#00BEF0"/>
<path d="M46.6992 31.8078H45.1693V27.3418H47.8201V27.7898H45.7051V29.1898H46.6921C47.5945 29.1898 48.1797 29.5468 48.1797 30.4428V30.4848C48.1797 31.3598 47.5945 31.8078 46.6992 31.8078ZM46.6992 31.4088C47.4042 31.4088 47.6439 31.0938 47.6439 30.5618V30.5198C47.6439 29.9808 47.3266 29.6728 46.6569 29.6728H45.7051V31.4158L46.6992 31.4088ZM48.6802 30.9188C48.6802 30.1628 49.491 29.8898 50.344 29.8898H50.8375V29.6658C50.8375 29.1268 50.6542 28.9098 50.1325 28.9098C49.6108 28.9098 49.4275 29.0918 49.3711 29.4908H48.8283C48.8439 29.3374 48.8904 29.1887 48.9648 29.0535C49.0393 28.9183 49.1403 28.7991 49.2618 28.7032C49.3834 28.6073 49.523 28.5365 49.6726 28.4951C49.8221 28.4537 49.9785 28.4423 50.1325 28.4618C50.2933 28.4397 50.457 28.4542 50.6113 28.5042C50.7655 28.5542 50.9064 28.6383 51.0232 28.7502C51.14 28.8621 51.2296 28.9989 51.2854 29.1502C51.3412 29.3016 51.3615 29.4635 51.3451 29.6238V31.7658H50.76V31.3598C50.6446 31.5234 50.4885 31.6546 50.3069 31.7405C50.1253 31.8264 49.9243 31.8641 49.7236 31.8498C49.1737 31.8498 48.645 31.5838 48.645 30.9118L48.6802 30.9188ZM50.8375 30.6948V30.2958H50.3863C49.6813 30.2958 49.2654 30.4778 49.2654 30.9188C49.2654 31.3598 49.4487 31.4578 49.8928 31.4578C50.337 31.4578 50.8375 31.1778 50.8375 30.6878V30.6948ZM54.3625 30.3798H52.741V31.8498H52.17V28.5878H52.7128V29.9878H54.3343V28.5878H54.8772V31.8498H54.3343L54.3625 30.3798ZM56.3436 30.1558V31.8078H55.8007V28.5458H56.3436V30.0648L57.6901 28.5458H58.3176L56.9076 30.0648L58.4374 31.8078H57.81L56.3436 30.1558ZM119.328 17.3808L120.407 18.6758C119.934 19.1571 119.366 19.5366 118.74 19.7907C118.112 20.0448 117.439 20.1681 116.762 20.1528C115.896 20.1816 115.035 20.014 114.245 19.6628C113.546 19.2893 112.972 18.723 112.591 18.0325C112.209 17.3419 112.037 16.5563 112.095 15.7708C112.095 13.1388 113.893 11.1718 116.55 11.1718C119.519 11.1718 120.957 13.3628 120.731 16.2188H113.984C114.007 16.5697 114.113 16.9103 114.293 17.2131C114.473 17.516 114.722 17.7724 115.021 17.9618C115.579 18.2878 116.221 18.4437 116.868 18.4098C117.327 18.4141 117.782 18.3251 118.205 18.1481C118.628 17.9712 119.01 17.71 119.328 17.3808ZM114.069 14.6578H118.835C118.758 14.1049 118.474 13.601 118.041 13.2457C117.607 12.8906 117.055 12.71 116.494 12.7398C115.926 12.7196 115.369 12.9018 114.924 13.2536C114.48 13.6053 114.176 14.1034 114.069 14.6578ZM68.7375 19.9288H71.1626L67.3416 15.5048L71.1203 11.3538H68.7375L65.8611 14.6578H65.001V11.3538H63.1609V19.8798H65.001V16.4918H65.854L68.7375 19.9288ZM76.6968 12.9288C76.3415 12.9253 75.9897 12.9943 75.6633 13.1316C75.3362 13.269 75.0408 13.4717 74.7962 13.7271C74.5515 13.9826 74.3626 14.2852 74.2406 14.6163C74.1187 14.9474 74.0672 15.2999 74.0883 15.6518C74.0672 16.0037 74.1187 16.3561 74.2406 16.6872C74.3626 17.0183 74.5515 17.321 74.7962 17.5764C75.0408 17.8319 75.3362 18.0345 75.6633 18.1719C75.9897 18.3093 76.3415 18.3783 76.6968 18.3748C77.0508 18.3809 77.4018 18.3133 77.7283 18.1762C78.054 18.0392 78.3472 17.8358 78.5891 17.5792C78.8309 17.3225 79.0156 17.0185 79.1319 16.6865C79.2482 16.3544 79.2927 16.002 79.263 15.6518C79.2948 15.3005 79.2518 14.9465 79.1368 14.6128C79.0212 14.2791 78.8365 13.9733 78.5947 13.715C78.3529 13.4569 78.0589 13.2522 77.7318 13.1144C77.4047 12.9765 77.0522 12.9085 76.6968 12.9148V12.9288ZM77.0141 11.1858C79.4393 11.1858 81.2441 13.0618 81.2441 15.6518C81.2441 18.2418 79.4886 20.1598 77.0141 20.1598C76.4917 20.1835 75.97 20.0966 75.4835 19.9047C74.9971 19.7128 74.5579 19.4203 74.1941 19.0468V23.5128H72.3329V11.3538H74.18V12.3828C74.5254 11.9801 74.9611 11.6635 75.4518 11.458C75.9432 11.2526 76.4755 11.1642 77.007 11.1998L77.0141 11.1858ZM101.478 11.3678H93.7649V13.0618H96.6906V19.8798H98.58V13.0898H101.52V11.3538L101.478 11.3678ZM61.8567 11.3678H54.1651V13.0618H57.105V19.8798H58.9944V13.0898H61.899V11.3538L61.8567 11.3678ZM51.8668 15.6378C51.8668 14.9267 51.5823 14.2448 51.0759 13.742C50.5695 13.2392 49.8827 12.9568 49.1667 12.9568C48.4505 12.9568 47.7637 13.2392 47.2573 13.742C46.751 14.2448 46.4665 14.9267 46.4665 15.6378C46.4665 16.3488 46.751 17.0307 47.2573 17.5335C47.7637 18.0363 48.4505 18.3188 49.1667 18.3188C49.8827 18.3188 50.5695 18.0363 51.0759 17.5335C51.5823 17.0307 51.8668 16.3488 51.8668 15.6378ZM44.5842 15.6378C44.5659 14.7245 44.822 13.8265 45.3198 13.0584C45.8176 12.2902 46.5344 11.6866 47.379 11.3245C48.2236 10.9624 49.1576 10.8583 50.0621 11.0253C50.9665 11.1924 51.8004 11.6231 52.4574 12.2625C53.1144 12.9019 53.5647 13.721 53.751 14.6156C53.9373 15.5101 53.851 16.4394 53.5033 17.2851C53.1556 18.1308 52.5622 18.8544 51.7986 19.364C51.035 19.8734 50.136 20.1456 49.216 20.1458C48.609 20.1697 48.0035 20.0703 47.4367 19.8534C46.8699 19.6365 46.3537 19.3068 45.9199 18.8846C45.4861 18.4624 45.1439 17.9566 44.9141 17.3982C44.6844 16.8399 44.5721 16.2408 44.5842 15.6378ZM110.607 11.3538V19.8798H108.76V14.3918L104.262 19.8868H102.775V11.3538H104.622V16.8908L109.12 11.3958H110.607V11.3538ZM92.5241 19.9288H90.677V11.3538H92.5241V19.9288ZM87.7089 16.9818C87.7174 16.813 87.6913 16.6442 87.6314 16.486C87.5722 16.3277 87.4798 16.1834 87.3614 16.0619C87.2429 15.9404 87.1012 15.8444 86.9433 15.7799C86.7861 15.7153 86.6169 15.6837 86.447 15.6868H84.5999V18.3188H86.4893C86.6599 18.3154 86.8277 18.2776 86.9828 18.2077C87.1379 18.1378 87.2775 18.0372 87.3924 17.9122C87.5066 17.787 87.5947 17.64 87.6504 17.48C87.7061 17.3201 87.7287 17.1506 87.716 16.9818H87.7089ZM89.5983 16.9818C89.6068 17.3771 89.5328 17.7698 89.3805 18.135C89.2282 18.5002 89.0005 18.83 88.7129 19.1032C88.4252 19.3765 88.0833 19.5873 87.7089 19.7221C87.3346 19.857 86.9363 19.9131 86.5386 19.8868H82.7175V11.3538H84.5999V14.1538H86.7149C87.097 14.1308 87.4798 14.1879 87.838 14.3213C88.1961 14.4547 88.5225 14.6615 88.7946 14.9282C89.0675 15.1949 89.2804 15.5156 89.42 15.8693C89.5596 16.2232 89.623 16.6022 89.6054 16.9818H89.5983Z" fill="black"/>
</svg>
