<svg width="141" height="35" viewBox="0 0 141 35" fill="none" xmlns="http://www.w3.org/2000/svg">
<path d="M15.5805 16.0298H10.6455C10.6455 16.0298 10.575 16.4498 10.575 17.0098V17.9898C10.575 18.6198 10.6455 18.9698 10.6455 18.9698H15.5805V16.0298Z" fill="white"/>
<path d="M26.508 16.5199H19.5285V10.3599H17.5545V24.2899H19.5285V18.3399H26.508V24.2899H28.5525V10.3599H26.508V16.5199ZM35.0385 14.2799C31.9365 14.2799 29.8215 16.3799 29.8215 19.3899C29.8215 22.4699 31.9365 24.5699 35.0385 24.5699C38.1405 24.5699 40.2555 22.4699 40.2555 19.3899C40.2555 16.4499 38.1405 14.2799 35.0385 14.2799ZM35.0385 22.8199C33.0645 22.8199 31.725 21.4899 31.725 19.4599C31.725 17.4999 33.0645 16.1699 35.0385 16.1699C37.0125 16.1699 38.352 17.4999 38.352 19.4599C38.352 21.4899 37.0125 22.8199 35.0385 22.8199ZM46.6005 14.5599C44.7675 14.4199 41.5245 14.9799 41.5245 14.9799V24.3599H43.428V22.0499H46.248C46.248 22.0499 46.6005 22.0499 47.235 21.9799C47.799 21.9099 48.4335 21.6299 48.4335 21.6299C48.9975 21.2799 49.209 21.2099 49.773 20.6499C50.4075 19.9499 50.5485 18.8999 50.5485 18.2699C50.6189 15.3999 48.081 14.5599 46.6005 14.5599ZM48.0105 19.8099C47.517 20.2999 46.7415 20.3699 45.8955 20.3699H43.4985V16.3799C44.556 16.2399 45.5429 16.1699 46.671 16.2399C47.658 16.3099 48.7155 16.8699 48.7155 18.2699C48.7155 18.8299 48.5745 19.3199 48.0105 19.8099ZM116.818 18.5499H111.672V14.6999H109.768V24.2899H111.672V20.3699H116.818V24.2899H118.722V14.6999H116.818V18.5499ZM63.2385 21.3499V14.6999H61.335V24.2899H63.2385L68.385 17.7099V24.2899H70.2885V14.6999H68.385L63.2385 21.3499ZM125.49 19.0399L129.79 14.6999H127.323L123.516 18.5499H122.67V14.6999H120.766V24.2899H122.67V20.3699H124.15L127.957 24.2899H130.425L125.49 19.0399ZM81.357 14.6999H78.8895L75.0825 18.5499H74.166V14.6999H72.2625V24.2899H74.166V20.3699H75.717L79.524 24.2899H81.9915L77.0565 19.0399L81.357 14.6999ZM91.4385 15.4699H88.548V12.2499H95.457V10.3599H86.574V24.2899H86.7855C88.407 24.3599 89.8875 24.4299 91.2975 24.4299C94.611 24.4299 96.867 22.8199 96.867 19.9499C97.0079 17.1499 94.752 15.4699 91.4385 15.4699ZM91.5795 22.6099C90.5219 22.6099 89.6055 22.6099 88.6185 22.5399V17.4299H91.5795C93.624 17.4299 94.9635 18.2699 94.9635 20.0199C95.1045 21.7699 93.765 22.6099 91.5795 22.6099ZM102.859 14.4199C99.8985 14.4199 97.995 16.3799 97.995 19.4599C97.995 22.5399 99.8985 24.5699 102.789 24.5699C103.917 24.5699 104.833 24.3599 105.891 23.7299V24.2899H107.794V14.9099L107.583 14.8399C105.679 14.4899 104.551 14.4199 102.859 14.4199ZM105.961 21.9099C104.833 22.6099 103.987 22.9599 102.93 22.9599C101.097 22.9599 99.8985 21.6299 99.8985 19.5999C99.8985 17.4999 101.097 16.2399 103.071 16.2399C104.058 16.2399 104.904 16.3099 105.961 16.4499V21.9099ZM58.656 19.0399C59.4315 18.4099 59.643 17.7799 59.502 17.1499C59.502 16.7299 59.4315 16.3799 59.2905 15.9599C59.079 15.3999 58.515 14.9799 57.951 14.7699C57.387 14.5599 56.541 14.3499 55.836 14.3499C54.6375 14.3499 51.888 14.8399 51.888 14.8399V24.2199C51.888 24.2199 54.7785 24.3599 55.836 24.3599C56.964 24.3599 58.3035 24.2899 59.0085 23.7299C59.361 23.5199 60.207 22.8899 60.207 21.4199C60.1365 20.1599 59.361 19.4599 58.656 19.0399ZM53.6505 16.3799C53.6505 16.3799 54.9195 16.1699 55.6245 16.1699C56.3295 16.1699 56.8935 16.1699 57.246 16.3799C57.669 16.7299 57.7395 17.0099 57.7395 17.2199C57.7395 17.9199 57.3165 18.2699 57.0345 18.4099C56.682 18.5499 56.3295 18.5499 55.7655 18.5499H53.721V16.3799H53.6505ZM57.528 22.6799C57.105 22.8199 56.4 22.8899 55.695 22.8899C54.99 22.8899 54.285 22.8199 53.6505 22.8199V20.3699H56.4C57.105 20.3699 57.387 20.2999 57.7395 20.5799C58.233 20.9299 58.233 21.3499 58.233 21.6299C58.233 22.2599 57.81 22.6099 57.528 22.6799ZM10.575 17.7099V17.9199H15.5805V16.9399H10.575V17.7099Z" fill="#002569"/>
<path d="M15.5805 16.0299V10.3599H11.421L10.6455 16.0299H15.5805ZM10.6455 18.8999C10.998 20.5799 11.9145 21.9799 13.395 23.0999C14.1 23.6599 14.8755 24.0799 15.51 24.3599V18.8999H10.6455Z" fill="#C60C2E"/>
</svg>
