<svg width="142" height="35" viewBox="0 0 142 35" fill="none" xmlns="http://www.w3.org/2000/svg">
<path d="M24.8501 30.5393L38.1989 30.5215L38.1899 17.4946C35.4077 22.6946 30.1969 26.072 24.8501 27.3675C24.8682 28.3504 24.8501 30.5393 24.8501 30.5393Z" fill="#008FB4"/>
<path d="M29.1184 23.9816C34.1571 21.471 36.5858 16.8874 36.5858 16.8874C36.5858 16.8874 36.5677 15.3775 36.5677 15.3507C33.7946 14.3857 31.2752 12.9741 29.1275 10.8655C29.1365 14.4393 29.1184 23.9816 29.1184 23.9816ZM29.8344 4.2627C29.8344 4.2627 29.8344 8.24754 29.8253 9.2393C31.1575 10.4544 31.819 11.0173 33.1965 11.884L33.2055 6.54104C31.6378 5.69224 31.0306 5.24551 29.8344 4.2627Z" fill="#008FB4"/>
<path d="M49.6445 8.46208C49.5268 7.74731 49.1189 7.27376 48.4392 7.05039C48.104 6.94316 47.7324 6.88061 47.2792 6.85381C47.0074 6.83594 46.7265 6.85381 46.4637 6.88061H46.3549V5.32598L47.6418 5.33491L49.0645 5.53148L49.1189 4.26275H44.7237L44.8958 5.84419L44.914 9.38237L44.7147 11.0621H44.9684C44.9684 11.0621 45.5665 11.0531 45.8565 11.0621C46.0106 11.0621 46.1646 11.071 46.3187 11.0799C46.5362 11.0889 46.7536 11.1067 46.9712 11.1067H47.1252C47.9499 11.0889 48.5842 10.8834 49.0555 10.4903C49.7714 9.87377 49.7352 9.0428 49.6445 8.46208ZM48.2127 8.81054C48.2127 8.96244 48.2037 9.08746 48.1855 9.20366C48.1312 9.52531 47.9589 9.74868 47.6781 9.86481C47.3064 10.0257 46.8987 10.0614 46.3459 9.99886V7.97957C46.8443 7.91706 47.3336 7.89921 47.7868 8.12251C48.0768 8.27441 48.2127 8.49778 48.2127 8.81054ZM54.0035 5.04006L53.7951 4.2002L52.3451 4.21807L52.182 4.95965L50.4329 9.42703L49.6717 11.0263L51.1851 11.0531L51.4479 9.82904L51.8105 8.89986H53.9854L54.4838 10.0882L54.7467 11.0442H56.7041L56.0335 9.90947L54.0035 5.04006ZM53.5776 7.86344C53.351 7.86344 53.1154 7.8724 52.8798 7.88129C52.6532 7.89025 52.4176 7.89025 52.2001 7.89914C52.3361 7.57749 52.472 7.24695 52.6079 6.92528C52.7166 6.68405 52.8163 6.44281 52.916 6.20157L53.5776 7.86344ZM68.0413 11.0442L70.035 11.0263L66.8632 7.47921L69.8448 4.24486L68.0957 4.25379L67.5701 4.9775C67.5701 4.9775 66.2289 6.43386 65.5039 7.22903V5.46892L65.7123 4.26273H63.8817L63.9904 5.45105L64.0176 9.64144L63.8817 11.0352H65.7123L65.5129 9.65033V7.98853L68.0413 11.0442ZM62.6219 9.0071C62.6219 8.5514 62.64 5.49575 62.64 5.49575L62.8031 4.28063H60.9906L61.1357 5.46001C61.1357 5.46001 61.1356 6.35348 61.1447 6.88956H58.58C58.5619 6.12118 58.571 5.33492 58.7704 4.56653L58.8429 4.28956H56.9579L56.9851 4.53973C56.9942 4.62908 57.1029 5.56723 57.1211 6.00503C57.1482 6.91636 57.1392 7.85448 57.1301 8.74796V8.95348C57.1301 9.33771 57.0395 10.5171 56.9942 10.7315L56.9398 10.9906H58.7613L58.7341 10.7404C58.716 10.5796 58.6979 10.4277 58.6797 10.2669C58.6344 9.91843 58.5891 9.57893 58.571 9.24832C58.5528 8.90882 58.5528 8.56036 58.5619 8.22086V7.97957H61.1719C61.1719 8.14939 61.1719 8.31914 61.181 8.48889C61.19 9.25728 61.1991 9.9899 60.9997 10.7136L60.9272 10.9906H62.8303L62.7668 10.7226C62.64 10.0971 62.6219 9.47169 62.6219 9.0071ZM85.4592 14.3858L85.5132 14.1177H81.6259L81.6529 14.3679C81.7885 15.5205 81.8886 16.5926 81.961 17.6648C82.0065 18.4332 81.9973 19.2194 81.988 19.9878C81.988 20.2559 81.9788 20.5328 81.9788 20.8009H74.7112C74.675 18.7012 74.648 16.5301 75.2004 14.4036L75.2728 14.1266H71.2677L71.3039 14.3768C71.3039 14.4036 71.6029 16.959 71.6483 18.1741C71.7207 20.515 71.7023 22.9006 71.6753 25.2057V25.7507C71.666 26.7604 71.4396 29.825 71.3309 30.37L71.2763 30.638H75.1372L75.1095 30.3878C75.0648 29.9857 75.0101 29.5926 74.9647 29.1995C74.8468 28.3239 74.7382 27.4215 74.6843 26.5459C74.6296 25.6614 74.648 24.75 74.6566 23.8744C74.6566 23.5527 74.6658 23.2311 74.6658 22.9094H82.0519C82.0519 23.4545 82.0519 24.0084 82.0604 24.5445C82.0881 26.5548 82.1151 28.449 81.5897 30.361L81.5081 30.6469H85.5224L85.4684 30.3789C85.1511 28.7528 85.0964 27.1356 85.0872 25.9115C85.0787 24.6874 85.0872 19.282 85.1418 17.781C85.1873 16.3514 85.2867 15.2435 85.4592 14.3858ZM61.7519 28.6277V22.7665C63.6097 22.8201 67.153 23.0971 67.1893 23.0971L67.434 23.115L67.443 20.4346L61.7519 20.7562V16.1369C63.4465 16.1191 66.6274 16.1012 68.2767 16.6015L68.5305 16.682L68.5668 16.4229C68.6845 15.5741 68.603 14.3858 68.5939 14.3411L68.5758 14.1356H58.3082L58.3535 14.3947C58.6978 16.5658 58.6797 18.7638 58.6525 20.8902C58.6435 21.3816 58.6435 21.873 58.6435 22.3734C58.6706 25.5184 58.3263 30.3521 58.3173 30.3968L58.2991 30.638L68.5124 30.6827L68.5215 30.4593C68.5396 29.9232 68.5849 28.4847 68.612 28.2792L68.6483 27.9755L68.3402 28.038C66.3102 28.4401 64.389 28.6188 61.7519 28.6277ZM53.0249 21.3906C53.0702 21.3638 53.1154 21.3281 53.1607 21.3013C54.0852 20.6848 55.1454 19.7734 55.2089 18.2187C55.2995 16.0744 54.1123 14.5556 51.9464 14.0641C50.0796 13.6353 48.1584 13.7068 46.074 14.2696L46.0468 14.2786C45.0409 14.5556 44.8687 14.6449 44.8959 14.8772C44.9503 15.315 45.0409 15.7974 45.1225 16.271C45.1859 16.6195 45.2494 16.9679 45.2947 17.3074C45.3128 17.4325 45.4034 17.5308 45.5212 17.5754C45.639 17.6112 45.775 17.5754 45.8566 17.4861L45.9834 17.3521C46.9621 16.3336 48.24 15.86 49.8621 15.8868C50.8952 15.9047 51.7561 16.548 51.9554 17.4504C52.2274 18.6923 51.7652 19.7734 50.7955 20.2023C50.3242 20.4078 49.7805 20.5597 49.128 20.6758C48.4936 20.7831 47.243 20.8724 47.2249 20.8724L46.9984 20.8902L47.089 22.9988L47.3155 22.9899C47.3246 22.9899 48.4393 22.9542 49.3727 22.9542C49.7896 22.9542 51.1399 23.0435 51.8286 23.4545C52.4358 23.8119 52.8708 24.4016 52.9977 25.027C53.1789 25.9652 53.342 28.1989 50.868 28.7349C48.7293 29.1995 46.9803 28.7349 45.6843 27.359C45.5756 27.2428 45.4577 27.1267 45.3309 26.9837L45.195 26.8408C45.1134 26.7514 44.9956 26.7246 44.8778 26.7604C44.769 26.7961 44.6875 26.8944 44.6694 27.0105L44.6059 27.5287C44.5425 28.038 44.4881 28.5115 44.4065 28.9761C44.3431 29.3782 44.479 29.6462 44.8687 29.8518C46.3097 30.6291 47.9046 31.0222 49.6083 31.0222C49.9346 31.0222 50.2608 31.0043 50.5962 30.9775C51.9645 30.8614 53.2242 30.37 54.2301 29.548C55.6982 28.3596 56.3688 26.9211 56.2057 25.2682C56.0788 23.3651 54.9913 22.0607 53.0249 21.3906ZM101.971 23.4456V22.4002V21.4263C101.962 19.0854 101.953 16.6641 102.379 14.3946L102.424 14.1266H98.4181L98.4728 14.3946C98.6084 15.1005 98.7263 15.8511 98.8172 16.6195C98.8441 16.8607 98.8172 16.9768 98.6901 17.1109C97.4213 18.451 96.171 19.818 94.9746 21.1404C93.8777 22.3466 92.7452 23.5885 91.5851 24.8215C91.6121 23.7851 91.5943 22.7575 91.5673 21.7479C91.5127 19.2194 91.4672 16.8249 92.102 14.4215L92.1744 14.1356H88.0692L88.1593 14.4215C88.5399 15.6545 88.5399 16.8607 88.5491 18.1383V19.3713C88.5584 21.5246 88.5676 23.7493 88.5399 25.9294C88.5399 26.26 88.5491 26.5905 88.5584 26.9122C88.5768 27.5198 88.5946 28.1363 88.5314 28.7438C88.4952 29.1101 88.4043 29.4675 88.3134 29.8428C88.2687 30.0126 88.2325 30.1913 88.1956 30.37L88.1416 30.638H92.0927L92.0473 30.3789C91.9657 29.8428 91.9025 29.3067 91.8478 28.7885C91.8116 28.4847 91.7846 28.1899 91.7484 27.8861C91.7299 27.761 91.7938 27.5734 91.8663 27.493C92.9902 26.2868 94.1049 25.0717 95.1741 23.8922C96.3882 22.5521 97.6478 21.1761 98.935 19.8091V22.0785C98.9258 22.8112 98.935 23.5527 98.9435 24.2675C98.9528 25.3754 98.9712 26.5191 98.9166 27.6359C98.8896 28.2524 98.7809 28.86 98.6716 29.5033C98.6176 29.7892 98.5722 30.084 98.5268 30.37L98.4906 30.629H102.424L102.369 30.361C101.962 28.1988 101.971 25.7864 101.971 23.4456ZM112.084 16.3246C112.084 16.2888 112.084 16.2442 112.093 16.1906L117.15 16.8339L116.824 14.0999H104.182L103.901 16.8339L109.311 16.1906V26.6174L108.786 30.6559H112.619L112.139 26.6889C112.139 26.6085 112.093 19.7377 112.084 16.3246Z" fill="#191646"/>
</svg>
