<svg width="141" height="35" viewBox="0 0 141 35" fill="none" xmlns="http://www.w3.org/2000/svg">
<path d="M12.6899 28.4479H28.0519V31.6119H12.6899V28.4479ZM123.784 18.2909L128.627 12.9849H125.018L121.048 17.3949V12.9849H118.172V24.1359H121.063V19.4389L125.307 24.1359H129.015L123.784 18.2909ZM29.7439 19.0259C29.6663 21.1259 29.3984 21.5249 28.2281 21.5249V24.1429H28.6652C31.6051 24.1429 32.303 22.6379 32.4088 19.2849L32.5357 15.5749H35.2499V24.1359H38.1263V12.9849H29.9413L29.7439 19.0259ZM17.2583 20.9439H23.3213L24.3295 24.1359H27.6923L23.1592 10.7239C22.7221 9.4289 22.2145 8.3999 20.4802 8.3999C18.7459 8.3999 18.2171 9.4289 17.7518 10.7239L13.0001 24.1359H16.1585L17.2583 20.9439ZM20.3321 11.8999H20.4097L22.4401 18.2559H18.1678L20.3321 11.8999ZM87.5257 14.5669H84.3179V11.4169H91.7627V8.6169H81.3005V24.1359H87.5257C90.9731 24.1359 92.9542 22.4279 92.9542 19.3059C92.9542 16.3449 90.9449 14.5669 87.5257 14.5669ZM87.3776 21.3289H84.3179V17.2969H87.3776C88.9709 17.2969 89.8663 17.9969 89.8663 19.3129C89.8663 20.6289 88.9709 21.3289 87.3776 21.3289ZM58.9309 12.7259V8.5959H56.0615V12.7259C54.5549 12.7753 53.1295 13.4163 52.0985 14.5082C51.0675 15.6002 50.515 17.0539 50.5625 18.5499C50.5112 20.049 51.0617 21.507 52.093 22.6031C53.1242 23.6993 54.5517 24.3438 56.0615 24.3949V28.5949H58.9379V24.3949C59.6858 24.3705 60.4215 24.1999 61.1029 23.8927C61.7842 23.5856 62.3979 23.1481 62.9087 22.6051C63.4195 22.0622 63.8174 21.4245 64.0796 20.7287C64.3419 20.0328 64.4633 19.2924 64.4369 18.5499C64.4671 17.8069 64.3479 17.0654 64.0864 16.3687C63.8249 15.6719 63.4262 15.0339 62.9137 14.4917C62.4011 13.9496 61.7849 13.5142 61.1012 13.2111C60.4173 12.9079 59.6796 12.743 58.9309 12.7259ZM56.0686 21.6999C55.3073 21.6169 54.6095 21.2401 54.1255 20.6508C53.6414 20.0616 53.41 19.307 53.4812 18.5499C53.4192 17.7947 53.6539 17.0449 54.1363 16.4577C54.6185 15.8705 55.3111 15.4915 56.0686 15.3999V21.6999ZM58.945 21.6999V15.3999C59.7025 15.4915 60.395 15.8705 60.8773 16.4577C61.3597 17.0449 61.5944 17.7947 61.5323 18.5499C61.5998 19.3063 61.3671 20.0588 60.8837 20.6473C60.4005 21.2357 59.7048 21.6135 58.945 21.6999ZM75.2164 20.7129V16.9539C75.2164 14.2099 73.4609 12.4949 70.514 12.4949C67.5671 12.4949 65.8469 14.3149 65.7059 16.2119H68.6176C68.7163 15.8059 69.1534 15.0849 70.507 15.0849C70.7601 15.0526 71.0167 15.079 71.2571 15.1623C71.4982 15.2456 71.7161 15.3833 71.8937 15.5647C72.0714 15.746 72.2046 15.9659 72.2822 16.207C72.3597 16.4482 72.3795 16.7039 72.34 16.9539H69.52C66.9679 16.9539 65.4521 18.2909 65.4521 20.5029C65.4323 21.0308 65.5242 21.5569 65.722 22.0472C65.9199 22.5376 66.2192 22.9812 66.6007 23.3494C66.9821 23.7176 67.4372 24.0021 67.9365 24.1847C68.4357 24.3672 68.968 24.4436 69.4988 24.4089C70.0982 24.4402 70.6959 24.3243 71.2395 24.0716C71.783 23.8189 72.2554 23.4371 72.6149 22.9599C72.849 23.353 73.1902 23.672 73.5998 23.8801C74.0087 24.0883 74.4691 24.177 74.9273 24.1359H75.9214V21.5599C75.4349 21.5599 75.2164 21.3289 75.2164 20.7129ZM72.34 20.0129C72.352 20.2886 72.3047 20.5637 72.2011 20.82C72.0982 21.0763 71.9417 21.308 71.7421 21.4998C71.5419 21.6916 71.3036 21.8391 71.0421 21.9328C70.7805 22.0264 70.5021 22.0639 70.225 22.0429C69.1886 22.0429 68.3708 21.6719 68.3708 20.5589C68.3708 19.4459 69.2803 19.2849 70.0487 19.2849H72.34V20.0129ZM45.2891 16.3729H43.2235V12.9849H40.3471V24.1359H45.3385C48.4616 24.1359 49.5685 22.1199 49.5685 20.2159C49.5826 17.7589 48.0316 16.3729 45.2891 16.3729ZM45.0776 21.6999H43.2235V18.8999H45.0776C46.0717 18.8999 46.6709 19.3479 46.6709 20.2999C46.6709 21.2519 46.0999 21.6999 45.0776 21.6999ZM103.931 20.7129V16.9539C103.931 14.2099 102.176 12.4949 99.2287 12.4949C96.2818 12.4949 94.5616 14.3149 94.4206 16.2119H97.3322C97.4309 15.8059 97.868 15.0849 99.2216 15.0849C99.4747 15.0526 99.7314 15.079 99.9718 15.1623C100.213 15.2456 100.431 15.3833 100.608 15.5647C100.786 15.746 100.919 15.9659 100.997 16.207C101.074 16.4482 101.094 16.7039 101.055 16.9539H98.2346C95.6825 16.9539 94.1668 18.2909 94.1668 20.5029C94.1471 21.0308 94.2387 21.5569 94.4368 22.0472C94.6342 22.5376 94.9338 22.9812 95.3152 23.3494C95.6966 23.7176 96.1521 24.0021 96.6512 24.1847C97.1503 24.3672 97.6826 24.4436 98.2135 24.4089C98.8184 24.4461 99.4233 24.3331 99.9739 24.0802C100.524 23.8272 101.002 23.4422 101.365 22.9599C101.595 23.3461 101.93 23.6607 102.331 23.8685C102.733 24.0763 103.184 24.1689 103.635 24.1359H104.629V21.5599C104.128 21.5599 103.931 21.3289 103.931 20.7129ZM101.069 20.0129C101.079 20.2884 101.031 20.5629 100.928 20.8187C100.824 21.0745 100.668 21.3057 100.468 21.4973C100.269 21.6888 100.03 21.8364 99.7694 21.9305C99.5086 22.0245 99.2308 22.0628 98.9537 22.0429C97.9174 22.0429 97.0996 21.6719 97.0996 20.5589C97.0996 19.4459 98.009 19.2849 98.7775 19.2849H101.069V20.0129ZM113.117 17.1359H109.148V12.9849H106.272V24.1429H109.148V19.7469H113.117V24.1359H115.994V12.9849H113.117V17.1359Z" fill="#EF3124"/>
</svg>
