<svg width="141" height="35" viewBox="0 0 141 35" fill="none" xmlns="http://www.w3.org/2000/svg">
<path d="M101.76 4.2002H102.678C102.892 4.33058 103.099 4.48157 103.333 4.58279C103.586 4.51074 103.789 4.32887 104.015 4.2002H104.908C104.623 4.75951 104.2 5.36 103.492 5.34456C102.681 5.47495 102.073 4.87103 101.76 4.2002ZM17.625 5.61564H20.6057V27.2744C22.5513 27.2779 24.497 27.2762 26.4427 27.2762C28.4264 21.3708 30.4083 15.4671 32.3885 9.56346C34.4223 9.56003 36.4561 9.56171 38.4899 9.56171C38.4916 15.1514 38.4899 20.7411 38.4916 26.3326C35.993 26.3326 33.4944 26.3343 30.9975 26.3308C31.3258 25.3443 31.6576 24.3578 31.9894 23.3713C33.1488 23.3747 34.3066 23.373 35.466 23.373V12.5641C35.1791 12.5641 34.8923 12.5659 34.6072 12.5659C32.627 18.4713 30.6416 24.3732 28.6631 30.2786H17.625V5.61564Z" fill="#93130A"/>
<path d="M21.5612 5.61192C22.5669 5.61707 23.5726 5.61535 24.5783 5.61535C24.5817 10.4999 24.5783 15.3862 24.5799 20.2725C26.237 15.3947 27.8682 10.5085 29.5028 5.62394C33.8227 5.60335 38.1443 5.62051 42.4641 5.61535V30.2783H29.6705C30.0057 29.2781 30.3426 28.2779 30.6778 27.2776C33.5981 27.2725 36.5183 27.2776 39.4402 27.2759V8.61783C36.876 8.61608 34.3117 8.62126 31.7475 8.61608C29.7637 14.5232 27.7577 20.4235 25.7808 26.3322C24.3726 26.3306 22.9643 26.3322 21.5561 26.3322C21.5595 19.4249 21.5508 12.5193 21.5612 5.61192ZM47.3887 5.61535C47.902 5.61535 48.4135 5.61535 48.9284 5.61192C49.464 7.09253 49.9548 8.59207 50.5025 10.0693C51.0174 8.58346 51.5376 7.09946 52.0508 5.61364C52.5708 5.61535 53.0892 5.61535 53.6094 5.61535V11.5774H52.443C52.4378 10.1705 52.4516 8.76539 52.4361 7.35846C51.9143 8.75335 51.4909 10.1808 50.976 11.5791C50.6494 11.5774 50.3228 11.5757 49.9963 11.5739C49.5384 10.1568 49.02 8.76021 48.5741 7.33963C48.5344 8.7516 48.5638 10.1654 48.5552 11.5774C48.1663 11.5774 47.7759 11.5774 47.387 11.5757C47.3887 9.58887 47.3887 7.60213 47.3887 5.61535ZM56.7145 5.60335C57.8653 5.33742 59.182 5.67712 59.9371 6.61046C61.0741 7.88864 60.8667 10.1001 59.4585 11.1021C57.95 12.2722 55.4271 11.7541 54.6392 9.98178C53.77 8.29184 54.8206 5.98423 56.7145 5.60335ZM56.927 6.70825C56.146 6.91928 55.536 7.65533 55.5084 8.46341C55.3788 9.5426 56.3015 10.5771 57.3884 10.6235C58.6792 10.7298 59.8265 9.4019 59.4671 8.15289C59.2494 7.05312 57.9897 6.36683 56.927 6.70825ZM61.119 8.48567C61.1501 7.12004 62.1972 5.80237 63.5761 5.57761C64.9999 5.24991 66.5344 6.02025 67.0873 7.3705C66.657 7.37393 66.2285 7.37393 65.7999 7.3705C65.1295 6.56584 63.8353 6.3531 63.0197 7.06341C62.0797 7.75998 62.0071 9.26974 62.8798 10.0487C63.64 10.8465 64.9999 10.7813 65.7153 9.95434C66.1594 9.94573 66.6052 9.94748 67.051 9.95602C66.7192 10.4982 66.346 11.0558 65.7585 11.3526C64.5956 11.9925 63.0059 11.8193 62.0556 10.8791C61.4352 10.2511 61.0723 9.36928 61.119 8.48567ZM70.4015 5.97908C70.7143 5.35628 71.5004 5.69084 72.0552 5.62393C71.3107 6.61217 70.5331 7.57637 69.7984 8.57149C70.5585 9.56318 71.3072 10.5651 72.0432 11.5739C71.5836 11.5774 71.1218 11.5774 70.6621 11.5791C70.0594 10.7418 69.465 9.89771 68.8585 9.06387V11.5774H67.6921V5.61535H68.8585C68.8585 6.44231 68.8532 7.26928 68.8654 8.09626C69.3941 7.40312 69.8831 6.6808 70.4015 5.97908Z" fill="#93130A"/>
<path d="M74.0236 5.66852C75.1657 5.31338 76.532 5.57759 77.3547 6.4749C78.4418 7.56263 78.5025 9.47223 77.4978 10.6303C76.4756 11.8776 74.4642 12.0835 73.1642 11.1519C72.0158 10.3626 71.566 8.76019 72.0947 7.48542C72.4162 6.62931 73.1452 5.94132 74.0236 5.66852ZM74.5488 6.68764C73.7261 6.87122 73.0712 7.63984 73.0437 8.48054C72.9414 9.45508 73.688 10.4141 74.6539 10.5822C75.8305 10.8568 77.0678 9.86849 77.0678 8.66926C77.151 7.38938 75.7861 6.32563 74.5488 6.68764ZM78.9671 5.61532C79.9329 5.6565 80.9883 5.45061 81.8696 5.94474C82.7029 6.444 82.7064 7.71187 81.9922 8.31926C83.1245 8.84937 83.178 10.656 82.0825 11.2462C81.1272 11.754 80.0034 11.531 78.9671 11.5756C78.9671 9.58884 78.965 7.60211 78.9671 5.61532ZM80.0915 6.70993C80.0901 7.10966 80.0901 7.50943 80.0915 7.91095C80.401 7.88519 80.719 7.90745 81.02 7.81652C81.357 7.71873 81.4014 7.29495 81.3063 7.01187C81.0165 6.64302 80.4976 6.75968 80.0915 6.70993ZM80.0901 8.99182C80.0901 9.4842 80.0901 9.97833 80.0915 10.4725C80.5759 10.4244 81.1786 10.5908 81.5572 10.1962C81.8837 9.87368 81.7229 9.26286 81.3063 9.10158C80.9178 8.95745 80.4941 9.01583 80.0901 8.99182ZM83.4875 7.6467C83.7984 6.64303 84.6536 5.80406 85.704 5.59303C86.5423 5.43004 87.4771 5.51582 88.1906 6.01509C88.6954 6.33935 89.0204 6.85234 89.3087 7.36187C88.8716 7.37223 88.4345 7.37566 87.9988 7.37048C87.5758 6.94156 87.0344 6.55724 86.3935 6.63445C85.2063 6.63102 84.2546 7.85775 84.5189 9.00211C84.7086 9.99037 85.7181 10.7624 86.7355 10.608C87.2127 10.56 87.5631 10.2151 87.9523 9.98001C88.3859 9.91141 88.8286 9.95088 89.2657 9.95942C88.9336 10.5136 88.5381 11.0661 87.9474 11.3697C87.0866 11.8295 86.01 11.8484 85.1203 11.4606C83.7202 10.8362 82.9743 9.081 83.4875 7.6467ZM89.9411 5.61361C90.314 5.61532 90.6877 5.61532 91.0628 5.61532C91.0628 6.45429 91.0606 7.29159 91.0642 8.13054C91.6726 7.29845 92.2739 6.46116 92.8718 5.61876C93.3399 5.61532 93.8101 5.61532 94.2797 5.61532C93.5281 6.59498 92.7787 7.57467 92.0166 8.5457C92.7576 9.56309 93.5267 10.5616 94.2698 11.5773C93.7982 11.5773 93.3293 11.5756 92.8598 11.5687C92.2718 10.7212 91.6641 9.89083 91.0663 9.05188C91.0592 9.89251 91.0628 10.735 91.0628 11.5773H89.9397C89.9397 9.58885 89.9376 7.60211 89.9411 5.61361ZM94.9071 5.61533C95.2942 5.61533 95.6833 5.61533 96.0739 5.61362C96.0753 6.97587 96.0704 8.33815 96.0753 9.70036C96.9495 8.33815 97.8117 6.96901 98.6951 5.6119C99.073 5.61362 99.4515 5.61533 99.8315 5.61705C99.8315 7.60379 99.8315 9.5906 99.8337 11.5773H98.6655C98.6641 10.2271 98.669 8.87513 98.6619 7.5249C97.7962 8.87345 96.9375 10.2288 96.0718 11.5773C95.6812 11.5773 95.2942 11.5773 94.9057 11.5757C94.9071 9.58885 94.9071 7.60211 94.9071 5.61533ZM100.869 5.61533C101.256 5.61533 101.643 5.61362 102.032 5.6119C102.038 6.9793 102.035 8.34502 102.033 9.71065C102.903 8.34845 103.78 6.99131 104.639 5.62391C105.022 5.61705 105.406 5.61533 105.792 5.6119C105.793 7.60036 105.793 9.58885 105.793 11.5773H104.67C104.665 10.2168 104.678 8.85455 104.663 7.49403C103.773 8.8374 102.912 10.2013 102.057 11.567C101.66 11.5739 101.264 11.5773 100.869 11.5808V5.61533ZM119.373 13.5247C119.684 13.5161 119.999 13.5092 120.313 13.5092C120.544 13.9965 121.24 14.0342 121.462 13.5144C121.789 13.5126 122.119 13.5161 122.449 13.5247C122.229 14.3207 121.422 14.8406 120.6 14.6553C119.968 14.6141 119.555 14.0788 119.373 13.5247ZM69.9592 16.0158C70.9406 14.6896 73.0556 14.4597 74.3345 15.4856C74.7406 15.7945 74.9979 16.2423 75.2503 16.6763C74.8252 16.6763 74.3951 16.7193 73.975 16.6472C73.5738 16.407 73.2234 16.045 72.7377 15.9815C71.5921 15.7705 70.4119 16.7707 70.4499 17.9305C70.3912 19.0526 71.4588 20.0666 72.5875 19.9465C73.1283 19.9533 73.5548 19.593 73.9355 19.2568C74.3655 19.2533 74.7977 19.2551 75.2292 19.2636C74.9669 19.7029 74.7025 20.1626 74.2774 20.468C73.0472 21.4031 71.0859 21.2435 70.0784 20.0529C69.0987 18.9513 69.0157 17.1654 69.9592 16.0158ZM47.3888 14.9658H48.5551C48.5587 16.3161 48.5482 17.6664 48.5603 19.0148C49.4295 17.668 50.29 16.3161 51.154 14.9658C51.5393 14.9658 51.9264 14.9658 52.3134 14.9676C52.3065 16.9561 52.3272 18.9462 52.303 20.9364C51.9178 20.9295 51.5324 20.9279 51.1471 20.9244C51.1454 19.5707 51.1488 18.217 51.1471 16.8634C50.2624 18.2085 49.4105 19.5741 48.5362 20.9261C48.156 20.9279 47.7759 20.9295 47.3957 20.933C47.3784 18.9445 47.394 16.9561 47.3888 14.9658ZM53.3502 14.9675C53.7372 14.9658 54.126 14.9658 54.5131 14.9641C54.5183 15.7516 54.5165 16.5374 54.5165 17.3249C55.2198 17.3249 55.9248 17.3231 56.6281 17.3283C56.635 16.5408 56.6333 15.7533 56.6333 14.9658H57.7997V20.9278H56.6333C56.6333 20.0991 56.6333 19.2705 56.635 18.4418C55.9283 18.4401 55.2215 18.4384 54.5148 18.4418C54.5183 19.2705 54.5165 20.0991 54.5165 20.9278H53.3502V14.9675ZM58.9073 19.8144C59.6554 18.2016 60.376 16.5751 61.1259 14.9624C61.4646 14.9658 61.805 14.9676 62.1472 14.9693C62.8573 16.5872 63.6159 18.1844 64.3278 19.8023C64.5127 19.8092 64.6993 19.8161 64.8877 19.8212C64.8825 20.4337 64.8842 21.0445 64.8842 21.6553C64.511 21.657 64.136 21.657 63.7628 21.6587C63.7611 21.4151 63.7611 21.1715 63.7593 20.9279C62.3338 20.9279 60.9082 20.9261 59.4826 20.9295C59.4826 21.1114 59.4844 21.4751 59.4861 21.657H58.3613V19.8126C58.4977 19.8126 58.7707 19.8126 58.9073 19.8144ZM61.6184 16.5734C61.1519 17.6577 60.668 18.7335 60.1928 19.8126H63.063C62.5722 18.7369 62.116 17.6475 61.6184 16.5734ZM63.9719 14.9658C64.4401 14.9658 64.9084 14.9658 65.3784 14.9641C65.9175 15.9832 66.384 17.0401 66.9318 18.0558C67.3776 17.0229 67.8252 15.9901 68.2865 14.9624C68.7047 14.9641 69.1228 14.9658 69.5427 14.9676C68.6494 16.956 67.7318 18.9342 66.8368 20.9244C66.4117 20.9261 65.9849 20.9279 65.5598 20.9295C65.7775 20.4011 66.111 19.9053 66.232 19.3477C65.508 17.8739 64.7252 16.4276 63.9719 14.9658ZM75.3814 14.9658C76.5045 14.9658 77.6276 14.9658 78.7506 14.9676V16.0793C78.3763 16.081 78.0012 16.0811 77.6276 16.0811V20.9279H76.4615V16.0827C76.1019 16.0811 75.741 16.0811 75.3814 16.0811V14.9658ZM79.2695 14.9676C80.2114 15.0138 81.2012 14.82 82.1064 15.1563C83.3127 15.6555 83.4699 17.5239 82.4469 18.2805C81.8681 18.6975 81.118 18.6888 80.4356 18.7146C80.4356 19.4523 80.4356 20.1901 80.4342 20.9279H79.2695V14.9676ZM80.4377 16.0725C80.4356 16.5769 80.4342 17.0813 80.4321 17.5874C80.8917 17.5582 81.4325 17.6594 81.8061 17.3232C82.067 16.9783 82.0148 16.3693 81.5861 16.1754C81.2252 16.0261 80.8191 16.0947 80.4377 16.0725ZM83.7618 14.9658H84.9286C84.9286 16.3263 84.9264 17.6869 84.9286 19.0457C85.8098 17.6904 86.6664 16.3178 87.5497 14.9624C87.9283 14.9641 88.3062 14.9658 88.6869 14.9676V20.9279H87.5631C87.5603 19.557 87.5688 18.1879 87.5603 16.8188C86.6805 18.181 85.8063 19.545 84.9419 20.9176C84.5478 20.9244 84.1545 20.9279 83.7618 20.9313V14.9658ZM91.7396 14.9675C92.0455 14.9658 92.3536 14.9641 92.661 14.9606C93.5162 16.9406 94.3283 18.9394 95.1701 20.9261C94.7428 20.9278 94.3177 20.9278 93.8926 20.9278C93.6889 20.4131 93.4816 19.9001 93.2743 19.3854C92.5552 19.382 91.8368 19.3803 91.1177 19.3906C90.9225 19.9053 90.7166 20.4165 90.5114 20.9261C90.0863 20.9278 89.6612 20.9278 89.2375 20.9295C90.0624 18.9376 90.9069 16.9543 91.7396 14.9675ZM92.2013 16.6609C91.9919 17.1979 91.7811 17.7332 91.5703 18.2685H92.8337C92.6264 17.7315 92.4171 17.1945 92.2013 16.6609ZM95.2025 20.9295C95.9992 18.9428 96.7803 16.9475 97.5875 14.9624C97.9238 14.9658 98.2629 14.9658 98.6013 14.9676C99.3846 16.9577 100.188 18.9376 100.974 20.9261C100.547 20.9279 100.122 20.9279 99.6969 20.9279C99.1562 19.4832 98.6345 18.0301 98.0817 16.5888C97.5495 18.0369 97.0137 19.4815 96.4779 20.9295C96.0527 20.9279 95.6262 20.9279 95.2025 20.9295ZM101.516 14.9658H102.683C102.683 15.7225 102.683 16.4791 102.681 17.2357C103.416 17.2443 104.233 17.1516 104.864 17.608C105.868 18.3543 105.736 20.1815 104.561 20.6997C103.602 21.108 102.527 20.8644 101.516 20.9261V14.9658ZM102.685 18.3491C102.683 18.8382 102.681 19.3289 102.683 19.8195C103.105 19.8007 103.545 19.8624 103.954 19.732C104.492 19.5398 104.52 18.6991 104.011 18.4555C103.593 18.2805 103.124 18.3732 102.685 18.3491ZM106.182 14.9658H107.348C107.348 15.7533 107.347 16.5391 107.35 17.3266C108.055 17.3249 108.76 17.3249 109.465 17.3249C109.465 16.5374 109.463 15.7516 109.467 14.9658H110.631V20.9279H109.465C109.465 20.0991 109.463 19.2705 109.467 18.4418C108.76 18.4401 108.053 18.4401 107.347 18.4418C107.348 19.2705 107.348 20.0991 107.348 20.9279H106.182V14.9658ZM111.668 14.9676C112.056 14.9658 112.444 14.9658 112.835 14.9658V17.2357C113.571 17.2477 114.402 17.1414 115.029 17.6148C116.054 18.392 115.865 20.2707 114.628 20.7443C113.685 21.084 112.657 20.8678 111.677 20.933C111.656 18.9445 111.673 16.9561 111.668 14.9676ZM112.835 18.3491C112.833 18.8382 112.835 19.3289 112.835 19.8195C113.258 19.8023 113.699 19.859 114.113 19.7372C114.704 19.521 114.647 18.5362 114.029 18.3972C113.635 18.3286 113.232 18.3543 112.835 18.3491ZM116.247 14.9658H117.371V20.9279H116.247V14.9658ZM118.451 14.9658H119.574C119.575 16.3366 119.57 17.7075 119.577 19.0783C120.446 17.7058 121.329 16.3418 122.2 14.9709C122.59 14.9675 122.983 14.9658 123.375 14.9641V20.9261C122.987 20.9278 122.597 20.9278 122.21 20.9295C122.205 19.5656 122.21 18.2016 122.207 16.8376C121.331 18.1981 120.458 19.5604 119.591 20.9278H118.451V14.9658ZM47.3888 24.3163H50.9311V25.4315H48.5552C48.5552 25.8158 48.5552 26.2001 48.5569 26.5844C49.3206 26.6051 50.188 26.5021 50.8326 26.9979C51.4581 27.4904 51.586 28.3962 51.3579 29.1168C51.1385 29.7825 50.468 30.2217 49.7803 30.2646C48.9837 30.3058 48.1854 30.268 47.3871 30.2766C47.3888 28.2898 47.3888 26.3031 47.3888 24.3163ZM48.5552 27.6979V29.1648C49.1963 29.1734 50.3488 29.3364 50.3263 28.3859C50.2019 27.5384 49.1755 27.7168 48.5552 27.6979ZM54.2314 24.3146C54.5339 24.3146 54.8345 24.3129 55.1369 24.3112C55.9836 26.2945 56.813 28.2864 57.6441 30.2766C57.2173 30.2783 56.7905 30.2783 56.3637 30.2766C56.1685 29.7757 55.9698 29.2763 55.7693 28.7754C55.0471 28.7771 54.323 28.7754 53.6007 28.7788C53.4072 29.2815 53.2068 29.7791 53.008 30.2783C52.5813 30.2783 52.1527 30.2783 51.7259 30.2766C52.5571 28.2882 53.3865 26.2979 54.2314 24.3146ZM54.0448 27.6619C54.4734 27.6619 54.9002 27.6619 55.3287 27.6636C55.1161 27.118 54.9002 26.5741 54.6928 26.0269C54.4716 26.569 54.2539 27.1146 54.0448 27.6619ZM58.1902 24.3146C58.5772 24.3163 58.966 24.3163 59.3548 24.3163V26.7183C60.0615 26.7183 60.7665 26.7183 61.4715 26.7166V24.3163H62.6379V30.2783H61.4715C61.4715 29.4497 61.4698 28.6227 61.475 27.7957C60.7683 27.7888 60.0615 27.7888 59.3548 27.7906C59.3548 28.6175 59.3531 29.4445 59.36 30.2715C58.9695 30.2749 58.579 30.2783 58.1884 30.2818C58.1884 28.2916 58.1884 26.3031 58.1902 24.3146ZM66.6208 24.3266C67.0925 24.3163 67.5625 24.3163 68.0342 24.3163C67.2826 25.2994 66.5275 26.2773 65.7706 27.2536C66.5137 28.2676 67.2722 29.2712 68.0256 30.2783C67.4865 30.1891 66.6916 30.5391 66.3754 29.9386C65.8639 29.2163 65.3577 28.4923 64.8358 27.7803C64.8427 28.6124 64.841 29.4462 64.841 30.2783H63.6746V24.3163H64.841C64.841 25.1433 64.841 25.9702 64.8393 26.7972C65.4475 25.984 66.0402 25.1587 66.6208 24.3266Z" fill="#93130A"/>
</svg>
