<svg width="141" height="35" viewBox="0 0 141 35" fill="none" xmlns="http://www.w3.org/2000/svg">
<path d="M38.0701 10.4998C38.0701 14.7698 41.5246 18.1998 45.8251 18.1998C50.1256 18.1998 53.5801 14.7698 53.5801 10.4998C53.5801 6.2998 50.1256 2.7998 45.8251 2.7998C41.5246 2.7998 38.0701 6.2298 38.0701 10.4998ZM38.0701 22.2598C38.0701 23.3798 41.5246 24.2898 45.8251 24.2898C50.1256 24.2898 53.5801 23.3798 53.5801 22.2598C53.5801 21.1398 50.1256 20.2298 45.8251 20.2298C41.5246 20.1598 38.0701 21.0698 38.0701 22.2598ZM45.8251 26.3198C51.3946 26.3198 53.5801 26.8798 53.5801 27.5798C53.5801 28.3498 51.3946 28.8398 45.8251 28.8398C40.2556 28.8398 38.0701 28.2798 38.0701 27.5798C38.0701 26.8798 40.2556 26.3198 45.8251 26.3198ZM45.8251 30.9398C52.6636 30.9398 53.5801 31.0798 53.5801 31.4298C53.5801 31.7798 52.7341 31.9198 45.8251 31.9198C38.9866 31.9198 38.0701 31.7798 38.0701 31.4298C38.0701 31.0798 38.9161 30.9398 45.8251 30.9398Z" fill="#F36F21"/>
<path d="M45.825 32.06C38.2815 32.06 37.9995 31.85 37.9995 31.43C37.9995 30.94 38.634 30.8 45.825 30.8C53.016 30.8 53.6505 30.94 53.6505 31.43C53.6505 31.85 53.298 32.06 45.825 32.06ZM45.825 31.01C40.1145 31.01 38.211 31.08 38.211 31.43C38.211 31.78 40.1145 31.85 45.825 31.85C51.5355 31.85 53.439 31.78 53.439 31.43C53.439 31.08 51.465 31.01 45.825 31.01ZM45.825 28.98C40.608 28.98 37.9995 28.49 37.9995 27.58C37.9995 26.67 40.608 26.18 45.825 26.18C51.042 26.18 53.6505 26.67 53.6505 27.58C53.6505 28.49 50.9715 28.98 45.825 28.98ZM45.825 26.39C38.916 26.39 38.211 27.23 38.211 27.58C38.211 27.93 38.9865 28.77 45.825 28.77C52.6635 28.77 53.439 27.93 53.439 27.58C53.439 27.23 52.6635 26.39 45.825 26.39ZM45.825 24.36C41.454 24.36 37.9995 23.45 37.9995 22.19C37.9995 20.93 41.454 20.02 45.825 20.02C50.196 20.02 53.6505 20.93 53.6505 22.19C53.6505 23.45 50.196 24.36 45.825 24.36ZM45.825 20.3C41.2425 20.3 38.211 21.28 38.211 22.26C38.211 23.24 41.2425 24.22 45.825 24.22C50.4075 24.22 53.439 23.24 53.439 22.26C53.439 21.28 50.337 20.3 45.825 20.3ZM45.825 18.27C41.5245 18.27 37.9995 14.77 37.9995 10.5C37.9995 6.22998 41.454 2.72998 45.825 2.72998C50.196 2.72998 53.6505 6.22998 53.6505 10.5C53.6505 14.77 50.1255 18.27 45.825 18.27ZM45.825 2.93998C41.595 2.93998 38.1405 6.29998 38.1405 10.5C38.1405 14.7 41.595 18.06 45.825 18.06C50.055 18.06 53.439 14.63 53.439 10.5C53.439 6.36998 49.9845 2.93998 45.825 2.93998Z" fill="#EB690A"/>
<path d="M62.745 21.84C63.3795 21.84 64.155 22.05 64.719 22.33L65.001 24.01H65.9175V21.56C65.283 21.35 64.2255 21 62.886 21C60.912 21 59.643 21.63 58.8675 22.33C57.951 23.17 57.105 24.5 57.105 26.53C57.105 28.7 58.092 29.96 58.5855 30.52C59.8545 31.85 61.4055 32.2 62.6745 32.2C63.732 32.2 64.86 31.99 65.847 31.64V29.12H64.9305L64.5075 31.15C64.014 31.29 63.3795 31.36 62.886 31.36C61.194 31.36 60.2775 30.59 59.7135 29.96C59.1495 29.26 58.7265 28.14 58.7265 26.6C58.7265 25.34 59.079 24.01 59.8545 23.1C60.489 22.47 61.4055 21.84 62.745 21.84ZM76.2105 22.19C77.268 23.17 77.973 24.71 77.973 26.53C77.973 28.21 77.409 29.68 76.4925 30.59C75.7875 31.36 74.589 32.2 72.756 32.2C71.064 32.2 69.8655 31.5 69.0195 30.66C68.385 30.03 67.539 28.7 67.539 26.53C67.539 24.29 68.4555 22.96 69.372 22.19C70.0065 21.63 71.1345 20.93 72.8265 20.93C74.307 20.93 75.3645 21.49 76.2105 22.19ZM70.5 22.75C69.7245 23.59 69.231 24.99 69.231 26.53C69.231 27.16 69.3015 28.7 70.1475 29.96C70.923 31.08 71.9805 31.36 72.756 31.36C73.32 31.36 74.448 31.22 75.294 30.03C76.2105 28.84 76.281 27.23 76.281 26.6C76.281 24.92 75.858 23.59 75.0825 22.75C74.2365 21.84 73.179 21.77 72.756 21.77C71.628 21.77 70.923 22.26 70.5 22.75ZM92.4255 22.19C91.791 21.63 90.7335 20.93 89.112 20.93C87.702 20.93 86.574 21.42 85.728 22.19C84.3885 23.38 84.1065 25.13 84.036 26.11H81.78V21.91L83.049 21.84V21.21H79.101V21.84L80.2995 21.91V31.15L79.101 31.22V31.85H83.049V31.22L81.78 31.15V26.81H84.036C84.1065 28.42 84.741 29.82 85.446 30.59C86.0805 31.29 87.279 32.13 89.0415 32.13C90.8745 32.13 92.073 31.29 92.7075 30.52C93.5535 29.54 94.1175 28.14 94.1175 26.46C94.1175 24.64 93.483 23.17 92.4255 22.19ZM91.509 30.03C90.8745 30.87 89.958 31.36 89.0415 31.36C88.266 31.36 87.2085 31.08 86.5035 29.96C85.869 29.05 85.6575 27.72 85.6575 26.53C85.6575 25.27 86.01 23.66 86.856 22.75C87.42 22.19 88.125 21.77 89.1825 21.77C90.0285 21.77 90.7335 22.05 91.368 22.75C92.214 23.73 92.496 25.27 92.496 26.6C92.4255 27.79 92.1435 29.12 91.509 30.03ZM97.7835 25.97V26.95L99.1935 26.81C99.7575 26.81 100.744 26.88 101.308 27.51C101.59 27.79 101.872 28.35 101.872 29.05C101.872 29.75 101.661 30.38 100.956 30.87C100.321 31.29 99.546 31.36 98.9115 31.36C98.2065 31.36 97.572 31.15 97.0785 30.87L96.7965 28.84H95.88V31.64C97.3605 32.13 98.6295 32.13 98.982 32.13C99.969 32.13 101.379 31.92 102.295 31.29C103.212 30.66 103.564 29.82 103.564 28.77C103.564 28.14 103.353 27.44 102.789 26.95C102.225 26.46 101.449 26.25 100.744 26.18C101.308 26.04 101.943 25.76 102.366 25.34C102.93 24.78 103.071 24.22 103.071 23.73C103.071 22.61 102.507 21.91 101.872 21.56C101.097 21.14 100.18 21.07 99.264 21.07C98.7 21.07 97.713 21.07 96.303 21.49V23.94H97.2195L97.431 22.19C98.0655 21.91 98.7705 21.77 99.264 21.77C99.8985 21.77 100.392 21.91 100.885 22.33C101.238 22.68 101.52 23.17 101.52 23.87C101.52 24.5 101.308 25.06 100.744 25.48C100.321 25.83 99.828 25.97 99.3345 26.04C99.123 26.04 97.7835 25.97 97.7835 25.97ZM64.3665 11.55C63.5205 10.99 62.5335 10.92 61.5465 10.92C61.335 10.92 60.63 10.92 59.7135 10.99V7.13998H63.873L64.155 8.74998H65.0715V6.36998H57.105V6.99998L58.3035 7.06998V16.31L57.105 16.45V17.08H61.335C62.181 17.08 63.591 17.01 64.5075 16.24C65.424 15.54 65.565 14.63 65.565 14C65.565 12.88 65.2125 12.11 64.3665 11.55ZM63.309 15.75C62.6745 16.38 61.617 16.38 60.912 16.38C60.489 16.38 60.1365 16.38 59.7135 16.31V11.76C60.207 11.69 60.771 11.62 61.335 11.62C62.04 11.62 62.8155 11.69 63.3795 12.25C63.873 12.81 63.9435 13.51 63.9435 13.93C64.014 14.49 63.873 15.26 63.309 15.75ZM76.7745 16.24L72.897 6.22998H71.8395L68.0325 16.24L66.693 16.45V17.08H70.218V16.45L68.949 16.38L70.1475 13.09H73.9545L75.2235 16.38L74.025 16.45V17.08H77.691V16.45L76.7745 16.24ZM70.5 12.39L72.1215 7.97998L73.743 12.39H70.5ZM90.5925 7.06998V6.36998H86.6445V6.99998L87.9135 7.06998V11.27H82.344V7.06998L83.613 6.99998V6.36998H79.665V6.99998L80.8635 7.06998V16.31L79.665 16.38V17.01H83.613V16.38L82.344 16.31V11.97H87.9135V16.31L86.6445 16.38V17.01H90.5925V16.38L89.394 16.31V7.13998L90.5925 7.06998ZM102.225 16.38L98.559 11.13L101.943 7.13998L103 6.99998V6.36998H99.6165V6.99998L100.744 7.06998L97.2195 11.34H96.021V7.06998L97.29 6.99998V6.36998H93.342V6.99998L94.5405 7.06998V16.31L93.342 16.38V17.01H97.29V16.38L96.021 16.31V11.97H97.3605L100.956 17.01H103.282V16.38H102.225Z" fill="#254194"/>
</svg>
