<svg width="210" height="210" viewBox="0 0 210 210" fill="none" xmlns="http://www.w3.org/2000/svg">
<path d="M151.877 19.2723L182.549 17.9764C188.115 17.7402 192.789 22.1259 192.916 27.6989L194 75.1431C194.121 80.3268 190.238 84.7379 185.087 85.2742C183.353 85.4529 182.059 86.9531 182.129 88.6959L185.979 188.896C186.241 195.726 180.943 201.491 174.127 201.791L56.9447 207C55.1022 207.083 53.5465 205.64 53.4955 203.795L48.3058 29.8566C48.2548 28.0819 49.6065 26.5817 51.3725 26.4541L151.877 19.2723Z" fill="#C0DEF2"/>
<g opacity="0.3">
<path d="M53.3936 200.501L53.4892 203.789L179.636 192.177L177.226 18.1997C177.226 18.1997 146.604 22.8471 146.049 22.8471C145.495 22.8471 53.3936 200.501 53.3936 200.501Z" fill="black"/>
</g>
<path d="M135.906 9.93281L172.515 7.69849L176.295 188.021L47.439 201.108L28.4653 21.73L135.906 9.93281Z" fill="#EBEBEB"/>
<path d="M135.906 9.93279C135.906 9.93279 135.262 10.0158 134.006 10.1626C132.75 10.303 130.882 10.5137 128.434 10.7946C123.537 11.3372 116.32 12.1416 107.031 13.1757C88.4528 15.2313 61.599 18.1934 28.4716 21.8577L28.58 21.7236C33.6741 69.7871 40.2919 132.214 47.5983 201.095L47.4198 200.948C56.6197 200.016 66.4062 199.02 76.301 198.012C111.354 194.456 145.074 191.034 176.27 187.868L176.129 188.027C174.51 109.181 173.184 44.5201 172.432 7.69847L172.514 7.77507C160.599 8.48367 151.45 9.03268 145.272 9.40294C142.186 9.58168 139.846 9.72213 138.271 9.8115C136.703 9.90087 135.906 9.93279 135.906 9.93279C135.906 9.93279 136.703 9.86895 138.271 9.76681C139.846 9.66467 142.186 9.51784 145.265 9.31995C151.443 8.93692 160.592 8.36238 172.508 7.62186L172.585 7.61548V7.69208C173.375 44.5073 174.759 109.175 176.448 188.015V188.161L176.302 188.174C145.1 191.347 111.386 194.775 76.3329 198.337C66.438 199.339 56.6516 200.335 47.4516 201.267L47.2859 201.287L47.2667 201.121C39.9986 132.233 33.4063 69.7999 28.3314 21.7364L28.3186 21.6151L28.4397 21.6023C61.5671 17.9891 88.4273 15.059 107.012 13.0289C116.301 12.0267 123.518 11.2415 128.421 10.7116C130.869 10.4499 132.737 10.252 133.993 10.1179C135.262 9.99024 135.906 9.93279 135.906 9.93279Z" fill="#263238"/>
<path d="M22.0642 15.7419L39.5077 197.22L174.453 184.497L154.994 3.14673L22.0642 15.7419Z" fill="white"/>
<path d="M22.0642 15.742C23.1736 15.6335 74.4139 10.7308 154.982 3.01277L155.116 3L155.128 3.13406C160.599 54.0447 167.338 116.746 174.618 184.478L174.638 184.644L174.472 184.657C174.172 184.682 173.841 184.714 173.515 184.746C125.399 189.279 79.8076 193.575 39.5205 197.367L39.3738 197.38L39.3611 197.233C29.1156 89.7811 22.1917 17.0635 22.0642 15.742C22.1917 17.0635 29.2431 89.7683 39.6544 197.207L39.4886 197.073C79.7693 193.269 125.367 188.966 173.477 184.421C173.802 184.389 174.134 184.357 174.434 184.331L174.287 184.516C167.032 116.778 160.312 54.0702 154.861 3.15959L155.007 3.28089C74.4266 10.8329 23.1736 15.6335 22.0642 15.742Z" fill="#263238"/>
<path d="M125.558 153.383C125.584 142.403 134.529 133.485 145.495 133.516C156.461 133.542 165.367 142.498 165.335 153.479C165.31 164.459 156.365 173.377 145.399 173.345C134.433 173.319 125.533 164.363 125.558 153.383ZM164.972 153.472C164.998 142.69 156.257 133.899 145.495 133.874C134.726 133.848 125.947 142.601 125.922 153.376C125.896 164.159 134.637 172.949 145.399 172.975C156.167 173 164.947 164.254 164.972 153.472Z" fill="#E0E0E0"/>
<path d="M127.822 153.383C127.847 143.807 135.645 136.032 145.208 136.051C154.771 136.076 162.537 143.884 162.518 153.459C162.492 163.035 154.695 170.81 145.131 170.791C135.568 170.772 127.803 162.965 127.822 153.383ZM159.961 153.459C159.98 145.295 153.362 138.636 145.208 138.617C137.054 138.598 130.404 145.224 130.385 153.389C130.366 161.554 136.983 168.212 145.138 168.231C153.292 168.251 159.942 161.624 159.961 153.459Z" fill="#E0E0E0"/>
<path d="M132.093 153.638C132.1 151.614 132.559 149.674 133.47 147.874L135.753 149.029C135.026 150.465 134.656 152.017 134.656 153.638C134.644 159.313 139.24 163.935 144.908 163.948C146.814 163.954 148.67 163.431 150.283 162.441L151.615 164.625C149.594 165.863 147.273 166.514 144.895 166.508C137.819 166.501 132.074 160.724 132.093 153.638Z" fill="#E0E0E0"/>
<path d="M139.004 142.269C140.828 141.317 142.887 140.813 144.959 140.819C152.036 140.839 157.78 146.616 157.761 153.702C157.755 156.121 157.073 158.477 155.791 160.52L153.624 159.154C154.65 157.526 155.198 155.636 155.198 153.695C155.211 148.02 150.614 143.398 144.946 143.386C143.263 143.379 141.663 143.769 140.184 144.541L139.004 142.269Z" fill="#E0E0E0"/>
<path d="M151.794 49.8378C151.8 49.9272 126.336 52.4105 94.9238 55.3789C63.4987 58.3474 38.022 60.6838 38.0156 60.5945C38.0093 60.5051 63.4668 58.0218 94.8919 55.0533C126.311 52.0785 151.787 49.742 151.794 49.8378Z" fill="#263238"/>
<path d="M90.0594 48.4077C90.0658 48.4971 78.3157 49.6845 63.8113 51.057C49.3069 52.4295 37.544 53.4637 37.5313 53.3743C37.5249 53.2849 49.275 52.0976 63.7794 50.725C78.2838 49.3525 90.0467 48.3184 90.0594 48.4077Z" fill="#263238"/>
<path d="M152.291 57.2303C152.297 57.3196 126.833 59.8029 95.4211 62.7714C63.996 65.7398 38.5193 68.0763 38.5129 67.9869C38.5066 67.8976 63.9641 65.4143 95.3892 62.4458C126.802 59.471 152.285 57.1409 152.291 57.2303Z" fill="#263238"/>
<path d="M152.788 64.6226C152.795 64.712 127.331 67.1953 95.9184 70.1637C64.4933 73.1322 39.0166 75.4686 39.0103 75.3793C39.0039 75.2899 64.4615 72.8066 95.8866 69.8381C127.299 66.8697 152.782 64.5332 152.788 64.6226Z" fill="#263238"/>
<path d="M153.286 72.0214C153.292 72.1108 127.828 74.5941 96.4157 77.5625C64.9907 80.531 39.5139 82.8674 39.5076 82.7781C39.5012 82.6887 64.9588 80.2054 96.3839 77.2369C127.796 74.2621 153.279 71.9256 153.286 72.0214Z" fill="#263238"/>
<path d="M153.783 79.4139C153.789 79.5032 128.325 81.9865 96.9131 84.955C65.488 87.9234 40.0113 90.2599 40.0049 90.1705C39.9985 90.0812 65.4561 87.5979 96.8812 84.6294C128.294 81.6546 153.77 79.3245 153.783 79.4139Z" fill="#263238"/>
<path d="M154.274 86.8062C154.28 86.8956 128.816 89.3789 97.404 92.3473C65.9789 95.3158 40.5022 97.6522 40.4959 97.5629C40.4895 97.4735 65.9471 94.9902 97.3721 92.0217C128.791 89.0533 154.268 86.7168 154.274 86.8062Z" fill="#263238"/>
<path d="M154.771 94.205C154.778 94.2944 129.645 96.7458 98.6408 99.6759C67.6237 102.606 42.4849 104.911 42.4722 104.821C42.4658 104.732 67.5918 102.281 98.6089 99.3504C129.62 96.4138 154.765 94.1093 154.771 94.205Z" fill="#263238"/>
<path d="M110.933 108.428C110.939 108.517 95.7718 109.96 77.0468 111.652C58.3218 113.337 43.1417 114.633 43.1289 114.544C43.1225 114.454 58.29 113.012 77.015 111.32C95.7336 109.628 110.92 108.332 110.933 108.428Z" fill="#263238"/>
<path d="M92.5075 169.546C92.5138 169.636 83.2821 170.498 71.8889 171.468C60.4895 172.438 51.2449 173.147 51.2385 173.058C51.2322 172.968 60.464 172.106 71.8634 171.136C83.2502 170.166 92.5011 169.451 92.5075 169.546Z" fill="black"/>
<path d="M74.7708 176.6C74.7772 176.69 69.6002 177.207 63.1992 177.75C56.7981 178.292 51.6084 178.662 51.6021 178.567C51.5957 178.477 56.7726 177.96 63.1737 177.418C69.5684 176.881 74.7644 176.511 74.7708 176.6Z" fill="black"/>
<path d="M73.349 124.56C73.3554 124.649 67.2603 125.326 59.7372 126.073C52.2077 126.813 46.0999 127.343 46.0935 127.254C46.0871 127.164 52.1758 126.488 59.7053 125.741C67.2348 125 73.3426 124.471 73.349 124.56Z" fill="#C0DEF2"/>
<g opacity="0.3">
<path d="M36.7279 166.514L49.1156 164.12L56.0395 153.664L36.3008 160.156L36.7279 166.514Z" fill="black"/>
</g>
<path d="M15 153.153L48.0764 150.018L56.0394 153.663L49.683 160.82L16.0838 164.446L15 153.153Z" fill="#F36F21"/>
<path d="M115.294 123.743C115.294 123.743 115.332 123.755 115.409 123.781C115.485 123.807 115.594 123.851 115.734 123.934C116.008 124.087 116.384 124.381 116.798 124.834C117.627 125.741 118.622 127.292 119.476 129.463C120.305 131.627 121.089 134.461 120.866 137.793C120.802 138.623 120.662 139.479 120.413 140.334C120.152 141.183 119.814 142.039 119.4 142.881C118.558 144.567 117.385 146.22 115.868 147.656C114.35 149.093 112.521 150.369 110.404 151.238C108.287 152.08 105.89 152.578 103.423 152.336C98.5198 151.908 93.5086 148.652 91.1688 143.571C90.5695 142.313 90.2124 140.928 90.0594 139.517C89.8809 138.1 90.0339 136.619 90.5057 135.24C90.9711 133.867 91.7808 132.52 93.0496 131.665C93.6744 131.237 94.4139 130.969 95.1726 130.873C95.9377 130.778 96.7155 130.886 97.4423 131.141C98.8959 131.646 100.146 132.712 100.936 134.046C101.746 135.38 102.154 136.925 102.326 138.47C102.651 141.579 102.173 144.796 100.962 147.758C99.7503 150.721 97.8185 153.357 95.3575 155.279C92.8902 157.2 89.9128 158.343 86.9163 158.675C83.9198 159.013 80.8723 158.541 78.2519 157.264C75.6252 155.987 73.5149 153.912 72.0931 151.531C70.6523 149.15 69.9446 146.424 70.0083 143.794C70.0466 142.479 70.2506 141.17 70.7543 139.983C71.2452 138.802 71.9465 137.704 72.9347 136.919C73.9038 136.127 75.1789 135.712 76.3903 135.897C77.6016 136.063 78.6599 136.746 79.4378 137.595C80.2028 138.464 80.7448 139.498 80.9679 140.589C81.191 141.675 81.1528 142.779 80.9615 143.807C80.5726 145.882 79.6545 147.695 78.6918 149.303C77.7227 150.912 76.6261 152.323 75.5041 153.542C74.382 154.761 73.228 155.796 72.1123 156.67C70.9838 157.526 69.8999 158.247 68.8862 158.822C66.8652 159.983 65.1565 160.615 63.9898 160.986C62.8231 161.356 62.1919 161.484 62.1919 161.484C62.1919 161.484 62.3449 161.426 62.6446 161.337C62.9442 161.241 63.3969 161.132 63.9707 160.915C65.1246 160.526 66.8205 159.875 68.8225 158.7C69.8298 158.119 70.8945 157.398 72.0166 156.536C73.1196 155.655 74.2608 154.627 75.3638 153.408C76.4731 152.189 77.5506 150.791 78.5069 149.182C79.4569 147.586 80.3495 145.786 80.7256 143.756C80.9105 142.747 80.936 141.675 80.7193 140.628C80.5025 139.581 79.9797 138.585 79.2401 137.755C78.4942 136.938 77.4805 136.3 76.3456 136.146C75.2108 135.98 74.0122 136.37 73.0941 137.123C72.1569 137.87 71.4747 138.93 71.0029 140.079C70.5184 141.228 70.3207 142.505 70.2888 143.788C70.2315 146.36 70.9328 149.035 72.3418 151.365C73.738 153.695 75.8165 155.725 78.3794 156.97C80.9424 158.215 83.9262 158.681 86.8653 158.343C89.8044 158.011 92.7244 156.894 95.1344 155.004C97.5507 153.121 99.4506 150.529 100.636 147.618C101.829 144.707 102.294 141.534 101.975 138.489C101.81 136.976 101.408 135.476 100.636 134.199C99.8778 132.923 98.6919 131.908 97.3148 131.435C96.6326 131.199 95.8994 131.097 95.1918 131.18C94.4841 131.276 93.8019 131.518 93.209 131.92C92.0167 132.712 91.2389 134.001 90.7862 135.329C90.3272 136.67 90.1742 138.093 90.3527 139.472C90.4993 140.851 90.8436 142.205 91.4302 143.43C93.7126 148.403 98.6282 151.621 103.429 152.048C105.845 152.291 108.204 151.812 110.289 150.989C112.38 150.146 114.185 148.888 115.689 147.478C117.194 146.06 118.361 144.439 119.196 142.773C119.616 141.943 119.948 141.094 120.209 140.264C120.458 139.428 120.598 138.585 120.668 137.768C120.904 134.474 120.152 131.652 119.342 129.494C118.514 127.324 117.538 125.779 116.735 124.866C116.333 124.407 115.97 124.113 115.702 123.947C115.447 123.794 115.287 123.762 115.294 123.743Z" fill="black"/>
<path d="M125.482 34.4401C125.482 34.4401 125.463 34.3315 125.437 34.1273C125.412 33.9102 125.38 33.6102 125.335 33.2208C125.246 32.4164 125.112 31.2354 124.946 29.7097C124.615 26.6455 124.13 22.1832 123.518 16.54L123.627 16.6293C108.019 18.2763 82.9698 20.9192 54.7771 23.8941H54.7707L54.9173 23.7089C55.5549 29.8565 56.1797 35.8509 56.779 41.6154L56.6005 41.4686C76.2436 39.4449 93.4384 37.6703 105.73 36.4063C111.883 35.7807 116.805 35.2827 120.203 34.938C121.893 34.772 123.206 34.638 124.105 34.5486C124.545 34.5103 124.883 34.4784 125.119 34.4528C125.354 34.4465 125.482 34.4401 125.482 34.4401C125.482 34.4401 125.374 34.4592 125.15 34.4848C124.915 34.5103 124.589 34.5486 124.156 34.5997C123.263 34.6954 121.969 34.8422 120.292 35.0274C116.907 35.3913 111.998 35.9211 105.864 36.585C93.5468 37.8937 76.3201 39.7195 56.6324 41.807L56.473 41.8261L56.4538 41.6665C55.8482 35.902 55.2234 29.9012 54.5794 23.76L54.5603 23.594L54.7261 23.5749H54.7324C82.9315 20.6511 107.987 18.0593 123.595 16.4378L123.697 16.425L123.71 16.5272C124.277 22.2024 124.73 26.6838 125.036 29.7671C125.182 31.2865 125.297 32.4547 125.374 33.2591C125.412 33.6421 125.437 33.9421 125.456 34.1528C125.476 34.3443 125.482 34.4401 125.482 34.4401Z" fill="#455A64"/>
<path d="M69.3453 36.2722C68.1595 36.4062 67.1394 36.2913 66.2787 35.9274L66.1703 34.9635C67.1011 35.3784 68.0766 35.5316 69.1094 35.4167C69.951 35.321 70.6013 35.072 71.0603 34.6762C71.513 34.2804 71.7106 33.7889 71.6469 33.2143C71.5895 32.6973 71.3154 32.3015 70.8181 32.0206C70.3272 31.7397 69.7087 31.6439 68.9755 31.7269L67.8853 31.8482L67.7897 30.9992L68.9819 30.8651C69.6067 30.7949 70.0785 30.6098 70.4037 30.3161C70.7224 30.0161 70.8563 29.6394 70.8053 29.1734C70.7543 28.7202 70.512 28.3818 70.0913 28.1712C69.6641 27.9605 69.1285 27.8903 68.4782 27.9605C67.6048 28.0562 66.7505 28.3627 65.9089 28.8798L65.8069 27.9924C66.6293 27.4881 67.5028 27.1817 68.4145 27.0795C69.3071 26.9774 70.0658 27.1051 70.6778 27.4562C71.2962 27.8137 71.6469 28.3371 71.7234 29.0202C71.7808 29.5437 71.6788 29.9841 71.411 30.3416C71.1496 30.6864 70.8436 30.9353 70.4929 31.0885C70.9966 31.1843 71.462 31.4013 71.8764 31.7397C72.2972 32.0589 72.5458 32.5377 72.616 33.1696C72.7052 33.9549 72.4566 34.6379 71.87 35.2188C71.2771 35.7998 70.4355 36.1509 69.3453 36.2722Z" fill="black"/>
<path d="M76.6071 35.4551C75.9568 35.5254 75.383 35.4105 74.8857 35.1104C74.3948 34.7912 74.1142 34.3124 74.0441 33.6868C73.974 33.0676 74.1525 32.5505 74.586 32.1228C75.0196 31.7079 75.5997 31.4589 76.3202 31.3759C77.1171 31.2865 77.8694 31.4014 78.5899 31.7206L78.5197 31.1142C78.405 30.0928 77.6718 29.6523 76.3329 29.8055C75.6125 29.8885 74.9686 30.1694 74.4011 30.6545L74.2991 29.7672C74.8602 29.3267 75.5679 29.0586 76.4286 28.9628C77.2638 28.8671 77.9523 28.9884 78.4879 29.3267C79.0234 29.6651 79.3358 30.1949 79.4187 30.9227L79.7056 33.4506C79.7311 33.6868 79.8076 33.8656 79.9287 33.9933C80.0499 34.1145 80.1965 34.1656 80.375 34.1465C80.5089 34.1337 80.6237 34.0954 80.7193 34.0316L80.8022 34.7402C80.6747 34.8487 80.4834 34.9189 80.2093 34.9508C79.9032 34.9827 79.6418 34.9317 79.4123 34.7912C79.1892 34.6508 79.0298 34.421 78.9405 34.1082C78.4177 34.887 77.6335 35.3402 76.6071 35.4551ZM76.7665 34.5997C77.1873 34.555 77.5762 34.4082 77.9396 34.172C78.2966 33.9358 78.5771 33.6549 78.7811 33.3293L78.6855 32.4803C78.0161 32.142 77.3275 32.0143 76.6262 32.0973C76.0715 32.1611 75.638 32.3207 75.3384 32.5761C75.0387 32.8314 74.9112 33.1506 74.9494 33.5336C74.9941 33.9294 75.1853 34.2231 75.5232 34.4082C75.8611 34.5933 76.2756 34.6572 76.7665 34.5997Z" fill="black"/>
<path d="M82.8614 34.5933L81.8222 34.7082L83.3715 32.0526C82.8614 32.027 82.4598 31.8674 82.1537 31.5802C81.8541 31.2929 81.6756 30.9035 81.6182 30.4119C81.5544 29.8438 81.6947 29.3714 82.0454 28.9883C82.3896 28.6053 82.9124 28.3755 83.601 28.2989L86.7569 27.9414L87.4454 34.0698L86.5337 34.172L86.2787 31.8866L84.3151 32.11L82.8614 34.5933ZM84.0855 31.3312L86.1895 31.095L85.9344 28.8479L83.8305 29.0841C83.3842 29.1352 83.0527 29.2692 82.8295 29.4927C82.6064 29.7161 82.5235 30.0098 82.5618 30.3736C82.6 30.7375 82.753 30.9992 83.0144 31.1652C83.2822 31.3312 83.6392 31.3823 84.0855 31.3312Z" fill="black"/>
<path d="M93.0368 33.4441L89.6004 33.8335L88.9119 27.7051L92.1315 27.3412C92.7117 27.2773 93.1835 27.3667 93.5405 27.6157C93.8975 27.8647 94.1016 28.2221 94.1589 28.6945C94.2355 29.3521 94.0314 29.8309 93.5469 30.1245C94.3502 30.265 94.7965 30.7437 94.8921 31.5672C94.9495 32.0843 94.8156 32.5057 94.4969 32.8376C94.1717 33.1696 93.6872 33.3738 93.0368 33.4441ZM89.9128 28.4009L90.1168 30.2011L92.1698 29.9713C92.5523 29.9266 92.8392 29.8181 93.0305 29.633C93.2217 29.4542 93.3046 29.218 93.2727 28.9307C93.2026 28.3307 92.7691 28.0753 91.9658 28.1647L89.9128 28.4009ZM90.1997 30.9672L90.4229 32.9334L92.7563 32.6716C93.1707 32.6269 93.4831 32.5057 93.6872 32.3078C93.8975 32.1099 93.9804 31.8609 93.9486 31.5481C93.9103 31.2353 93.77 31.0055 93.5214 30.8586C93.2727 30.7118 92.9412 30.6607 92.5268 30.7054L90.1997 30.9672Z" fill="black"/>
<path d="M96.2246 26.8816L97.1363 26.7795L97.4232 29.3075L100.056 26.4539L101.3 26.3135L98.3795 29.4415L102.447 32.3844L101.14 32.5313L97.4933 29.882L97.8312 32.9015L96.9195 33.0037L96.2246 26.8816Z" fill="black"/>
<path d="M105.469 32.1929C104.819 32.2632 104.245 32.1482 103.748 31.8482C103.257 31.529 102.976 31.0502 102.906 30.4246C102.836 29.8054 103.015 29.2883 103.448 28.8606C103.882 28.4457 104.462 28.1967 105.189 28.1137C105.986 28.0243 106.738 28.1392 107.458 28.4584L107.388 27.852C107.273 26.8306 106.54 26.3901 105.201 26.5433C104.481 26.6263 103.837 26.9072 103.27 27.3923L103.168 26.505C103.729 26.0645 104.436 25.7964 105.297 25.7006C106.132 25.6049 106.821 25.7262 107.356 26.0645C107.892 26.4028 108.204 26.9327 108.287 27.6604L108.574 30.1884C108.6 30.4246 108.676 30.6034 108.797 30.731C108.918 30.8523 109.065 30.9034 109.243 30.8843C109.377 30.8715 109.492 30.8332 109.588 30.7693L109.671 31.4779C109.543 31.5865 109.352 31.6567 109.078 31.6886C108.772 31.7205 108.51 31.6695 108.281 31.529C108.058 31.3886 107.898 31.1588 107.815 30.846C107.286 31.6248 106.502 32.078 105.469 32.1929ZM105.629 31.3439C106.049 31.2992 106.445 31.1524 106.802 30.9162C107.159 30.68 107.439 30.3991 107.643 30.0735L107.548 29.2245C106.878 28.8861 106.19 28.7585 105.488 28.8414C104.927 28.9053 104.5 29.0649 104.2 29.3202C103.901 29.5756 103.773 29.8948 103.812 30.2778C103.856 30.6736 104.047 30.9672 104.385 31.1524C104.723 31.3311 105.138 31.395 105.629 31.3439Z" fill="black"/>
<path d="M74.0567 158.892C73.8973 157.328 74.2862 155.962 75.2235 154.8C76.1607 153.612 77.423 152.942 79.0169 152.776C80.598 152.617 81.9688 153.019 83.1228 153.989C84.2895 154.959 84.9525 156.217 85.1056 157.762C85.2649 159.294 84.8697 160.66 83.9261 161.854C82.9889 163.041 81.7329 163.712 80.1518 163.871C78.5579 164.037 77.1871 163.629 76.0268 162.665C74.8664 161.694 74.2097 160.437 74.0567 158.892ZM77.474 161.062C78.169 161.656 78.9914 161.905 79.935 161.809C80.8658 161.713 81.6181 161.305 82.1792 160.577C82.7402 159.849 82.9697 158.988 82.8677 157.979C82.7657 156.97 82.3641 156.172 81.6691 155.579C80.9742 154.985 80.1581 154.73 79.2209 154.825C78.2773 154.921 77.525 155.336 76.964 156.057C76.4093 156.772 76.1862 157.634 76.2882 158.649C76.3966 159.677 76.7918 160.481 77.474 161.062Z" fill="black"/>
<path d="M91.207 162.524L89.0585 162.741L88.4655 156.932L86.0938 157.175L85.9089 155.374L92.8328 154.666L93.0177 156.466L90.6141 156.715L91.207 162.524Z" fill="black"/>
<path d="M97.0213 161.924L94.8728 162.141L94.095 154.538L96.2435 154.321L96.5304 157.092L98.8639 154.047L101.497 153.779L98.5451 157.545L102.791 161.331L100.018 161.618L96.6834 158.649L97.0213 161.924Z" fill="black"/>
<path d="M110.901 158.822C111.086 158.803 111.226 158.758 111.335 158.688L111.494 160.258C111.239 160.501 110.869 160.647 110.372 160.699C109.511 160.788 108.905 160.52 108.555 159.901C107.955 160.66 107.12 161.094 106.043 161.203C105.208 161.286 104.513 161.126 103.945 160.711C103.378 160.296 103.059 159.709 102.983 158.949C102.9 158.139 103.129 157.488 103.677 157.002C104.219 156.517 104.908 156.23 105.73 156.147C106.591 156.058 107.337 156.141 107.968 156.396L107.943 156.166C107.847 155.209 107.127 154.8 105.788 154.94C104.965 155.023 104.219 155.317 103.556 155.815L103.371 154.015C104.098 153.53 105.016 153.23 106.126 153.115C107.222 153 108.121 153.178 108.823 153.638C109.549 154.098 109.957 154.794 110.053 155.732L110.314 158.311C110.346 158.688 110.544 158.86 110.901 158.822ZM108.179 158.515L108.102 157.756C107.624 157.507 107.082 157.411 106.476 157.475C106.017 157.519 105.667 157.647 105.412 157.845C105.163 158.043 105.055 158.305 105.086 158.617C105.118 158.943 105.265 159.179 105.526 159.32C105.788 159.46 106.126 159.511 106.54 159.473C107.286 159.396 107.834 159.077 108.179 158.515Z" fill="black"/>
<path d="M115.689 160.213C114.51 160.335 113.509 160.239 112.68 159.939L112.501 158.202C113.324 158.528 114.229 158.643 115.211 158.541C115.791 158.483 116.231 158.356 116.537 158.171C116.843 157.985 116.977 157.749 116.951 157.468C116.9 156.97 116.429 156.766 115.536 156.862L114.044 157.015L113.885 155.457L115.377 155.304C116.11 155.228 116.448 154.966 116.403 154.519C116.352 154.034 115.81 153.842 114.777 153.945C113.834 154.04 113.031 154.302 112.367 154.717L112.195 153.038C112.941 152.591 113.898 152.31 115.077 152.189C116.002 152.093 116.798 152.215 117.468 152.546C118.137 152.878 118.501 153.344 118.564 153.945C118.647 154.787 118.341 155.368 117.634 155.687C118.061 155.777 118.424 155.962 118.711 156.249C119.004 156.53 119.17 156.9 119.215 157.36C119.291 158.081 118.998 158.713 118.348 159.249C117.71 159.773 116.824 160.098 115.689 160.213Z" fill="black"/>
<path d="M128.16 157.053C128.345 157.034 128.485 156.99 128.593 156.919L128.753 158.49C128.498 158.732 128.128 158.879 127.631 158.93C126.77 159.02 126.164 158.751 125.814 158.132C125.214 158.892 124.379 159.326 123.302 159.435C122.466 159.518 121.771 159.358 121.204 158.943C120.637 158.528 120.318 157.941 120.241 157.181C120.158 156.37 120.388 155.719 120.936 155.234C121.485 154.749 122.167 154.462 122.989 154.379C123.85 154.289 124.596 154.372 125.227 154.628L125.202 154.398C125.106 153.44 124.385 153.032 123.047 153.172C122.224 153.255 121.478 153.549 120.815 154.047L120.63 152.246C121.357 151.761 122.275 151.461 123.384 151.346C124.481 151.231 125.38 151.41 126.081 151.87C126.808 152.329 127.216 153.025 127.312 153.964L127.573 156.543C127.611 156.913 127.809 157.092 128.16 157.053ZM125.437 156.747L125.361 155.987C124.883 155.738 124.341 155.643 123.735 155.706C123.276 155.751 122.925 155.879 122.67 156.077C122.422 156.275 122.313 156.536 122.345 156.849C122.377 157.175 122.524 157.411 122.785 157.551C123.047 157.692 123.384 157.743 123.799 157.705C124.551 157.622 125.093 157.309 125.437 156.747Z" fill="black"/>
<path d="M132.412 158.298L130.264 158.515L129.486 150.912L131.634 150.695L131.921 153.517L135.039 153.198L134.752 150.376L136.901 150.159L137.678 157.762L135.53 157.979L135.224 154.991L132.106 155.311L132.412 158.298Z" fill="black"/>
<path d="M138.883 153.785C138.768 152.655 139.068 151.672 139.782 150.829C140.483 149.98 141.453 149.489 142.689 149.361C143.926 149.233 144.978 149.514 145.839 150.21C146.712 150.899 147.203 151.806 147.318 152.923C147.433 154.059 147.133 155.055 146.425 155.911C145.711 156.753 144.742 157.239 143.512 157.366C142.281 157.494 141.236 157.213 140.369 156.536C139.495 155.834 139.004 154.921 138.883 153.785ZM141 153.568C141.064 154.181 141.312 154.666 141.746 155.03C142.179 155.394 142.709 155.547 143.314 155.483C143.92 155.419 144.404 155.164 144.761 154.717C145.112 154.257 145.259 153.734 145.201 153.134C145.138 152.521 144.889 152.042 144.455 151.685C144.016 151.321 143.493 151.168 142.887 151.231C142.275 151.295 141.797 151.551 141.44 151.997C141.083 152.432 140.936 152.955 141 153.568Z" fill="black"/>
<path d="M22.1112 160.338L21.6904 160.382L21.2441 156.386L22.9209 156.195C23.3162 156.15 23.6413 156.214 23.89 156.393C24.1386 156.571 24.2853 156.827 24.3235 157.159C24.3618 157.503 24.2789 157.791 24.0749 158.014C23.8709 158.244 23.5712 158.378 23.1759 158.423L21.9199 158.563L22.1112 160.338ZM21.7096 156.724L21.8753 158.193L23.0994 158.052C23.38 158.02 23.5903 157.931 23.7306 157.784C23.8709 157.637 23.9282 157.452 23.9027 157.216C23.8772 156.98 23.7752 156.807 23.6095 156.699C23.4437 156.59 23.2142 156.552 22.9273 156.584L21.7096 156.724Z" fill="white"/>
<path d="M26.6122 159.904C26.1851 159.955 25.8089 159.859 25.4838 159.623C25.165 159.387 24.9801 159.061 24.9355 158.633C24.8908 158.225 24.9801 157.861 25.2032 157.554C25.4328 157.248 25.7579 157.069 26.166 157.025C26.3891 156.999 26.5867 157.025 26.7653 157.095C26.9438 157.165 27.0968 157.267 27.2115 157.401C27.3263 157.535 27.4156 157.682 27.4857 157.835C27.5558 157.995 27.5941 158.155 27.6132 158.314L27.626 158.429L25.3626 158.684C25.42 158.978 25.5667 159.201 25.7962 159.355C26.0321 159.508 26.3126 159.565 26.6441 159.527C26.9629 159.489 27.2498 159.374 27.4984 159.17L27.5367 159.533C27.3454 159.731 27.033 159.853 26.6122 159.904ZM25.3371 158.34L27.1797 158.129C27.1414 157.918 27.0458 157.733 26.8736 157.58C26.7143 157.42 26.4847 157.357 26.1915 157.388C25.9173 157.42 25.7005 157.529 25.5475 157.714C25.3945 157.912 25.3244 158.116 25.3371 158.34Z" fill="white"/>
<path d="M32.2929 159.195L28.5441 159.616L28.2317 156.859L28.6397 156.814L28.9075 159.214L30.1635 159.074L29.8957 156.68L30.3037 156.635L30.5715 159.029L31.8339 158.889L31.5661 156.488L31.9741 156.444L32.2929 159.195Z" fill="white"/>
<path d="M34.5817 159.004C34.1546 159.055 33.7784 158.959 33.4533 158.723C33.1345 158.486 32.9496 158.161 32.905 157.733C32.8603 157.325 32.9496 156.961 33.1727 156.654C33.4022 156.348 33.7274 156.169 34.1354 156.124C34.3586 156.099 34.5562 156.124 34.7347 156.195C34.9133 156.265 35.0663 156.367 35.181 156.501C35.2958 156.635 35.385 156.782 35.4552 156.935C35.5253 157.088 35.5636 157.254 35.5827 157.414L35.5954 157.529L33.3321 157.784C33.3895 158.078 33.5361 158.301 33.772 158.454C34.0079 158.608 34.2885 158.665 34.62 158.627C34.9388 158.589 35.2257 158.474 35.4743 158.269L35.5126 158.633C35.3149 158.831 35.0025 158.959 34.5817 159.004ZM33.3066 157.439L35.1492 157.229C35.1173 157.018 35.0153 156.833 34.8431 156.68C34.6837 156.52 34.4542 156.456 34.1609 156.488C33.8868 156.52 33.67 156.629 33.517 156.814C33.3704 157.012 33.2939 157.222 33.3066 157.439Z" fill="white"/>
<path d="M36.928 158.671L36.5199 158.716L36.2075 155.958L36.6156 155.914L36.7494 157.076L38.4453 156.884L38.3115 155.722L38.7195 155.677L39.0319 158.435L38.6239 158.48L38.4836 157.254L36.7877 157.446L36.928 158.671Z" fill="white"/>
<path d="M40.3837 158.282L40.0011 158.327L39.6887 155.569L40.0968 155.524L40.339 157.676L41.8564 155.326L42.2389 155.282L42.5513 158.04L42.1433 158.084L41.901 155.939L40.3837 158.282Z" fill="white"/>
<path d="M44.8464 157.848C44.4192 157.899 44.0431 157.803 43.7179 157.567C43.3991 157.331 43.2142 157.005 43.1696 156.578C43.125 156.169 43.2142 155.805 43.4374 155.499C43.6669 155.192 43.9921 155.014 44.4001 154.969C44.6232 154.943 44.8209 154.969 44.9994 155.039C45.1779 155.109 45.3309 155.211 45.4457 155.346C45.5604 155.48 45.6497 155.626 45.7198 155.78C45.79 155.933 45.8282 156.092 45.8473 156.258L45.8601 156.373L43.5968 156.629C43.6541 156.922 43.8008 157.146 44.0303 157.299C44.2662 157.452 44.5467 157.51 44.8783 157.471C45.197 157.433 45.4839 157.318 45.7326 157.114L45.7708 157.478C45.5796 157.676 45.2672 157.803 44.8464 157.848ZM43.5713 156.284L45.4138 156.073C45.3755 155.863 45.2799 155.678 45.1078 155.524C44.9484 155.365 44.7189 155.301 44.4256 155.333C44.1514 155.365 43.9347 155.473 43.7817 155.658C43.6286 155.856 43.5585 156.061 43.5713 156.284Z" fill="white"/>
</svg>
