<svg width="210" height="210" viewBox="0 0 210 210" fill="none" xmlns="http://www.w3.org/2000/svg">
<path d="M31.2878 42.4432L46.4206 50.1908L68.4062 35.9197L75.7862 44.8809L52.3736 63.3014L35.8777 63.312L25.6011 48.8077L31.2878 42.4432Z" fill="#455A64"/>
<path d="M35.8724 63.3277L35.8671 63.3224L25.5798 48.8021L25.5852 48.7915L31.2772 42.4217L31.2879 42.427L46.4153 50.1694L68.4063 35.8982L68.4169 35.9088L75.8022 44.8806L75.7916 44.8912L52.379 63.3171H52.3736L35.8724 63.3277Z" fill="#455A64"/>
<g opacity="0.3">
<path d="M31.2878 42.443L46.4206 50.1907L68.747 35.4744L75.7862 44.8807L52.3736 63.3013L35.8777 63.3119L25.6011 48.8075L31.2878 42.443Z" fill="black"/>
</g>
<path d="M111.851 42.7663C105.855 57.3501 89.0875 64.324 74.402 58.3464C59.7166 52.3634 52.6667 35.6969 58.6623 21.1131C64.6579 6.52927 81.4253 -0.444677 96.1108 5.53829C110.802 11.516 117.846 28.1824 111.851 42.7663Z" fill="#C0DEF2"/>
<path d="M105.525 40.191C100.956 51.3037 88.1823 56.619 76.9845 52.0615C65.792 47.5041 60.4247 34.8015 64.9933 23.6888C69.5619 12.576 82.3411 7.26077 93.5336 11.8182C104.721 16.3757 110.093 29.0782 105.525 40.191Z" fill="#C0DEF2"/>
<path d="M105.525 40.1908C105.519 40.1855 105.551 40.0742 105.62 39.8517C105.7 39.6079 105.807 39.2846 105.945 38.866C106.02 38.6487 106.1 38.4102 106.19 38.1453C106.265 37.875 106.323 37.5729 106.403 37.2497C106.552 36.6032 106.749 35.8612 106.829 35.0027C107.106 33.3017 107.122 31.1713 106.76 28.7601C106.387 26.3542 105.535 23.6515 103.954 21.0124C102.372 18.3893 100.093 15.782 97.0211 13.8583C93.9647 11.9611 90.2108 10.5515 86.1268 10.4455C85.1098 10.366 84.0821 10.4614 83.0438 10.525C82.5273 10.578 82.0108 10.6787 81.489 10.7582C80.9672 10.8218 80.4507 10.9543 79.9395 11.0921C78.8959 11.3146 77.8948 11.7174 76.8725 12.083C75.8928 12.5494 74.8864 12.9839 73.9546 13.5934C72.0803 14.7539 70.2859 16.1582 68.8269 17.9123C67.352 19.6452 66.122 21.6272 65.2061 23.7787C64.3435 25.9514 63.8217 28.2249 63.6566 30.493C63.4596 32.7611 63.7525 35.0186 64.269 37.1543C64.5033 38.2354 64.9186 39.2475 65.286 40.265C65.7599 41.2401 66.1859 42.2258 66.7716 43.1108C67.2827 44.0434 67.9643 44.8489 68.5873 45.6809C69.2848 46.4494 69.9504 47.2337 70.7331 47.8855C73.7203 50.657 77.389 52.268 80.9086 53.0524C84.4602 53.8208 87.9212 53.5505 90.8924 52.7821C93.8795 52.0031 96.3875 50.6676 98.3523 49.2103C100.306 47.7424 101.797 46.2109 102.798 44.8013C103.347 44.1335 103.73 43.4711 104.082 42.9041C104.252 42.6179 104.422 42.3636 104.561 42.1198C104.683 41.8707 104.795 41.6428 104.896 41.4362C105.093 41.044 105.242 40.7366 105.36 40.5088C105.461 40.2968 105.514 40.1908 105.525 40.1908C105.53 40.1961 105.487 40.3074 105.397 40.5194C105.29 40.7525 105.152 41.0652 104.976 41.468C104.88 41.6799 104.774 41.9131 104.662 42.1675C104.534 42.4165 104.369 42.6762 104.199 42.9677C103.863 43.5453 103.485 44.2236 102.942 44.9019C101.957 46.3328 100.472 47.9014 98.5067 49.4064C96.5366 50.9008 94.002 52.2733 90.9776 53.0841C87.9638 53.8843 84.4495 54.1758 80.8341 53.4127C77.2506 52.6337 73.5073 51.0068 70.4509 48.1875C69.6522 47.5251 68.9707 46.7249 68.2572 45.9406C67.6235 45.098 66.926 44.2713 66.3988 43.3227C65.7972 42.4165 65.3605 41.415 64.876 40.4187C64.4979 39.38 64.0773 38.3466 63.8324 37.2444C63.2999 35.0663 63.0017 32.7664 63.1987 30.4453C63.3691 28.1295 63.9016 25.8084 64.7801 23.5879C65.7173 21.394 66.9686 19.3696 68.4808 17.5997C69.9717 15.8085 71.8087 14.3724 73.7203 13.1959C74.6681 12.5812 75.6957 12.136 76.6968 11.6644C77.7404 11.2934 78.7628 10.8854 79.8277 10.6575C80.3548 10.5197 80.8767 10.3819 81.4091 10.3183C81.9416 10.2442 82.4687 10.1382 82.9959 10.0852C84.0555 10.0269 85.1045 9.9315 86.1428 10.0163C90.3067 10.1382 94.1245 11.5849 97.2234 13.5298C100.344 15.5064 102.644 18.172 104.231 20.8376C105.817 23.5296 106.659 26.2694 107.01 28.7124C107.351 31.1554 107.308 33.3123 107 35.0186C106.904 35.8824 106.696 36.6296 106.531 37.2762C106.446 37.5994 106.382 37.9015 106.297 38.1718C106.201 38.4367 106.11 38.6752 106.03 38.8925C105.876 39.3005 105.754 39.6238 105.663 39.8623C105.578 40.0848 105.53 40.1961 105.525 40.1908Z" fill="#263238"/>
<g opacity="0.3">
<path d="M105.28 40.3392C105.157 40.2915 105.434 39.3748 105.748 37.7002C106.047 36.0309 106.355 33.5614 105.972 30.5778C105.78 29.0887 105.424 27.483 104.822 25.8296C104.21 24.1868 103.374 22.4963 102.239 20.8906C101.675 20.0851 101.052 19.2955 100.344 18.5536C99.641 17.8064 98.8796 17.0857 98.0329 16.4339C97.1916 15.782 96.3024 15.162 95.3386 14.6268C94.3749 14.0915 93.3632 13.6199 92.3036 13.2171C91.2386 12.8303 90.1631 12.5282 89.0821 12.3057C88.0012 12.0831 86.9203 11.9718 85.8554 11.9188C84.7904 11.8605 83.7362 11.9135 82.7138 12.0195C81.6915 12.1202 80.6958 12.311 79.7426 12.5494C77.8311 13.0264 76.0846 13.7577 74.5404 14.6003C73.0016 15.4588 71.6704 16.4392 70.5469 17.4407C68.2946 19.4492 66.8995 21.5159 66.0316 22.9733C65.1637 24.4412 64.7696 25.3209 64.6472 25.2732C64.5566 25.2414 64.743 24.2822 65.4618 22.6765C66.1807 21.0814 67.4799 18.8239 69.7535 16.5875C70.8877 15.4747 72.2561 14.3777 73.8695 13.4079C75.4829 12.454 77.3306 11.6167 79.3699 11.0656C80.3869 10.7847 81.4519 10.5622 82.5541 10.4403C83.651 10.3078 84.7851 10.2442 85.9353 10.2919C87.0854 10.3343 88.2568 10.4509 89.4229 10.6841C90.589 10.9172 91.7551 11.2405 92.8999 11.6591C94.0394 12.0884 95.1363 12.6024 96.1693 13.1853C97.2076 13.7683 98.1661 14.4413 99.0659 15.1567C99.9658 15.8721 100.78 16.6564 101.526 17.4725C102.277 18.2833 102.932 19.1471 103.523 20.0215C104.705 21.7703 105.546 23.6039 106.142 25.3739C106.723 27.1491 107.037 28.8767 107.159 30.4559C107.404 33.625 106.899 36.1793 106.393 37.8538C105.855 39.5284 105.37 40.371 105.28 40.3392Z" fill="black"/>
</g>
<g opacity="0.3">
<path d="M82.6072 44.9021L81.2122 48.4367L78.044 47.1967L79.4018 43.7574C76.3401 42.3425 73.7097 40.1909 72.501 38.1507L75.7597 34.9817C76.8832 36.7676 78.832 38.5111 81.0258 39.6239L83.1024 34.3564C79.9183 32.1306 76.4466 29.428 78.225 24.9182C79.5455 21.5743 83.1184 19.6559 88.3472 21.0444L89.7263 17.5415L92.8945 18.7816L91.5367 22.2208C93.837 23.339 95.903 24.8705 97.2128 26.6564L94.0979 29.9208C92.8413 28.3734 91.4036 27.1969 89.8967 26.3861L87.7828 31.7491C90.9776 33.943 94.3854 36.6192 92.6336 41.0706C91.345 44.3509 87.8201 46.2481 82.6072 44.9021ZM84.9341 29.7194L86.7019 25.2415C84.8755 24.9659 83.8479 25.6177 83.4379 26.6617C82.9959 27.764 83.7148 28.7337 84.9341 29.7194ZM87.3888 39.4543C87.8254 38.3468 87.1385 37.3929 85.9671 36.386L84.2526 40.7421C85.9724 41.0123 86.9894 40.4612 87.3888 39.4543Z" fill="black"/>
</g>
<path d="M11.9222 17.059L14.297 40.4769C14.7017 44.4567 16.1127 50.2277 22.4065 49.3056C27.811 48.0973 28.6736 42.7768 28.2903 39.0619C28.1092 37.2972 27.9655 35.8293 27.9548 35.6491C27.9548 35.6491 33.8865 34.4886 33.7214 28.5427C33.6416 25.6705 32.992 19.767 32.3423 14.4358C31.6501 8.70193 26.6449 4.47304 20.8517 4.70621L20.2766 4.72741C14.084 5.33684 11.1395 10.9118 11.9222 17.059Z" fill="#FFBE9D"/>
<path d="M27.9603 35.6439C27.9603 35.6439 24.2064 36.0149 20.0957 33.6672C20.0957 33.6672 22.167 37.9332 28.0987 37.1595L27.9603 35.6439Z" fill="#EB996E"/>
<path d="M22.5126 17.9866C22.4061 18.1191 21.6659 17.6475 20.6702 17.7323C19.6745 17.8012 18.9929 18.3841 18.8705 18.2675C18.8119 18.2145 18.9077 17.9866 19.2059 17.7217C19.4988 17.462 20.01 17.1864 20.6329 17.1387C21.2506 17.091 21.7937 17.2818 22.1132 17.4938C22.4433 17.7111 22.5658 17.923 22.5126 17.9866Z" fill="#263238"/>
<path d="M22.715 20.4347C22.747 20.8587 22.4115 21.2349 21.9696 21.2773C21.5276 21.3197 21.1442 21.0123 21.107 20.5884C21.075 20.1644 21.4105 19.7882 21.8524 19.7458C22.2997 19.7034 22.6831 20.0161 22.715 20.4347Z" fill="#263238"/>
<path d="M25.7767 24.563C25.7713 24.51 26.3358 24.3881 27.2569 24.2344C27.4912 24.2026 27.7095 24.1443 27.7415 23.9853C27.7894 23.8158 27.6829 23.5667 27.5551 23.3017C27.3102 22.7453 27.0599 22.1624 26.7884 21.5529C25.7234 19.0622 24.946 17.0114 25.0472 16.9743C25.1484 16.9319 26.0908 18.9139 27.1558 21.4046C27.4113 22.0193 27.6563 22.6022 27.8906 23.1639C27.9917 23.4236 28.1568 23.7204 28.0503 24.0754C27.9917 24.2503 27.8267 24.3828 27.6776 24.4305C27.5285 24.4835 27.3954 24.4888 27.2835 24.4994C26.3571 24.5895 25.782 24.616 25.7767 24.563Z" fill="#263238"/>
<path d="M21.6662 14.3246C21.597 14.5525 20.7823 14.4783 19.8399 14.6372C18.8921 14.775 18.136 15.0877 18.0029 14.8916C17.9443 14.7962 18.0668 14.579 18.3703 14.3458C18.6684 14.1126 19.1477 13.8847 19.7174 13.7999C20.2871 13.7152 20.809 13.784 21.1604 13.9165C21.5172 14.0437 21.6982 14.2186 21.6662 14.3246Z" fill="#263238"/>
<path d="M31.288 15.0876C31.2028 15.2783 30.4094 15.1671 29.4669 15.2412C28.5244 15.2995 27.763 15.5274 27.6405 15.3525C27.5873 15.2677 27.7257 15.0929 28.0346 14.9127C28.3434 14.7325 28.828 14.5682 29.3924 14.5258C29.9568 14.4834 30.468 14.5788 30.8087 14.706C31.1548 14.8438 31.3252 14.9975 31.288 15.0876Z" fill="#263238"/>
<path d="M12.5878 21.4361C12.4866 21.3937 8.43983 20.3921 8.73269 24.4461C9.02554 28.5002 13.0563 27.3714 13.0563 27.2548C13.0563 27.1435 12.5878 21.4361 12.5878 21.4361Z" fill="#FFBE9D"/>
<path d="M11.6984 25.8135C11.6771 25.8029 11.6292 25.8665 11.5174 25.9301C11.4056 25.9937 11.2032 26.0414 10.9849 25.9778C10.543 25.8506 10.133 25.1988 10.0584 24.4675C10.0212 24.1018 10.0744 23.7415 10.1862 23.4394C10.2874 23.1321 10.4684 22.9148 10.6814 22.8565C10.8944 22.7929 11.0542 22.9095 11.1127 23.0208C11.1766 23.1321 11.1553 23.2115 11.1766 23.2168C11.1873 23.2274 11.2618 23.1427 11.2139 22.9784C11.1926 22.8989 11.134 22.8088 11.0329 22.7346C10.9317 22.6604 10.7826 22.6339 10.6335 22.6604C10.3193 22.7028 10.0584 23.0102 9.93597 23.344C9.79753 23.6779 9.72831 24.0806 9.77091 24.494C9.8561 25.3101 10.33 26.0414 10.9317 26.1739C11.2245 26.2269 11.4588 26.1262 11.5706 26.0202C11.6984 25.9089 11.7144 25.8188 11.6984 25.8135Z" fill="#EB996E"/>
<path d="M25.1381 27.4671C25.1701 27.3611 24.3501 27.2128 23.7058 26.5344C23.3863 26.2006 23.1787 25.819 23.0242 25.5435C22.8752 25.2626 22.7633 25.0877 22.7207 25.1089C22.6835 25.1248 22.7154 25.3262 22.8166 25.6335C22.9178 25.9409 23.1094 26.3755 23.4715 26.757C23.8283 27.1386 24.2755 27.3452 24.595 27.43C24.9198 27.5201 25.1328 27.5042 25.1381 27.4671Z" fill="#263238"/>
<path d="M31.5863 17.3345C31.4798 17.467 30.7397 16.9954 29.7439 17.0802C28.7482 17.1491 28.0667 17.732 27.9442 17.6154C27.8856 17.5624 27.9815 17.3345 28.2797 17.0696C28.5725 16.8099 29.0837 16.5343 29.7067 16.4866C30.3243 16.4389 30.8675 16.6297 31.1869 16.8417C31.5171 17.0643 31.6395 17.2762 31.5863 17.3345Z" fill="#263238"/>
<path d="M31.0696 19.9367C31.1016 20.3606 30.7661 20.7369 30.3242 20.7793C29.8822 20.8217 29.4989 20.5143 29.4616 20.0903C29.4296 19.6664 29.7651 19.2901 30.207 19.2477C30.649 19.2054 31.0377 19.518 31.0696 19.9367Z" fill="#263238"/>
<path d="M35.5851 6.14772C34.6746 4.90767 32.763 4.53672 31.4478 5.34222C31.6022 3.44505 30.3669 1.52668 28.5725 0.869564C26.7781 0.212444 24.5843 0.885462 23.4714 2.42757C23.333 1.93473 22.9283 1.54788 22.4651 1.33061C21.9965 1.11863 21.4747 1.06034 20.9582 1.06034C19.3608 1.06564 17.7687 1.63797 16.5281 2.64485C15.8784 3.17478 15.3353 3.82131 14.9094 4.54202C12.5345 4.53142 10.1438 5.66548 8.75402 7.59975C7.08739 9.91556 7.28441 14.8281 9.8509 18.7973L10.6443 21.3781C11.2992 21.3039 11.9009 21.2827 12.3482 21.5953C12.9499 22.0246 13.3013 22.9202 14.1745 22.4644C14.6165 22.2313 14.9307 21.2191 15.0318 20.7315C15.7081 17.4936 15.6655 14.1127 14.9253 10.8959C15.4951 10.1328 16.2139 9.48632 17.0286 8.99348L16.9647 9.06237C18.5514 8.30456 20.3565 7.53085 22.0125 8.12438C23.2957 8.58543 24.153 9.76188 25.1807 10.6628C27.1189 12.3692 29.5629 13.1376 32.1454 12.9574C32.4222 14.6055 32.55 16.9637 32.8269 18.6118L33.9238 15.7978L33.9291 15.8084C34.0196 15.6018 34.0942 15.3951 34.1634 15.1884L34.19 15.1248V15.1195C34.4243 14.8811 34.5734 14.4836 34.9515 13.9378C35.6809 12.8885 35.7502 11.4259 35.1219 10.313C36.2773 9.31144 36.4956 7.38777 35.5851 6.14772Z" fill="#263238"/>
<path d="M34.5654 14.1404L34.5521 14.1338L34.5654 14.1404Z" fill="#263238"/>
<path d="M33.1674 6.48145C33.1728 6.48145 33.1834 6.50794 33.2047 6.56623C33.226 6.62453 33.2526 6.70932 33.2739 6.8206C33.3112 7.04848 33.3165 7.40353 33.1461 7.79569C33.061 7.99176 32.9332 8.19314 32.7521 8.36802C32.5711 8.54289 32.3261 8.69128 32.0493 8.76547C31.5008 8.91915 30.782 8.80786 30.2868 8.32032L30.3773 8.22493C30.5903 8.41041 30.7341 8.69128 30.7554 8.98274C30.7873 9.37489 30.6595 9.76704 30.4199 10.0532C30.175 10.3341 29.8342 10.4984 29.5094 10.5672C28.8438 10.7103 28.2315 10.5249 27.7895 10.297C27.3422 10.0691 27.0281 9.81474 26.8098 9.64516C26.5968 9.47028 26.485 9.36429 26.4903 9.35899C26.4956 9.3537 26.6181 9.44378 26.8417 9.60277C27.0654 9.76175 27.3902 10.0002 27.8268 10.2122C28.2634 10.4242 28.8491 10.5831 29.4774 10.4454C29.7863 10.3765 30.0951 10.2228 30.3187 9.96842C30.5371 9.71405 30.6542 9.3537 30.6222 8.99864C30.6009 8.73367 30.4785 8.4899 30.2921 8.33092L30.3826 8.23553C30.8352 8.68598 31.5061 8.79726 32.0226 8.65948C32.5551 8.527 32.9065 8.12954 33.0716 7.76389C33.242 7.39293 33.258 7.05378 33.2313 6.8312C33.1994 6.60333 33.1568 6.48674 33.1674 6.48145Z" fill="#455A64"/>
<path d="M27.5875 2.63416C27.5875 2.62886 27.6194 2.63946 27.678 2.66066C27.7366 2.68716 27.8218 2.72425 27.9229 2.78784C28.1253 2.90973 28.4128 3.127 28.6258 3.50856C28.8388 3.87951 28.9293 4.45714 28.6524 4.97648C28.5193 5.23085 28.2797 5.46402 27.9709 5.56471C27.6674 5.66539 27.3106 5.6548 27.0071 5.49051C26.9113 5.43752 26.8261 5.36863 26.7568 5.29444L26.8633 5.21495C27.0284 5.50111 27.0284 5.84027 26.9379 6.12644C26.8474 6.4126 26.6503 6.65107 26.4161 6.79416C25.9475 7.09092 25.4097 7.06972 25.0316 6.94784C24.6483 6.82065 24.3874 6.61928 24.2223 6.4709C24.0572 6.32251 23.988 6.22183 23.9933 6.21653C23.9987 6.21123 24.0838 6.29602 24.2542 6.4285C24.4246 6.56098 24.6855 6.74646 25.0583 6.85245C25.4203 6.95844 25.9209 6.96374 26.3468 6.68817C26.5545 6.55039 26.7302 6.34371 26.8101 6.08404C26.8953 5.82967 26.8846 5.52761 26.7462 5.27854L26.4746 4.8069L26.8527 5.19905C26.9113 5.26264 26.9858 5.32094 27.071 5.36863C27.3372 5.51171 27.6567 5.52761 27.9283 5.43752C28.2052 5.35273 28.4181 5.14606 28.5406 4.91289C28.7962 4.43594 28.7323 3.90071 28.5406 3.54565C28.3489 3.18 28.0827 2.95742 27.8963 2.82494C27.7046 2.69776 27.5822 2.64476 27.5875 2.63416Z" fill="#455A64"/>
<path d="M40.7977 188.059L40.3717 208.175L66.9791 208.8C66.8886 206.405 53.2468 201.28 53.2468 201.28L54.0828 188.403L40.7977 188.059Z" fill="#455A64"/>
<g opacity="0.6">
<path d="M45.0522 200.009C44.5357 200.13 44.163 200.666 44.2695 201.159C44.376 201.651 44.951 202.012 45.4728 201.9C45.9947 201.789 46.4579 201.159 46.2928 200.682C46.1278 200.205 45.4249 199.818 44.951 200.046" fill="white"/>
</g>
<g opacity="0.6">
<path d="M40.3716 208.18L40.4994 206.156L65.962 207.512C65.962 207.512 67.1334 208.026 66.979 208.805L40.3716 208.18Z" fill="white"/>
</g>
<path d="M53.6834 201.169C53.6781 201.291 53.0231 201.333 52.3735 201.71C51.7132 202.07 51.3671 202.595 51.25 202.542C51.1329 202.515 51.3458 201.789 52.1392 201.344C52.9326 200.894 53.7153 201.058 53.6834 201.169Z" fill="#263238"/>
<path d="M56.4471 202.319C56.4737 202.436 55.904 202.632 55.4514 203.14C54.9828 203.633 54.855 204.19 54.7272 204.184C54.6047 204.2 54.5355 203.485 55.1106 202.865C55.6803 202.234 56.4471 202.202 56.4471 202.319Z" fill="#263238"/>
<path d="M57.9485 205.499C57.8314 205.52 57.6663 204.905 58.0178 204.248C58.3639 203.586 58.9815 203.337 59.0348 203.437C59.104 203.538 58.6993 203.888 58.4224 204.439C58.1296 204.974 58.0817 205.488 57.9485 205.499Z" fill="#263238"/>
<path d="M53.5288 198.212C53.4703 198.324 52.8792 198.138 52.1444 198.17C51.4096 198.186 50.8292 198.403 50.7653 198.297C50.6908 198.207 51.2605 197.767 52.1284 197.746C52.9964 197.714 53.5981 198.117 53.5288 198.212Z" fill="#263238"/>
<path d="M52.9751 195.229C52.9751 195.282 52.4586 195.345 51.6439 195.191C51.2393 195.117 50.76 194.979 50.2595 194.757C50.0093 194.646 49.7537 194.513 49.5034 194.359C49.381 194.28 49.2372 194.206 49.1094 194.057C48.971 193.925 48.8964 193.602 49.0668 193.406C49.2106 193.215 49.4502 193.141 49.6419 193.141C49.8389 193.141 49.9986 193.178 50.1424 193.215C50.4352 193.289 50.7121 193.39 50.9624 193.501C51.4629 193.729 51.8729 194.015 52.1711 194.291C52.7728 194.842 52.9751 195.303 52.9272 195.329C52.8686 195.366 52.5758 194.98 51.9581 194.518C51.6493 194.291 51.2552 194.052 50.7867 193.861C50.5524 193.766 50.2968 193.686 50.0252 193.623C49.743 193.549 49.5034 193.538 49.4289 193.655C49.4023 193.697 49.3969 193.718 49.4555 193.798C49.5141 193.872 49.6259 193.941 49.743 194.02C49.972 194.169 50.2063 194.301 50.4352 194.418C50.8932 194.646 51.3351 194.805 51.7132 194.911C52.4799 195.117 52.9804 195.165 52.9751 195.229Z" fill="#263238"/>
<path d="M52.7995 195.398C52.7516 195.414 52.5067 194.974 52.4801 194.179C52.4694 193.787 52.5227 193.31 52.6984 192.812C52.7889 192.563 52.906 192.309 53.0605 192.06C53.2255 191.816 53.4225 191.487 53.9284 191.445C54.1893 191.44 54.4076 191.641 54.4768 191.805C54.562 191.975 54.5727 192.123 54.5993 192.266C54.6419 192.558 54.6259 192.844 54.578 193.109C54.4821 193.639 54.2372 194.079 53.9763 194.391C53.4385 195.027 52.8954 195.16 52.8847 195.117C52.8421 195.054 53.3001 194.831 53.7154 194.216C53.9177 193.914 54.1041 193.512 54.168 193.051C54.1999 192.817 54.2053 192.574 54.1627 192.325C54.1254 192.06 54.0295 191.842 53.923 191.864C53.7899 191.858 53.561 192.054 53.4438 192.261C53.3001 192.484 53.1882 192.711 53.0977 192.934C52.9167 193.384 52.8368 193.814 52.8049 194.179C52.7463 194.921 52.8741 195.382 52.7995 195.398Z" fill="#263238"/>
<path d="M15.873 179.786L5 194.026L23.7961 208.323C24.9889 206.553 17.8751 195.775 17.8751 195.775L25.2444 186.951L15.873 179.786Z" fill="#455A64"/>
<g opacity="0.6">
<path d="M12.6568 190.587C12.2202 190.401 11.6717 190.597 11.4907 191.005C11.3097 191.413 11.5333 191.97 11.9699 192.161C12.4012 192.351 13.0668 192.139 13.1999 191.71C13.333 191.281 13.0295 190.64 12.5716 190.555" fill="white"/>
</g>
<g opacity="0.6">
<path d="M5 194.026L6.15546 192.637L23.7429 206.866C23.7429 206.866 24.318 207.847 23.7961 208.324L5 194.026Z" fill="white"/>
</g>
<path d="M18.2533 195.918C18.1841 196.002 17.6942 195.69 17.0286 195.626C16.363 195.541 15.8412 195.738 15.7826 195.642C15.7134 195.563 16.2459 195.149 17.0499 195.245C17.8593 195.324 18.3332 195.854 18.2533 195.918Z" fill="#263238"/>
<path d="M19.6321 198.181C19.5895 198.281 19.0783 198.122 18.4873 198.249C17.8909 198.361 17.5075 198.695 17.417 198.62C17.3212 198.567 17.646 198.016 18.3861 197.873C19.1262 197.719 19.696 198.096 19.6321 198.181Z" fill="#263238"/>
<path d="M19.0411 201.249C18.9453 201.207 19.1476 200.677 19.7493 200.385C20.3457 200.088 20.9261 200.231 20.9048 200.332C20.8994 200.443 20.4256 200.486 19.941 200.73C19.4458 200.963 19.137 201.307 19.0411 201.249Z" fill="#263238"/>
<path d="M19.6909 193.708C19.5898 193.755 19.265 193.316 18.7165 192.955C18.1787 192.584 17.6516 192.441 17.6569 192.33C17.6516 192.229 18.2905 192.208 18.9295 192.643C19.5685 193.077 19.7921 193.676 19.6909 193.708Z" fill="#263238"/>
<path d="M20.8621 191.275C20.8355 191.312 20.4308 191.09 19.925 190.555C19.6747 190.29 19.4032 189.94 19.1582 189.521C19.0358 189.309 18.9239 189.081 18.8281 188.843C18.7802 188.726 18.7216 188.594 18.7056 188.419C18.6737 188.249 18.7908 187.979 19.0198 187.926C19.2221 187.863 19.4351 187.937 19.5735 188.037C19.7173 188.138 19.8078 188.249 19.893 188.35C20.0634 188.557 20.2125 188.769 20.335 188.986C20.5746 189.41 20.7184 189.829 20.7876 190.184C20.9313 190.894 20.8302 191.328 20.7876 191.323C20.7237 191.318 20.7184 190.889 20.516 190.237C20.4148 189.913 20.2551 189.537 20.0208 189.156C19.9037 188.965 19.7599 188.774 19.6002 188.589C19.4404 188.387 19.27 188.26 19.1529 188.302C19.1103 188.318 19.0996 188.329 19.0996 188.419C19.105 188.504 19.1476 188.615 19.1902 188.732C19.2754 188.96 19.3765 189.177 19.483 189.378C19.6907 189.781 19.925 190.125 20.138 190.396C20.5639 190.936 20.8994 191.233 20.8621 191.275Z" fill="#263238"/>
<path d="M20.6439 191.307C20.6013 191.297 20.6599 190.846 21.0539 190.263C21.2509 189.977 21.5438 189.664 21.9271 189.394C22.1242 189.262 22.3425 189.14 22.5821 189.039C22.827 188.949 23.1412 188.817 23.5299 189.05C23.7216 189.182 23.7695 189.437 23.7322 189.596C23.7003 189.76 23.6364 189.876 23.5778 189.993C23.4553 190.226 23.2956 190.422 23.1199 190.587C22.7684 190.915 22.3638 191.106 22.0123 191.196C21.2935 191.376 20.8303 191.185 20.8462 191.148C20.8516 191.079 21.2988 191.159 21.9165 190.931C22.22 190.82 22.5661 190.629 22.8536 190.327C22.9974 190.178 23.1305 190.004 23.2317 189.802C23.3488 189.59 23.3914 189.384 23.3009 189.346C23.2104 189.272 22.9388 189.294 22.7471 189.384C22.5288 189.468 22.3265 189.574 22.1455 189.686C21.7834 189.914 21.4958 190.178 21.2829 190.428C20.8569 190.936 20.7078 191.334 20.6439 191.307Z" fill="#263238"/>
<path d="M19.0411 100.275L22.2732 110.746C23.1039 113.439 24.5895 115.882 26.6022 117.858C28.6895 119.909 31.1441 122.347 31.5435 122.824L41.3622 154.535L39.0779 196.819L55.9998 197.958C55.9998 197.958 62.6556 154.779 61.58 148.102C60.5045 141.424 53.6782 96.8516 53.6782 96.8516L51.8838 93.7515L19.0411 100.275Z" fill="#263238"/>
<path d="M33.1409 123.963L31.4264 155.118L8.91895 185.563L23.024 195.139L53.3854 159.866L53.6836 119.051L33.1409 123.963Z" fill="#263238"/>
<path d="M31.5491 122.829C31.5545 122.829 31.5758 122.877 31.613 122.977C31.6556 123.089 31.7036 123.237 31.7728 123.417C31.9112 123.825 32.1082 124.392 32.3585 125.118C32.8643 126.623 33.5832 128.769 34.4777 131.44C36.2562 136.835 38.7321 144.339 41.5329 152.839L41.5436 152.866V152.892C41.4477 154.71 41.3519 156.618 41.2507 158.562C40.6969 168.838 40.1964 178.138 39.829 184.89C39.632 188.244 39.4723 190.963 39.3604 192.865C39.3019 193.793 39.254 194.519 39.2167 195.033C39.1954 195.266 39.1847 195.451 39.1741 195.594C39.1634 195.721 39.1528 195.785 39.1475 195.785C39.1421 195.785 39.1421 195.721 39.1421 195.594C39.1475 195.451 39.1528 195.266 39.1581 195.027C39.1794 194.513 39.206 193.782 39.2433 192.855C39.3338 190.952 39.4563 188.228 39.6107 184.874C39.9515 178.117 40.4201 168.817 40.9419 158.541C41.043 156.602 41.1442 154.694 41.2401 152.871L41.2454 152.924C38.4819 144.408 36.0432 136.899 34.286 131.493C33.4288 128.812 32.7365 126.65 32.2573 125.139C32.0284 124.408 31.8526 123.836 31.7249 123.422C31.6716 123.237 31.629 123.094 31.5917 122.977C31.5545 122.882 31.5438 122.829 31.5491 122.829Z" fill="#455A64"/>
<path d="M13.6258 38.177C13.6258 38.177 8.07219 46.8149 9.14245 54.0274C9.68557 57.668 19.1529 94.5409 19.1529 94.5409L19.0464 107.217L55.2968 99.7714L51.6494 86.9152L40.8829 48.9877L28.2101 38.3572L13.6258 38.177Z" fill="#455A64"/>
<g opacity="0.3">
<path d="M17.6407 56.7725C17.6407 56.7725 35.2122 69.2418 41.3835 69.0882L46.6337 69.2365L45.8296 66.4014L17.6407 56.7725Z" fill="black"/>
</g>
<path d="M21.3197 58.6644C21.3357 58.6909 20.8299 59.0566 19.9566 59.56C19.078 60.0581 17.8214 60.6782 16.3731 61.2081C14.9195 61.738 13.5617 62.0719 12.566 62.2521C11.5702 62.4322 10.9473 62.4799 10.9419 62.4481C10.9366 62.4057 11.5489 62.2945 12.5234 62.0613C13.4978 61.8334 14.8396 61.4731 16.2719 60.9484C17.7043 60.4238 18.9609 59.8409 19.8554 59.3904C20.7553 58.9347 21.2984 58.6326 21.3197 58.6644Z" fill="#263238"/>
<path d="M47.4962 73.6085C47.5175 73.6827 40.5102 75.5322 31.8469 77.7367C23.1837 79.9412 16.1498 81.6688 16.1285 81.5946C16.1072 81.5204 23.1145 79.671 31.7777 77.4664C40.441 75.2619 47.4749 73.5343 47.4962 73.6085Z" fill="#263238"/>
<path d="M52.4214 90.6829C52.4214 90.6935 52.3095 90.72 52.0859 90.7624C51.8356 90.8101 51.5162 90.8683 51.1168 90.9425C50.2755 91.1015 49.0615 91.3453 47.5706 91.6791C44.5834 92.3363 40.4887 93.3802 35.9734 94.562C31.4581 95.7491 27.3687 96.8248 24.3922 97.5402C22.9066 97.9006 21.6979 98.1709 20.8566 98.3404C20.4573 98.4146 20.1378 98.4782 19.8875 98.5259C19.6639 98.563 19.5468 98.5842 19.5468 98.5736C19.5468 98.563 19.6586 98.5312 19.8769 98.4729C20.1218 98.4093 20.4413 98.3351 20.8353 98.2344C21.6979 98.0172 22.8907 97.7151 24.3443 97.3495C27.3314 96.5599 31.4048 95.4841 35.8989 94.2917C40.4142 93.11 44.5195 92.0978 47.5226 91.4884C49.0242 91.1757 50.2436 90.9637 51.0902 90.8366C51.4895 90.7836 51.8143 90.7412 52.0699 90.7041C52.2989 90.6829 52.416 90.6723 52.4214 90.6829Z" fill="#263238"/>
<path d="M79.2209 43.0525C79.2209 43.0525 79.338 41.6481 80.3231 40.0954C81.3082 38.5427 83.9599 36.778 84.0024 35.5592C84.0504 34.3403 85.4135 34.865 85.5732 36.317C85.6744 37.2444 84.5562 40.0742 84.5562 40.0742C84.5562 40.0742 86.8405 39.9683 88.0119 38.7335C89.1834 37.4988 93.6934 34.5576 94.4335 35.0875C95.2695 35.6864 94.0501 36.3382 93.5869 36.8151C93.2355 37.1808 90.4347 39.7934 90.4347 39.7934C90.4347 39.7934 96.9201 37.6047 97.836 37.6683C98.837 37.7372 98.1555 38.8024 97.7455 38.9402C97.4899 39.0303 98.5548 39.4648 97.9797 40.4399C97.591 41.1023 95.0831 42.4907 94.3483 42.7239L92.8308 43.2009L97.6017 42.3C97.6017 42.3 98.624 42.7875 97.623 43.5029C97.1757 43.8209 83.7628 50.0317 82.6979 50.4239C80.8502 51.0969 78.1879 51.9607 78.1879 51.9607L75.7971 44.2077L79.2209 43.0525Z" fill="#FFBE9D"/>
<path d="M97.7455 38.9507C97.7881 39.0249 96.1534 40.0105 94.0449 41.0439C91.9416 42.0879 90.1419 42.7397 90.1099 42.6549C90.094 42.6125 90.5199 42.4111 91.2121 42.0773C92.0162 41.6851 92.916 41.2506 93.9064 40.7683C94.8968 40.2808 95.7967 39.841 96.5954 39.4488C97.2929 39.1149 97.7242 38.9136 97.7455 38.9507Z" fill="#EB996E"/>
<path d="M13.7911 54.5999C13.7911 54.5999 37.4859 68.8604 48.524 66.0253C59.562 63.1901 81.7926 53.2008 81.7926 53.2008L76.6596 41.2667L47.1023 51.8495C47.1023 51.8495 25.9367 42.0033 21.3947 40.6255C14.7122 38.5905 5.63896 47.3556 13.7911 54.5999Z" fill="#455A64"/>
<path d="M29.7439 44.0012C29.7439 44.0012 29.8504 44.033 30.0581 44.1072C30.2658 44.1867 30.5746 44.2926 30.9686 44.4569C31.7673 44.7696 32.9387 45.2677 34.4403 45.9195C37.4434 47.2338 41.7777 49.2157 47.1397 51.7488H47.0651C54.9137 48.9243 65.1211 45.2571 76.6118 41.1236L76.7449 41.0759L76.7982 41.2031C78.4488 45.0451 80.1687 49.0356 81.9365 53.1373L81.9951 53.275L81.8566 53.3333C80.4882 53.9322 79.0292 54.5734 77.5543 55.2252C73.2306 57.0959 68.9869 58.8606 64.8602 60.4981C60.7283 62.125 56.7188 63.6459 52.8318 64.8965C51.852 65.1933 50.8989 65.5219 49.9351 65.7709C49.4559 65.9034 48.9767 66.0359 48.5028 66.1631C48.0129 66.2532 47.5337 66.3857 47.0492 66.4174C45.1056 66.6347 43.2047 66.4704 41.4103 66.1737C37.8162 65.559 34.5841 64.4832 31.6981 63.3968C25.9261 61.187 21.48 58.8765 18.4396 57.2602C16.9221 56.4441 15.756 55.7763 14.9733 55.3206C14.5899 55.0927 14.297 54.9178 14.0894 54.7907C13.8924 54.6688 13.7965 54.5999 13.7965 54.5999C13.7965 54.5999 13.903 54.6529 14.1053 54.7642C14.3183 54.8807 14.6165 55.0503 15.0052 55.2676C15.7986 55.7075 16.97 56.354 18.4982 57.1595C21.5546 58.744 26.0113 61.0227 31.778 63.2007C34.6639 64.2712 37.8854 65.3258 41.4529 65.9299C43.2367 66.2161 45.1163 66.3751 47.0172 66.1525C47.4964 66.1207 47.9597 65.9882 48.4389 65.9034C48.9075 65.7709 49.3867 65.6437 49.8606 65.5113C50.819 65.2569 51.7722 64.9283 52.7466 64.6316C56.6229 63.3756 60.6271 61.8547 64.7537 60.2225C68.875 58.585 73.1188 56.815 77.4371 54.9443C78.9121 54.2978 80.371 53.6566 81.7341 53.0578L81.6543 53.2591C79.8918 49.1574 78.1773 45.1617 76.5266 41.325L76.713 41.4045C65.2117 45.5062 54.9936 49.1468 47.1344 51.9502L47.0918 51.9661L47.0492 51.9449C41.7032 49.3853 37.3795 47.3769 34.3924 46.0308C32.8962 45.3578 31.7354 44.8491 30.942 44.5152C30.5533 44.3509 30.2551 44.229 30.0421 44.139C29.8451 44.0542 29.7439 44.0012 29.7439 44.0012Z" fill="#263238"/>
<path d="M25.5427 42.6922C25.532 42.7081 25.2978 42.6074 24.8718 42.4219C24.4458 42.2364 23.8335 41.9609 23.0561 41.6747C22.2787 41.3938 21.3362 41.0918 20.2553 40.954C19.1797 40.8056 17.9657 40.8533 16.7783 41.2401C15.5696 41.6323 14.5472 42.3689 13.9296 43.2592L13.9242 43.2645L13.9189 43.2698C12.8273 44.4569 12.2203 45.7181 11.8955 46.6296C11.5707 47.5464 11.4908 48.1134 11.4536 48.1028C11.4429 48.1028 11.4483 47.9597 11.4855 47.6948C11.5281 47.4298 11.6027 47.0482 11.7464 46.5819C12.034 45.6439 12.6197 44.335 13.7272 43.1002L13.7166 43.1161C14.3555 42.1622 15.4311 41.3832 16.6877 40.9805C17.9231 40.5777 19.185 40.5353 20.2872 40.7049C21.3948 40.8639 22.3479 41.1871 23.12 41.4998C23.8974 41.8125 24.4991 42.1145 24.9144 42.3318C25.335 42.5385 25.5533 42.6763 25.5427 42.6922Z" fill="#263238"/>
<path d="M35.5529 46.9791C35.5689 46.9844 35.4997 47.2017 35.3612 47.5939C35.2228 47.9807 35.0045 48.5372 34.7276 49.2208C34.1738 50.588 33.3645 52.4587 32.406 54.4936C31.4423 56.5286 30.5105 58.341 29.8076 59.6393C29.4562 60.2858 29.1633 60.8105 28.9556 61.1655C28.748 61.5206 28.6202 61.7114 28.6042 61.7061C28.5882 61.7008 28.6788 61.4888 28.8598 61.1178C29.0675 60.6992 29.3284 60.1745 29.6319 59.5545C30.2921 58.235 31.192 56.412 32.1505 54.3823C33.1089 52.3527 33.9449 50.4926 34.5412 49.1519C34.8235 48.5213 35.0631 47.986 35.2547 47.5621C35.4305 47.1752 35.537 46.9685 35.5529 46.9791Z" fill="#263238"/>
<path d="M49.0405 65.5431C48.966 65.5537 48.4761 62.6019 47.9436 58.9454C47.4165 55.2888 47.0491 52.3212 47.1236 52.3106C47.1982 52.3 47.688 55.2517 48.2205 58.9083C48.7476 62.5595 49.1151 65.5325 49.0405 65.5431Z" fill="#263238"/>
<path d="M67.5385 59.2792C67.5226 59.2898 67.4214 59.1202 67.251 58.8181C67.0806 58.5108 66.8463 58.0656 66.5641 57.5092C65.9944 56.4016 65.2223 54.8648 64.3916 53.1584C63.5557 51.452 62.8155 49.8993 62.2884 48.7705C62.0275 48.2035 61.8198 47.7478 61.6814 47.4245C61.5429 47.1065 61.4737 46.9211 61.4897 46.9158C61.5057 46.9052 61.6068 47.0694 61.7772 47.3768C61.9476 47.6842 62.1819 48.1293 62.4641 48.6805C63.0338 49.788 63.8059 51.3301 64.6419 53.0365C65.4779 54.7429 66.218 56.2956 66.7452 57.4297C67.0061 57.9967 67.2137 58.4525 67.3522 58.7757C67.4906 59.0937 67.5598 59.2739 67.5385 59.2792Z" fill="#263238"/>
<path d="M66.2755 177.216L80.3267 208.8H87.1101L88.0837 206.395L89.2915 208.8H93.7427L93.2221 190.364L93.0034 179.469L66.2755 177.216Z" fill="#C0DEF2"/>
<path opacity="0.3" d="M66.2755 177.216L80.3267 208.8H87.1101L88.0837 206.395L89.2915 208.8H93.7427L93.2221 190.364L93.0034 179.469L66.2755 177.216Z" fill="black"/>
<path d="M127.785 180.603L141.493 208.806H148.276L149.25 206.596L150.452 208.806H154.903L154.383 191.922L154.164 181.949L127.785 180.603Z" fill="#C0DEF2"/>
<path opacity="0.3" d="M127.785 180.603L141.493 208.806H148.276L149.25 206.596L150.452 208.806H154.903L154.383 191.922L154.164 181.949L127.785 180.603Z" fill="black"/>
<path d="M205.746 97.4771C205.746 97.4718 205.793 97.4877 205.876 97.5248C205.975 97.5672 206.095 97.6202 206.24 97.6837C206.548 97.848 207.011 98.1024 207.516 98.5475C208.021 98.9874 208.583 99.6127 209.057 100.45C209.525 101.287 209.911 102.352 209.984 103.577C210.077 104.795 209.77 106.168 209.031 107.397C208.297 108.627 207.12 109.708 205.647 110.339C204.189 110.964 202.367 111.107 200.769 110.328C199.978 109.941 199.29 109.252 198.962 108.378C198.619 107.525 198.64 106.449 199.212 105.649C199.769 104.848 200.696 104.419 201.602 104.356C202.528 104.287 203.414 104.658 204.106 105.198C205.512 106.3 206.162 108.081 206.115 109.697C206.079 111.33 205.454 112.824 204.569 113.937C204.122 114.493 203.611 114.97 203.054 115.325C202.497 115.68 201.914 115.935 201.342 116.115C200.186 116.454 199.082 116.486 198.14 116.359C197.197 116.237 196.411 115.977 195.802 115.707C195.188 115.442 194.751 115.15 194.464 114.954C194.334 114.854 194.23 114.774 194.147 114.711C194.074 114.652 194.043 114.626 194.043 114.62C194.063 114.583 194.62 115.103 195.844 115.611C196.453 115.866 197.229 116.11 198.155 116.21C199.082 116.322 200.16 116.274 201.284 115.935C201.841 115.755 202.404 115.5 202.94 115.15C203.476 114.801 203.965 114.34 204.392 113.794C205.241 112.707 205.84 111.261 205.866 109.692C205.902 108.139 205.272 106.449 203.945 105.415C203.294 104.907 202.461 104.573 201.617 104.631C200.779 104.689 199.931 105.098 199.431 105.813C198.921 106.523 198.9 107.493 199.212 108.282C199.514 109.093 200.144 109.724 200.889 110.09C202.393 110.826 204.148 110.704 205.553 110.105C206.974 109.501 208.12 108.463 208.838 107.276C209.562 106.089 209.869 104.769 209.791 103.587C209.734 102.4 209.374 101.351 208.922 100.524C208.469 99.6922 207.932 99.0722 207.443 98.627C206.459 97.7314 205.72 97.5195 205.746 97.4771Z" fill="#C0DEF2"/>
<path d="M199.035 126.056C201.076 172.929 162.473 196.315 118.773 196.315C75.0737 196.315 39.6517 165.865 39.6517 128.298C39.6517 90.7308 75.0737 60.2754 118.773 60.2754C162.473 60.2754 197.4 88.5263 199.035 126.056Z" fill="#C0DEF2"/>
<path opacity="0.3" d="M113.26 77.0746C113.26 77.0746 118.508 75.3788 123.417 81.0279C128.327 86.677 135.157 96.3007 135.157 96.3007C134.543 99.4326 132.747 101.876 129.264 103.328L113.26 77.0746Z" fill="black"/>
<path d="M66.744 177.031C81.7067 177.031 93.8364 167.569 93.8364 155.897C93.8364 144.225 81.7067 134.763 66.744 134.763C51.7814 134.763 39.6517 144.225 39.6517 155.897C39.6517 167.569 51.7814 177.031 66.744 177.031Z" fill="#C0DEF2"/>
<path d="M92.0143 99.3951C92.0143 99.3951 107.893 74.3186 115.166 77.0371C122.438 79.7557 129.264 103.322 129.264 103.322" fill="#C0DEF2"/>
<path d="M74.0589 93.6507L73.3145 86.8622C73.3145 86.8622 63.3709 82.6333 54.4686 80.5613C45.5662 78.4892 43.8118 80.5613 43.8118 80.5613L57.8941 100.651L74.0589 93.6507Z" fill="#C0DEF2"/>
<path opacity="0.3" d="M95.2524 69.597L100.521 72.7819C100.521 72.7819 126.041 65.9086 145.637 72.7819L138.447 66.5551C138.447 66.5551 114.681 61.3565 95.2524 69.597Z" fill="black"/>
<path opacity="0.3" d="M66.744 177.031C81.7067 177.031 93.8364 167.569 93.8364 155.897C93.8364 144.225 81.7067 134.763 66.744 134.763C51.7814 134.763 39.6517 144.225 39.6517 155.897C39.6517 167.569 51.7814 177.031 66.744 177.031Z" fill="black"/>
<path d="M59.8615 177.031C73.8782 177.031 85.241 167.569 85.241 155.897C85.241 144.225 73.8782 134.763 59.8615 134.763C45.8447 134.763 34.4819 144.225 34.4819 155.897C34.4819 167.569 45.8447 177.031 59.8615 177.031Z" fill="#C0DEF2"/>
<path opacity="0.3" d="M51.0896 165.812H49.1321C48.1742 165.812 47.3933 165.022 47.3933 164.042V147.747C47.3933 146.771 48.169 145.977 49.1321 145.977H51.0896C52.0475 145.977 52.8284 146.766 52.8284 147.747V164.042C52.8284 165.017 52.0475 165.812 51.0896 165.812Z" fill="black"/>
<path opacity="0.3" d="M65.6719 165.812H63.7144C62.7565 165.812 61.9756 165.022 61.9756 164.042V147.747C61.9756 146.771 62.7513 145.977 63.7144 145.977H65.6719C66.6298 145.977 67.4107 146.766 67.4107 147.747V164.042C67.4107 165.017 66.6298 165.812 65.6719 165.812Z" fill="black"/>
<path opacity="0.3" d="M72.5179 94.3133C74.8034 92.9991 76.0268 91.0383 75.1678 87.8057C75.1678 87.8057 63.3761 82.6282 54.4686 80.5562C45.5662 78.4841 43.8118 80.5562 43.8118 80.5562L57.8941 100.646L72.5179 94.3133Z" fill="black"/>
<path d="M73.3194 94.8643C73.3194 94.8643 72.6582 94.4033 71.5441 93.6455C66.2912 90.0737 50.9438 79.8725 47.0549 79.7559C41.7135 79.5969 41.703 84.2868 41.7135 87.9116C41.7187 90.4818 43.7907 112.834 43.7907 112.834" fill="#C0DEF2"/>
<path d="M129.264 103.322C129.259 103.322 129.238 103.269 129.201 103.168C129.16 103.052 129.113 102.898 129.05 102.707C128.91 102.283 128.717 101.69 128.467 100.932C127.952 99.3952 127.192 97.1747 126.145 94.4721C125.094 91.7747 123.782 88.5792 121.986 85.2088C121.075 83.5342 120.065 81.7907 118.763 80.1903C118.118 79.3901 117.404 78.6111 116.556 77.9858C115.718 77.3658 114.728 76.857 113.661 76.9842C112.604 77.0743 111.605 77.5194 110.694 78.0335C109.777 78.5581 108.934 79.1834 108.138 79.83C106.545 81.1389 105.139 82.5591 103.843 83.9529C101.266 86.7562 99.1519 89.4642 97.4183 91.7694C95.6899 94.0799 94.352 95.9983 93.4357 97.3284C92.988 97.9855 92.6392 98.4996 92.3893 98.8652C92.2747 99.0295 92.1862 99.162 92.1134 99.2627C92.0509 99.3528 92.0144 99.3952 92.0144 99.3952C92.0092 99.3952 92.0353 99.3422 92.0925 99.2468C92.155 99.1408 92.2383 99.003 92.3424 98.8334C92.5663 98.4731 92.9047 97.9431 93.3472 97.2648C94.2374 95.9135 95.5494 93.9792 97.2621 91.6475C98.9801 89.3264 101.083 86.5919 103.66 83.7727C104.951 82.3683 106.368 80.9375 107.971 79.6127C108.778 78.9556 109.627 78.3249 110.564 77.7897C111.495 77.2598 112.516 76.7987 113.646 76.7033C114.203 76.6556 114.781 76.7245 115.296 76.9418C115.806 77.1538 116.28 77.4346 116.717 77.7579C117.592 78.4044 118.315 79.1993 118.966 80.0101C120.283 81.637 121.288 83.3964 122.199 85.0763C123.995 88.4679 125.292 91.6793 126.322 94.3926C127.343 97.1112 128.082 99.3422 128.561 100.89C128.8 101.663 128.983 102.267 129.097 102.681C129.149 102.877 129.191 103.031 129.222 103.152C129.259 103.269 129.269 103.322 129.264 103.322Z" fill="#263238"/>
<path d="M138.447 66.5553C138.452 66.55 138.494 66.5818 138.577 66.6506C138.671 66.7301 138.791 66.8255 138.942 66.9527C139.275 67.2336 139.738 67.631 140.327 68.1292C141.534 69.1731 143.263 70.6623 145.387 72.5011L145.725 72.7926L145.298 72.6707C142.68 71.9235 139.53 71.1657 135.985 70.6093C132.445 70.0475 128.514 69.6872 124.391 69.6448C114.562 69.4805 105.946 71.3618 100.735 72.8827L100.698 72.8933L100.667 72.8774C98.9594 71.8599 97.6058 71.0491 96.6635 70.4874C96.2158 70.2118 95.8618 69.9998 95.6067 69.8409C95.4973 69.772 95.4088 69.7137 95.3359 69.6713C95.2787 69.6342 95.2474 69.6077 95.2474 69.6077C95.2474 69.6024 95.2839 69.6183 95.3464 69.6501C95.4192 69.6925 95.513 69.7402 95.6275 69.7985C95.8878 69.9468 96.247 70.1482 96.7051 70.4026C97.6578 70.9537 99.027 71.738 100.75 72.729L100.688 72.7237C103.301 71.9394 106.742 71.0438 110.788 70.392C112.807 70.0528 114.978 69.8038 117.259 69.6024C119.539 69.4487 121.928 69.3215 124.391 69.3692C128.535 69.4116 132.476 69.7826 136.021 70.3602C139.572 70.9325 142.727 71.7168 145.345 72.4852L145.257 72.6548C143.154 70.7894 141.451 69.2791 140.254 68.2193C139.676 67.6999 139.228 67.2919 138.9 67.0004C138.754 66.8679 138.645 66.7619 138.551 66.6771C138.484 66.5977 138.442 66.5553 138.447 66.5553Z" fill="#263238"/>
<g opacity="0.2">
<path d="M109.101 136.199C108.981 136.957 108.216 137.524 107.128 137.906C106.035 138.287 104.624 138.499 103.072 138.515C101.521 138.536 100.1 138.356 99.0012 138.001C97.9079 137.641 97.1322 137.095 96.9917 136.342C96.8563 135.595 97.4186 134.779 98.5066 134.132C99.5895 133.481 101.203 133.02 103.01 132.998C104.816 132.977 106.441 133.406 107.539 134.032C108.643 134.646 109.215 135.452 109.101 136.199Z" fill="white"/>
</g>
<path d="M75.001 138.928C74.9958 138.934 74.949 138.902 74.8501 138.838C74.7407 138.764 74.6054 138.674 74.4284 138.552C74.241 138.425 74.0171 138.266 73.7516 138.086C73.4757 137.916 73.1425 137.736 72.778 137.529C71.3047 136.718 69.0297 135.759 66.0726 135.213C64.5941 134.959 62.9542 134.784 61.1894 134.747C59.4245 134.737 57.5347 134.853 55.5772 135.166C51.6675 135.781 47.4246 137.222 43.6606 139.887C42.7287 140.561 41.8437 141.281 41.0367 142.06C40.2402 142.85 39.4853 143.661 38.8294 144.535C37.5122 146.268 36.4918 148.144 35.789 150.02C34.4459 153.825 34.4719 157.603 35.1227 160.566C35.4506 162.055 35.9712 163.337 36.4866 164.429C37.0489 165.499 37.6216 166.368 38.1474 167.031C38.4181 167.354 38.6576 167.646 38.8658 167.9C39.0949 168.128 39.2875 168.324 39.4489 168.483C39.5947 168.637 39.7144 168.753 39.8029 168.848C39.881 168.933 39.9226 168.976 39.9174 168.981C39.9122 168.986 39.8706 168.949 39.7821 168.87C39.6884 168.785 39.5634 168.668 39.4072 168.525C39.2406 168.366 39.0376 168.181 38.8033 167.958C38.5847 167.709 38.34 167.423 38.0589 167.1C37.5122 166.443 36.9239 165.573 36.3461 164.498C35.8151 163.401 35.2736 162.113 34.93 160.608C34.248 157.619 34.196 153.798 35.5443 149.935C35.9088 148.981 36.32 148.022 36.8459 147.1C37.3456 146.162 37.9495 145.256 38.6107 144.376C39.2719 143.491 40.032 142.664 40.8389 141.869C41.6563 141.08 42.5517 140.354 43.494 139.67C47.2996 136.978 51.5894 135.531 55.5304 134.927C57.5087 134.62 59.4089 134.509 61.1842 134.53C62.9646 134.572 64.6097 134.763 66.0987 135.028C69.0765 135.606 71.3516 136.597 72.8197 137.445C73.1841 137.662 73.5121 137.847 73.7828 138.027C74.0431 138.218 74.2618 138.382 74.4492 138.52C74.6158 138.647 74.7511 138.748 74.8553 138.828C74.9594 138.886 75.001 138.923 75.001 138.928Z" fill="#263238"/>
<path d="M52.6724 147.837C52.6932 147.837 52.7088 148.139 52.7296 148.679C52.7557 149.273 52.7869 150.047 52.8233 150.979C52.9014 152.924 53.0576 155.606 53.1305 158.578C53.1461 159.32 53.1565 160.046 53.1513 160.751C53.1461 161.451 53.1253 162.14 53.0003 162.786C52.7817 164.079 52.0632 165.176 51.1574 165.621C50.2411 166.077 49.3561 165.812 48.9188 165.505C48.6897 165.346 48.5544 165.176 48.4763 165.054C48.4034 164.932 48.3722 164.858 48.3826 164.853C48.4086 164.832 48.5283 165.134 48.9813 165.409C49.4082 165.68 50.2463 165.886 51.0741 165.446C51.8967 165.012 52.563 163.984 52.7609 162.738C52.8702 162.118 52.891 161.445 52.891 160.751C52.891 160.052 52.8806 159.331 52.865 158.589C52.7921 155.627 52.6671 152.94 52.6359 150.99C52.6151 150.015 52.6151 149.23 52.6255 148.685C52.6359 148.139 52.6567 147.837 52.6724 147.837Z" fill="#263238"/>
<path d="M67.067 147.837C67.0878 147.837 67.1035 148.139 67.1243 148.679C67.1503 149.273 67.1815 150.047 67.218 150.979C67.2961 152.924 67.4523 155.606 67.5251 158.578C67.5408 159.32 67.5512 160.046 67.546 160.751C67.5408 161.451 67.5199 162.14 67.395 162.786C67.1763 164.079 66.4579 165.176 65.552 165.621C64.6358 166.077 63.7508 165.812 63.3134 165.505C63.0844 165.346 62.949 165.176 62.8709 165.054C62.798 164.932 62.7668 164.858 62.7772 164.853C62.8033 164.832 62.923 165.134 63.3759 165.409C63.8028 165.68 64.641 165.886 65.4687 165.446C66.2913 165.012 66.9577 163.984 67.1555 162.738C67.2648 162.118 67.2857 161.445 67.2857 160.751C67.2857 160.052 67.2753 159.331 67.2596 158.589C67.1867 155.627 67.0618 152.94 67.0306 150.99C67.0097 150.015 67.0097 149.23 67.0202 148.685C67.0306 148.139 67.0462 147.837 67.067 147.837Z" fill="#263238"/>
<path d="M84.9343 160.497C84.9447 160.502 84.9031 160.624 84.825 160.862C84.7365 161.095 84.6376 161.45 84.4397 161.885C84.0909 162.765 83.4714 163.999 82.5395 165.414C81.6128 166.829 80.3113 168.387 78.6818 169.908C77.8541 170.655 76.9534 171.403 75.9643 172.102C74.9699 172.796 73.8975 173.448 72.7573 174.031C70.4771 175.192 68.176 176.055 66.0051 176.522C63.8394 177.015 61.835 177.11 60.1691 177.121C58.498 177.11 57.1548 177.015 56.2229 176.951C55.7804 176.914 55.4264 176.887 55.1557 176.866C54.911 176.845 54.7808 176.829 54.786 176.819C54.786 176.808 54.9162 176.808 55.1609 176.813C55.4316 176.824 55.7908 176.834 56.2333 176.85C57.1652 176.882 58.5084 176.951 60.1743 176.935C61.835 176.903 63.8185 176.787 65.9582 176.283C68.1031 175.812 70.373 174.948 72.6428 173.793C73.7725 173.215 74.8346 172.574 75.8237 171.89C76.8024 171.201 77.7031 170.465 78.5256 169.728C80.1499 168.228 81.4514 166.702 82.3937 165.308C83.336 163.92 83.9764 162.712 84.3564 161.848C84.5699 161.424 84.6844 161.074 84.7885 160.852C84.8718 160.613 84.9291 160.497 84.9343 160.497Z" fill="#263238"/>
<path d="M52.3598 147.248C52.3337 147.259 52.2713 147.031 52.0005 146.724C51.7402 146.422 51.2248 146.067 50.5116 146.04C49.814 146.008 48.9394 146.326 48.3147 147.036C48.0023 147.386 47.768 147.837 47.6483 148.34C47.5233 148.843 47.4921 149.395 47.4921 149.962C47.5129 152.24 47.5181 154.307 47.5077 155.802C47.4973 156.506 47.4869 157.095 47.4817 157.572C47.4713 157.99 47.4557 158.223 47.4348 158.223C47.414 158.223 47.3984 157.99 47.3776 157.577C47.362 157.1 47.3411 156.512 47.3151 155.807C47.2787 154.312 47.237 152.251 47.2162 149.962C47.2162 149.389 47.2474 148.817 47.3828 148.276C47.5181 147.736 47.7784 147.243 48.122 146.867C48.8144 146.109 49.7515 145.786 50.5116 145.844C51.2821 145.902 51.8235 146.316 52.0682 146.655C52.1984 146.824 52.2661 146.978 52.3077 147.079C52.3546 147.19 52.3702 147.243 52.3598 147.248Z" fill="white"/>
<path d="M61.8973 148.473C61.9702 148.473 62.0327 151.265 62.0327 154.71C62.0327 158.155 61.9702 160.947 61.8973 160.947C61.8244 160.947 61.762 158.155 61.762 154.71C61.762 151.265 61.8192 148.473 61.8973 148.473Z" fill="white"/>
<path d="M57.5298 136.443C57.5298 136.454 57.4204 136.459 57.207 136.464C56.9988 136.475 56.6864 136.459 56.2907 136.485C55.4994 136.507 54.3489 136.597 52.9536 136.856C50.1788 137.349 46.3628 138.701 42.9945 141.493C39.6262 144.286 37.5489 147.816 36.5129 150.481C35.9819 151.822 35.6643 152.945 35.4821 153.735C35.378 154.127 35.3312 154.434 35.2791 154.641C35.2322 154.848 35.201 154.959 35.1958 154.954C35.1854 154.954 35.1958 154.842 35.227 154.63C35.2635 154.418 35.2947 154.106 35.3832 153.708C35.5342 152.913 35.8309 151.769 36.3411 150.407C37.3407 147.699 39.4179 144.106 42.8279 141.276C46.2378 138.452 50.1163 137.111 52.9224 136.66C54.3333 136.427 55.4942 136.369 56.2907 136.374C56.6916 136.364 56.9988 136.395 57.207 136.406C57.4204 136.422 57.5298 136.432 57.5298 136.443Z" fill="white"/>
<path d="M43.9157 109.443C43.9262 109.448 43.8897 109.549 43.822 109.745C43.7387 109.962 43.6294 110.243 43.4993 110.582C43.3535 110.943 43.1817 111.388 42.9995 111.912C42.8173 112.437 42.5882 113.025 42.3904 113.693C42.1769 114.355 41.9479 115.081 41.7396 115.876C41.5053 116.661 41.3179 117.519 41.1045 118.415C40.714 120.216 40.3704 122.214 40.1466 124.334C39.9383 126.454 39.8706 128.483 39.8863 130.328C39.9123 131.25 39.9279 132.124 39.9956 132.946C40.0372 133.767 40.1153 134.525 40.1934 135.219C40.2507 135.913 40.3548 136.538 40.4277 137.09C40.4954 137.641 40.5787 138.112 40.6463 138.494C40.7036 138.854 40.7557 139.151 40.7921 139.384C40.8233 139.586 40.8338 139.697 40.8234 139.697C40.8129 139.697 40.7869 139.596 40.7348 139.395C40.6828 139.167 40.6203 138.875 40.5422 138.515C40.4589 138.134 40.36 137.662 40.2767 137.116C40.1882 136.565 40.0737 135.945 40.0008 135.245C39.9123 134.551 39.8238 133.788 39.7717 132.967C39.6936 132.145 39.6728 131.266 39.6364 130.338C39.6051 128.483 39.6676 126.443 39.8758 124.313C40.0997 122.183 40.4537 120.174 40.8598 118.367C41.0837 117.466 41.2815 116.608 41.521 115.823C41.7396 115.028 41.9791 114.302 42.2082 113.64C42.4216 112.972 42.6611 112.389 42.8589 111.87C43.0515 111.351 43.239 110.911 43.4003 110.556C43.5513 110.222 43.6711 109.952 43.77 109.734C43.8585 109.538 43.9105 109.443 43.9157 109.443Z" fill="white"/>
<path d="M44.6913 81.886C44.7121 81.9019 44.4779 82.1722 44.1655 82.7286C43.8531 83.2851 43.4991 84.1436 43.2961 85.2723C43.0774 86.3958 43.0097 87.763 42.9733 89.2839C42.9317 90.8049 42.9264 92.4795 42.9681 94.2335C43.0514 97.747 43.3273 100.916 43.5928 103.205C43.7282 104.318 43.8427 105.23 43.926 105.913C43.9625 106.205 43.9937 106.449 44.0197 106.65C44.0353 106.82 44.0405 106.91 44.0353 106.91C44.0249 106.91 44.0041 106.825 43.9677 106.661C43.9312 106.464 43.8844 106.221 43.8271 105.929C43.7126 105.293 43.5616 104.371 43.4106 103.232C43.0982 100.948 42.7911 97.7682 42.7078 94.2441C42.6661 92.4848 42.6818 90.8049 42.7338 89.2786C42.7807 87.7577 42.8692 86.3693 43.1191 85.2352C43.3533 84.0959 43.7438 83.2215 44.0874 82.6756C44.2592 82.4001 44.4102 82.1987 44.5247 82.0715C44.6236 81.9443 44.6861 81.8807 44.6913 81.886Z" fill="white"/>
<path d="M95.3672 65.2833C95.3724 65.2939 95.2579 65.3416 95.034 65.421C94.7893 65.5111 94.4666 65.6277 94.0657 65.7708C93.1911 66.0782 91.9833 66.5021 90.4996 67.0161C87.4957 68.0813 83.3308 69.5545 78.9317 71.6478C74.5274 73.7357 70.8103 76.1628 68.3322 78.1872C67.0879 79.1941 66.13 80.0685 65.4845 80.6938C65.1565 81.0012 64.917 81.2555 64.7452 81.4145C64.5734 81.5788 64.4849 81.6636 64.4745 81.653C64.4693 81.6477 64.5474 81.5523 64.7036 81.3721C64.8649 81.1972 65.0888 80.9323 65.4116 80.6143C66.0363 79.9625 66.9786 79.0616 68.2124 78.0335C70.6697 75.9615 74.4024 73.492 78.8172 71.3987C83.2319 69.3002 87.4124 67.8481 90.4371 66.8307C91.952 66.3272 93.1807 65.9298 94.0345 65.6648C94.4405 65.5429 94.7685 65.4422 95.0184 65.368C95.2475 65.3045 95.3672 65.2727 95.3672 65.2833Z" fill="white"/>
<path d="M113.49 78.4258C113.495 78.4364 113.417 78.4999 113.255 78.6165C113.073 78.749 112.844 78.9133 112.563 79.1147C111.954 79.5386 111.09 80.1692 110.043 80.98C108.992 81.7855 107.773 82.7871 106.461 83.9424C105.155 85.1135 103.759 86.4437 102.364 87.9063C100.974 89.3795 99.7247 90.8527 98.621 92.22C97.533 93.5978 96.5959 94.875 95.8462 95.9772C95.0913 97.0742 94.5031 97.9751 94.1126 98.611C93.9252 98.9025 93.7742 99.1409 93.6493 99.3317C93.5399 99.496 93.4775 99.5808 93.4723 99.5755C93.4618 99.5702 93.5087 99.4748 93.6024 99.3052C93.7117 99.1091 93.8523 98.8601 94.0241 98.5527C94.3885 97.9009 94.956 96.9788 95.69 95.8659C96.4189 94.7478 97.3456 93.4547 98.4284 92.061C99.5217 90.6779 100.776 89.1941 102.166 87.7155C103.567 86.2423 104.972 84.9122 106.295 83.7516C107.622 82.6016 108.856 81.6107 109.929 80.8211C110.996 80.0315 111.881 79.422 112.506 79.0246C112.797 78.8391 113.037 78.6907 113.229 78.5688C113.396 78.4629 113.484 78.4152 113.49 78.4258Z" fill="white"/>
<path d="M193.725 115.293C193.757 115.277 194.006 115.781 194.34 116.629C194.673 117.477 195.079 118.669 195.412 120.02C195.75 121.372 195.954 122.617 196.058 123.523C196.162 124.429 196.177 124.996 196.141 124.996C196.099 125.002 196.021 124.445 195.865 123.55C195.714 122.654 195.48 121.425 195.147 120.084C194.813 118.743 194.439 117.551 194.157 116.692C193.876 115.834 193.689 115.304 193.725 115.293Z" fill="white"/>
<path d="M181.267 176.04C181.267 176.04 181.184 176.109 181.012 176.236C180.83 176.369 180.575 176.549 180.247 176.793C179.908 177.036 179.487 177.338 178.997 177.688C178.747 177.863 178.482 178.054 178.195 178.255C177.904 178.446 177.592 178.653 177.264 178.87C174.655 180.65 170.756 183.04 165.722 185.579C164.462 186.204 163.124 186.83 161.729 187.476C161.021 187.778 160.302 188.091 159.568 188.409C159.204 188.568 158.829 188.727 158.459 188.886C158.079 189.034 157.699 189.182 157.314 189.336C156.544 189.638 155.757 189.94 154.961 190.253C154.154 190.534 153.337 190.825 152.504 191.117C151.676 191.419 150.822 191.684 149.958 191.954C149.088 192.214 148.224 192.521 147.324 192.754C143.752 193.798 139.941 194.651 135.959 195.356C131.976 196.05 127.811 196.549 123.527 196.718C119.242 196.898 115.046 196.766 111.027 196.321C110.522 196.273 110.022 196.22 109.522 196.172C109.023 196.119 108.533 196.035 108.039 195.971C107.055 195.828 106.081 195.69 105.123 195.547C104.165 195.367 103.223 195.187 102.286 195.012C101.817 194.922 101.354 194.832 100.891 194.747C100.433 194.641 99.9745 194.535 99.5268 194.429C92.2748 192.781 85.9234 190.55 80.7902 188.223C75.6518 185.913 71.69 183.608 69.0766 181.838C67.7386 181 66.7807 180.227 66.1039 179.75C65.7759 179.506 65.5261 179.32 65.3438 179.188C65.172 179.061 65.0887 178.986 65.0887 178.986C65.0887 178.986 65.1825 179.045 65.3595 179.161C65.5417 179.289 65.802 179.469 66.1352 179.702C66.8224 180.168 67.7907 180.926 69.1338 181.747C71.7577 183.486 75.7247 185.764 80.8631 188.043C85.9911 190.338 92.3372 192.548 99.5736 194.18C100.027 194.286 100.48 194.386 100.938 194.492C101.401 194.577 101.864 194.667 102.328 194.757C103.26 194.932 104.207 195.107 105.16 195.287C106.118 195.425 107.091 195.563 108.07 195.706C108.559 195.77 109.049 195.854 109.548 195.907C110.043 195.955 110.543 196.003 111.048 196.056C115.056 196.501 119.242 196.628 123.511 196.448C127.78 196.278 131.94 195.785 135.912 195.097C139.884 194.402 143.69 193.549 147.251 192.516C148.146 192.283 149.016 191.98 149.88 191.721C150.744 191.456 151.598 191.196 152.426 190.894C153.253 190.603 154.076 190.322 154.878 190.041C155.674 189.734 156.455 189.432 157.226 189.135C157.611 188.986 157.991 188.838 158.371 188.69C158.746 188.531 159.115 188.372 159.48 188.218C160.214 187.905 160.932 187.598 161.64 187.296C163.035 186.655 164.373 186.04 165.633 185.42C170.668 182.908 174.577 180.544 177.201 178.796C177.534 178.584 177.847 178.382 178.138 178.192C178.425 177.995 178.695 177.805 178.945 177.635C179.445 177.291 179.867 176.999 180.21 176.761C180.549 176.533 180.809 176.353 180.991 176.231C181.173 176.093 181.267 176.04 181.267 176.04Z" fill="#263238"/>
<path d="M158.844 181.71L169.309 208.949H176.462L178.018 206.575L179.851 208.949H182.381L183.318 165.78L158.844 181.71Z" fill="#C0DEF2"/>
<path d="M93.1182 185.547L101.963 208.949H110.095L111.756 206.236L113.359 208.949H115.379C115.379 208.949 116.264 182.547 115.379 181.795C114.484 181.042 93.1182 185.547 93.1182 185.547Z" fill="#C0DEF2"/>
<path d="M196.427 133.242C196.432 133.242 196.432 133.295 196.422 133.396C196.412 133.512 196.401 133.666 196.386 133.852C196.349 134.27 196.292 134.853 196.224 135.6C196.188 135.982 196.146 136.401 196.099 136.862C196.042 137.323 195.948 137.816 195.865 138.351C195.678 139.416 195.527 140.645 195.188 141.965C195.037 142.627 194.876 143.327 194.709 144.048C194.537 144.774 194.293 145.505 194.074 146.273C193.658 147.821 193.043 149.421 192.434 151.112C191.101 154.456 189.394 158.027 187.233 161.567C185.031 165.081 182.605 168.197 180.221 170.862C178.987 172.155 177.836 173.411 176.644 174.461C176.056 174.996 175.515 175.536 174.947 176.008C174.38 176.474 173.833 176.919 173.307 177.349C172.282 178.228 171.261 178.901 170.397 179.532C169.96 179.839 169.559 180.141 169.179 180.391C168.788 180.629 168.434 180.852 168.112 181.048C167.482 181.429 166.987 181.737 166.633 181.949C166.472 182.044 166.347 182.118 166.248 182.176C166.159 182.224 166.112 182.251 166.112 182.245C166.112 182.24 166.154 182.208 166.237 182.15C166.336 182.086 166.456 182.002 166.612 181.896C166.961 181.668 167.445 181.35 168.06 180.947C168.377 180.74 168.726 180.518 169.111 180.269C169.486 180.009 169.882 179.707 170.314 179.394C171.168 178.753 172.177 178.075 173.187 177.184C173.703 176.755 174.244 176.305 174.812 175.833C175.374 175.361 175.91 174.816 176.493 174.28C177.675 173.226 178.815 171.97 180.039 170.677C182.402 168.011 184.818 164.906 187.01 161.403C189.16 157.879 190.872 154.323 192.21 151C192.825 149.315 193.449 147.731 193.871 146.189C194.095 145.42 194.345 144.694 194.522 143.973C194.694 143.253 194.86 142.564 195.016 141.901C195.365 140.587 195.532 139.368 195.73 138.308C195.818 137.778 195.922 137.286 195.985 136.825C196.037 136.369 196.089 135.945 196.131 135.569C196.219 134.827 196.292 134.249 196.344 133.83C196.37 133.645 196.391 133.497 196.406 133.38C196.412 133.295 196.422 133.242 196.427 133.242Z" fill="white"/>
<g opacity="0.2">
<path d="M185.109 110.264C182.735 104.276 177.555 98.6215 171.558 96.1467C166.685 94.1329 161.265 97.6835 160.989 103.031C160.989 103.068 160.984 103.105 160.984 103.147C160.797 106.984 162.28 110.709 164.092 114.08C165.904 117.45 168.08 120.635 169.491 124.201C171.813 130.068 171.891 136.825 169.699 142.744C168.304 146.517 165.987 150.534 168.085 154.297C169.46 156.766 172.224 157.98 174.999 157.72C180.314 157.227 183.073 152.341 185.593 147.906C187.618 144.334 189.289 138.78 189.383 134.588C189.586 125.913 188.295 118.309 185.109 110.264Z" fill="white"/>
</g>
<g opacity="0.2">
<path d="M165.195 94.8167C165.331 94.8167 165.461 94.8325 165.596 94.8378C165.607 94.8325 165.612 94.8326 165.622 94.8273L165.195 94.8167Z" fill="white"/>
</g>
<path d="M104.535 127.19C104.342 127.243 104.035 126.454 103.52 125.309C103.249 124.747 102.91 124.111 102.395 123.576C101.88 123.036 101.187 122.617 100.438 122.601C99.6775 122.585 98.9122 122.935 98.3604 123.406C97.8033 123.873 97.4129 124.482 97.137 125.017C96.5903 126.109 96.3821 126.92 96.179 126.888C96.0177 126.867 95.8667 126.014 96.2467 124.652C96.4497 123.979 96.8142 123.173 97.5222 122.463C98.2146 121.774 99.2454 121.197 100.474 121.218C101.083 121.239 101.671 121.419 102.145 121.705C102.629 121.986 103.015 122.347 103.327 122.728C103.952 123.491 104.248 124.318 104.425 124.98C104.743 126.326 104.701 127.148 104.535 127.19Z" fill="#263238"/>
<path d="M64.9951 123.952C64.9951 126.056 63.3187 127.763 61.2519 127.763C59.1851 127.763 57.5088 126.056 57.5088 123.952C57.5088 121.848 59.1851 120.142 61.2519 120.142C63.3187 120.147 64.9951 121.848 64.9951 123.952Z" fill="#263238"/>
<path d="M183.881 92.0873C183.875 92.0926 183.787 91.9919 183.62 91.8012C183.443 91.5839 183.209 91.303 182.923 90.948C182.626 90.5717 182.256 90.116 181.809 89.6019C181.366 89.0879 180.877 88.4838 180.294 87.8584C179.721 87.2225 179.096 86.5283 178.393 85.8076C177.706 85.071 176.931 84.3291 176.129 83.5395C174.489 81.9868 172.63 80.344 170.59 78.733C168.538 77.1326 166.508 75.7176 164.618 74.4988C163.66 73.9053 162.76 73.3329 161.89 72.8401C161.031 72.326 160.209 71.8862 159.459 71.4887C158.715 71.0754 158.022 70.7468 157.418 70.4395C156.82 70.1321 156.294 69.883 155.862 69.687C155.45 69.4909 155.122 69.3372 154.872 69.2153C154.649 69.104 154.529 69.0404 154.534 69.0351C154.539 69.0245 154.659 69.0722 154.893 69.1676C155.148 69.2736 155.487 69.4167 155.903 69.5916C156.341 69.777 156.877 70.0102 157.486 70.307C158.095 70.5985 158.798 70.9164 159.548 71.3192C160.308 71.7113 161.135 72.1406 162 72.644C162.879 73.1262 163.79 73.6933 164.754 74.2815C166.659 75.4951 168.705 76.9047 170.761 78.5157C172.807 80.132 174.671 81.7907 176.306 83.3593C177.108 84.1595 177.883 84.9067 178.56 85.6539C179.258 86.3799 179.877 87.0847 180.445 87.7313C181.017 88.3672 181.496 88.9819 181.934 89.5065C182.371 90.0312 182.725 90.4975 183.011 90.8844C183.287 91.25 183.506 91.5468 183.672 91.7694C183.813 91.9708 183.891 92.082 183.881 92.0873Z" fill="white"/>
<path d="M144.523 74.9651C144.518 74.9757 144.382 74.9333 144.117 74.8432C143.831 74.7425 143.451 74.61 142.972 74.4404C142.477 74.2603 141.873 74.043 141.155 73.831C140.441 73.6137 139.64 73.3329 138.729 73.105C138.276 72.9831 137.802 72.8559 137.307 72.7234C136.813 72.591 136.287 72.4903 135.751 72.3631C134.678 72.1034 133.517 71.9126 132.299 71.6901C129.852 71.3085 127.14 71.0118 124.282 70.9164C121.424 70.8422 118.701 70.98 116.233 71.2184C115.005 71.3668 113.833 71.4887 112.745 71.6901C112.204 71.7855 111.673 71.8544 111.173 71.955C110.673 72.061 110.189 72.1564 109.731 72.2518C108.809 72.4267 107.992 72.6546 107.268 72.8347C106.545 73.0043 105.925 73.1845 105.42 73.3382C104.936 73.476 104.546 73.5872 104.259 73.672C103.994 73.7462 103.848 73.778 103.848 73.7727C103.843 73.7621 103.983 73.7144 104.244 73.619C104.53 73.5237 104.915 73.3965 105.394 73.2375C105.894 73.0679 106.508 72.8718 107.232 72.6917C107.956 72.5009 108.773 72.2571 109.694 72.0716C110.153 71.9709 110.637 71.865 111.137 71.7537C111.636 71.6477 112.167 71.5682 112.714 71.4728C113.802 71.2608 114.979 71.1336 116.212 70.9747C118.685 70.7203 121.424 70.5772 124.297 70.6514C127.166 70.7468 129.889 71.0489 132.346 71.4463C133.569 71.6742 134.736 71.8756 135.808 72.1458C136.344 72.2783 136.87 72.3843 137.365 72.5221C137.859 72.6599 138.333 72.7976 138.786 72.9248C139.697 73.1633 140.499 73.4601 141.207 73.6879C141.92 73.9158 142.524 74.1437 143.008 74.3451C143.477 74.5305 143.851 74.6842 144.132 74.7955C144.393 74.8962 144.528 74.9545 144.523 74.9651Z" fill="white"/>
<path d="M203.847 176.787H167.942V183.279H203.847V176.787Z" fill="#FF725E"/>
<path d="M171.462 183.322C171.377 183.322 171.313 181.88 171.313 180.105C171.313 178.324 171.382 176.888 171.462 176.888C171.542 176.888 171.611 178.33 171.611 180.105C171.611 181.88 171.542 183.322 171.462 183.322Z" fill="#263238"/>
<path d="M169.497 183.322C169.412 183.322 169.348 181.88 169.348 180.105C169.348 178.324 169.417 176.888 169.497 176.888C169.577 176.888 169.646 178.33 169.646 180.105C169.646 181.88 169.577 183.322 169.497 183.322Z" fill="#263238"/>
<path d="M175.775 183.322C175.695 183.322 175.626 181.88 175.626 180.105C175.626 178.324 175.695 176.888 175.775 176.888C175.855 176.888 175.924 178.33 175.924 180.105C175.924 181.88 175.86 183.322 175.775 183.322Z" fill="#263238"/>
<path d="M173.81 183.322C173.725 183.322 173.661 181.88 173.661 180.105C173.661 178.324 173.73 176.888 173.81 176.888C173.89 176.888 173.959 178.33 173.959 180.105C173.959 181.88 173.895 183.322 173.81 183.322Z" fill="#263238"/>
<path d="M180.088 183.322C180.008 183.322 179.939 181.88 179.939 180.105C179.939 178.324 180.008 176.888 180.088 176.888C180.173 176.888 180.237 178.33 180.237 180.105C180.237 181.88 180.173 183.322 180.088 183.322Z" fill="#263238"/>
<path d="M178.123 183.322C178.038 183.322 177.974 181.88 177.974 180.105C177.974 178.324 178.043 176.888 178.123 176.888C178.203 176.888 178.272 178.33 178.272 180.105C178.277 181.88 178.208 183.322 178.123 183.322Z" fill="#263238"/>
<path d="M184.406 183.322C184.326 183.322 184.257 181.88 184.257 180.105C184.257 178.324 184.326 176.888 184.406 176.888C184.486 176.888 184.555 178.33 184.555 180.105C184.555 181.88 184.486 183.322 184.406 183.322Z" fill="#263238"/>
<path d="M182.442 183.322C182.356 183.322 182.292 181.88 182.292 180.105C182.292 178.324 182.362 176.888 182.442 176.888C182.521 176.888 182.591 178.33 182.591 180.105C182.591 181.88 182.521 183.322 182.442 183.322Z" fill="#263238"/>
<path d="M188.719 183.322C188.634 183.322 188.57 181.88 188.57 180.105C188.57 178.324 188.639 176.888 188.719 176.888C188.799 176.888 188.868 178.33 188.868 180.105C188.868 181.88 188.799 183.322 188.719 183.322Z" fill="#263238"/>
<path d="M186.754 183.322C186.669 183.322 186.605 181.88 186.605 180.105C186.605 178.324 186.675 176.888 186.754 176.888C186.834 176.888 186.904 178.33 186.904 180.105C186.904 181.88 186.834 183.322 186.754 183.322Z" fill="#263238"/>
<path d="M193.032 183.322C192.947 183.322 192.883 181.88 192.883 180.105C192.883 178.324 192.953 176.888 193.032 176.888C193.112 176.888 193.181 178.33 193.181 180.105C193.181 181.88 193.118 183.322 193.032 183.322Z" fill="#263238"/>
<path d="M191.068 183.322C190.982 183.322 190.919 181.88 190.919 180.105C190.919 178.324 190.988 176.888 191.068 176.888C191.148 176.888 191.217 178.33 191.217 180.105C191.217 181.88 191.153 183.322 191.068 183.322Z" fill="#263238"/>
<path d="M197.345 183.322C197.26 183.322 197.196 181.88 197.196 180.105C197.196 178.324 197.265 176.888 197.345 176.888C197.425 176.888 197.494 178.33 197.494 180.105C197.494 181.88 197.43 183.322 197.345 183.322Z" fill="#263238"/>
<path d="M195.386 183.322C195.3 183.322 195.237 181.88 195.237 180.105C195.237 178.324 195.306 176.888 195.386 176.888C195.466 176.888 195.535 178.33 195.535 180.105C195.535 181.88 195.466 183.322 195.386 183.322Z" fill="#263238"/>
<path d="M201.664 183.322C201.578 183.322 201.515 181.88 201.515 180.105C201.515 178.324 201.584 176.888 201.664 176.888C201.743 176.888 201.813 178.33 201.813 180.105C201.813 181.88 201.743 183.322 201.664 183.322Z" fill="#263238"/>
<path d="M199.699 183.322C199.614 183.322 199.55 181.88 199.55 180.105C199.55 178.324 199.619 176.888 199.699 176.888C199.779 176.888 199.848 178.33 199.848 180.105C199.848 181.88 199.779 183.322 199.699 183.322Z" fill="#263238"/>
<path d="M203.847 176.787C203.847 176.867 195.769 176.936 185.812 176.936C175.85 176.936 167.772 176.867 167.772 176.787C167.772 176.708 175.844 176.639 185.812 176.639C195.775 176.639 203.847 176.703 203.847 176.787Z" fill="#263238"/>
<path d="M201.499 183.38H165.594V189.871H201.499V183.38Z" fill="#FF725E"/>
<path d="M169.109 189.914C169.029 189.914 168.959 188.472 168.959 186.697C168.959 184.917 169.029 183.48 169.109 183.48C169.188 183.48 169.258 184.922 169.258 186.697C169.258 188.472 169.194 189.914 169.109 189.914Z" fill="#263238"/>
<path d="M167.149 189.914C167.064 189.914 167 188.472 167 186.697C167 184.917 167.069 183.48 167.149 183.48C167.229 183.48 167.298 184.922 167.298 186.697C167.298 188.472 167.229 189.914 167.149 189.914Z" fill="#263238"/>
<path d="M173.427 189.914C173.347 189.914 173.278 188.472 173.278 186.697C173.278 184.917 173.347 183.48 173.427 183.48C173.512 183.48 173.576 184.922 173.576 186.697C173.576 188.472 173.507 189.914 173.427 189.914Z" fill="#263238"/>
<path d="M171.462 189.914C171.377 189.914 171.313 188.472 171.313 186.697C171.313 184.917 171.382 183.48 171.462 183.48C171.542 183.48 171.611 184.922 171.611 186.697C171.611 188.472 171.542 189.914 171.462 189.914Z" fill="#263238"/>
<path d="M177.74 189.914C177.66 189.914 177.591 188.472 177.591 186.697C177.591 184.917 177.66 183.48 177.74 183.48C177.82 183.48 177.889 184.922 177.889 186.697C177.889 188.472 177.82 189.914 177.74 189.914Z" fill="#263238"/>
<path d="M175.775 189.914C175.695 189.914 175.626 188.472 175.626 186.697C175.626 184.917 175.695 183.48 175.775 183.48C175.855 183.48 175.924 184.922 175.924 186.697C175.924 188.472 175.86 189.914 175.775 189.914Z" fill="#263238"/>
<path d="M182.053 189.914C181.973 189.914 181.904 188.472 181.904 186.697C181.904 184.917 181.973 183.48 182.053 183.48C182.133 183.48 182.202 184.922 182.202 186.697C182.202 188.472 182.138 189.914 182.053 189.914Z" fill="#263238"/>
<path d="M180.088 189.914C180.008 189.914 179.939 188.472 179.939 186.697C179.939 184.917 180.008 183.48 180.088 183.48C180.173 183.48 180.237 184.922 180.237 186.697C180.237 188.472 180.173 189.914 180.088 189.914Z" fill="#263238"/>
<path d="M186.366 189.914C186.281 189.914 186.217 188.472 186.217 186.697C186.217 184.917 186.286 183.48 186.366 183.48C186.446 183.48 186.515 184.922 186.515 186.697C186.52 188.472 186.451 189.914 186.366 189.914Z" fill="#263238"/>
<path d="M184.406 189.914C184.327 189.914 184.257 188.472 184.257 186.697C184.257 184.917 184.327 183.48 184.406 183.48C184.486 183.48 184.556 184.922 184.556 186.697C184.556 188.472 184.486 189.914 184.406 189.914Z" fill="#263238"/>
<path d="M190.684 189.914C190.604 189.914 190.535 188.472 190.535 186.697C190.535 184.917 190.604 183.48 190.684 183.48C190.764 183.48 190.833 184.922 190.833 186.697C190.833 188.472 190.764 189.914 190.684 189.914Z" fill="#263238"/>
<path d="M188.72 189.914C188.634 189.914 188.57 188.472 188.57 186.697C188.57 184.917 188.64 183.48 188.72 183.48C188.799 183.48 188.869 184.922 188.869 186.697C188.869 188.472 188.799 189.914 188.72 189.914Z" fill="#263238"/>
<path d="M194.997 189.914C194.917 189.914 194.848 188.472 194.848 186.697C194.848 184.917 194.917 183.48 194.997 183.48C195.077 183.48 195.146 184.922 195.146 186.697C195.146 188.472 195.077 189.914 194.997 189.914Z" fill="#263238"/>
<path d="M193.032 189.914C192.947 189.914 192.883 188.472 192.883 186.697C192.883 184.917 192.953 183.48 193.032 183.48C193.112 183.48 193.181 184.922 193.181 186.697C193.181 188.472 193.118 189.914 193.032 189.914Z" fill="#263238"/>
<path d="M199.31 189.914C199.23 189.914 199.161 188.472 199.161 186.697C199.161 184.917 199.23 183.48 199.31 183.48C199.39 183.48 199.459 184.922 199.459 186.697C199.459 188.472 199.395 189.914 199.31 189.914Z" fill="#263238"/>
<path d="M197.345 189.914C197.26 189.914 197.196 188.472 197.196 186.697C197.196 184.917 197.265 183.48 197.345 183.48C197.425 183.48 197.494 184.922 197.494 186.697C197.494 188.472 197.43 189.914 197.345 189.914Z" fill="#263238"/>
<path d="M201.499 183.38C201.499 183.464 193.421 183.528 183.464 183.528C173.501 183.528 165.424 183.459 165.424 183.38C165.424 183.3 173.496 183.231 183.464 183.231C193.421 183.226 201.499 183.295 201.499 183.38Z" fill="#263238"/>
<path d="M204.433 189.914H168.528V196.406H204.433V189.914Z" fill="#FF725E"/>
<path d="M172.043 196.448C171.963 196.448 171.894 195.007 171.894 193.231C171.894 191.451 171.963 190.015 172.043 190.015C172.123 190.015 172.192 191.456 172.192 193.231C172.197 195.007 172.128 196.448 172.043 196.448Z" fill="#263238"/>
<path d="M170.083 196.448C170.003 196.448 169.934 195.007 169.934 193.231C169.934 191.451 170.003 190.015 170.083 190.015C170.163 190.015 170.232 191.456 170.232 193.231C170.232 195.007 170.163 196.448 170.083 196.448Z" fill="#263238"/>
<path d="M176.361 196.448C176.281 196.448 176.212 195.007 176.212 193.231C176.212 191.451 176.281 190.015 176.361 190.015C176.441 190.015 176.51 191.456 176.51 193.231C176.51 195.007 176.441 196.448 176.361 196.448Z" fill="#263238"/>
<path d="M174.396 196.448C174.316 196.448 174.247 195.007 174.247 193.231C174.247 191.451 174.316 190.015 174.396 190.015C174.476 190.015 174.545 191.456 174.545 193.231C174.545 195.007 174.476 196.448 174.396 196.448Z" fill="#263238"/>
<path d="M180.674 196.448C180.594 196.448 180.525 195.007 180.525 193.231C180.525 191.451 180.594 190.015 180.674 190.015C180.754 190.015 180.823 191.456 180.823 193.231C180.823 195.007 180.754 196.448 180.674 196.448Z" fill="#263238"/>
<path d="M178.709 196.448C178.629 196.448 178.56 195.007 178.56 193.231C178.56 191.451 178.629 190.015 178.709 190.015C178.794 190.015 178.858 191.456 178.858 193.231C178.858 195.007 178.794 196.448 178.709 196.448Z" fill="#263238"/>
<path d="M184.987 196.448C184.907 196.448 184.838 195.007 184.838 193.231C184.838 191.451 184.907 190.015 184.987 190.015C185.072 190.015 185.136 191.456 185.136 193.231C185.136 195.007 185.072 196.448 184.987 196.448Z" fill="#263238"/>
<path d="M183.022 196.448C182.942 196.448 182.873 195.007 182.873 193.231C182.873 191.451 182.942 190.015 183.022 190.015C183.102 190.015 183.171 191.456 183.171 193.231C183.171 195.007 183.107 196.448 183.022 196.448Z" fill="#263238"/>
<path d="M189.3 196.448C189.22 196.448 189.151 195.007 189.151 193.231C189.151 191.451 189.22 190.015 189.3 190.015C189.38 190.015 189.449 191.456 189.449 193.231C189.454 195.007 189.385 196.448 189.3 196.448Z" fill="#263238"/>
<path d="M187.34 196.448C187.261 196.448 187.191 195.007 187.191 193.231C187.191 191.451 187.261 190.015 187.34 190.015C187.42 190.015 187.49 191.456 187.49 193.231C187.49 195.007 187.42 196.448 187.34 196.448Z" fill="#263238"/>
<path d="M193.618 196.448C193.538 196.448 193.469 195.007 193.469 193.231C193.469 191.451 193.538 190.015 193.618 190.015C193.698 190.015 193.767 191.456 193.767 193.231C193.767 195.007 193.698 196.448 193.618 196.448Z" fill="#263238"/>
<path d="M191.653 196.448C191.568 196.448 191.504 195.007 191.504 193.231C191.504 191.451 191.573 190.015 191.653 190.015C191.733 190.015 191.802 191.456 191.802 193.231C191.802 195.007 191.733 196.448 191.653 196.448Z" fill="#263238"/>
<path d="M197.931 196.448C197.846 196.448 197.782 195.007 197.782 193.231C197.782 191.451 197.851 190.015 197.931 190.015C198.011 190.015 198.08 191.456 198.08 193.231C198.08 195.007 198.016 196.448 197.931 196.448Z" fill="#263238"/>
<path d="M195.966 196.448C195.881 196.448 195.817 195.007 195.817 193.231C195.817 191.451 195.886 190.015 195.966 190.015C196.046 190.015 196.115 191.456 196.115 193.231C196.115 195.007 196.051 196.448 195.966 196.448Z" fill="#263238"/>
<path d="M202.244 196.448C202.164 196.448 202.095 195.007 202.095 193.231C202.095 191.451 202.164 190.015 202.244 190.015C202.324 190.015 202.393 191.456 202.393 193.231C202.393 195.007 202.329 196.448 202.244 196.448Z" fill="#263238"/>
<path d="M200.279 196.448C200.194 196.448 200.13 195.007 200.13 193.231C200.13 191.451 200.199 190.015 200.279 190.015C200.359 190.015 200.428 191.456 200.428 193.231C200.428 195.007 200.364 196.448 200.279 196.448Z" fill="#263238"/>
<path d="M204.432 189.914C204.432 189.999 196.339 190.062 186.355 190.062C176.366 190.062 168.273 189.993 168.273 189.914C168.273 189.834 176.366 189.765 186.355 189.765C196.339 189.765 204.432 189.829 204.432 189.914Z" fill="#263238"/>
<path d="M201.616 196.347H165.712V202.839H201.616V196.347Z" fill="#FF725E"/>
<path d="M169.231 202.881C169.151 202.881 169.082 201.44 169.082 199.664C169.082 197.884 169.151 196.448 169.231 196.448C169.311 196.448 169.38 197.889 169.38 199.664C169.38 201.44 169.311 202.881 169.231 202.881Z" fill="#263238"/>
<path d="M167.266 202.881C167.187 202.881 167.117 201.44 167.117 199.664C167.117 197.884 167.187 196.448 167.266 196.448C167.346 196.448 167.415 197.889 167.415 199.664C167.415 201.44 167.352 202.881 167.266 202.881Z" fill="#263238"/>
<path d="M173.544 202.881C173.464 202.881 173.395 201.44 173.395 199.664C173.395 197.884 173.464 196.448 173.544 196.448C173.624 196.448 173.693 197.889 173.693 199.664C173.693 201.44 173.63 202.881 173.544 202.881Z" fill="#263238"/>
<path d="M171.579 202.881C171.499 202.881 171.43 201.44 171.43 199.664C171.43 197.884 171.499 196.448 171.579 196.448C171.664 196.448 171.728 197.889 171.728 199.664C171.728 201.44 171.664 202.881 171.579 202.881Z" fill="#263238"/>
<path d="M177.857 202.881C177.772 202.881 177.708 201.44 177.708 199.664C177.708 197.884 177.777 196.448 177.857 196.448C177.937 196.448 178.006 197.889 178.006 199.664C178.006 201.44 177.942 202.881 177.857 202.881Z" fill="#263238"/>
<path d="M175.898 202.881C175.818 202.881 175.749 201.44 175.749 199.664C175.749 197.884 175.818 196.448 175.898 196.448C175.977 196.448 176.047 197.889 176.047 199.664C176.047 201.44 175.977 202.881 175.898 202.881Z" fill="#263238"/>
<path d="M182.176 202.881C182.096 202.881 182.026 201.44 182.026 199.664C182.026 197.884 182.096 196.448 182.176 196.448C182.255 196.448 182.325 197.889 182.325 199.664C182.325 201.44 182.255 202.881 182.176 202.881Z" fill="#263238"/>
<path d="M180.211 202.881C180.131 202.881 180.062 201.44 180.062 199.664C180.062 197.884 180.131 196.448 180.211 196.448C180.291 196.448 180.36 197.889 180.36 199.664C180.36 201.44 180.291 202.881 180.211 202.881Z" fill="#263238"/>
<path d="M186.488 202.881C186.409 202.881 186.339 201.44 186.339 199.664C186.339 197.884 186.409 196.448 186.488 196.448C186.568 196.448 186.638 197.889 186.638 199.664C186.638 201.44 186.568 202.881 186.488 202.881Z" fill="#263238"/>
<path d="M184.524 202.881C184.438 202.881 184.375 201.44 184.375 199.664C184.375 197.884 184.444 196.448 184.524 196.448C184.603 196.448 184.673 197.889 184.673 199.664C184.673 201.44 184.609 202.881 184.524 202.881Z" fill="#263238"/>
<path d="M190.802 202.881C190.722 202.881 190.652 201.44 190.652 199.664C190.652 197.884 190.722 196.448 190.802 196.448C190.881 196.448 190.951 197.889 190.951 199.664C190.951 201.44 190.887 202.881 190.802 202.881Z" fill="#263238"/>
<path d="M188.837 202.881C188.757 202.881 188.688 201.44 188.688 199.664C188.688 197.884 188.757 196.448 188.837 196.448C188.917 196.448 188.986 197.889 188.986 199.664C188.986 201.44 188.922 202.881 188.837 202.881Z" fill="#263238"/>
<path d="M195.114 202.881C195.035 202.881 194.965 201.44 194.965 199.664C194.965 197.884 195.035 196.448 195.114 196.448C195.2 196.448 195.264 197.889 195.264 199.664C195.264 201.44 195.2 202.881 195.114 202.881Z" fill="#263238"/>
<path d="M193.155 202.881C193.075 202.881 193.006 201.44 193.006 199.664C193.006 197.884 193.075 196.448 193.155 196.448C193.235 196.448 193.304 197.889 193.304 199.664C193.304 201.44 193.235 202.881 193.155 202.881Z" fill="#263238"/>
<path d="M199.433 202.881C199.353 202.881 199.284 201.44 199.284 199.664C199.284 197.884 199.353 196.448 199.433 196.448C199.513 196.448 199.582 197.889 199.582 199.664C199.582 201.44 199.513 202.881 199.433 202.881Z" fill="#263238"/>
<path d="M197.468 202.881C197.388 202.881 197.319 201.44 197.319 199.664C197.319 197.884 197.388 196.448 197.468 196.448C197.548 196.448 197.617 197.889 197.617 199.664C197.617 201.44 197.548 202.881 197.468 202.881Z" fill="#263238"/>
<path d="M201.616 196.347C201.616 196.432 193.538 196.495 183.581 196.495C173.619 196.495 165.541 196.427 165.541 196.347C165.541 196.268 173.613 196.199 183.581 196.199C193.544 196.199 201.616 196.268 201.616 196.347Z" fill="#263238"/>
<path d="M205.215 202.934H169.311V209.426H205.215V202.934Z" fill="#FF725E"/>
<path d="M172.831 209.468C172.745 209.468 172.682 208.027 172.682 206.252C172.682 204.471 172.751 203.035 172.831 203.035C172.91 203.035 172.98 204.476 172.98 206.252C172.98 208.027 172.91 209.468 172.831 209.468Z" fill="#263238"/>
<path d="M170.866 209.468C170.781 209.468 170.717 208.027 170.717 206.252C170.717 204.471 170.786 203.035 170.866 203.035C170.946 203.035 171.015 204.476 171.015 206.252C171.015 208.027 170.946 209.468 170.866 209.468Z" fill="#263238"/>
<path d="M177.144 209.468C177.059 209.468 176.995 208.027 176.995 206.252C176.995 204.471 177.064 203.035 177.144 203.035C177.224 203.035 177.293 204.476 177.293 206.252C177.293 208.027 177.224 209.468 177.144 209.468Z" fill="#263238"/>
<path d="M175.179 209.468C175.094 209.468 175.03 208.027 175.03 206.252C175.03 204.471 175.099 203.035 175.179 203.035C175.259 203.035 175.328 204.476 175.328 206.252C175.328 208.027 175.264 209.468 175.179 209.468Z" fill="#263238"/>
<path d="M181.456 209.468C181.371 209.468 181.307 208.027 181.307 206.252C181.307 204.471 181.377 203.035 181.456 203.035C181.536 203.035 181.606 204.476 181.606 206.252C181.606 208.027 181.542 209.468 181.456 209.468Z" fill="#263238"/>
<path d="M179.492 209.468C179.407 209.468 179.343 208.027 179.343 206.252C179.343 204.471 179.412 203.035 179.492 203.035C179.572 203.035 179.641 204.476 179.641 206.252C179.641 208.027 179.577 209.468 179.492 209.468Z" fill="#263238"/>
<path d="M185.77 209.468C185.684 209.468 185.62 208.027 185.62 206.252C185.62 204.471 185.69 203.035 185.77 203.035C185.849 203.035 185.919 204.476 185.919 206.252C185.924 208.027 185.855 209.468 185.77 209.468Z" fill="#263238"/>
<path d="M183.81 209.468C183.73 209.468 183.661 208.027 183.661 206.252C183.661 204.471 183.73 203.035 183.81 203.035C183.89 203.035 183.959 204.476 183.959 206.252C183.959 208.027 183.89 209.468 183.81 209.468Z" fill="#263238"/>
<path d="M190.088 209.468C190.003 209.468 189.939 208.027 189.939 206.252C189.939 204.471 190.008 203.035 190.088 203.035C190.168 203.035 190.237 204.476 190.237 206.252C190.237 208.027 190.168 209.468 190.088 209.468Z" fill="#263238"/>
<path d="M188.123 209.468C188.038 209.468 187.974 208.027 187.974 206.252C187.974 204.471 188.043 203.035 188.123 203.035C188.203 203.035 188.272 204.476 188.272 206.252C188.272 208.027 188.203 209.468 188.123 209.468Z" fill="#263238"/>
<path d="M194.401 209.468C194.316 209.468 194.252 208.027 194.252 206.252C194.252 204.471 194.321 203.035 194.401 203.035C194.481 203.035 194.55 204.476 194.55 206.252C194.55 208.027 194.481 209.468 194.401 209.468Z" fill="#263238"/>
<path d="M192.436 209.468C192.356 209.468 192.287 208.027 192.287 206.252C192.287 204.471 192.356 203.035 192.436 203.035C192.516 203.035 192.585 204.476 192.585 206.252C192.585 208.027 192.521 209.468 192.436 209.468Z" fill="#263238"/>
<path d="M198.714 209.468C198.629 209.468 198.565 208.027 198.565 206.252C198.565 204.471 198.634 203.035 198.714 203.035C198.794 203.035 198.863 204.476 198.863 206.252C198.863 208.027 198.799 209.468 198.714 209.468Z" fill="#263238"/>
<path d="M196.749 209.468C196.664 209.468 196.6 208.027 196.6 206.252C196.6 204.471 196.669 203.035 196.749 203.035C196.829 203.035 196.898 204.476 196.898 206.252C196.898 208.027 196.834 209.468 196.749 209.468Z" fill="#263238"/>
<path d="M203.027 209.468C202.942 209.468 202.878 208.027 202.878 206.252C202.878 204.471 202.947 203.035 203.027 203.035C203.107 203.035 203.176 204.476 203.176 206.252C203.181 208.027 203.112 209.468 203.027 209.468Z" fill="#263238"/>
<path d="M201.067 209.468C200.988 209.468 200.918 208.027 200.918 206.252C200.918 204.471 200.988 203.035 201.067 203.035C201.147 203.035 201.217 204.476 201.217 206.252C201.217 208.027 201.147 209.468 201.067 209.468Z" fill="#263238"/>
<path d="M205.215 202.934C205.215 203.019 197.138 203.083 187.181 203.083C177.218 203.083 169.141 203.014 169.141 202.934C169.141 202.855 177.213 202.786 187.181 202.786C197.143 202.781 205.215 202.85 205.215 202.934Z" fill="#263238"/>
<g opacity="0.3">
<path d="M168.528 189.914C173.89 191.228 179.604 191.477 185.115 191.117C190.626 190.751 196.19 189.945 201.712 190.014L168.528 189.914Z" fill="black"/>
</g>
<g opacity="0.3">
<path d="M168.848 183.454C174.209 184.768 179.923 185.017 185.434 184.657C190.945 184.291 196.509 183.486 202.031 183.555L168.848 183.454Z" fill="black"/>
</g>
<g opacity="0.3">
<path d="M170.589 196.416C175.951 197.73 181.664 197.979 187.175 197.619C192.686 197.253 198.25 196.448 203.772 196.517L170.589 196.416Z" fill="black"/>
</g>
<g opacity="0.3">
<path d="M169.183 202.892C174.545 204.206 180.258 204.455 185.769 204.095C191.28 203.729 196.845 202.924 202.366 202.993L169.183 202.892Z" fill="black"/>
</g>
<path d="M168.603 181.223C168.518 181.223 168.454 180.428 168.454 179.448C168.454 178.467 168.523 177.672 168.603 177.672C168.683 177.672 168.752 178.467 168.752 179.448C168.752 180.428 168.683 181.223 168.603 181.223Z" fill="white"/>
<path d="M166.334 188.16C166.254 188.16 166.185 187.307 166.185 186.252C166.185 185.197 166.254 184.344 166.334 184.344C166.414 184.344 166.483 185.197 166.483 186.252C166.489 187.307 166.419 188.16 166.334 188.16Z" fill="white"/>
<path d="M169.561 194.832C169.481 194.832 169.412 194.074 169.412 193.141C169.412 192.208 169.481 191.451 169.561 191.451C169.641 191.451 169.71 192.208 169.71 193.141C169.71 194.074 169.641 194.832 169.561 194.832Z" fill="white"/>
<path d="M166.249 200.984C166.164 200.984 166.1 200.306 166.1 199.469C166.1 198.631 166.169 197.953 166.249 197.953C166.329 197.953 166.398 198.631 166.398 199.469C166.398 200.306 166.334 200.984 166.249 200.984Z" fill="white"/>
<path d="M179.401 183.91C179.401 183.989 176.749 184.058 173.48 184.058C170.211 184.058 167.559 183.989 167.559 183.91C167.559 183.83 170.211 183.761 173.48 183.761C176.749 183.761 179.401 183.83 179.401 183.91Z" fill="white"/>
<path d="M183.23 177.672C183.23 177.757 180.557 177.821 177.266 177.821C173.97 177.821 171.302 177.752 171.302 177.672C171.302 177.593 173.975 177.524 177.266 177.524C180.562 177.524 183.23 177.588 183.23 177.672Z" fill="white"/>
<path d="M188.98 177.757C188.98 177.842 188.102 177.905 187.021 177.905C185.94 177.905 185.061 177.837 185.061 177.757C185.061 177.678 185.94 177.609 187.021 177.609C188.102 177.609 188.98 177.678 188.98 177.757Z" fill="white"/>
</svg>
