<svg width="210" height="210" viewBox="0 0 210 210" fill="none" xmlns="http://www.w3.org/2000/svg">
<path d="M46.4446 179.582C46.4446 179.582 43.7499 161.044 43.9725 150.259C44.1952 139.473 43.9611 127.339 43.9611 127.339H45.2C45.2 127.339 44.3608 148.75 45.2742 161.661C46.1877 174.567 48.5969 179.582 48.5969 179.582H46.4446Z" fill="#263238"/>
<path d="M54.4716 106.476C54.2204 105.842 53.9178 105.185 53.3412 104.819C52.5533 104.322 51.52 104.528 50.6408 104.836C46.8899 106.162 43.5615 113.165 42.0486 116.845L47.0326 133.64C56.0131 125.299 57.5716 114.348 54.4716 106.476Z" fill="#455A64"/>
<path d="M53.0443 105.499C53.05 105.505 53.0272 105.579 52.9701 105.716C52.9073 105.876 52.8274 106.082 52.7246 106.327C52.5077 106.859 52.1994 107.624 51.834 108.578C51.0975 110.486 50.1669 113.154 49.3277 116.153C48.4942 119.158 47.9232 121.929 47.5693 123.94C47.3923 124.945 47.261 125.762 47.1754 126.328C47.1297 126.591 47.0954 126.808 47.0669 126.979C47.0383 127.128 47.0212 127.208 47.0155 127.202C47.0098 127.202 47.0098 127.122 47.0269 126.973C47.044 126.802 47.0669 126.585 47.0954 126.316C47.1582 125.745 47.2667 124.928 47.4266 123.917C47.7463 121.895 48.2943 119.113 49.1279 116.102C49.9671 113.091 50.9262 110.423 51.6913 108.527C52.0738 107.578 52.4049 106.819 52.6447 106.299C52.7589 106.059 52.8502 105.859 52.9244 105.699C53.0043 105.568 53.0386 105.499 53.0443 105.499Z" fill="#263238"/>
<path d="M44.8118 137.673C40.1417 135.091 37.39 130.235 37.133 124.905C36.9561 121.18 38.0979 117.519 39.3939 114.022C39.508 113.72 39.6393 113.394 39.9191 113.234C40.313 113.011 40.7983 113.211 41.1922 113.434C44.5834 115.365 46.6387 119.055 47.7349 122.803C48.4599 125.299 48.8367 127.927 48.5056 130.509C48.1687 133.08 46.6958 135.885 44.8118 137.673Z" fill="#455A64"/>
<path d="M44.8117 137.673C44.806 137.673 44.8003 137.593 44.7946 137.451C44.7889 137.279 44.7889 137.068 44.7832 136.805C44.7832 136.245 44.7603 135.434 44.7147 134.44C44.6233 132.44 44.3607 129.687 43.8469 126.682C43.3273 123.671 42.6993 120.981 42.2369 119.032C42.0085 118.078 41.8201 117.301 41.6831 116.724C41.626 116.467 41.5746 116.262 41.5404 116.096C41.5118 115.953 41.4947 115.873 41.5061 115.873C41.5118 115.873 41.5404 115.942 41.5804 116.085C41.626 116.25 41.6888 116.45 41.7631 116.702C41.9172 117.239 42.1284 118.021 42.3796 118.992C42.8763 120.929 43.5329 123.626 44.0524 126.642C44.5662 129.658 44.8117 132.423 44.8631 134.428C44.8916 135.428 44.8916 136.239 44.8688 136.805C44.8574 137.068 44.8517 137.279 44.8403 137.451C44.8231 137.593 44.8174 137.673 44.8117 137.673Z" fill="#263238"/>
<g opacity="0.3">
<path d="M44.8118 137.673C40.1417 135.091 37.39 130.235 37.133 124.905C36.9561 121.18 38.0979 117.519 39.3939 114.022C39.508 113.72 39.6393 113.394 39.9191 113.234C40.313 113.011 40.7983 113.211 41.1922 113.434C44.5834 115.365 46.6387 119.055 47.7349 122.803C48.4599 125.299 48.8367 127.927 48.5056 130.509C48.1687 133.08 46.6958 135.885 44.8118 137.673Z" fill="black"/>
</g>
<path d="M50.0756 166.037C54.6714 167.049 58.4565 170.293 62.8868 171.87C65.8213 172.916 69.1383 173.281 71.479 175.332C70.9195 173.91 69.5836 172.967 68.2933 172.156C64.6452 169.876 60.7459 168.014 56.681 166.609C54.5972 165.889 52.3307 165.283 50.2069 165.877" fill="#455A64"/>
<path d="M43.4359 170.134C37.6811 170.042 31.6238 165.141 25.8918 164.844C31.8864 162.907 40.4672 164.489 43.4359 170.134Z" fill="#455A64"/>
<path d="M45.6853 156.32C48.6084 155.269 51.8169 155.217 54.8827 155.691C57.9542 156.171 60.9172 157.154 63.8631 158.137C63.5662 156.137 61.9505 154.635 60.4319 153.309C59.2901 152.31 58.1369 151.304 56.8238 150.533C55.5107 149.767 54.0149 149.247 52.4963 149.31C50.6636 149.39 48.9224 150.333 47.7235 151.715C46.5245 153.104 45.8794 154.498 45.6853 156.32Z" fill="#455A64"/>
<path d="M33.8731 149.962C30.2478 146.865 24.7614 147.168 20 147.277C27.3191 150.779 35.2091 155.583 41.5119 160.69C41.706 157.325 38.4461 153.869 33.8731 149.962Z" fill="#455A64"/>
<g opacity="0.3">
<path d="M33.8731 149.962C30.2478 146.865 24.7614 147.168 20 147.277C27.3191 150.779 35.2091 155.583 41.5119 160.69C41.706 157.325 38.4461 153.869 33.8731 149.962Z" fill="black"/>
</g>
<path d="M47.3124 145.688C49.1336 144.472 50.9776 143.318 52.8845 142.449C54.7913 141.581 56.5726 140.204 58.4109 139.204C60.7973 137.913 62.8697 136.114 65.062 134.508C67.2543 132.903 69.6635 131.458 72.3411 131.029C70.1545 130.578 67.8709 130.824 65.7128 131.412C63.5605 132.001 61.5109 132.92 59.4785 133.84C56.6525 135.114 53.7751 136.417 51.4686 138.485C49.1564 140.558 47.0669 142.598 47.3124 145.688Z" fill="#455A64"/>
<path d="M62.784 170.134C62.7783 170.139 62.7155 170.111 62.6013 170.054C62.4643 169.985 62.2987 169.899 62.0989 169.791C61.665 169.562 61.0427 169.219 60.2606 168.825C59.8723 168.62 59.4442 168.408 58.976 168.185C58.5136 167.957 58.0112 167.728 57.4802 167.5C56.4183 167.043 55.2308 166.574 53.9349 166.266C52.6446 165.952 51.3601 165.877 50.2411 166.175C49.6759 166.312 49.1506 166.443 48.6768 166.643C48.2029 166.837 47.7805 167.06 47.4151 167.294C46.6786 167.757 46.1648 168.254 45.8279 168.608C45.4968 168.968 45.3312 169.185 45.3198 169.174C45.3141 169.168 45.3484 169.111 45.4226 169.002C45.4968 168.894 45.611 168.74 45.7708 168.551C46.0906 168.174 46.5987 167.66 47.3408 167.169C47.7119 166.923 48.1344 166.689 48.6197 166.483C49.0993 166.277 49.6416 166.129 50.2068 165.992C51.3486 165.678 52.6846 165.746 53.992 166.066C55.3051 166.38 56.4983 166.86 57.5659 167.329C58.0968 167.563 58.5992 167.797 59.0616 168.037C59.5241 168.265 59.9523 168.488 60.3405 168.7C61.1169 169.111 61.7278 169.471 62.1503 169.728C62.3444 169.848 62.5042 169.945 62.6355 170.019C62.7326 170.088 62.7897 170.128 62.784 170.134Z" fill="#263238"/>
<path d="M39.1426 167.283C39.1484 167.271 39.274 167.306 39.5023 167.386C39.7307 167.466 40.0504 167.603 40.4386 167.791C41.215 168.174 42.2313 168.825 43.1904 169.745C44.1438 170.665 44.8346 171.659 45.2514 172.419C45.4569 172.796 45.6111 173.116 45.6967 173.338C45.788 173.561 45.828 173.687 45.8166 173.693C45.7823 173.71 45.5711 173.219 45.1258 172.487C44.6862 171.756 43.9897 170.796 43.0534 169.894C42.1114 168.991 41.1237 168.334 40.3758 167.923C39.6222 167.511 39.1255 167.311 39.1426 167.283Z" fill="#263238"/>
<path d="M26.4113 149.67C26.4113 149.665 26.4969 149.687 26.6568 149.745C26.8338 149.807 27.0621 149.887 27.3476 149.99C27.6559 150.104 28.0213 150.236 28.438 150.39C28.8605 150.55 29.3229 150.779 29.8425 151.013C31.9149 151.955 34.6724 153.538 37.3328 155.789C38.6459 156.931 39.8334 158.097 40.8268 159.233C41.8145 160.37 42.6537 161.444 43.3045 162.376C43.9611 163.307 44.4578 164.084 44.8003 164.621C44.9602 164.872 45.0915 165.078 45.1943 165.238C45.2856 165.38 45.3256 165.455 45.3198 165.46C45.3141 165.466 45.257 165.398 45.16 165.26C45.0572 165.129 44.9145 164.923 44.7318 164.666C44.3721 164.141 43.8526 163.381 43.1846 162.461C42.5167 161.541 41.6717 160.485 40.6841 159.359C39.6907 158.234 38.5032 157.085 37.2015 155.949C34.5525 153.709 31.8292 152.115 29.7797 151.15C29.2658 150.91 28.8091 150.67 28.3924 150.504C27.9813 150.339 27.6216 150.196 27.319 150.07C27.0393 149.956 26.8166 149.859 26.6454 149.79C26.4855 149.716 26.4056 149.682 26.4113 149.67Z" fill="#263238"/>
<path d="M54.3174 153.081C54.3117 153.092 54.1518 153.075 53.8606 153.024C53.7008 152.995 53.5295 152.961 53.3297 152.926C53.1242 152.886 52.8844 152.886 52.6218 152.858C51.5884 152.784 50.0812 152.869 48.6654 153.641C47.9517 154 47.3523 154.486 46.867 154.977C46.3703 155.463 45.9935 155.966 45.708 156.411C45.1314 157.297 44.9544 157.937 44.9145 157.919C44.9031 157.914 44.9373 157.754 45.0287 157.468C45.1371 157.188 45.297 156.783 45.5767 156.331C45.8508 155.874 46.2219 155.349 46.7243 154.846C47.2152 154.337 47.8261 153.835 48.5626 153.463C50.0184 152.669 51.577 152.607 52.6275 152.721C52.8901 152.755 53.1356 152.766 53.3411 152.818C53.5352 152.869 53.7122 152.909 53.8663 152.949C54.1632 153.024 54.3231 153.069 54.3174 153.081Z" fill="#263238"/>
<path d="M60.1007 135.131C60.1064 135.137 60.0265 135.182 59.8838 135.268C59.7182 135.36 59.507 135.474 59.2443 135.617C58.6848 135.919 57.8856 136.359 56.9036 136.936C55.9331 137.519 54.7855 138.233 53.5695 139.107C52.3534 139.981 51.0518 140.992 49.8472 142.226C49.2534 142.849 48.7053 143.495 48.3228 144.197C47.946 144.923 47.5863 145.62 47.2552 146.294C46.5873 147.636 46.0506 148.876 45.6567 149.939C45.2685 151.001 45.023 151.887 44.8802 152.504C44.7318 153.121 44.6804 153.469 44.6576 153.463C44.6519 153.463 44.6576 153.372 44.6804 153.206C44.7033 153.041 44.7375 152.795 44.8003 152.481C44.9202 151.858 45.1429 150.961 45.5197 149.882C45.8965 148.808 46.4274 147.556 47.0839 146.202C47.4094 145.528 47.769 144.82 48.1458 144.094C48.5398 143.358 49.0993 142.701 49.6987 142.072C50.9148 140.827 52.2336 139.81 53.461 138.942C54.6885 138.073 55.8474 137.371 56.8294 136.799C57.8171 136.239 58.6335 135.811 59.2044 135.531C59.4727 135.4 59.6954 135.297 59.8666 135.217C60.0151 135.154 60.1007 135.12 60.1007 135.131Z" fill="#263238"/>
<path d="M43.9668 152.567C43.9553 152.567 43.9154 152.395 43.8526 152.081C43.7841 151.727 43.6984 151.281 43.6014 150.75C43.3844 149.63 43.0476 148.088 42.5109 146.431C41.98 144.774 41.3406 143.329 40.8667 142.289C40.6441 141.798 40.4557 141.387 40.3072 141.055C40.1759 140.764 40.1074 140.598 40.1245 140.593C40.136 140.587 40.2273 140.741 40.3815 141.021C40.5356 141.301 40.7468 141.712 41.0037 142.227C41.5061 143.255 42.1798 144.694 42.7108 146.368C43.2474 148.036 43.5614 149.596 43.7441 150.727C43.8355 151.293 43.8983 151.75 43.9325 152.07C43.9668 152.384 43.9782 152.561 43.9668 152.567Z" fill="#263238"/>
<path d="M43.55 139.462C43.4073 137.285 42.6994 135.171 41.6774 133.246C38.8857 127.962 33.6333 124.043 27.7758 122.872C32.0633 129.27 36.3565 135.668 40.6441 142.067L42.3054 145.494C43.4415 143.632 43.6927 141.638 43.55 139.462Z" fill="#455A64"/>
<path d="M62.0076 177.292H32.0804V182.599H62.0076V177.292Z" fill="#FF725E"/>
<path d="M34.3185 181.542L36.8647 198.012H56.7324L59.7754 181.542H34.3185Z" fill="#FF725E"/>
<path d="M61.9905 182.605C61.9905 182.662 55.2423 182.707 46.9127 182.707C38.5831 182.707 31.835 182.662 31.835 182.605C31.835 182.547 38.5831 182.502 46.9127 182.502C55.2423 182.502 61.9905 182.547 61.9905 182.605Z" fill="#263238"/>
<path d="M60.6232 9.81238C56.9237 17.4561 60.1208 26.648 67.7539 30.3499C75.3927 34.0518 84.5786 30.8526 88.2781 23.2146C91.9776 15.5709 88.7806 6.37899 81.1475 2.6771C73.5144 -1.02479 64.3227 2.16866 60.6232 9.81238Z" fill="white"/>
<path d="M60.6233 9.8124C60.629 9.81811 60.6747 9.74385 60.7603 9.60103C60.8517 9.44107 60.9773 9.2297 61.1257 8.97262C61.2798 8.69269 61.4797 8.34993 61.7651 7.97288C62.0334 7.59012 62.336 7.13881 62.7471 6.69322C63.5121 5.7506 64.6197 4.73373 66.0527 3.7854C67.4913 2.84279 69.3068 2.01444 71.4306 1.5974C73.543 1.18608 75.9808 1.14609 78.43 1.84305C80.8564 2.54573 83.3512 3.84253 85.3152 5.9277C85.8347 6.419 86.2629 7.00171 86.7139 7.57299C87.1078 8.18426 87.5474 8.7841 87.8671 9.46392C88.2382 10.1152 88.4894 10.8293 88.7749 11.532C88.9861 12.2632 89.2316 12.9944 89.3458 13.7657C89.6141 15.291 89.7112 16.8848 89.4771 18.473C89.2602 20.0612 88.792 21.6322 88.0955 23.1232C87.359 24.5971 86.417 25.9396 85.3038 27.0936C84.2076 28.2647 82.8888 29.1788 81.53 29.9157C80.8564 30.3042 80.1313 30.567 79.4234 30.8526C78.6926 31.064 77.979 31.3097 77.2368 31.4182C76.5117 31.5896 75.7638 31.6181 75.0388 31.6867C74.308 31.6867 73.583 31.7095 72.875 31.6067C70.0205 31.3554 67.4571 30.2014 65.4018 28.7332C63.3351 27.2421 61.8565 25.3055 60.8688 23.3917C59.8811 21.4665 59.4073 19.5242 59.2531 17.816C59.1104 16.1022 59.2131 14.5997 59.4815 13.4172C59.5728 12.8173 59.7441 12.3032 59.8754 11.8519C59.9953 11.3948 60.138 11.0292 60.2636 10.7322C60.3721 10.4465 60.4634 10.2237 60.5319 10.0523C60.6062 9.89238 60.6347 9.8124 60.6233 9.8124C60.6176 9.80669 60.5776 9.88667 60.5091 10.0352C60.4292 10.2066 60.3321 10.4237 60.2065 10.7036C60.0695 10.9949 59.9097 11.3606 59.7783 11.8176C59.6299 12.2689 59.4529 12.7831 59.3445 13.3886C59.0533 14.5826 58.922 16.0965 59.0476 17.8389C59.1846 19.5756 59.647 21.5522 60.6347 23.5231C61.6281 25.4826 63.1182 27.4649 65.2191 29.0017C67.3087 30.5156 69.9291 31.7095 72.8465 31.9723C73.5715 32.0752 74.3137 32.058 75.0616 32.058C75.8038 31.9895 76.5688 31.9666 77.311 31.7895C78.0703 31.6753 78.8068 31.4296 79.5547 31.2125C80.2797 30.9212 81.0219 30.6527 81.7127 30.2585C83.1057 29.5044 84.4588 28.5732 85.5835 27.3678C86.7196 26.1853 87.6902 24.8085 88.4495 23.2946C89.1631 21.7636 89.6427 20.1526 89.8653 18.5244C90.1108 16.8963 90.0023 15.2567 89.7283 13.6971C89.6084 12.9087 89.3572 12.1604 89.1403 11.412C88.8491 10.6865 88.5808 9.96093 88.204 9.29254C87.8786 8.60129 87.4275 7.98431 87.0165 7.36161C86.5483 6.77891 86.1087 6.18478 85.5778 5.67634C83.5568 3.55118 80.9991 2.23152 78.5156 1.52885C76.0093 0.831886 73.5259 0.889014 71.3735 1.32319C69.2155 1.76878 67.3772 2.63142 65.9328 3.60259C64.4884 4.58519 63.3808 5.62492 62.6272 6.5961C62.2161 7.05312 61.925 7.51586 61.6623 7.91004C61.3883 8.2928 61.1942 8.64699 61.0515 8.93263C60.9145 9.20113 60.8003 9.41822 60.7146 9.58389C60.6518 9.73242 60.6176 9.80669 60.6233 9.8124Z" fill="#263238"/>
<path d="M73.7999 36.4684C73.2176 37.6681 73.72 39.1077 74.9189 39.6904C76.1178 40.2731 77.5565 39.7704 78.1389 38.5707C78.7212 37.371 78.2188 35.9314 77.0199 35.3487C75.821 34.766 74.3766 35.2687 73.7999 36.4684Z" fill="white"/>
<path d="M73.8 36.4683C73.8285 36.4854 73.9313 36.2912 74.1825 36.0227C74.4337 35.7542 74.879 35.4114 75.5184 35.2971C76.1464 35.1772 76.9799 35.3486 77.5623 35.9655C78.1503 36.5597 78.3901 37.6051 77.9562 38.4849C77.5394 39.3704 76.5632 39.8274 75.7354 39.736C74.8904 39.6617 74.2339 39.1133 73.9427 38.5477C73.6344 37.9765 73.6287 37.4109 73.6858 37.051C73.7429 36.6796 73.8285 36.4797 73.8 36.4683C73.7828 36.4568 73.6458 36.6339 73.5374 37.0167C73.4346 37.3937 73.3832 38.0107 73.6972 38.6734C73.9941 39.3247 74.7191 39.9874 75.7011 40.0959C76.6659 40.2273 77.8192 39.696 78.3159 38.6563C78.8297 37.6223 78.5271 36.3883 77.8249 35.7142C77.1284 35.0115 76.1578 34.8516 75.467 35.0229C74.7534 35.1886 74.2967 35.6056 74.0683 35.9256C73.8285 36.2455 73.7771 36.4626 73.8 36.4683Z" fill="#263238"/>
<path d="M70.9454 14.6225H72.8465C72.8465 14.6225 72.8465 13.023 74.5079 12.9944C75.3699 12.9773 75.8152 13.5428 75.9979 13.977C76.2092 14.4797 76.1464 15.051 75.8609 15.5195C75.5355 16.0507 74.8333 16.5363 73.5487 16.3078V20.6038H75.4327V18.0902C75.4327 18.0902 78.0703 17.4104 78.0703 14.4969C78.0703 11.7147 75.5755 11.0635 74.5079 11.0635C73.6915 11.0692 70.9054 11.2634 70.9454 14.6225Z" fill="#FF725E"/>
<path d="M75.4498 21.4893H73.543V23.2717H75.4498V21.4893Z" fill="#FF725E"/>
<path d="M180.66 135.154V134.011C181.288 134.011 181.825 133.771 182.298 133.28C184.622 130.863 184.371 123.762 184.371 123.688V110.794H185.513V123.665C185.524 123.957 185.781 131.303 183.121 134.068C182.43 134.788 181.602 135.154 180.66 135.154Z" fill="#E0E0E0"/>
<path d="M184.673 112.754H144.561C142.329 112.754 140.519 110.943 140.519 108.709V72.9929C140.519 70.7592 142.329 68.9482 144.561 68.9482H184.673C186.906 68.9482 188.715 70.7592 188.715 72.9929V108.709C188.715 110.943 186.906 112.754 184.673 112.754Z" fill="#455A64"/>
<path d="M130.191 138.027L122.193 197.24H125.322L137.197 140.232L130.191 138.027Z" fill="#455A64"/>
<path d="M130.191 138.027C130.191 138.027 130.34 138.067 130.637 138.153C130.945 138.244 131.39 138.382 131.973 138.559C133.172 138.924 134.936 139.467 137.219 140.17L137.276 140.187L137.265 140.25C135.147 150.493 130.779 171.601 125.75 195.949C125.653 196.401 125.561 196.858 125.476 197.275L125.453 197.395H125.333C124.243 197.395 123.198 197.395 122.204 197.395H122.033L122.056 197.223C124.322 180.645 126.343 165.826 127.805 155.137C128.541 149.824 129.135 145.54 129.546 142.575C129.752 141.112 129.912 139.975 130.026 139.187C130.083 138.81 130.123 138.524 130.151 138.313C130.169 138.119 130.191 138.027 130.191 138.027C130.191 138.027 130.186 138.136 130.157 138.342C130.129 138.553 130.094 138.85 130.043 139.238C129.94 140.033 129.792 141.187 129.598 142.666C129.204 145.648 128.639 149.95 127.942 155.28C126.52 165.94 124.545 180.719 122.341 197.263L122.193 197.092C123.186 197.092 124.231 197.092 125.322 197.092L125.173 197.212C125.259 196.795 125.356 196.344 125.447 195.887C130.551 171.556 134.976 150.458 137.128 140.221L137.174 140.301C134.913 139.57 133.177 139.01 131.99 138.627C131.407 138.439 130.962 138.29 130.648 138.187C130.351 138.084 130.191 138.027 130.191 138.027Z" fill="#263238"/>
<path d="M129.843 140.233H182.624C184.588 140.233 186.186 138.639 186.186 136.668C186.186 134.703 184.593 133.103 182.624 133.103H129.843C127.879 133.103 126.281 134.697 126.281 136.668C126.281 138.639 127.873 140.233 129.843 140.233Z" fill="#455A64"/>
<path d="M182.007 138.027L190 197.24H186.871L174.996 140.232L182.007 138.027Z" fill="#455A64"/>
<path d="M129.404 140.233C129.404 140.153 141.484 140.09 156.379 140.09C171.28 140.09 183.36 140.153 183.36 140.233C183.36 140.313 171.286 140.375 156.379 140.375C141.478 140.375 129.404 140.313 129.404 140.233Z" fill="#263238"/>
<path d="M101.669 78.0202L102 61.4417L107.132 49.9075C107.132 49.9075 107.812 48.685 108.343 49.3134C108.874 49.9361 108.228 50.6959 108.228 50.6959C108.228 50.6959 109.41 50.4445 109.199 51.5871C108.988 52.7296 108.634 54.1807 108.634 54.1807C108.634 54.1807 108.874 55.5061 107.635 57.8426C106.396 60.1791 106.31 61.2188 106.31 61.2188C106.31 61.2188 107.869 63.4011 109.102 63.9324C110.335 64.458 111.408 64.081 112.293 63.2298C113.178 62.3728 115.359 61.276 115.359 61.276L116.946 63.1498C116.946 63.1498 114.571 65.7377 114.126 66.6289C113.681 67.5201 112.356 70.8963 110.986 72.056C109.616 73.2214 109.285 77.209 109.285 77.209C109.285 77.209 108.582 81.385 101.669 78.0202Z" fill="#FFBF9D"/>
<path d="M103.244 62.3272C103.21 62.3101 103.427 61.6817 103.804 60.6819C104.186 59.6765 104.729 58.2997 105.345 56.7858C105.654 56.0317 105.95 55.3176 106.23 54.6492C106.373 54.3179 106.544 54.0037 106.773 53.758C107.007 53.5124 107.286 53.3467 107.578 53.2896C107.863 53.2267 108.148 53.2896 108.337 53.4267C108.525 53.5638 108.634 53.7409 108.679 53.8951C108.771 54.215 108.628 54.3807 108.628 54.3693C108.6 54.3636 108.685 54.1979 108.577 53.9351C108.48 53.6838 108.114 53.3524 107.623 53.4895C107.389 53.5466 107.144 53.7009 106.95 53.918C106.755 54.1408 106.607 54.4321 106.47 54.752C106.202 55.4204 105.911 56.1345 105.608 56.8886C104.991 58.4025 104.42 59.7679 103.992 60.7505C103.564 61.7445 103.279 62.3444 103.244 62.3272Z" fill="#FF9A6C"/>
<path d="M107.663 50.8558C107.703 50.89 107.258 51.3871 106.727 52.3125C106.185 53.2323 105.631 54.5976 105.083 56.1458C104.535 57.6883 103.964 59.0822 103.393 60.0077C103.113 60.4704 102.862 60.8303 102.656 61.0588C102.462 61.2873 102.342 61.4073 102.331 61.3959C102.291 61.3616 102.713 60.8474 103.216 59.9105C103.73 58.9736 104.261 57.5969 104.814 56.0544C105.363 54.512 105.956 53.1237 106.556 52.2154C106.693 51.9812 106.847 51.7869 106.972 51.6156C107.098 51.4385 107.218 51.3014 107.326 51.1928C107.526 50.9586 107.646 50.8443 107.663 50.8558Z" fill="#FF9A6C"/>
<path d="M108.166 69.7081C108.137 69.7195 107.966 69.3768 107.892 68.7769C107.812 68.1828 107.863 67.3087 108.251 66.4575C108.634 65.6006 109.25 64.9893 109.747 64.6523C110.249 64.3095 110.615 64.2067 110.626 64.2352C110.649 64.2752 110.318 64.4409 109.873 64.8122C109.427 65.1778 108.874 65.7777 108.514 66.5775C108.154 67.3773 108.074 68.1885 108.097 68.7655C108.12 69.3368 108.211 69.6967 108.166 69.7081Z" fill="#FF9A6C"/>
<path d="M107.663 72.7188C107.646 72.7074 107.715 72.5703 107.658 72.2903C107.618 72.0161 107.503 71.6162 107.344 71.1363C107.03 70.1652 106.521 68.8512 106.053 67.3545C105.825 66.6061 105.619 65.8806 105.557 65.1836C105.517 64.8351 105.591 64.4752 105.682 64.1953C105.768 63.9154 105.853 63.6526 105.928 63.3955C106.07 62.9156 106.088 62.51 106.042 62.2358C105.996 61.9616 105.916 61.8188 105.939 61.8074C105.951 61.7959 106.065 61.9216 106.15 62.2072C106.236 62.4929 106.247 62.9328 106.128 63.4412C106.07 63.6926 105.985 63.9668 105.911 64.2524C105.831 64.5438 105.779 64.8294 105.819 65.1551C105.893 65.8063 106.099 66.5204 106.327 67.2631C106.79 68.7484 107.269 70.0795 107.538 71.0735C107.669 71.5705 107.755 71.9818 107.766 72.2789C107.795 72.5817 107.68 72.7416 107.663 72.7188Z" fill="#FF9A6C"/>
<path d="M103.912 174.989L104.98 189.614C104.98 189.614 89.6396 195.555 89.5597 198.275L119.578 197.332L118.904 174.481L103.912 174.989Z" fill="#263238"/>
<path d="M114.217 188.094C114.805 188.226 115.228 188.831 115.114 189.391C114.999 189.951 114.349 190.362 113.761 190.242C113.173 190.122 112.642 189.408 112.824 188.86C113.007 188.317 113.795 187.871 114.332 188.123" fill="#E0E0E0"/>
<path d="M119.578 197.338L119.413 195.035L90.6901 196.795C90.6901 196.795 89.3713 197.389 89.554 198.275L119.578 197.338Z" fill="#455A64"/>
<path d="M104.483 189.488C104.495 189.625 105.225 189.665 105.968 190.088C106.716 190.494 107.109 191.082 107.241 191.025C107.372 190.996 107.127 190.168 106.225 189.671C105.328 189.168 104.449 189.363 104.483 189.488Z" fill="white"/>
<path d="M101.378 190.819C101.349 190.957 101.994 191.174 102.508 191.745C103.045 192.305 103.193 192.933 103.336 192.922C103.473 192.939 103.547 192.122 102.89 191.425C102.245 190.717 101.378 190.688 101.378 190.819Z" fill="white"/>
<path d="M99.7162 194.447C99.8532 194.47 100.03 193.773 99.6249 193.024C99.2252 192.27 98.5287 191.996 98.4659 192.11C98.386 192.225 98.8484 192.619 99.1681 193.242C99.5107 193.853 99.5735 194.435 99.7162 194.447Z" fill="white"/>
<path d="M146.28 175.012L145.657 192.739L140.902 206.587C140.559 207.586 141.181 208.66 142.26 208.923C142.866 209.072 143.499 208.94 143.973 208.558C146.982 206.141 157.989 197.206 157.96 195.909C157.926 194.401 159.924 177.263 159.924 177.263L146.28 175.012Z" fill="#263238"/>
<path d="M142.26 208.929L158.029 194.721L157.983 195.47C157.943 196.121 157.669 196.732 157.195 197.201C155.928 198.446 152.354 201.822 144.03 208.569C143.539 208.963 142.877 209.1 142.26 208.929Z" fill="#455A64"/>
<g opacity="0.6">
<path d="M154.529 188.768C154.044 189.048 153.85 189.705 154.13 190.185C154.409 190.659 155.117 190.859 155.608 190.591C156.099 190.322 156.356 189.534 156.025 189.094C155.694 188.648 154.849 188.46 154.438 188.837" fill="white"/>
</g>
<path d="M146.988 201.457C146.879 201.497 146.514 200.548 145.429 199.977C144.367 199.377 143.317 199.566 143.299 199.451C143.288 199.406 143.534 199.286 143.973 199.251C144.413 199.217 145.041 199.314 145.634 199.634C146.228 199.954 146.634 200.423 146.828 200.8C147.022 201.182 147.039 201.445 146.988 201.457Z" fill="white"/>
<path d="M145.52 203.747C145.429 203.816 144.864 203.205 143.91 202.885C142.968 202.542 142.123 202.662 142.101 202.548C142.055 202.456 142.974 202.136 144.053 202.519C145.126 202.89 145.617 203.702 145.52 203.747Z" fill="white"/>
<path d="M149.648 198.572C149.557 198.652 148.689 197.703 147.256 197.081C145.834 196.435 144.516 196.412 144.521 196.298C144.498 196.201 145.897 196.041 147.427 196.732C148.963 197.4 149.739 198.526 149.648 198.572Z" fill="white"/>
<path d="M150.31 193.202C150.253 193.304 149.248 192.83 147.907 192.704C146.565 192.556 145.48 192.813 145.446 192.704C145.4 192.613 146.502 192.162 147.947 192.316C149.385 192.459 150.379 193.122 150.31 193.202Z" fill="white"/>
<path d="M150.847 189.345C150.784 189.443 149.779 188.791 148.358 188.763C146.936 188.706 145.903 189.3 145.846 189.197C145.817 189.157 146.034 188.951 146.479 188.74C146.919 188.529 147.604 188.351 148.369 188.374C149.134 188.397 149.808 188.614 150.236 188.854C150.67 189.088 150.881 189.305 150.847 189.345Z" fill="white"/>
<path d="M100.27 186.54C100.27 186.54 91.8776 132.583 92.8995 126.625C93.9215 120.666 98.346 113.445 108.56 113.011C112.282 112.851 137.927 110.794 137.927 110.794H162.322L156.088 134.497L126.286 134.765L115.108 135.856C116.273 146.465 120.189 157.239 118.482 186.546H100.27V186.54Z" fill="#263238"/>
<path d="M164.937 114.433C164.937 114.433 149.163 120.38 146.691 122.911C144.219 125.448 143.442 128.921 142.797 132.806C142.146 136.685 143.299 187.129 143.299 187.129L160.958 187.392L166.513 136.656C166.513 136.656 181.921 135.993 183.554 129.252C185.187 122.511 181.111 110.8 181.111 110.8L169.812 113.331L164.937 114.433Z" fill="#263238"/>
<path d="M150.784 120.443C150.796 120.46 150.55 120.638 150.11 120.952C149.677 121.272 149.054 121.752 148.346 122.408C146.93 123.711 145.195 125.808 144.059 128.521C142.883 131.235 142.888 133.977 142.803 135.902C142.769 136.873 142.729 137.656 142.689 138.199C142.643 138.741 142.609 139.038 142.586 139.038C142.563 139.038 142.563 138.736 142.574 138.193C142.58 137.593 142.586 136.822 142.597 135.896C142.609 134.925 142.62 133.766 142.757 132.48C142.894 131.195 143.202 129.784 143.796 128.407C144.949 125.636 146.748 123.528 148.215 122.249C148.951 121.603 149.591 121.146 150.053 120.855C150.504 120.569 150.773 120.432 150.784 120.443Z" fill="#455A64"/>
<path d="M166.958 131.406C167.038 131.412 167.004 132.583 166.872 134.017C166.741 135.451 166.57 136.605 166.49 136.599C166.41 136.593 166.444 135.422 166.576 133.988C166.701 132.554 166.872 131.395 166.958 131.406Z" fill="#455A64"/>
<path d="M162.802 129.755C162.865 129.709 163.898 131.109 164.908 132.994C165.919 134.879 166.507 136.513 166.433 136.542C166.353 136.576 165.645 135.005 164.646 133.131C163.647 131.263 162.728 129.801 162.802 129.755Z" fill="#455A64"/>
<path d="M109.37 76.4605L110.649 83.5672C110.649 83.5672 113.846 67.0972 115.93 65.5491C118.02 63.9952 120.526 62.7898 120.526 62.7898L124.676 87.5662C124.676 87.5662 120.4 106.67 117.38 109.789C114.36 112.908 105.454 116.701 102.645 109.789C99.8361 102.876 101.64 75.2837 101.64 75.2837L109.37 76.4605Z" fill="#FFBF9D"/>
<path d="M113.618 103.054C113.595 103.054 113.561 102.774 113.515 102.271C113.464 101.711 113.401 100.991 113.321 100.134C113.155 98.3349 112.893 95.8441 112.499 93.1133C112.105 90.3826 111.66 87.9204 111.311 86.1437C111.146 85.2982 111.009 84.5956 110.9 84.0414C110.803 83.5444 110.758 83.2645 110.78 83.2645C110.798 83.2588 110.883 83.5273 111.015 84.0186C111.146 84.5099 111.323 85.2183 111.523 86.1038C111.922 87.8747 112.402 90.3312 112.796 93.0734C113.19 95.8155 113.418 98.312 113.532 100.117C113.589 101.02 113.624 101.757 113.635 102.26C113.641 102.768 113.635 103.048 113.618 103.054Z" fill="#FF9A6C"/>
<path d="M117.551 64.2352C117.551 64.2352 114.491 77.4032 117.785 81.6992C121.08 86.001 135.175 100.351 135.175 100.351L137.927 107.167L136.568 111.537C136.568 111.537 137.294 118.181 150.122 119.964C162.95 121.746 181.979 113.611 181.979 113.611C181.979 113.611 174.471 72.3302 165.445 63.6125C161.066 59.3793 152.965 54.9348 144.504 56.6143C136.049 58.2939 117.551 64.2352 117.551 64.2352Z" fill="#C0DEF2"/>
<path d="M110.649 83.5616L123.9 90.8454L125.544 85.5896L120.349 61.813C120.349 61.813 115.856 64.2295 114.097 68.3313C112.91 71.1134 110.649 83.5616 110.649 83.5616Z" fill="#C0DEF2"/>
<path d="M116.324 81.7164C116.353 81.6879 116.815 82.1106 117.551 82.7962C118.356 83.5503 119.338 84.47 120.417 85.4926C121.514 86.4981 122.501 87.4064 123.318 88.1548C124.06 88.8346 124.517 89.2631 124.488 89.2973C124.46 89.3259 123.963 88.9546 123.181 88.3147C122.399 87.6749 121.348 86.7609 120.218 85.7097C119.087 84.6585 118.1 83.6759 117.403 82.9447C116.701 82.2192 116.295 81.745 116.324 81.7164Z" fill="#263238"/>
<path d="M151.972 106.024C151.972 106.047 151.72 106.03 151.269 105.984C150.818 105.944 150.168 105.853 149.368 105.716C147.77 105.442 145.583 104.933 143.248 104.111C140.913 103.282 138.886 102.311 137.476 101.517C136.768 101.123 136.209 100.786 135.832 100.534C135.455 100.289 135.25 100.14 135.261 100.123C135.272 100.106 135.495 100.22 135.895 100.432C136.289 100.649 136.865 100.957 137.579 101.328C139.012 102.065 141.033 103.008 143.351 103.825C145.669 104.642 147.833 105.179 149.414 105.504C150.202 105.664 150.847 105.79 151.292 105.864C151.732 105.95 151.977 106.001 151.972 106.024Z" fill="#263238"/>
<path d="M106.179 46.0344C104.946 46.9713 102.988 46.8285 101.909 45.7087C100.824 44.5948 100.767 42.6695 101.777 41.5041C100.436 41.1614 99.3794 39.9217 99.2766 38.5678C99.1738 37.2138 100.036 35.8428 101.315 35.3286C100.647 34.1518 100.658 32.6379 101.338 31.4782C102.017 30.3185 103.347 29.5587 104.717 29.5415C105.328 27.6849 107.378 26.4052 109.347 26.6509C110.352 25.7711 111.957 25.6283 113.11 26.3138C114.269 27.0051 114.885 28.4675 114.56 29.7529" fill="#263238"/>
<path d="M111.585 28.9531L110.986 29.3131C104.974 32.9121 102.811 40.453 106.019 46.6514C108.999 52.4156 112.373 58.7454 114.252 61.6703C118.139 67.7259 124.928 64.9723 124.928 64.9723L129.289 72.4218L140.736 57.7971L128.45 35.7799C125.036 29.1074 118.259 25.4683 111.585 28.9531Z" fill="#FFBF9D"/>
<path d="M124.87 64.9837C124.87 64.9837 128.97 62.8528 131.522 57.7913C131.522 57.7913 132.355 63.327 125.835 66.469L124.87 64.9837Z" fill="#FF9A6C"/>
<path d="M112.242 51.1702C112.51 51.6387 113.138 51.8043 113.646 51.5416C114.149 51.2788 114.337 50.6789 114.069 50.2105C113.801 49.742 113.173 49.5763 112.67 49.8391C112.162 50.1076 111.974 50.7018 112.242 51.1702Z" fill="#263238"/>
<path d="M109.216 48.8394C109.399 48.8851 109.758 47.9996 110.712 47.434C111.654 46.857 112.653 46.9199 112.687 46.7428C112.704 46.6628 112.465 46.5257 112.025 46.4857C111.591 46.4457 110.946 46.5428 110.358 46.897C109.77 47.2569 109.405 47.7654 109.256 48.1596C109.102 48.5537 109.13 48.8165 109.216 48.8394Z" fill="#263238"/>
<path d="M120.783 45.7374C121.051 46.2058 121.679 46.3715 122.187 46.1087C122.69 45.8459 122.878 45.246 122.61 44.7776C122.341 44.3092 121.713 44.1435 121.205 44.4063C120.703 44.6691 120.514 45.2689 120.783 45.7374Z" fill="#263238"/>
<path d="M118.676 43.418C118.859 43.4637 119.224 42.5782 120.178 42.0126C121.12 41.4356 122.119 41.4985 122.153 41.3214C122.17 41.2414 121.93 41.0986 121.491 41.0643C121.057 41.0243 120.412 41.1214 119.824 41.4756C119.236 41.8355 118.87 42.344 118.722 42.7382C118.562 43.1323 118.591 43.3951 118.676 43.418Z" fill="#263238"/>
<path d="M119.572 52.4384C119.544 52.3813 118.887 52.6327 117.854 53.0897C117.597 53.2097 117.334 53.3011 117.192 53.164C117.026 53.0269 116.969 52.7069 116.912 52.3585C116.781 51.6444 116.638 50.8903 116.49 50.1076C115.867 46.9142 115.256 44.3491 115.125 44.372C114.994 44.3948 115.393 47.0056 116.021 50.199C116.181 50.9817 116.335 51.7301 116.478 52.4442C116.558 52.7698 116.592 53.1754 116.941 53.461C117.118 53.5981 117.38 53.6267 117.557 53.5696C117.74 53.5239 117.883 53.4439 118.002 53.3811C119.002 52.8441 119.601 52.4899 119.572 52.4384Z" fill="#263238"/>
<path d="M119.373 38.0135C119.184 37.7564 118.294 38.1963 117.14 38.4019C115.993 38.6362 114.982 38.5619 114.925 38.8647C114.902 39.0075 115.148 39.2246 115.605 39.3845C116.056 39.5445 116.712 39.6245 117.403 39.4931C118.094 39.3617 118.659 39.0475 118.996 38.739C119.333 38.4248 119.458 38.1334 119.373 38.0135Z" fill="#263238"/>
<path d="M109.113 41.2071C108.777 41.2814 108.525 42.1954 107.966 43.1438C107.435 44.1092 106.767 44.8005 106.887 45.1147C106.95 45.2575 107.241 45.2575 107.658 45.029C108.069 44.8062 108.588 44.3263 108.959 43.6693C109.336 43.0124 109.473 42.3383 109.45 41.8812C109.427 41.4185 109.273 41.1786 109.113 41.2071Z" fill="#263238"/>
<path d="M104.866 43.4921C104.866 43.4921 104.112 38.6934 105.425 36.6825C107.012 34.2488 109.519 36.1169 111.306 34.2317C113.093 32.3465 114.606 30.0157 117.837 30.3413C121.376 30.6955 121.034 32.6321 122.872 35.2543C130.334 45.8687 134.308 47.7596 131.659 42.2411C131.367 41.6355 132.681 40.2301 131.425 37.6994C129.792 34.4145 127.559 30.5698 125.481 28.7874C123.729 27.285 121.856 26.6451 119.041 26.3823C114.606 25.971 110.398 28.4218 107.737 30.3984C105.077 32.3751 101.617 38.8648 104.866 43.4921Z" fill="#263238"/>
<path d="M131.156 42.3096C130.608 41.3441 130.968 40.1101 131.973 39.6303C133.194 39.0475 134.884 38.9276 136.277 41.3212C138.749 45.5716 133.902 47.1083 133.828 46.9883C133.777 46.9084 132.178 44.0977 131.156 42.3096Z" fill="#FFBF9D"/>
<path d="M133.839 44.8633C133.851 44.8405 133.942 44.8747 134.108 44.8576C134.262 44.8462 134.502 44.7662 134.679 44.5548C135.038 44.1378 135.01 43.2123 134.582 42.4297C134.37 42.0355 134.074 41.7156 133.754 41.4871C133.44 41.2471 133.109 41.1443 132.858 41.23C132.601 41.3042 132.515 41.5328 132.532 41.6813C132.544 41.8298 132.618 41.9041 132.601 41.9212C132.595 41.9384 132.469 41.8984 132.401 41.7041C132.372 41.607 132.361 41.4813 132.418 41.3442C132.475 41.2014 132.601 41.0757 132.772 41.0072C133.12 40.8472 133.594 40.9786 133.942 41.23C134.308 41.4699 134.65 41.8298 134.89 42.2697C135.358 43.1438 135.381 44.1892 134.861 44.7148C134.604 44.9604 134.296 45.0118 134.108 44.9833C133.908 44.9604 133.828 44.8805 133.839 44.8633Z" fill="#FF9A6C"/>
<path d="M126.024 34.2773C125.704 34.9743 125.361 35.7056 124.739 36.1683C124.117 36.631 123.123 36.7053 122.61 36.1283C122.376 35.8655 122.239 35.4885 121.907 35.3799C121.508 35.2485 121.137 35.5913 120.806 35.8369C119.652 36.6996 117.38 36.2254 116.33 35.2314C116.307 35.8826 115.707 36.4311 115.039 36.4139C114.377 36.3968 114.097 36.3282 113.464 36.1283C112.83 35.9341 112.071 35.8655 111.563 36.2825C111.277 36.5111 111.1 36.871 110.769 37.0309C110.181 37.3166 109.513 36.8367 109.085 36.3397C108.662 35.8484 108.2 35.2485 107.543 35.2371C106.938 35.2257 106.47 35.7227 106.002 36.0997C105.539 36.4825 104.803 36.7567 104.363 36.3397C104.135 36.1226 104.078 35.7798 104.078 35.4713C104.101 34.0546 105.254 32.7406 106.676 32.5121C106.23 30.884 106.864 29.033 108.223 28.0104C109.581 26.9935 111.574 26.8679 113.058 27.7191C113.452 26.3823 114.543 25.2683 115.884 24.8284C117.226 24.3885 118.79 24.6342 119.932 25.4682C120.794 24.5827 122.216 24.2742 123.386 24.7141C124.556 25.154 125.413 26.3137 125.464 27.542C126.492 27.5134 127.611 27.8733 128.165 28.7245C128.718 29.5814 128.404 30.9468 127.417 31.2267C128.176 31.6952 128.473 32.7749 128.045 33.5461C127.617 34.3173 126.537 34.6601 125.727 34.2831" fill="#263238"/>
<path d="M107.127 33.9346C107.121 33.9346 107.138 33.9631 107.178 34.0088C107.212 34.0545 107.264 34.1288 107.344 34.2145C107.503 34.3859 107.76 34.6201 108.154 34.8372C108.548 35.0428 109.073 35.2371 109.707 35.2599C110.335 35.2942 111.083 35.1571 111.745 34.7115L111.614 34.6601C111.705 35.0943 112.008 35.4999 112.419 35.7627C112.824 36.0312 113.298 36.2025 113.783 36.3568C114.023 36.4253 114.269 36.5282 114.554 36.551C114.834 36.5682 115.119 36.511 115.376 36.3968C115.89 36.174 116.341 35.7055 116.438 35.1L116.25 35.1514C116.878 35.9169 117.871 36.4596 118.95 36.511C119.532 36.5567 120.138 36.4368 120.623 36.1283C121.108 35.8312 121.479 35.4142 121.81 35.0143L121.668 35.0314C122.221 35.4142 122.844 35.6484 123.472 35.717C124.094 35.7912 124.768 35.6541 125.196 35.2314C126.064 34.4259 126.218 33.209 125.87 32.3578L125.801 32.4607C126.463 32.4321 127.011 32.135 127.388 31.8037C127.771 31.4666 127.993 31.0782 128.125 30.7525C128.25 30.4212 128.273 30.1413 128.279 29.9585C128.273 29.7756 128.256 29.6785 128.25 29.6785C128.216 29.6728 128.307 30.0784 128.045 30.7183C127.908 31.0325 127.685 31.3981 127.308 31.7123C126.943 32.0265 126.412 32.295 125.795 32.3121L125.687 32.3178L125.727 32.415C126.041 33.2147 125.881 34.363 125.07 35.1C124.682 35.477 124.083 35.597 123.5 35.5284C122.912 35.4599 122.313 35.2314 121.793 34.8715L121.713 34.8143L121.651 34.8886C121.325 35.2828 120.965 35.6827 120.514 35.9569C120.069 36.2368 119.521 36.3511 118.967 36.3054C117.951 36.254 117.015 35.7512 116.421 35.0257L116.273 34.8429L116.238 35.0771C116.158 35.5913 115.764 36.0197 115.302 36.2197C115.068 36.3225 114.817 36.3796 114.577 36.3625C114.337 36.3511 114.097 36.2482 113.852 36.1797C113.372 36.0312 112.91 35.8712 112.527 35.6198C112.139 35.3799 111.871 35.02 111.785 34.6315L111.757 34.5116L111.654 34.5801C111.037 35.0086 110.324 35.1514 109.718 35.1342C109.108 35.1228 108.588 34.9457 108.2 34.7572C107.418 34.3573 107.149 33.906 107.127 33.9346Z" fill="#455A64"/>
<path d="M123.929 53.1696C123.986 53.3295 123.318 53.678 122.724 54.3293C122.113 54.9691 121.805 55.6489 121.639 55.6089C121.479 55.5861 121.565 54.6892 122.29 53.9236C123.009 53.1524 123.9 53.0153 123.929 53.1696Z" fill="#263238"/>
<path d="M118.956 65.1437C118.956 65.1551 118.882 65.1494 118.745 65.1323C118.608 65.1209 118.402 65.0752 118.145 65.0123C117.637 64.8638 116.918 64.5382 116.181 63.9383C115.81 63.6412 115.433 63.2756 115.057 62.87C114.874 62.6644 114.68 62.4473 114.486 62.2302C114.292 62.0074 114.109 61.7332 113.949 61.4761C113.287 60.4192 112.613 59.231 111.911 57.9799C110.512 55.4777 109.29 53.1868 108.423 51.5187C107.989 50.6846 107.64 50.0105 107.406 49.5363C107.172 49.0679 107.052 48.7994 107.069 48.788C107.087 48.7765 107.241 49.0279 107.503 49.4792C107.789 49.9877 108.16 50.6332 108.6 51.4159C109.542 53.1068 110.786 55.352 112.162 57.8313C112.864 59.0767 113.526 60.2764 114.172 61.3276C114.474 61.8588 114.868 62.2873 115.234 62.7043C115.599 63.1157 115.953 63.4756 116.307 63.7783C117.009 64.3839 117.688 64.7267 118.174 64.9038C118.67 65.0752 118.962 65.1151 118.956 65.1437Z" fill="#FF9A6C"/>
<path d="M143.551 113.668C143.551 113.668 138.059 114.833 136.409 116.244C134.759 117.655 129.244 124.071 127.537 126.036L123.301 134.4C123.301 134.4 123.403 138.987 123.694 140.107C123.974 141.192 125.653 141.466 125.653 140.17C125.653 138.873 125.773 135.811 125.773 135.811L127.776 132.863L126.715 135.691C126.715 135.691 126.418 141.746 127.537 142.169C128.633 142.586 129.147 142.072 129.147 140.775C129.147 139.478 129.267 135.914 129.267 135.914L131.242 132.594L130.831 136.399C130.831 136.399 130.363 141.112 130.951 141.821C131.539 142.529 132.601 141.352 132.601 141.352C132.601 141.352 134.011 144.06 134.605 141.472C135.193 138.879 135.547 136.171 135.547 136.171L138.727 128.133L142.363 123.7L148.335 122.608C148.335 122.608 148.021 114.731 143.551 113.668Z" fill="#FFBF9D"/>
<path d="M134.422 132.172C134.462 132.189 134.262 132.686 133.988 133.503C133.708 134.314 133.366 135.456 133.109 136.736C132.852 138.021 132.732 139.204 132.681 140.061C132.624 140.918 132.618 141.455 132.572 141.455C132.538 141.455 132.469 140.924 132.475 140.055C132.475 139.187 132.566 137.981 132.823 136.679C133.086 135.376 133.463 134.234 133.794 133.428C134.125 132.629 134.393 132.16 134.422 132.172Z" fill="#FF9A6C"/>
<path d="M154.015 72.2902C154.027 72.6901 158.44 107.618 158.44 107.618L138.196 115.199L142.357 123.7C142.357 123.7 165.822 119.895 168.037 118.215C170.252 116.536 172.935 115.707 173.558 110.543C174.18 105.379 174.328 82.9046 171.622 76.0435C168.916 69.1824 166.701 62.3099 161.335 63.8295C155.962 65.3548 154.015 72.2902 154.015 72.2902Z" fill="#FFBF9D"/>
<path d="M153.125 86.6807L173.632 84.3842C173.632 84.3842 170.418 62.3499 161.055 61.6416C151.703 60.9332 153.125 86.6807 153.125 86.6807Z" fill="#C0DEF2"/>
<path d="M173.192 84.4243C173.192 84.4357 173.061 84.4586 172.804 84.4928C172.519 84.5328 172.142 84.5842 171.674 84.6471C170.658 84.7728 169.23 84.9499 167.455 85.1669C163.841 85.5897 158.834 86.1667 153.142 86.8294L153.005 86.8465L152.982 86.7151C152.708 85.304 152.474 83.8187 152.286 82.3048C151.857 78.9171 151.663 75.6723 151.572 72.7188C151.521 71.2334 151.675 69.7995 152.103 68.537C152.314 67.9086 152.577 67.3202 152.857 66.7775C153.142 66.2347 153.41 65.7149 153.759 65.2578C154.444 64.3495 155.277 63.7268 156.037 63.2584C156.802 62.7956 157.515 62.4929 158.109 62.2986C158.708 62.1044 159.188 62.0187 159.513 61.9673C159.679 61.9444 159.805 61.9387 159.884 61.933C159.97 61.9273 160.01 61.9273 160.01 61.933C160.01 61.9444 159.839 61.973 159.519 62.0301C159.199 62.0987 158.726 62.2015 158.143 62.4129C157.561 62.6243 156.864 62.9327 156.122 63.4069C155.386 63.8753 154.581 64.5038 153.93 65.3892C153.604 65.8291 153.342 66.349 153.062 66.886C152.794 67.4287 152.537 68.0057 152.337 68.617C151.932 69.8509 151.789 71.2449 151.846 72.713C151.955 75.6609 152.154 78.9 152.583 82.2706C152.771 83.7844 153.005 85.2583 153.273 86.6637L153.113 86.5437C158.811 85.921 163.818 85.3726 167.438 84.9784C169.213 84.7956 170.646 84.6528 171.662 84.5442C172.136 84.4985 172.519 84.4643 172.798 84.4414C173.055 84.4186 173.192 84.4129 173.192 84.4243Z" fill="#263238"/>
<path d="M167.843 109.715C167.797 109.8 165.97 108.641 163.413 108.052C160.861 107.435 158.703 107.652 158.703 107.555C158.697 107.521 159.228 107.418 160.101 107.401C160.969 107.378 162.18 107.458 163.481 107.767C164.777 108.075 165.896 108.544 166.667 108.955C167.432 109.361 167.86 109.686 167.843 109.715Z" fill="#FF9A6C"/>
</svg>
