<svg width="210" height="210" viewBox="0 0 210 210" fill="none" xmlns="http://www.w3.org/2000/svg">
<g clip-path="url(#clip0_5434_4353)">
<path d="M14.6645 37.4746C15.3557 37.0372 16.0906 36.7048 16.8518 36.4686L17.263 34.2728L20.9551 34.1328L21.5326 36.2892C22.3112 36.4642 23.068 36.7441 23.7898 37.1247L25.6315 35.8649L28.3394 38.3756L27.2239 40.3046C27.6613 40.9957 27.9938 41.7305 28.23 42.4916L30.4261 42.9028L30.5661 46.5945L28.4094 47.1718C28.2344 47.9504 27.9588 48.7071 27.5738 49.4289L28.8337 51.2703L26.3227 53.9779L24.3892 52.8625C23.698 53.2999 22.963 53.6323 22.2019 53.8685L21.7907 56.0643L18.0985 56.2043L17.5211 54.0478C16.7424 53.8729 15.9856 53.5929 15.2638 53.2124L13.4221 54.4721L10.7142 51.9614L11.8297 50.0325C11.3923 49.3414 11.0598 48.6065 10.8236 47.8455L8.62756 47.4343L8.49194 43.7382L10.6486 43.1608C10.8236 42.3823 11.1036 41.6256 11.4842 40.9038L10.2243 39.0624L12.7353 36.3548L14.6645 37.4746ZM16.7336 42.3516C15.2463 43.9569 15.3425 46.4633 16.948 47.9504C18.5535 49.4376 21.0601 49.3414 22.5475 47.7361C24.0348 46.1308 23.9386 43.6245 22.3331 42.1373C20.7276 40.6501 18.221 40.7464 16.7336 42.3516Z" fill="#F5F5F5"/>
<path d="M183.895 115.573C184.586 115.136 185.321 114.803 186.082 114.567L186.494 112.371L190.186 112.231L190.763 114.388C191.542 114.563 192.299 114.843 193.021 115.223L194.862 113.964L197.57 116.474L196.455 118.403C196.892 119.094 197.224 119.829 197.461 120.59L199.657 121.001L199.797 124.693L197.64 125.27C197.465 126.049 197.185 126.806 196.805 127.527L198.064 129.369L195.553 132.076L193.62 130.961C192.929 131.399 192.194 131.731 191.433 131.967L191.021 134.163L187.329 134.303L186.752 132.146C185.973 131.972 185.216 131.692 184.494 131.311L182.653 132.571L179.945 130.06L181.06 128.131C180.623 127.44 180.291 126.705 180.054 125.944L177.858 125.533L177.718 121.841L179.875 121.264C180.05 120.485 180.33 119.729 180.71 119.007L179.451 117.165L181.962 114.458L183.895 115.573ZM185.964 120.45C184.477 122.056 184.573 124.562 186.179 126.049C187.784 127.536 190.291 127.44 191.778 125.835C193.265 124.229 193.169 121.723 191.564 120.236C189.958 118.753 187.452 118.845 185.964 120.45Z" fill="#F5F5F5"/>
<path d="M19.5684 17.7347C19.8878 17.5335 20.229 17.376 20.5833 17.2666L20.7758 16.2475L22.4906 16.1819L22.7575 17.1835C23.1206 17.2666 23.4706 17.3935 23.8074 17.5728L24.6648 16.9867L25.9247 18.1546L25.4041 19.0513C25.6053 19.3706 25.7628 19.7161 25.8722 20.0704L26.8915 20.2629L26.9571 21.9775L25.9553 22.2443C25.8722 22.6074 25.7453 22.9573 25.566 23.2941L26.1522 24.1514L24.9842 25.4111L24.0874 24.8906C23.768 25.0918 23.4224 25.2493 23.0681 25.3586L22.8756 26.3778L21.1608 26.4434L20.8939 25.4417C20.5308 25.3586 20.1809 25.2318 19.844 25.0525L18.9866 25.6386L17.7267 24.4707L18.2473 23.574C18.0461 23.2547 17.8886 22.9092 17.7792 22.5592L16.76 22.3668L16.6943 20.6522L17.6961 20.3853C17.7792 20.0223 17.9061 19.6724 18.0855 19.3356L17.4993 18.4783L18.6673 17.2185L19.5684 17.7347ZM20.5308 20.0048C19.8397 20.7528 19.8834 21.9163 20.6315 22.6074C21.3795 23.2985 22.5431 23.2547 23.2343 22.5068C23.9255 21.7588 23.8818 20.5953 23.1337 19.9042C22.3857 19.2131 21.222 19.2568 20.5308 20.0048Z" fill="#F5F5F5"/>
<path d="M30.7893 171.806L26.2266 173.674C26.2266 173.674 27.7927 177.506 23.8425 179.203C21.7908 180.086 20.1634 179.168 19.3016 178.31C18.3042 177.313 17.893 175.878 18.1161 174.483C18.3699 172.891 19.5904 171.036 22.8844 170.319L18.6761 160.031L14.1659 161.877L16.6332 167.905C16.6332 167.905 10.9768 172.13 13.829 179.102C16.5588 185.773 23.1775 184.876 25.7366 183.826C27.6877 183.021 34.1665 179.815 30.7893 171.806Z" fill="#EBEBEB"/>
<path d="M13.2432 159.781L17.8223 157.907L16.0728 153.632L11.4938 155.506L13.2432 159.781Z" fill="#EBEBEB"/>
<path d="M190.243 57.1448L194.464 58.9163C194.464 58.9163 195.951 55.3733 199.661 56.8518C201.59 57.6216 202.054 59.2881 202.054 60.421C202.054 61.7332 201.38 62.9448 200.317 63.7146C199.106 64.5938 197.085 65.0094 194.451 63.3166L190.461 72.8345L194.635 74.5842L196.971 69.0072C196.971 69.0072 203.463 69.9477 206.166 63.4959C208.756 57.3242 203.817 53.5669 201.45 52.5739C199.644 51.8129 193.283 49.6608 190.243 57.1448Z" fill="#EBEBEB"/>
<path d="M193.863 76.5505L189.627 74.7749L187.968 78.732L192.204 80.5076L193.863 76.5505Z" fill="#EBEBEB"/>
<path d="M195.042 35.3838L185.956 39.2636L187.04 40.6151L179.809 44.9192L190.335 40.7639L189.215 39.3729L195.042 35.3838Z" fill="#E0E0E0"/>
<path d="M163.597 8.71533L161.786 25.2973L164.673 24.8206L165.019 39.0187L167.617 20.0966L164.643 20.5909L163.597 8.71533Z" fill="#E0E0E0"/>
<path d="M181.231 13.0413L176.091 27.5588C175.671 28.7442 176.2 30.0607 177.329 30.6206C178.519 31.2155 179.962 30.7737 180.614 29.6146L188.252 16.0813C188.83 15.0578 188.379 13.7587 187.29 13.3081L183.821 11.8822C182.784 11.4623 181.603 11.9872 181.231 13.0413Z" fill="#E0E0E0"/>
<path d="M177.674 40.1736C176.301 41.7264 173.93 41.8707 172.381 40.4973C170.828 39.1238 170.684 36.7531 172.057 35.2047C173.431 33.6519 175.802 33.5075 177.351 34.881C178.904 36.2501 179.048 38.6208 177.674 40.1736Z" fill="#E0E0E0"/>
<path d="M181.102 82.9842C184.326 77.5678 185.431 70.9547 184.374 64.7332C184.33 64.4824 184.282 64.236 184.221 63.9896C183.769 61.8292 183.421 60.078 182.389 58.2432C182.285 58.0144 182.176 57.7856 182.063 57.5612C181.95 57.3368 181.837 57.1124 181.719 56.888C177.451 48.8757 168.822 43.4242 159.823 43.0546C158.296 28.3895 148.162 14.9785 134.572 9.63254C120.983 4.28659 104.548 7.24776 93.6219 17.0157C82.0778 8.27295 66.1257 5.84418 52.5452 10.7633C38.9646 15.6825 28.1646 27.8043 24.74 41.9722C23.6914 46.3061 23.2562 50.8953 21.0675 54.7717C19.4183 57.6932 16.8902 59.99 14.7276 62.5508C7.83505 70.7215 4.73254 82.0338 6.47743 92.6332C8.22232 103.233 14.7842 112.917 23.9263 118.391C16.6204 128.532 19.1834 144.513 29.2872 151.799C35.0876 155.984 42.8243 157.59 47.2452 163.239C49.125 165.642 50.2129 168.576 51.8446 171.159C57.3926 179.942 69.72 183.536 79.0406 179.092L128.55 166.368C145.19 167.718 162.278 162.214 175.079 151.386C179.827 147.369 184.091 142.498 186.149 136.598C188.207 130.693 187.716 123.627 183.769 118.809C193.089 109.098 191.754 91.1725 181.102 82.9842Z" fill="#E0E0E0"/>
<path d="M62.4309 106.003C63.1483 105.548 63.9182 105.198 64.71 104.957L65.1387 102.67L68.9883 102.525L69.5877 104.774C70.397 104.957 71.1888 105.246 71.9412 105.644L73.8616 104.327L76.6876 106.943L75.524 108.955C75.9789 109.673 76.3289 110.442 76.5695 111.238L78.8574 111.667L79.0061 115.516L76.7576 116.116C76.5739 116.925 76.2851 117.716 75.887 118.469L77.2038 120.389L74.5878 123.215L72.5755 122.051C71.8581 122.506 71.0881 122.856 70.292 123.097L69.8633 125.384L66.0136 125.529L65.4143 123.28C64.605 123.097 63.8132 122.808 63.0608 122.41L61.1404 123.726L58.3144 121.111L59.478 119.099C59.0231 118.381 58.6731 117.611 58.4325 116.82L56.1446 116.391L55.9958 112.542L58.2444 111.943C58.4281 111.134 58.7168 110.342 59.1149 109.589L57.7982 107.669L60.4142 104.844L62.4309 106.003ZM64.5875 111.09C63.0389 112.765 63.1352 115.376 64.8106 116.925C66.4817 118.473 69.0977 118.377 70.6463 116.702C72.1949 115.026 72.0987 112.415 70.4232 110.867C68.7477 109.318 66.1361 109.415 64.5875 111.09Z" fill="#F5F5F5"/>
<path d="M133.286 44.3464C133.675 44.1015 134.091 43.9134 134.519 43.7822L134.751 42.5443L136.829 42.4656L137.153 43.6816C137.59 43.7778 138.019 43.9353 138.426 44.154L139.463 43.4454L140.989 44.8582L140.359 45.9473C140.604 46.3366 140.792 46.7521 140.924 47.1808L142.157 47.4126L142.236 49.4903L141.02 49.814C140.924 50.2514 140.766 50.68 140.547 51.0868L141.256 52.1235L139.843 53.65L138.754 53.0202C138.365 53.2651 137.949 53.4532 137.52 53.5844L137.288 54.8223L135.21 54.901L134.887 53.685C134.449 53.5844 134.021 53.4313 133.614 53.2126L132.577 53.9212L131.05 52.5084L131.68 51.4193C131.435 51.03 131.247 50.6144 131.116 50.1858L129.878 49.9539L129.808 47.8763L131.024 47.5526C131.12 47.1152 131.278 46.6865 131.496 46.2797L130.788 45.2431L132.201 43.7166L133.286 44.3464ZM134.449 47.0933C133.614 47.9987 133.666 49.4072 134.567 50.247C135.473 51.0825 136.882 51.03 137.721 50.1245C138.557 49.2191 138.505 47.8107 137.603 46.9708C136.702 46.1354 135.289 46.1879 134.449 47.0933Z" fill="#F5F5F5"/>
<path d="M32.8366 130.861C33.3397 130.541 33.8778 130.301 34.429 130.13L34.7265 128.529L37.4168 128.429L37.8368 129.999C38.4055 130.126 38.9567 130.327 39.4816 130.607L40.8246 129.688L42.7976 131.517L41.9839 132.925C42.3032 133.428 42.5482 133.966 42.7144 134.522L44.3112 134.819L44.4118 137.509L42.8413 137.929C42.7144 138.498 42.5132 139.049 42.2332 139.574L43.1519 140.917L41.3233 142.889L39.9147 142.076C39.4116 142.395 38.8736 142.636 38.3224 142.806L38.0249 144.407L35.3345 144.508L34.9146 142.937C34.3459 142.811 33.7947 142.609 33.2697 142.329L31.9267 143.248L29.9538 141.42L30.7675 140.011C30.4481 139.508 30.2031 138.97 30.0369 138.419L28.4358 138.122L28.3352 135.432L29.9057 135.012C30.0325 134.447 30.2338 133.892 30.5137 133.367L29.5951 132.024L31.4237 130.051L32.8366 130.861ZM34.3415 134.412C33.2566 135.58 33.3266 137.409 34.499 138.493C35.667 139.578 37.4956 139.508 38.5805 138.336C39.6654 137.168 39.5954 135.34 38.423 134.255C37.255 133.175 35.4264 133.245 34.3415 134.412Z" fill="#F5F5F5"/>
<path d="M154.926 134.806C155.43 134.487 155.968 134.246 156.519 134.076L156.816 132.475L159.507 132.374L159.927 133.944C160.495 134.071 161.046 134.272 161.571 134.552L162.914 133.634L164.887 135.462L164.074 136.871C164.393 137.374 164.634 137.912 164.804 138.467L166.401 138.765L166.502 141.455L164.931 141.874C164.804 142.439 164.603 142.994 164.323 143.519L165.242 144.862L163.413 146.835L162.005 146.021C161.501 146.34 160.963 146.581 160.408 146.752L160.11 148.352L157.42 148.453L157 146.883C156.431 146.756 155.88 146.555 155.355 146.275L154.012 147.193L152.039 145.365L152.853 143.957C152.534 143.453 152.289 142.915 152.122 142.364L150.521 142.067L150.421 139.377L151.991 138.957C152.118 138.393 152.319 137.837 152.599 137.312L151.681 135.969L153.509 133.997L154.926 134.806ZM156.436 138.358C155.351 139.526 155.421 141.354 156.593 142.439C157.761 143.523 159.59 143.453 160.675 142.281C161.76 141.109 161.69 139.285 160.517 138.2C159.345 137.12 157.521 137.19 156.436 138.358Z" fill="#F5F5F5"/>
<path d="M44.5822 85.7072C43.9522 84.1413 42.618 82.8509 40.995 82.3873C39.6039 81.9893 37.9634 82.1467 36.8785 81.1888C36.3623 80.7339 36.0561 80.0866 35.6012 79.5704C34.7875 78.6475 33.5495 78.2013 32.329 78.0395C28.2431 77.4884 24.4941 80.2834 23.0024 83.5595C21.3313 84.6662 19.634 85.7947 18.3697 87.3475C17.1098 88.9046 16.3311 90.9823 16.7992 92.9288C17.1404 94.3591 18.1116 95.5794 18.4616 97.0054C18.7853 98.3088 18.5709 99.6823 18.6715 101.021C18.7765 102.359 19.3452 103.829 20.5964 104.319C22.1406 104.922 24.0479 103.785 25.474 104.629C26.4408 105.202 26.7514 106.458 27.5432 107.263C28.9124 108.653 31.2266 108.295 33.0726 107.656C35.2074 106.917 37.2547 105.937 39.1664 104.739C40.4176 103.956 41.6293 103.059 42.513 101.878C43.3966 100.697 43.926 99.188 43.6854 97.7315C43.5366 96.8435 43.1123 96.0081 43.0554 95.1114C42.9592 93.528 44.0003 92.1371 44.5647 90.6543C45.1596 89.0752 45.2121 87.2731 44.5822 85.7072Z" fill="#F5F5F5"/>
<path d="M41.5245 102.88L37.5349 105.631L37.5305 105.636L41.6164 107.083L41.5245 102.88Z" fill="#F5F5F5"/>
<path d="M28.5101 92.9681C28.5101 93.8779 27.7752 94.6128 26.8653 94.6128C25.9554 94.6128 25.2205 93.8779 25.2205 92.9681C25.2205 92.0583 25.9554 91.3235 26.8653 91.3235C27.7752 91.3235 28.5101 92.0627 28.5101 92.9681Z" fill="#263238"/>
<path d="M33.6237 92.9681C33.6237 93.8779 32.8887 94.6128 31.9788 94.6128C31.0689 94.6128 30.334 93.8779 30.334 92.9681C30.334 92.0583 31.0689 91.3235 31.9788 91.3235C32.8887 91.3235 33.6237 92.0627 33.6237 92.9681Z" fill="#263238"/>
<path d="M38.7335 92.9681C38.7335 93.8779 37.9986 94.6128 37.0887 94.6128C36.1788 94.6128 35.4438 93.8779 35.4438 92.9681C35.4438 92.0583 36.1788 91.3235 37.0887 91.3235C37.9986 91.3235 38.7335 92.0627 38.7335 92.9681Z" fill="#263238"/>
<path d="M169.805 57.9191C169.433 57.3199 168.637 57.1755 167.937 57.1143C165.395 56.8868 162.823 56.9743 160.303 57.3811C159.411 57.5254 158.142 57.4423 158.055 56.5457C158.002 56.0164 158.483 55.5703 158.978 55.3822C159.839 55.0541 160.802 55.2072 161.725 55.1897C162.648 55.1678 163.698 54.8617 164.07 54.0175C164.634 52.7359 163.168 51.4062 161.782 51.2049C160.395 51.0037 158.938 51.3843 157.6 50.9688L154.682 51.03C152.53 51.065 150.377 51.3799 148.304 51.9573C147.722 52.1191 147.039 52.4297 146.996 53.0333C146.956 53.6238 147.56 54.0262 147.84 54.5467C148.404 55.5921 147.486 56.9131 146.366 57.3242C145.25 57.7354 144.017 57.5692 142.827 57.661C141.641 57.7529 140.32 58.2472 139.926 59.3713C139.616 60.2592 139.988 61.2653 139.716 62.1663C139.371 63.3079 138.111 63.9072 136.939 64.1171C135.766 64.3271 134.524 64.2965 133.443 64.7907C131.868 65.5081 130.919 67.3802 131.265 69.0773C131.61 70.7701 133.225 72.1216 134.952 72.161C135.792 72.1829 136.615 71.9292 137.455 71.8854C138.067 71.8548 138.732 71.9729 139.218 72.3141C139.323 74.0856 140.548 75.8265 142.289 76.2901C143.448 76.6007 144.69 76.4038 145.867 76.6532C147.044 76.9025 148.251 77.8998 148.024 79.0764C147.866 79.9162 147.026 80.5329 146.961 81.3859C146.878 82.4313 148.011 83.1924 149.056 83.2886C150.097 83.3848 151.143 83.0611 152.188 83.1224C153.234 83.1836 154.402 83.8485 154.424 84.8982C154.45 86.0617 153.081 86.8841 153.054 88.0476C153.033 89.023 153.969 89.7447 154.879 90.0946C155.789 90.4445 156.808 90.6282 157.525 91.2887C158.243 91.9492 158.361 93.362 157.473 93.7557C158.916 93.7032 159.761 91.6124 158.763 90.5714C158.146 89.9284 157.101 89.7534 156.624 89.0011C156.09 88.1613 156.559 86.9978 157.324 86.3635C158.09 85.7293 159.083 85.4581 159.993 85.047C160.902 84.6402 161.808 83.9928 162.044 83.0261C162.399 81.5783 161.007 80.2049 159.551 79.8812C158.094 79.5575 156.585 79.9249 155.097 80.0124C153.61 80.0999 151.917 79.7981 151.077 78.5646C152.7 77.7948 154.319 77.0206 155.942 76.2507C156.384 76.0408 156.873 75.7827 157.022 75.3147C157.293 74.4793 156.34 73.7969 155.539 73.4339C154.485 72.9527 153.426 72.4716 152.372 71.9948C152.359 71.8023 152.32 71.6143 152.245 71.4305C154.17 70.6388 156.344 70.9407 158.405 71.2206C160.465 71.5005 162.67 71.7192 164.529 70.7919C166.388 69.8646 167.587 67.3277 166.393 65.6262C165.745 64.7076 164.498 64.0778 164.472 62.958C164.45 62.0307 165.334 61.3265 166.213 61.0291C167.092 60.7316 168.059 60.6748 168.873 60.2286C169.691 59.7781 170.295 58.7064 169.805 57.9191Z" fill="#F5F5F5"/>
<path d="M146.703 64.817C147.573 64.817 148.278 64.112 148.278 63.2424C148.278 62.3727 147.573 61.6677 146.703 61.6677C145.833 61.6677 145.128 62.3727 145.128 63.2424C145.128 64.112 145.833 64.817 146.703 64.817Z" fill="#263238"/>
<path d="M153.164 63.2424C153.164 64.1128 152.46 64.817 151.589 64.817C150.719 64.817 150.015 64.1128 150.015 63.2424C150.015 62.3719 150.719 61.6677 151.589 61.6677C152.46 61.6677 153.164 62.3719 153.164 63.2424Z" fill="#263238"/>
<path d="M156.48 64.817C157.35 64.817 158.055 64.112 158.055 63.2424C158.055 62.3727 157.35 61.6677 156.48 61.6677C155.61 61.6677 154.905 62.3727 154.905 63.2424C154.905 64.112 155.61 64.817 156.48 64.817Z" fill="#263238"/>
<path d="M46.2402 26.9683C42.7405 26.9551 39.3371 29.1859 37.9547 32.4008C36.5724 35.6157 37.2986 39.6224 39.7177 42.1462C35.4175 43.0735 32.6571 48.108 33.812 52.3509C34.9669 56.5937 39.499 59.498 43.8867 59.1919C48.2744 58.8857 52.2027 55.6795 53.8169 51.5898C55.0068 54.9753 58.4015 57.4641 61.9887 57.5778C65.5758 57.6916 69.1236 55.4214 70.5235 52.1147C72.457 55.7189 77.9821 56.3225 81.1405 53.7243C84.299 51.1261 85.0295 46.2972 83.5116 42.4961C81.9936 38.6951 78.6208 35.8738 74.9112 34.1548C77.2778 32.0203 77.5753 28.1099 75.8867 25.4067C74.2025 22.7036 70.8734 21.2558 67.6931 21.4176C64.5084 21.5794 61.5162 23.1978 59.2633 25.4505C58.2396 22.7604 55.2868 20.9408 52.4215 21.2426C49.5561 21.5444 47.0451 23.937 46.6077 26.7845" fill="#F5F5F5"/>
<path d="M51.1049 34.7803L55.2126 42.0194C55.5495 42.6099 56.2713 42.8592 56.9012 42.5967C57.5661 42.3212 57.8942 41.5732 57.6536 40.8996L54.8277 32.9913C54.6133 32.3921 53.9221 32.1165 53.3534 32.4008L51.5424 33.315C51.0087 33.5862 50.8074 34.2554 51.1049 34.7803Z" fill="#263238"/>
<path d="M60.93 45.8379C61.0788 46.9489 60.3001 47.9681 59.189 48.1168C58.0778 48.2655 57.0585 47.487 56.9098 46.3759C56.7611 45.2649 57.5398 44.2458 58.6509 44.0971C59.762 43.9483 60.7813 44.7269 60.93 45.8379Z" fill="#263238"/>
<path d="M64.3995 30.4718L64.5308 37.6539C64.5395 38.2401 64.9901 38.73 65.5719 38.7912C66.1887 38.8568 66.7487 38.4238 66.8406 37.8114L67.9604 30.6467C68.0436 30.1043 67.6367 29.6101 67.0855 29.5926L65.3357 29.5401C64.8195 29.527 64.3908 29.9513 64.3995 30.4718Z" fill="#EBEBEB"/>
<path d="M67.2951 42.9071C66.9496 43.8082 65.939 44.2631 65.0335 43.9175C64.1323 43.572 63.6774 42.5616 64.023 41.6562C64.3686 40.7551 65.3791 40.3002 66.2846 40.6458C67.1858 40.9913 67.6407 42.0017 67.2951 42.9071Z" fill="#EBEBEB"/>
<path d="M130.307 102.456L126.584 112.966C126.278 113.824 126.662 114.777 127.481 115.184C128.342 115.613 129.388 115.293 129.86 114.458L135.39 104.66C135.81 103.917 135.482 102.976 134.694 102.652L132.183 101.62C131.435 101.31 130.578 101.69 130.307 102.456Z" fill="#F5F5F5"/>
<path d="M127.734 122.095C126.741 123.219 125.022 123.324 123.902 122.331C122.778 121.338 122.673 119.619 123.666 118.5C124.659 117.376 126.378 117.271 127.498 118.263C128.622 119.256 128.732 120.971 127.734 122.095Z" fill="#F5F5F5"/>
<path d="M86.8847 31.1369H90.4324C90.4324 31.1369 90.4324 27.8694 93.5253 27.8126C95.1307 27.782 95.9663 28.9367 96.3031 29.8203C96.6968 30.8482 96.5787 32.0204 96.0494 32.9696C95.4501 34.0587 94.129 35.0473 91.7404 34.5836V43.3579H95.2488V38.2184C95.2488 38.2184 100.166 36.8231 100.166 30.8788C100.166 25.1881 95.5157 23.8672 93.5253 23.8672C92.0029 23.8672 86.819 24.2696 86.8847 31.1369Z" fill="#F5F5F5"/>
<path d="M95.2923 45.1646H91.7314V48.8125H95.2923V45.1646Z" fill="#F5F5F5"/>
<path d="M180.22 94.1054C180.22 94.1054 180.264 94.0573 180.369 93.9698C180.474 93.8867 180.645 93.7818 180.898 93.7074C181.152 93.633 181.489 93.6024 181.874 93.6899C182.255 93.773 182.683 93.9961 183.003 94.4072C183.326 94.8097 183.541 95.3783 183.571 96.0125C183.606 96.6511 183.427 97.3466 183.086 98.0158C182.386 99.3499 181.174 100.645 179.625 101.821C178.851 102.412 177.985 102.972 177.062 103.527C176.135 104.083 175.155 104.651 174.096 105.181C173.037 105.705 171.9 106.208 170.662 106.571C170.045 106.76 169.402 106.904 168.741 106.996C168.081 107.096 167.394 107.136 166.703 107.109C166.016 107.092 165.272 107.005 164.656 106.585C164.354 106.375 164.113 106.047 164.039 105.675C163.956 105.299 164.03 104.909 164.174 104.564C164.468 103.86 165.01 103.304 165.552 102.775C166.104 102.246 166.712 101.764 167.35 101.305C168.632 100.4 170.001 99.5555 171.41 98.6851C172.827 97.8321 174.337 97.0186 176.012 96.498C176.848 96.24 177.718 96.0563 178.611 95.9863C179.503 95.9207 180.43 95.9557 181.31 96.24C182.176 96.5155 183.055 97.0186 183.536 97.8627C184.035 98.6982 183.987 99.7786 183.589 100.649C183.195 101.546 182.443 102.241 181.616 102.749C180.776 103.256 179.853 103.615 178.904 103.895C176.992 104.441 174.949 104.59 172.906 104.472C170.859 104.358 168.798 103.991 166.729 103.575C165.692 103.37 164.647 103.147 163.619 102.814C163.107 102.648 162.595 102.46 162.101 102.228C161.611 102.001 161.108 101.729 160.732 101.296C160.548 101.082 160.404 100.811 160.364 100.518C160.316 100.225 160.386 99.9229 160.509 99.6649C160.771 99.1443 161.23 98.7638 161.712 98.4839C162.687 97.9021 163.82 97.6747 164.936 97.5653C167.175 97.3816 169.455 97.3729 171.751 97.5828C172.897 97.6922 174.048 97.854 175.19 98.0989C175.763 98.217 176.327 98.3614 176.896 98.5189C177.456 98.6763 178.046 98.8557 178.536 99.2318C179.017 99.6036 179.385 100.22 179.271 100.872C179.149 101.524 178.619 101.961 178.112 102.267C177.058 102.862 175.89 103.238 174.682 103.4C174.078 103.479 173.466 103.497 172.858 103.462C172.25 103.422 171.633 103.339 171.047 103.12C170.469 102.91 169.892 102.556 169.564 101.987C169.227 101.419 169.275 100.688 169.573 100.124C170.154 98.9694 171.489 98.3089 172.766 98.427C173.405 98.4882 174.043 98.7638 174.468 99.2712C174.888 99.7698 175.102 100.435 175.045 101.091C175.015 101.419 174.914 101.743 174.726 102.022C174.542 102.302 174.275 102.521 173.987 102.674C173.392 102.976 172.7 103.007 172.071 102.862C171.445 102.718 170.802 102.364 170.513 101.721C170.369 101.401 170.404 100.999 170.614 100.71C170.815 100.417 171.13 100.238 171.458 100.155C172.136 100.006 172.779 100.22 173.392 100.387C174.008 100.57 174.625 100.811 175.163 101.187C175.706 101.559 176.156 102.088 176.397 102.714C176.646 103.335 176.62 104.083 176.292 104.678C175.973 105.272 175.456 105.736 174.879 106.06C174.302 106.392 173.654 106.589 172.994 106.663C171.677 106.816 170.299 106.484 169.196 105.727C168.09 104.975 167.25 103.868 166.747 102.63C166.248 101.401 166.051 99.9842 166.484 98.6763C166.694 98.029 167.105 97.4385 167.661 97.0317C168.212 96.6249 168.86 96.3931 169.507 96.2312C170.806 95.9119 172.145 95.8726 173.453 95.9207C174.761 95.9863 176.078 96.0388 177.359 96.3581C178.628 96.6686 179.87 97.3422 180.636 98.4401C181.017 98.9869 181.244 99.6386 181.288 100.299C181.332 100.96 181.213 101.624 180.982 102.232C180.522 103.47 179.59 104.459 178.558 105.207C178.042 105.587 177.491 105.915 176.931 106.222C176.371 106.528 175.802 106.812 175.211 107.044C174.039 107.521 172.722 107.757 171.462 107.512C170.207 107.28 169.056 106.716 168.007 106.047C166.957 105.373 165.994 104.542 165.272 103.527C164.542 102.517 164.126 101.296 164.013 100.072C163.894 98.8425 164.091 97.6047 164.498 96.4587C164.909 95.3127 165.561 94.2585 166.397 93.3925C167.228 92.522 168.217 91.8134 169.293 91.306C170.369 90.803 171.524 90.4837 172.696 90.3744C173.869 90.265 175.05 90.4006 176.165 90.7287C177.272 91.0698 178.335 91.6735 179.031 92.6183C179.726 93.5631 180.006 94.7222 180.094 95.8419C180.234 98.0989 179.809 100.338 178.947 102.355C178.514 103.361 177.985 104.319 177.324 105.181C176.664 106.038 175.863 106.79 174.923 107.311C173.982 107.822 172.91 108.098 171.852 108.028C170.784 107.967 169.787 107.486 169.004 106.816C168.208 106.156 167.556 105.364 166.909 104.599C166.265 103.829 165.644 103.024 165.259 102.092C165.071 101.629 164.949 101.135 164.927 100.636C164.905 100.137 164.988 99.6386 165.137 99.1706C165.443 98.2302 165.99 97.4078 166.598 96.6774C167.818 95.2121 169.433 94.0879 171.226 93.6374C173.002 93.1869 174.936 93.4012 176.436 94.346C177.946 95.2777 178.956 96.7736 179.542 98.322C180.133 99.8792 180.33 101.537 180.124 103.103C179.923 104.664 179.249 106.147 178.142 107.162C177.036 108.181 175.636 108.706 174.288 108.986C172.928 109.253 171.576 109.345 170.294 109.157C169.013 108.982 167.836 108.417 166.97 107.595C166.095 106.781 165.5 105.767 165.159 104.739C164.818 103.706 164.743 102.648 164.866 101.681C165.102 99.7305 165.99 98.1471 166.961 97.0142C167.945 95.8769 169.008 95.1421 169.896 94.6434C170.793 94.1448 171.524 93.8649 172.022 93.6899C172.521 93.5193 172.779 93.4581 172.779 93.4581C172.779 93.4581 172.718 93.4799 172.591 93.5237C172.464 93.5631 172.276 93.6243 172.031 93.7161C171.541 93.8955 170.811 94.1798 169.923 94.6872C169.039 95.1946 167.985 95.9294 167.014 97.0623C166.06 98.1908 165.181 99.7655 164.957 101.694C164.844 102.652 164.918 103.693 165.255 104.708C165.592 105.723 166.182 106.72 167.044 107.516C167.897 108.321 169.048 108.868 170.312 109.043C171.572 109.227 172.919 109.13 174.262 108.863C175.596 108.584 176.974 108.059 178.051 107.061C179.127 106.068 179.783 104.621 179.98 103.085C180.177 101.546 179.984 99.9098 179.398 98.3789C178.821 96.8567 177.823 95.387 176.353 94.486C174.897 93.5674 173.007 93.3619 171.27 93.8036C169.52 94.2454 167.937 95.3477 166.738 96.7911C166.139 97.5128 165.605 98.3176 165.312 99.2274C165.167 99.678 165.089 100.155 165.111 100.632C165.132 101.108 165.251 101.581 165.43 102.027C165.806 102.924 166.414 103.72 167.053 104.481C167.7 105.242 168.348 106.025 169.126 106.672C169.896 107.324 170.846 107.779 171.869 107.836C172.889 107.901 173.925 107.634 174.835 107.14C175.745 106.637 176.528 105.902 177.176 105.062C177.823 104.218 178.344 103.273 178.772 102.281C179.621 100.295 180.037 98.0771 179.897 95.8638C179.814 94.7659 179.534 93.6462 178.873 92.7495C178.212 91.8528 177.189 91.2711 176.113 90.9386C175.023 90.6193 173.869 90.4925 172.722 90.5975C171.576 90.7068 170.448 91.0174 169.393 91.5116C167.298 92.5045 165.504 94.2935 164.717 96.5462C164.323 97.6615 164.131 98.8732 164.244 100.067C164.354 101.257 164.756 102.434 165.465 103.413C166.165 104.402 167.105 105.216 168.138 105.876C169.17 106.532 170.303 107.083 171.515 107.306C172.727 107.543 173.987 107.319 175.142 106.851C175.723 106.62 176.283 106.34 176.839 106.038C177.39 105.736 177.932 105.412 178.44 105.036C179.45 104.301 180.347 103.348 180.785 102.162C181.008 101.576 181.113 100.946 181.073 100.321C181.034 99.6955 180.82 99.0919 180.461 98.5757C179.739 97.5347 178.549 96.8873 177.311 96.5855C176.065 96.275 174.752 96.2181 173.453 96.1525C172.154 96.1044 170.837 96.1437 169.568 96.4543C168.938 96.6118 168.317 96.8348 167.805 97.2154C167.289 97.5959 166.909 98.1383 166.712 98.7507C166.305 99.9842 166.484 101.353 166.97 102.543C167.455 103.741 168.269 104.817 169.336 105.539C170.395 106.265 171.716 106.585 172.98 106.44C173.61 106.366 174.232 106.178 174.778 105.863C175.325 105.557 175.811 105.119 176.104 104.573C176.401 104.03 176.428 103.37 176.2 102.797C175.977 102.219 175.561 101.725 175.05 101.375C174.538 101.016 173.943 100.785 173.339 100.605C172.735 100.439 172.106 100.242 171.524 100.378C171.239 100.448 170.973 100.61 170.811 100.841C170.649 101.073 170.618 101.379 170.732 101.642C170.973 102.176 171.55 102.521 172.136 102.648C172.727 102.784 173.37 102.753 173.899 102.477C174.437 102.215 174.796 101.668 174.84 101.073C174.892 100.483 174.695 99.8704 174.315 99.4199C173.934 98.965 173.352 98.7113 172.762 98.6544C171.576 98.5407 170.321 99.1662 169.787 100.229C169.52 100.75 169.481 101.384 169.774 101.887C170.063 102.39 170.588 102.722 171.139 102.924C171.694 103.129 172.294 103.212 172.889 103.252C173.484 103.287 174.083 103.269 174.673 103.195C175.85 103.042 177.001 102.67 178.02 102.092C178.51 101.799 178.982 101.393 179.079 100.846C179.179 100.303 178.86 99.7523 178.427 99.4155C177.981 99.07 177.416 98.895 176.861 98.7376C176.301 98.5845 175.736 98.4357 175.168 98.322C174.035 98.0771 172.893 97.9152 171.756 97.8059C169.476 97.5959 167.202 97.6003 164.979 97.7796C163.877 97.889 162.775 98.1121 161.838 98.6676C161.375 98.9388 160.95 99.2974 160.714 99.7611C160.469 100.225 160.557 100.793 160.907 101.178C161.243 101.576 161.72 101.839 162.206 102.062C162.691 102.289 163.195 102.477 163.698 102.639C164.713 102.963 165.754 103.19 166.786 103.396C168.855 103.811 170.903 104.179 172.937 104.293C174.967 104.411 176.988 104.266 178.873 103.728C179.809 103.453 180.723 103.098 181.542 102.604C182.351 102.11 183.073 101.441 183.449 100.588C183.834 99.7523 183.878 98.7376 183.409 97.959C182.963 97.1673 182.123 96.6774 181.283 96.4106C180.426 96.135 179.525 96.1 178.646 96.1612C177.766 96.2269 176.904 96.4062 176.082 96.6599C174.428 97.1716 172.928 97.9765 171.515 98.825C170.111 99.6911 168.733 100.535 167.46 101.432C166.825 101.887 166.222 102.364 165.675 102.889C165.132 103.409 164.603 103.956 164.323 104.625C164.183 104.953 164.118 105.316 164.192 105.657C164.262 105.998 164.476 106.292 164.756 106.488C165.334 106.882 166.056 106.978 166.734 106.996C167.42 107.026 168.094 106.991 168.75 106.891C169.406 106.799 170.045 106.655 170.658 106.471C171.887 106.117 173.02 105.618 174.074 105.097C175.128 104.573 176.113 104.004 177.036 103.453C177.959 102.897 178.821 102.342 179.595 101.76C181.139 100.597 182.351 99.3149 183.051 97.9983C183.392 97.3379 183.571 96.6555 183.541 96.0256C183.514 95.4002 183.309 94.8447 182.994 94.4466C182.683 94.0398 182.268 93.8211 181.896 93.7336C181.52 93.6418 181.187 93.668 180.938 93.738C180.4 93.878 180.229 94.1229 180.22 94.1054Z" fill="#F5F5F5"/>
<path d="M133.981 19.5979C133.981 19.5979 134.056 19.5192 134.222 19.3836C134.388 19.2524 134.664 19.0818 135.07 18.9637C135.473 18.8456 136.015 18.7975 136.628 18.9418C137.236 19.0774 137.918 19.4361 138.426 20.0922C138.942 20.7352 139.288 21.6406 139.331 22.6554C139.384 23.6745 139.095 24.7855 138.548 25.8572C137.424 27.9917 135.486 30.0606 133.006 31.9415C131.763 32.8863 130.381 33.783 128.898 34.6753C127.415 35.5632 125.844 36.473 124.147 37.3259C122.45 38.1657 120.63 38.9706 118.648 39.5479C117.664 39.8454 116.636 40.0772 115.573 40.2303C114.514 40.3921 113.421 40.4534 112.314 40.4096C111.216 40.3834 110.035 40.239 109.055 39.5742C108.578 39.2374 108.202 38.7256 108.079 38.1351C107.948 37.5446 108.066 36.9279 108.298 36.3768C108.766 35.2614 109.628 34.3691 110.498 33.5293C111.382 32.6807 112.353 31.9109 113.373 31.176C114.392 30.4412 115.464 29.7501 116.553 29.059C117.642 28.3679 118.745 27.6637 119.878 26.9813C122.144 25.6166 124.567 24.3175 127.24 23.4864C128.574 23.0709 129.965 22.7779 131.396 22.6729C132.818 22.5679 134.296 22.6291 135.705 23.0753C136.405 23.2984 137.087 23.6045 137.704 24.0245C138.321 24.4444 138.872 24.9867 139.244 25.6516C140.036 26.9726 139.961 28.6828 139.323 30.0694C138.697 31.4953 137.503 32.602 136.182 33.4068C134.843 34.216 133.369 34.789 131.846 35.2351C128.793 36.1099 125.525 36.3461 122.257 36.1581C118.976 35.9743 115.687 35.3839 112.371 34.7234C110.713 34.3909 109.037 34.0323 107.392 33.5074C106.574 33.2406 105.761 32.9388 104.969 32.5713C104.182 32.2127 103.385 31.7796 102.799 31.0929C102.51 30.7517 102.283 30.3318 102.226 29.8726C102.152 29.4177 102.257 28.9453 102.454 28.5385C102.865 27.7205 103.591 27.1213 104.357 26.6708C105.905 25.7478 107.712 25.3848 109.497 25.2054C113.079 24.9124 116.732 24.8993 120.407 25.2404C122.244 25.4154 124.081 25.6778 125.91 26.0715C126.824 26.2596 127.734 26.4914 128.64 26.7407C129.537 26.9944 130.473 27.2744 131.247 27.8736C131.632 28.171 131.956 28.5516 132.174 28.9934C132.393 29.4308 132.494 29.9469 132.398 30.4368C132.31 30.9311 132.048 31.3729 131.711 31.7315C131.378 32.0946 130.98 32.3789 130.565 32.6282C128.889 33.5774 127.021 34.1766 125.096 34.4303C124.134 34.5528 123.158 34.5834 122.183 34.5265C121.212 34.4609 120.227 34.3297 119.3 33.9842C118.381 33.6474 117.476 33.0919 116.96 32.1995C116.702 31.7578 116.583 31.246 116.592 30.7342C116.605 30.2225 116.75 29.7238 116.973 29.2733C117.891 27.4537 120 26.3996 122.021 26.592C123.027 26.6882 124.038 27.1213 124.703 27.9174C125.363 28.7047 125.704 29.7501 125.613 30.7824C125.569 31.2941 125.403 31.8059 125.114 32.2433C124.825 32.6807 124.41 33.0219 123.95 33.2624C123.018 33.7392 121.925 33.7917 120.923 33.5599C119.934 33.3324 118.924 32.7682 118.473 31.7753C118.255 31.281 118.307 30.6643 118.626 30.2181C118.937 29.7676 119.427 29.4833 119.943 29.3564C120.464 29.2296 120.997 29.2689 121.509 29.3564C122.021 29.4483 122.515 29.5839 123.01 29.7282C123.994 30.0213 124.974 30.4018 125.831 31.0011C126.693 31.5916 127.406 32.427 127.782 33.4155C127.971 33.9098 128.071 34.4434 128.045 34.9771C128.023 35.5107 127.861 36.0356 127.616 36.5036C127.113 37.444 126.295 38.1789 125.376 38.6906C124.921 38.9531 124.436 39.1674 123.928 39.3205C123.425 39.4867 122.909 39.5917 122.384 39.6529C120.289 39.8979 118.101 39.3686 116.347 38.1614C114.584 36.9673 113.246 35.2001 112.45 33.2318C112.051 32.2433 111.771 31.2023 111.688 30.1306C111.596 29.0634 111.684 27.9698 112.03 26.9463C112.362 25.9184 113.014 24.9867 113.889 24.3438C114.764 23.6964 115.792 23.329 116.82 23.0709C118.889 22.5635 121.028 22.4979 123.128 22.5766C125.223 22.686 127.332 22.7691 129.375 23.2765C131.4 23.7751 133.373 24.8424 134.589 26.5876C135.193 27.4537 135.556 28.4816 135.622 29.5314C135.687 30.5812 135.508 31.6309 135.136 32.602C134.41 34.5703 132.923 36.1406 131.273 37.3391C130.447 37.947 129.567 38.4719 128.675 38.9618C127.782 39.4517 126.868 39.9022 125.923 40.2784C124.978 40.6546 123.994 40.9433 122.988 41.0876C121.982 41.2363 120.949 41.2057 119.956 41.0264C117.957 40.659 116.12 39.7579 114.44 38.6906C112.764 37.6146 111.229 36.2937 110.078 34.6709C108.915 33.0569 108.25 31.1192 108.075 29.1683C107.887 27.2088 108.202 25.2361 108.845 23.4077C109.169 22.4935 109.597 21.6187 110.105 20.7964C110.35 20.3765 110.656 20.0047 110.927 19.6067C111.238 19.2392 111.535 18.8587 111.872 18.5175C113.202 17.131 114.777 15.9981 116.492 15.1845C118.211 14.3797 120.057 13.8723 121.925 13.6973C123.793 13.5267 125.678 13.7367 127.459 14.2572C129.222 14.7996 130.915 15.7619 132.017 17.2578C133.119 18.7537 133.57 20.5996 133.706 22.3886C133.929 25.9884 133.251 29.5751 131.877 32.7944C131.186 34.3997 130.337 35.935 129.283 37.3084C128.229 38.6731 126.951 39.876 125.451 40.7027C123.955 41.5163 122.249 41.958 120.56 41.8443C119.72 41.7875 118.889 41.5906 118.128 41.2451C117.362 40.9083 116.662 40.4446 116.028 39.9197C114.755 38.8656 113.714 37.6015 112.677 36.3768C111.645 35.1433 110.656 33.8573 110.039 32.3789C109.742 31.6397 109.549 30.8567 109.51 30.0606C109.479 29.2646 109.606 28.4772 109.847 27.7293C110.332 26.2333 111.203 24.9211 112.178 23.7533C114.129 21.4131 116.706 19.6154 119.563 18.8981C122.397 18.1807 125.481 18.5219 127.87 20.0266C129.069 20.757 130.075 21.7456 130.901 22.8303C131.711 23.9282 132.363 25.1267 132.826 26.3733C133.771 28.8622 134.082 31.5128 133.758 34.0104C133.596 35.2614 133.242 36.4686 132.721 37.5796C132.201 38.6906 131.461 39.6748 130.595 40.4884C128.832 42.1111 126.597 42.9597 124.44 43.4059C122.266 43.8345 120.101 43.9832 118.053 43.6814C117.034 43.5283 116.045 43.2528 115.149 42.8241C114.247 42.3998 113.443 41.8356 112.743 41.1882C111.347 39.8891 110.393 38.2707 109.851 36.6261C109.304 34.9771 109.186 33.2887 109.379 31.7403C109.558 30.1875 110.017 28.7659 110.612 27.5193C111.207 26.2683 111.942 25.1923 112.721 24.2781C114.296 22.4542 115.993 21.2819 117.419 20.4771C118.854 19.6766 120.026 19.2261 120.818 18.9462C121.614 18.6706 122.03 18.5656 122.03 18.5656C122.03 18.5656 121.929 18.6006 121.724 18.6662C121.518 18.7275 121.221 18.8281 120.822 18.9681C120.035 19.2524 118.863 19.7073 117.437 20.5165C116.019 21.3257 114.331 22.5023 112.769 24.3219C111.995 25.2317 111.268 26.3077 110.678 27.5543C110.092 28.7965 109.637 30.2094 109.462 31.7534C109.274 33.2931 109.396 34.9639 109.938 36.5955C110.481 38.2226 111.43 39.8235 112.813 41.1095C114.186 42.4042 116.037 43.2878 118.066 43.5633C120.092 43.8608 122.253 43.7077 124.41 43.279C126.553 42.8329 128.767 41.9887 130.499 40.3878C131.348 39.5829 132.074 38.6119 132.59 37.5184C133.102 36.4249 133.447 35.2308 133.609 33.9929C133.929 31.5216 133.618 28.8928 132.678 26.4302C132.214 25.1967 131.575 24.0113 130.77 22.9266C129.952 21.8549 128.959 20.8839 127.778 20.1665C125.429 18.6881 122.393 18.3513 119.593 19.0643C116.776 19.7729 114.23 21.5487 112.301 23.867C111.338 25.0261 110.481 26.3252 110.008 27.7861C109.777 28.5166 109.65 29.2864 109.685 30.0563C109.72 30.8261 109.908 31.5872 110.201 32.3133C110.805 33.7611 111.785 35.0383 112.813 36.263C113.854 37.4878 114.891 38.7431 116.142 39.7798C117.38 40.8252 118.915 41.5688 120.569 41.6606C122.214 41.77 123.885 41.3369 125.354 40.5409C126.824 39.7273 128.084 38.5463 129.121 37.1947C130.162 35.8388 131.002 34.3166 131.685 32.7244C133.045 29.5358 133.714 25.9753 133.496 22.4148C133.36 20.6521 132.914 18.8412 131.846 17.389C130.779 15.9368 129.125 14.9964 127.389 14.4628C125.639 13.951 123.78 13.7411 121.934 13.9117C120.092 14.0866 118.272 14.5853 116.575 15.3813C114.882 16.1818 113.329 17.3015 112.021 18.6662C111.688 19.003 111.4 19.3792 111.093 19.7423C110.827 20.1359 110.525 20.5033 110.284 20.9145C109.785 21.7237 109.361 22.5854 109.042 23.4864C108.407 25.2842 108.097 27.2306 108.285 29.1508C108.46 31.071 109.107 32.965 110.249 34.5484C111.378 36.1406 112.891 37.4484 114.549 38.5113C116.212 39.5654 118.027 40.4534 119.983 40.812C120.958 40.987 121.96 41.0176 122.944 40.8733C123.928 40.7333 124.895 40.449 125.827 40.0772C126.759 39.7054 127.664 39.2593 128.552 38.7737C129.44 38.2882 130.307 37.7677 131.125 37.1685C132.752 35.9831 134.2 34.4478 134.909 32.532C135.267 31.5872 135.442 30.5637 135.377 29.5532C135.311 28.5428 134.965 27.5587 134.384 26.7232C133.806 25.8878 133.023 25.1967 132.148 24.6631C131.273 24.1251 130.302 23.7576 129.3 23.5039C127.292 23.0009 125.188 22.9178 123.102 22.8085C121.015 22.7297 118.898 22.7953 116.859 23.294C115.849 23.5477 114.842 23.9064 114.007 24.5275C113.171 25.1442 112.55 26.0278 112.226 27.0207C111.89 28.0092 111.806 29.0721 111.894 30.1131C111.977 31.1585 112.253 32.1777 112.642 33.1487C113.425 35.082 114.737 36.8142 116.457 37.9777C118.163 39.1543 120.297 39.6704 122.34 39.4298C122.852 39.3686 123.355 39.268 123.841 39.1105C124.331 38.9618 124.803 38.7519 125.245 38.4982C126.133 38.0039 126.921 37.2953 127.397 36.403C127.883 35.5151 127.927 34.4347 127.555 33.503C127.192 32.5626 126.514 31.7621 125.683 31.1935C124.851 30.6161 123.898 30.24 122.927 29.9513C121.955 29.6845 120.945 29.3608 119.983 29.5839C119.514 29.702 119.068 29.9644 118.797 30.3537C118.521 30.743 118.473 31.2591 118.666 31.6965C118.85 32.1383 119.208 32.5014 119.611 32.7769C120.018 33.0525 120.481 33.2362 120.962 33.3499C121.92 33.573 122.962 33.5161 123.832 33.0744C124.261 32.8513 124.646 32.532 124.913 32.1296C125.18 31.7271 125.333 31.2548 125.376 30.7736C125.459 29.8069 125.14 28.8097 124.519 28.0748C123.898 27.3312 122.944 26.9157 121.986 26.8238C120.057 26.6401 118.023 27.6549 117.157 29.3827C116.942 29.8113 116.811 30.2793 116.798 30.7474C116.789 31.2154 116.898 31.6922 117.139 32.0989C117.612 32.9256 118.469 33.4636 119.361 33.7873C120.263 34.1198 121.225 34.251 122.183 34.3166C123.141 34.3734 124.103 34.3428 125.053 34.2247C126.947 33.9754 128.797 33.3805 130.438 32.4532C130.84 32.2127 131.221 31.9371 131.536 31.5959C131.851 31.2591 132.091 30.8567 132.17 30.4106C132.341 29.5095 131.811 28.6041 131.098 28.0573C130.368 27.4931 129.462 27.2131 128.565 26.9638C127.664 26.7145 126.763 26.4827 125.853 26.2946C124.038 25.9009 122.205 25.6429 120.376 25.4679C116.719 25.1311 113.071 25.1398 109.51 25.4285C107.742 25.6035 105.962 25.9622 104.453 26.8632C103.7 27.3006 103.014 27.878 102.629 28.6434C102.445 29.024 102.353 29.4483 102.419 29.8594C102.471 30.275 102.677 30.6555 102.948 30.9792C103.503 31.6265 104.273 32.0508 105.052 32.4095C105.831 32.7725 106.636 33.0744 107.449 33.3368C109.081 33.8617 110.748 34.216 112.401 34.5484C115.713 35.2133 118.998 35.7994 122.262 35.9875C125.516 36.1756 128.762 35.9437 131.789 35.0777C133.294 34.6359 134.764 34.0629 136.081 33.2712C137.385 32.4751 138.553 31.3947 139.156 30.0125C139.777 28.6609 139.847 27.0207 139.091 25.7522C138.736 25.1136 138.203 24.5887 137.608 24.1819C137.008 23.7708 136.343 23.4689 135.657 23.2502C134.279 22.8085 132.822 22.7472 131.409 22.8478C129.996 22.9528 128.614 23.2415 127.288 23.6527C124.633 24.475 122.222 25.7653 119.961 27.1257C118.828 27.808 117.725 28.5079 116.636 29.1989C115.547 29.89 114.479 30.5768 113.46 31.3072C112.445 32.0377 111.474 32.8032 110.595 33.643C109.724 34.4828 108.875 35.362 108.421 36.4424C108.193 36.976 108.084 37.5621 108.206 38.1176C108.32 38.6731 108.674 39.1543 109.125 39.478C110.061 40.1166 111.225 40.2697 112.31 40.2915C113.408 40.3397 114.497 40.2784 115.547 40.1209C116.601 39.9722 117.62 39.7448 118.605 39.4473C120.577 38.8787 122.389 38.0783 124.086 37.2428C125.779 36.3986 127.349 35.4888 128.832 34.6053C130.315 33.7173 131.693 32.825 132.936 31.889C135.412 30.0213 137.35 27.9611 138.474 25.8484C139.021 24.7899 139.309 23.6877 139.261 22.6816C139.222 21.6756 138.885 20.7789 138.378 20.1447C137.879 19.4929 137.205 19.1386 136.606 18.9987C136.002 18.8543 135.464 18.8981 135.066 19.0074C134.266 19.2261 133.994 19.6242 133.981 19.5979Z" fill="black"/>
<path d="M49.5605 76.5088C49.5605 76.5088 49.4773 76.5044 49.3199 76.4825C49.1536 76.4563 48.9174 76.4213 48.6112 76.3732C47.9987 76.2551 47.0626 76.1151 45.9689 75.6165C45.4265 75.3628 44.849 74.9954 44.3547 74.4442C43.8691 73.9018 43.4448 73.1714 43.3704 72.3009C43.3354 71.8723 43.4054 71.4086 43.6154 70.9887C43.8254 70.5732 44.1579 70.2058 44.5691 69.9346C44.9847 69.6721 45.4965 69.5015 46.0258 69.5672C46.5508 69.6371 47.0582 69.9477 47.3513 70.4201C47.6532 70.8925 47.7494 71.4742 47.71 72.0429C47.675 72.6159 47.5 73.1845 47.2201 73.7094C47.0713 73.9674 46.9051 74.2211 46.6951 74.4398C46.5026 74.676 46.2708 74.8729 46.0389 75.0741C45.5534 75.4546 45.0022 75.7608 44.4072 75.9883C43.8079 76.2113 43.1648 76.3338 42.513 76.3732C41.8568 76.4125 41.1832 76.3513 40.527 76.172C39.8708 75.997 39.2321 75.7039 38.6634 75.2972C38.0903 74.8904 37.6135 74.3436 37.246 73.7269C36.5111 72.489 36.2311 70.9625 36.4674 69.4753C36.5855 68.7317 36.8436 68.0012 37.2417 67.3451C37.4429 67.0171 37.6747 66.7065 37.9416 66.4266C38.1997 66.1335 38.519 65.8886 38.8778 65.7092C39.2321 65.5343 39.6696 65.4337 40.0808 65.5649C40.282 65.6305 40.4613 65.7486 40.6188 65.893C40.7632 66.0504 40.8726 66.2429 40.9294 66.4441C41.0475 66.8509 41.0082 67.2664 40.9294 67.6644C40.8463 68.0625 40.7063 68.443 40.5313 68.8061C40.1551 69.5234 39.7483 70.2014 39.3108 70.8837C38.8646 71.5574 38.3659 72.2135 37.7622 72.7777C37.1542 73.342 36.4499 73.7969 35.6712 74.0724C34.8969 74.3524 34.0438 74.4224 33.2477 74.2168C32.4515 74.0156 31.7472 73.565 31.1873 72.9964C30.6273 72.4322 30.1898 71.7542 29.888 71.0368C29.2843 69.589 29.1574 68.045 29.0787 66.5753C29.0393 65.8405 29.0087 65.0925 29.1181 64.3664C29.2274 63.6491 29.4724 62.8967 30.0499 62.4068C30.3342 62.1663 30.6798 62.0044 31.0473 61.9563C31.4104 61.9082 31.7822 61.9563 32.119 62.0832C32.7883 62.3369 33.3439 62.8399 33.6501 63.4654C33.952 64.0908 34.022 64.7907 33.9564 65.4468C33.8907 66.1073 33.707 66.7371 33.4445 67.3145C33.1996 67.9006 32.8583 68.4299 32.4996 68.9242C32.1234 69.4053 31.7166 69.8515 31.2704 70.2364C30.3823 71.0106 29.3762 71.5617 28.3613 71.9248C27.342 72.2791 26.3096 72.419 25.3428 72.384C24.3717 72.3491 23.4705 72.126 22.6787 71.8067C21.0951 71.1549 19.9446 70.1664 19.1878 69.2435C18.4266 68.3162 18.0242 67.4589 17.8098 66.8684C17.6917 66.5753 17.6392 66.3391 17.5954 66.186C17.5561 66.0286 17.5386 65.9498 17.5386 65.9498C17.5561 65.9454 17.6217 66.2691 17.8535 66.8552C18.081 67.437 18.4879 68.2812 19.2578 69.191C20.0146 70.0964 21.1607 71.0675 22.7268 71.6929C23.5099 72.0035 24.3935 72.2135 25.3472 72.2441C26.2965 72.2747 27.3114 72.1303 28.3088 71.7761C29.3018 71.413 30.2861 70.8706 31.1523 70.1095C31.5897 69.7334 31.9878 69.296 32.3509 68.8236C32.6965 68.338 33.0289 67.8219 33.2652 67.2489C33.5189 66.6847 33.6939 66.0723 33.7595 65.4381C33.8207 64.8082 33.7508 64.1477 33.4664 63.5616C33.1864 62.9886 32.6615 62.5162 32.0447 62.2844C31.4279 62.0482 30.6929 62.1269 30.1811 62.5774C29.6605 63.0148 29.4287 63.7147 29.3237 64.4102C29.2187 65.1144 29.2493 65.8405 29.2887 66.5753C29.3674 68.0406 29.4987 69.5584 30.0849 70.9625C30.378 71.658 30.7979 72.3053 31.3404 72.8477C31.8784 73.3901 32.5477 73.8187 33.2958 74.0068C34.0395 74.2037 34.8488 74.1337 35.5881 73.8668C36.3274 73.6044 37.0142 73.167 37.596 72.6202C38.764 71.5136 39.5646 70.0833 40.317 68.7142C40.6407 68.0231 40.8857 67.227 40.702 66.5141C40.6538 66.3391 40.562 66.186 40.4439 66.0548C40.317 65.9367 40.1639 65.8361 39.9976 65.7836C39.6608 65.6743 39.2846 65.753 38.9609 65.9148C38.6328 66.0767 38.3353 66.3085 38.0903 66.5841C37.8322 66.8509 37.6091 67.1527 37.4166 67.4632C37.0361 68.0931 36.7867 68.7973 36.6686 69.5147C36.4411 70.9494 36.708 72.4322 37.4123 73.6219C38.1035 74.8335 39.2977 75.6471 40.5663 75.9839C41.835 76.3382 43.1736 76.2245 44.3328 75.8177C44.9103 75.599 45.444 75.3015 45.9164 74.9385C46.3714 74.5579 46.7826 74.1249 47.0582 73.6306C47.3251 73.1276 47.4957 72.5809 47.5307 72.0385C47.57 71.4961 47.4825 70.9494 47.2026 70.5163C46.9357 70.0789 46.4676 69.7902 45.9952 69.729C45.5096 69.6634 45.0284 69.8208 44.6347 70.0658C44.2454 70.3239 43.926 70.6694 43.7248 71.0587C43.5236 71.4524 43.4579 71.8854 43.4842 72.3009C43.5498 73.132 43.9523 73.8494 44.4203 74.383C44.8972 74.9254 45.4571 75.2884 45.9908 75.5465C47.067 76.0539 47.9944 76.2113 48.6068 76.3382C48.9087 76.395 49.1405 76.4388 49.3111 76.4694C49.4817 76.4913 49.5605 76.5088 49.5605 76.5088Z" fill="black"/>
<path d="M77.7244 64.6248C76.5126 61.6111 74.0804 58.9079 70.9088 58.1949C67.6847 57.4689 64.3644 58.8817 61.5691 60.6444C58.8087 62.3809 56.184 64.6335 55.0203 67.6823C53.9004 70.626 54.5698 74.4095 57.1376 76.1767C54.4779 74.5189 50.4052 76.5266 49.7577 79.654C49.0884 82.8908 51.6125 86.2501 54.806 87.0987C57.597 87.8422 60.6242 86.9412 62.9427 85.1872C61.0223 87.2343 60.7117 90.6941 62.2209 93.1305C63.9576 95.9255 67.6322 97.2027 70.8432 96.4766C74.0497 95.7549 76.7051 93.2617 78.0394 90.2567L79.1986 74.204C79.1199 70.9584 78.9405 67.6385 77.7244 64.6248Z" fill="#263238"/>
<path d="M75.5545 71.9951C72.466 72.9968 71.8361 75.4944 71.193 77.5764C69.8107 82.0598 71.3636 88.6952 73.8747 92.6581C76.3857 96.621 79.1373 98.6374 83.7787 99.3067C83.9318 92.1901 84.0805 85.0691 84.2336 77.9526L75.5545 71.9951Z" fill="#C0DEF2"/>
<path d="M73.8137 84.2511C71.7051 81.513 72.0026 77.2133 74.4698 74.7944C73.1181 73.0973 73.6037 70.4772 74.9773 68.7976C76.3509 67.118 78.3895 66.1557 80.3624 65.2415C81.4429 60.2726 87.0205 56.7777 91.9638 57.9718C94.5404 54.1883 100.026 53.5934 104.418 54.875C105.49 55.1856 106.566 55.5924 107.682 55.588C108.5 55.5836 109.305 55.3605 110.118 55.2512C114.589 54.6476 119.029 57.7969 120.77 61.9566C121.05 62.6215 121.278 63.3213 121.72 63.8943C122.301 64.6423 123.181 65.084 123.929 65.6614C125.547 66.9124 126.58 68.8982 126.663 70.9409C126.737 72.6774 126.182 74.5189 126.912 76.0979C127.28 76.8896 127.94 77.5282 128.225 78.3505C129.051 80.7344 126.409 83.1751 126.899 85.6508C127 86.1582 127.227 86.6262 127.367 87.1205C127.656 88.1353 127.555 89.2506 127.1 90.1998C126.746 90.9303 126.177 91.6039 126.129 92.4131C126.094 93.0298 126.365 93.6159 126.492 94.2196C126.794 95.698 123.605 101.397 122.328 102.202L84.1508 102.543C81.2592 101.953 78.91 99.3372 78.6301 96.4022C78.5819 95.9123 78.5776 95.3831 78.2757 94.9981C78.0176 94.6701 77.602 94.517 77.2346 94.3202C74.7761 92.9992 74.4786 89.6268 74.7367 86.8493C74.7717 86.46 74.8154 86.062 74.7148 85.6858C74.5705 85.1347 74.1593 84.7016 73.8137 84.2511Z" fill="#263238"/>
<path d="M84.75 84.3081C84.6363 77.5502 88.8753 69.7907 95.5859 66.4839C99.8161 64.4018 103.119 64.3887 105.341 64.1263C110.324 63.5445 114.344 66.0159 114.344 66.0159C116.448 66.5101 124.161 73.5698 124.559 81.2332C125.005 89.7451 125.21 100.155 124.134 106.489C121.969 119.226 112.17 120.748 112.17 120.748C112.17 120.731 113.084 141.923 113.084 141.923L94.2516 157.355L86.9198 132.843L84.75 84.3081Z" fill="#FFBF9D"/>
<path d="M112.179 120.748C112.179 120.748 103.53 121.212 95.0784 116.007C95.0784 116.007 99.5317 125.052 112.319 123.994L112.179 120.748Z" fill="#FF9A6C"/>
<path d="M86.6794 96.4241C86.6882 95.4749 85.612 93.2223 84.6759 93.0648C82.1736 92.6493 77.6547 92.8024 77.5453 99.1666C77.3966 107.867 86.1632 106.222 86.1807 105.973C86.1939 105.776 86.6488 99.7046 86.6794 96.4241Z" fill="#FFBF9D"/>
<path d="M83.8314 102.749C83.7921 102.723 83.6783 102.854 83.4202 102.968C83.1665 103.077 82.7378 103.151 82.2872 102.972C81.3729 102.618 80.6249 101.148 80.6117 99.5777C80.603 98.786 80.7823 98.0336 81.0711 97.4125C81.3467 96.7827 81.7666 96.3453 82.2303 96.2709C82.694 96.1703 83.0134 96.4546 83.1184 96.6996C83.2321 96.9445 83.1709 97.1195 83.219 97.1326C83.2409 97.1545 83.4071 96.9926 83.3458 96.6296C83.3108 96.4546 83.2146 96.249 83.0134 96.0784C82.8078 95.9035 82.5016 95.8116 82.1778 95.8422C81.5042 95.8772 80.8917 96.4852 80.5724 97.1632C80.2137 97.8456 79.9949 98.6897 80.0037 99.5777C80.0299 101.332 80.8961 102.989 82.1516 103.374C82.7597 103.545 83.2759 103.37 83.5427 103.169C83.8139 102.959 83.862 102.766 83.8314 102.749Z" fill="#FF9A6C"/>
<path d="M126.431 79.9429C126.155 76.7848 124.896 73.7842 123.369 71.0023C122.315 69.0777 121.098 67.1969 119.436 65.7622C118.049 64.5637 116.396 63.7152 114.738 62.9278C110.376 60.8589 105.516 59.1049 100.809 60.1678C98.2806 60.7364 96.0058 62.0793 93.7967 63.4265C92.0993 64.4587 90.3976 65.5129 88.9759 66.8995C87.7291 68.1155 86.7273 69.5633 85.8437 71.0636C83.7351 74.6415 82.2478 78.6394 81.9634 82.7773C81.6791 86.9195 78.5469 90.5806 80.9748 93.9486C81.1629 94.211 85.4893 95.1033 85.7868 95.2214C86.4911 95.5014 87.261 94.7403 87.2567 93.9836C87.2523 93.2269 86.7317 92.5751 86.1718 92.0677C87.2479 92.0327 87.9872 90.8343 87.9172 89.7582C87.8516 88.6822 87.2129 87.7374 86.5742 86.8714C86.4911 86.7576 86.4036 86.6395 86.3861 86.4996C86.3424 86.1322 86.758 85.9047 87.0729 85.721C88.6215 84.8024 88.7965 82.2524 87.3835 81.137C89.4571 80.6558 90.8045 78.1626 90.0651 76.1637C89.947 75.8488 89.7896 75.4945 89.9383 75.1927C90.0826 74.904 90.4414 74.8121 90.752 74.7203C93.0486 74.0379 94.5928 71.4441 94.0941 69.104C95.3015 69.1696 96.5308 69.2308 97.7032 68.9422C98.8799 68.6578 100.013 67.9711 100.551 66.8863C101.321 68.2729 102.835 69.2177 104.418 69.3052C106.002 69.3883 107.607 68.6141 108.521 67.315C110.547 67.5075 112.62 67.1882 114.493 66.3921C114.952 68.2817 116.444 69.8826 118.29 70.4818C118.649 70.5999 119.06 70.7093 119.235 71.0461C119.344 71.2604 119.327 71.5141 119.314 71.7547C119.248 72.9706 120.079 73.4868 120.748 74.5016C121.418 75.5163 122.586 77.0298 123.754 76.693C123.623 78.7619 124.729 80.2666 126.479 81.3863L126.431 79.9429Z" fill="#263238"/>
<path d="M128.233 78.3462C128.233 78.3462 128.15 77.9875 127.774 77.4102C127.59 77.1171 127.337 76.7803 127.092 76.3473C126.855 75.9142 126.667 75.3631 126.619 74.7157C126.554 74.0728 126.615 73.351 126.676 72.5637C126.737 71.7764 126.803 70.9016 126.632 69.9786C126.466 69.0601 126.103 68.1066 125.512 67.2274C125.215 66.79 124.865 66.3657 124.454 65.9851C124.047 65.6002 123.566 65.2765 123.089 64.9485C122.612 64.6204 122.131 64.2705 121.776 63.7981C121.418 63.3257 121.203 62.744 120.967 62.1535C120.495 60.9637 119.804 59.8002 118.885 58.7723C117.971 57.7444 116.855 56.8128 115.534 56.1479C114.887 55.7936 114.173 55.553 113.447 55.3431C112.708 55.1769 111.942 55.0456 111.164 55.0631C110.774 55.0588 110.381 55.1069 109.991 55.1463C109.602 55.2031 109.217 55.2818 108.832 55.3475C108.062 55.4918 107.284 55.5093 106.505 55.33C105.726 55.1681 104.965 54.8838 104.164 54.6739C103.368 54.4464 102.537 54.3108 101.702 54.2146C100.862 54.1227 100.009 54.1227 99.1512 54.1708C98.2938 54.2364 97.4363 54.3852 96.5964 54.617C94.9297 55.1113 93.3024 56.0298 92.1912 57.4689C92.0819 57.6132 91.9725 57.7532 91.8631 57.8932L92.0031 57.8407C89.374 57.2108 86.6224 57.8975 84.4963 59.2885C82.3572 60.675 80.7648 62.8314 80.2486 65.2066L80.3186 65.1191C79.2643 65.609 78.2188 66.0989 77.2564 66.7025C76.294 67.3017 75.4103 68.0234 74.7454 68.907C74.0848 69.7949 73.6824 70.8403 73.5861 71.8989C73.4855 72.953 73.748 74.0421 74.3911 74.847L74.3998 74.7026C73.1487 75.9361 72.5056 77.5895 72.3569 79.151C72.2082 80.7257 72.5231 82.261 73.2274 83.4813C73.3849 83.7963 73.6036 84.0718 73.7961 84.3474C74.0061 84.6142 74.2205 84.8635 74.3867 85.1303C74.5573 85.3972 74.6667 85.6859 74.6885 85.9877C74.7148 86.2895 74.6798 86.5913 74.6579 86.8887C74.5573 88.0872 74.5748 89.2026 74.7235 90.1911C74.8767 91.1797 75.1522 92.0457 75.5591 92.7106C75.9528 93.3842 76.4515 93.8434 76.9021 94.1321C77.3483 94.4339 77.7464 94.552 77.9651 94.7139C78.1926 94.8626 78.2713 94.9851 78.2801 94.9807C78.2801 94.9807 78.2101 94.8495 77.9826 94.6876C77.7639 94.5127 77.3702 94.3815 76.9371 94.0797C76.504 93.7866 76.0228 93.3273 75.6422 92.6625C75.2529 92.002 74.986 91.149 74.846 90.1736C74.706 89.1938 74.7017 88.0916 74.8067 86.9018C74.8329 86.6044 74.8723 86.2938 74.846 85.9702C74.8242 85.6465 74.7017 85.3228 74.5267 85.0429C74.3517 84.7586 74.133 84.5049 73.9274 84.2424C73.7393 83.9712 73.5293 83.7044 73.3762 83.3939C72.7025 82.1997 72.4006 80.6994 72.5494 79.1685C72.6981 77.642 73.3324 76.0411 74.5442 74.8557L74.6142 74.7857L74.5529 74.707C73.9492 73.9503 73.7043 72.9224 73.8005 71.9164C73.8924 70.9059 74.2861 69.8955 74.9204 69.0426C75.5635 68.1897 76.4252 67.4898 77.3702 66.8993C78.3194 66.3088 79.3518 65.8233 80.4105 65.3334L80.4674 65.3072L80.4805 65.2459C80.9836 62.9408 82.5365 60.8456 84.6276 59.4897C86.7055 58.1337 89.3871 57.4689 91.9287 58.0769L92.0119 58.0987L92.0687 58.0244C92.1737 57.8888 92.2787 57.7532 92.3837 57.6132C93.4555 56.2266 95.0259 55.33 96.6577 54.8488C97.4801 54.6214 98.32 54.4726 99.1599 54.407C99.9998 54.3589 100.84 54.3589 101.667 54.4508C102.489 54.5426 103.307 54.6739 104.09 54.8969C104.877 55.0981 105.647 55.3868 106.448 55.553C106.846 55.6361 107.257 55.6886 107.664 55.6886C108.075 55.6886 108.473 55.6361 108.867 55.5662C109.256 55.5005 109.641 55.4218 110.022 55.365C110.403 55.33 110.783 55.2775 111.159 55.2818C111.921 55.26 112.664 55.3868 113.382 55.5487C114.09 55.7542 114.79 55.9861 115.425 56.3316C116.715 56.9746 117.813 57.8888 118.714 58.8948C119.624 59.9008 120.302 61.0425 120.775 62.2103C121.011 62.7965 121.238 63.3957 121.619 63.8943C122 64.3974 122.503 64.756 122.979 65.0841C123.465 65.4078 123.929 65.7227 124.331 66.0945C124.734 66.4619 125.079 66.8731 125.372 67.3017C125.959 68.159 126.317 69.0907 126.488 69.9874C126.663 70.8884 126.606 71.7501 126.554 72.5375C126.501 73.3248 126.449 74.0553 126.519 74.707C126.575 75.3631 126.777 75.9274 127.026 76.3648C127.28 76.8022 127.542 77.1346 127.73 77.4189C127.923 77.6988 128.05 77.9307 128.124 78.0881C128.198 78.2631 128.225 78.3506 128.233 78.3462Z" fill="#455A64"/>
<path d="M96.0625 56.0954C96.0757 56.1129 96.2944 55.9641 96.7187 55.7629C97.143 55.5617 97.7861 55.3124 98.6217 55.2249C99.4484 55.1331 100.472 55.2118 101.478 55.6623C102.476 56.1129 103.447 56.9308 104.064 58.0418C104.243 58.3611 104.392 58.6979 104.488 59.0303C104.58 59.3584 104.589 59.7083 104.418 59.9445L104.204 60.2376L104.554 60.1414C105.52 59.8745 106.513 60.067 107.244 60.4825C107.988 60.8981 108.451 61.5323 108.705 62.1053C108.963 62.6827 109.02 63.1944 109.033 63.54C109.042 63.8899 109.011 64.078 109.033 64.0824C109.042 64.0824 109.055 64.0386 109.073 63.9468C109.094 63.8549 109.112 63.7193 109.121 63.54C109.138 63.1857 109.103 62.6521 108.854 62.0397C108.609 61.4361 108.132 60.745 107.349 60.2901C106.579 59.8352 105.529 59.6165 104.484 59.892L104.619 60.0889C104.864 59.7521 104.834 59.3147 104.733 58.956C104.628 58.5886 104.475 58.2474 104.287 57.9062C103.639 56.7427 102.62 55.8942 101.57 55.4349C100.511 54.9712 99.4441 54.9144 98.591 55.0325C97.7336 55.1462 97.0818 55.4305 96.6662 55.6623C96.4562 55.7804 96.3031 55.881 96.2025 55.9598C96.1063 56.0429 96.0582 56.0866 96.0625 56.0954Z" fill="#455A64"/>
<path d="M81.8672 65.972C81.8585 65.9851 81.9591 66.0988 82.1691 66.2869C82.3791 66.4706 82.6984 66.7287 83.149 66.978C83.5952 67.2229 84.1814 67.4679 84.8813 67.5116C85.5681 67.5597 86.3905 67.4066 87.0467 66.8774L86.8542 66.8468C86.9374 66.9649 87.0205 67.083 87.108 67.2054C87.1998 67.3235 87.3048 67.4329 87.4011 67.551C88.0354 68.2202 88.8097 68.6751 89.5665 68.9201C90.3189 69.1738 91.0407 69.2394 91.64 69.1956C92.2393 69.1519 92.7031 69.0119 93.0136 68.8938C93.3199 68.7626 93.4773 68.6707 93.4686 68.6532C93.4511 68.6008 92.7905 68.9682 91.6313 69.0075C91.0538 69.025 90.3627 68.9419 89.6496 68.6882C88.9322 68.4433 88.2016 67.9971 87.5979 67.3673C87.5061 67.2579 87.4054 67.153 87.3179 67.0436C87.2348 66.9299 87.1561 66.8161 87.0773 66.7068L86.9942 66.5887L86.8849 66.6762C86.2987 67.1573 85.5462 67.3148 84.8988 67.2842C84.2426 67.2535 83.6783 67.0436 83.2365 66.8249C82.3441 66.37 81.8935 65.9326 81.8672 65.972Z" fill="#455A64"/>
<path d="M77.204 74.0073C77.1953 74.0073 77.204 74.0642 77.2259 74.1692C77.2565 74.2698 77.3046 74.4229 77.4184 74.5935C77.6284 74.9346 78.1008 75.3545 78.8139 75.5383C79.5269 75.7307 80.415 75.5951 81.303 75.2889C81.7492 75.1358 82.2085 74.9784 82.681 74.7597C83.1403 74.5366 83.6434 74.2173 83.8928 73.6749C83.9103 73.6268 83.9321 73.5787 83.9496 73.5349L83.744 73.5962C84.5752 74.2567 85.437 74.834 86.3119 75.1665C87.1824 75.512 88.0617 75.5732 88.7529 75.4377C89.4528 75.3108 89.969 75.0177 90.2621 74.7641C90.4153 74.6372 90.5159 74.5279 90.5815 74.4447C90.6427 74.3616 90.6734 74.3179 90.669 74.3135C90.6515 74.296 90.5115 74.4622 90.2053 74.6853C89.8991 74.9084 89.396 75.1577 88.7267 75.2583C88.0574 75.3633 87.2349 75.2889 86.4038 74.9434C85.5682 74.611 84.7327 74.0467 83.9103 73.3906L83.7746 73.2812L83.7047 73.4518C83.6915 73.4868 83.674 73.5262 83.6565 73.5699C83.4509 74.0205 83.0135 74.3179 82.5716 74.5322C82.1254 74.7466 81.6617 74.9084 81.2286 75.0659C80.3669 75.3764 79.5313 75.5208 78.862 75.3633C78.1927 75.2146 77.7334 74.8472 77.5059 74.541C77.2653 74.2217 77.2303 73.9942 77.204 74.0073Z" fill="#455A64"/>
<path d="M120.998 90.9128C120.805 91.1271 119.559 90.2654 117.826 90.3266C116.094 90.3616 114.852 91.2933 114.659 91.0877C114.563 90.9959 114.755 90.611 115.293 90.1911C115.827 89.7711 116.741 89.3512 117.822 89.3206C118.902 89.29 119.821 89.6618 120.355 90.0511C120.902 90.4404 121.094 90.8122 120.998 90.9128Z" fill="#263238"/>
<path d="M104.02 92.1375C103.806 92.3344 102.651 91.3458 100.923 91.2277C99.1994 91.0834 97.8652 91.8838 97.6946 91.6608C97.6114 91.5602 97.8389 91.1971 98.4207 90.8341C98.9938 90.471 99.9475 90.1473 101.024 90.2304C102.1 90.3135 102.975 90.7728 103.469 91.2146C103.968 91.6608 104.125 92.05 104.02 92.1375Z" fill="#263238"/>
<path d="M110.77 99.7705C110.757 99.6742 111.829 99.4512 113.566 99.1712C114.007 99.11 114.423 99.0094 114.489 98.7076C114.581 98.3839 114.384 97.9159 114.152 97.4085C113.701 96.35 113.229 95.2433 112.734 94.0842C110.766 89.3515 109.322 85.4498 109.515 85.3755C109.707 85.2967 111.457 89.0715 113.43 93.8086C113.907 94.9765 114.357 96.0875 114.791 97.1548C114.974 97.6534 115.28 98.2133 115.075 98.8825C114.965 99.215 114.651 99.4687 114.371 99.5518C114.091 99.648 113.841 99.6611 113.623 99.6786C111.868 99.823 110.779 99.8667 110.77 99.7705Z" fill="#263238"/>
<path d="M108.088 102.351C107.441 102.469 105.967 103.344 105.59 104.057C105.21 104.766 104.707 105.877 105.079 106.52C105.398 107.071 107.734 106.388 108.718 106.226C109.173 106.152 110.293 106.686 110.442 106.122L110.717 104.101C110.757 103.156 110.136 102.74 109.493 102.478C109.055 102.299 108.57 102.264 108.088 102.351Z" fill="#FF9A6C"/>
<path d="M95.3759 82.4886C95.5422 82.0162 97.2745 82.2262 99.3043 81.9681C101.343 81.7494 102.975 81.1458 103.25 81.5657C103.373 81.7669 103.088 82.2131 102.428 82.6723C101.776 83.1316 100.73 83.5734 99.5099 83.7177C98.2894 83.8577 97.1739 83.674 96.4302 83.3766C95.6822 83.0791 95.306 82.7117 95.3759 82.4886Z" fill="#263238"/>
<path d="M113.517 79.9297C113.924 79.5929 115.232 80.2009 116.873 80.4634C118.504 80.7783 119.948 80.6514 120.206 81.1063C120.315 81.325 120.04 81.6837 119.375 81.9593C118.719 82.2392 117.673 82.3879 116.549 82.1911C115.425 81.9943 114.497 81.4956 113.985 81.0101C113.465 80.529 113.338 80.1003 113.517 79.9297Z" fill="#263238"/>
<path d="M109.851 106.261C109.847 106.34 109.09 106.231 107.944 106.519C107.66 106.594 107.349 106.686 107.034 106.817C106.715 106.948 106.361 107.14 105.897 107.18C105.665 107.197 105.385 107.14 105.175 106.97C104.961 106.808 104.829 106.567 104.759 106.331C104.615 105.854 104.672 105.33 104.856 104.866C105.039 104.398 105.315 104.017 105.613 103.672C105.91 103.331 106.247 103.033 106.606 102.814C107.314 102.364 108.084 102.189 108.714 102.207C109.348 102.22 109.838 102.403 110.14 102.57C110.446 102.736 110.582 102.871 110.569 102.893C110.547 102.928 110.381 102.841 110.07 102.731C109.76 102.622 109.296 102.5 108.718 102.53C108.145 102.552 107.463 102.74 106.833 103.169C106.514 103.374 106.216 103.65 105.954 103.965C105.691 104.28 105.438 104.643 105.28 105.037C105.123 105.426 105.083 105.846 105.188 106.204C105.289 106.572 105.543 106.782 105.875 106.76C106.212 106.742 106.557 106.589 106.894 106.462C107.24 106.336 107.572 106.257 107.874 106.2C109.103 105.981 109.869 106.218 109.851 106.261Z" fill="#263238"/>
<path d="M83.84 109.371C85.7728 109.371 87.3397 107.805 87.3397 105.872C87.3397 103.939 85.7728 102.373 83.84 102.373C81.9072 102.373 80.3403 103.939 80.3403 105.872C80.3403 107.805 81.9072 109.371 83.84 109.371Z" fill="#455A64"/>
<path d="M98.4905 76.0716C98.4773 76.0672 98.508 75.9535 98.5911 75.7479C98.6873 75.5467 98.8448 75.2493 99.1292 74.93C99.4135 74.6107 99.8291 74.2695 100.38 74.0071C100.936 73.749 101.645 73.574 102.423 73.6746C102.813 73.7184 103.233 73.8496 103.587 74.1295C103.762 74.2695 103.928 74.462 104.011 74.7069C104.094 74.9519 104.077 75.2405 103.954 75.4767C103.718 75.9579 103.158 76.2116 102.646 76.2028C102.13 76.2028 101.64 76.0672 101.163 75.8529C100.223 75.4243 99.3698 74.6063 98.9936 73.5128C98.6217 72.428 98.7748 71.1333 99.4923 70.1317C100.218 69.1256 101.478 68.6445 102.62 68.7757C103.189 68.8457 103.753 69.0425 104.182 69.4362C104.392 69.6286 104.567 69.8648 104.676 70.136C104.785 70.4116 104.803 70.7397 104.689 71.0196C104.58 71.3039 104.361 71.5226 104.134 71.6626C103.902 71.8069 103.657 71.8988 103.412 71.9513C102.922 72.0562 102.428 72.0431 101.973 71.9338C101.067 71.7151 100.323 71.1771 99.886 70.521C99.4398 69.8648 99.3173 69.1213 99.3741 68.5089C99.4223 67.8921 99.6235 67.3891 99.8466 67.0217C100.07 66.6543 100.306 66.4137 100.481 66.2737C100.656 66.1338 100.761 66.0813 100.77 66.09C100.805 66.125 100.385 66.3787 99.9997 67.1048C99.8116 67.4635 99.6497 67.949 99.6279 68.5176C99.6016 69.0863 99.7329 69.7511 100.148 70.3285C100.555 70.9059 101.242 71.3783 102.051 71.5576C102.458 71.6451 102.891 71.6495 103.316 71.5532C103.727 71.457 104.156 71.2295 104.291 70.8621C104.436 70.4991 104.226 70.0486 103.88 69.7424C103.539 69.4318 103.058 69.2612 102.563 69.2044C101.57 69.095 100.472 69.5193 99.851 70.3854C99.2254 71.247 99.0854 72.4062 99.4048 73.3553C99.7241 74.3132 100.485 75.0612 101.325 75.4549C101.745 75.6517 102.204 75.7786 102.629 75.7873C103.049 75.7961 103.434 75.608 103.604 75.2887C103.779 74.9781 103.635 74.6107 103.351 74.3832C103.066 74.147 102.716 74.0202 102.366 73.9721C101.662 73.8627 100.997 73.9983 100.468 74.2214C99.9385 74.4488 99.5316 74.7463 99.2385 75.035C98.6786 75.6342 98.5342 76.0935 98.4905 76.0716Z" fill="#263238"/>
<path d="M58.4632 74.1033C58.4632 74.1164 58.2707 74.1558 57.8989 74.217C57.527 74.2739 56.9758 74.357 56.254 74.4051C55.5366 74.4444 54.6354 74.4619 53.6161 74.1995C53.1131 74.0639 52.5837 73.8583 52.0763 73.539C51.5688 73.2241 51.0789 72.7867 50.7246 72.2093C50.3615 71.6363 50.1734 70.9277 50.1427 70.1972C50.1121 69.4668 50.2171 68.7144 50.3921 67.9534C50.7596 66.4443 51.4639 64.8653 52.6844 63.5574C53.2968 62.9145 54.0274 62.3327 54.8891 61.9434C55.3091 61.7335 55.7816 61.6066 56.254 61.5016C56.7308 61.4317 57.2208 61.3792 57.7151 61.4229C58.6994 61.4754 59.6881 61.786 60.563 62.324C61.0004 62.5951 61.3941 62.9494 61.7397 63.3475C62.0766 63.7586 62.3347 64.231 62.5184 64.7341L62.7153 65.2677L62.2034 65.0096C61.5997 64.7034 61.0748 64.2048 60.7292 63.5968C60.3792 62.9932 60.1736 62.2977 60.1299 61.5935C60.0905 61.003 60.1518 60.3994 60.3355 59.8395C60.5149 59.284 60.7773 58.7635 61.101 58.2911C61.7572 57.3507 62.6146 56.6027 63.5289 56.0166C65.3663 54.84 67.4398 54.2101 69.439 54.1226C71.4425 54.022 73.363 54.5338 74.8941 55.4523C76.4252 56.3665 77.5844 57.6394 78.28 58.9866C78.9887 60.3381 79.1812 61.751 79.1024 62.9407C79.0324 64.1392 78.6868 65.1365 78.3106 65.8844C77.9213 66.6324 77.5057 67.1442 77.1907 67.4503C77.042 67.6122 76.9064 67.7128 76.8233 67.7871C76.7358 67.8615 76.692 67.8921 76.6833 67.8877C76.6702 67.8703 76.8364 67.7128 77.1251 67.3891C77.4138 67.0654 77.7944 66.5449 78.1531 65.8057C78.4987 65.0665 78.8049 64.0867 78.8531 62.9276C78.9056 61.7728 78.6956 60.4256 78 59.1397C77.3176 57.8581 76.189 56.6464 74.7104 55.7804C73.2361 54.9143 71.3944 54.4419 69.4696 54.5469C67.5492 54.6388 65.5456 55.2599 63.7827 56.3971C62.9034 56.9658 62.0941 57.6787 61.486 58.5535C60.8867 59.4283 60.5017 60.4869 60.5936 61.5672C60.668 62.8445 61.3504 64.0867 62.4134 64.6072L62.0985 64.8828C61.9322 64.4323 61.7004 64.008 61.4029 63.6362C61.0923 63.2775 60.738 62.9538 60.3355 62.7045C59.5349 62.2059 58.6119 61.9128 57.6976 61.8603C55.8428 61.6941 54.1367 62.617 52.9862 63.8374C51.8182 65.0709 51.1183 66.5887 50.7508 68.0408C50.5714 68.7713 50.4621 69.4974 50.484 70.1841C50.5058 70.8708 50.6677 71.5226 50.9914 72.0518C51.3107 72.5855 51.757 73.001 52.2294 73.3116C52.7019 73.6221 53.2049 73.8321 53.6861 73.972C54.6529 74.2476 55.541 74.2564 56.2496 74.2432C56.9627 74.2214 57.5139 74.1645 57.8901 74.1383C58.2619 74.0989 58.4588 74.0902 58.4632 74.1033Z" fill="#263238"/>
<path d="M66.0796 90.9434C66.0883 90.9653 65.8696 91.0834 65.4453 91.2058C65.0209 91.3283 64.3822 91.4464 63.5817 91.4246C62.7855 91.4027 61.8275 91.2365 60.8607 90.7903C60.3839 90.5672 59.8852 90.2917 59.4521 89.8718C59.0234 89.4693 58.6559 88.8526 58.6953 88.1659C58.7347 87.4835 59.0846 86.9237 59.4565 86.4775C59.8414 86.027 60.2658 85.677 60.6813 85.3534C61.5169 84.7148 62.3612 84.2686 63.0917 83.9712C63.8267 83.6694 64.4479 83.5163 64.8809 83.4332C65.314 83.3501 65.559 83.3457 65.5634 83.3719C65.5809 83.4507 64.6185 83.6125 63.223 84.2642C62.5274 84.5923 61.7312 85.0516 60.9394 85.6814C60.5457 86.0007 60.1389 86.3463 59.7977 86.7574C59.4608 87.1642 59.1765 87.6541 59.1502 88.179C59.1196 88.7039 59.3908 89.185 59.7627 89.5481C60.1345 89.9199 60.5938 90.1823 61.0401 90.4054C61.9412 90.8472 62.8424 91.0353 63.5992 91.0965C65.1303 91.219 66.0577 90.8559 66.0796 90.9434Z" fill="#263238"/>
<path d="M104.926 94.9544C104.895 95.02 104.405 94.8232 103.592 94.6307C103.185 94.5301 102.695 94.4514 102.148 94.4033C101.601 94.3639 100.993 94.3596 100.363 94.4208C99.7333 94.4908 99.1427 94.6176 98.6134 94.7663C98.0884 94.9282 97.6247 95.1031 97.2441 95.2825C96.4873 95.6368 96.0499 95.9298 96.0017 95.8686C95.9668 95.8292 96.343 95.4356 97.0954 94.9938C97.4672 94.7707 97.9397 94.552 98.4865 94.3639C99.0333 94.1846 99.6545 94.0359 100.319 93.9659C100.984 93.9003 101.619 93.9178 102.192 93.9834C102.765 94.0577 103.272 94.1758 103.679 94.3202C104.502 94.6001 104.948 94.9063 104.926 94.9544Z" fill="#FF9A6C"/>
<path d="M141.151 210.884L136.12 198.221L139.344 179.4L140.219 168.285C140.053 161.116 139.445 155.579 136.488 149.044L127.292 126.329L116.063 129.374C115.717 127.865 115.258 126.382 114.637 125.205C112.537 121.216 85.3928 122.572 83.6386 124.007C82.5231 124.921 81.9719 128.206 81.7182 130.485L72.2735 130.432L61.1445 159.034C61.4989 159.821 68.3626 168.985 68.3626 168.985L75.1738 206.698L72.9778 210.635L141.151 210.884Z" fill="#C0DEF2"/>
<path d="M86.1142 134.867C86.101 134.872 86.0442 134.719 85.9611 134.434C85.8736 134.15 85.773 133.735 85.6767 133.21C85.4842 132.164 85.3661 130.69 85.5324 129.072C85.703 127.453 86.1229 126.032 86.5298 125.052C86.731 124.562 86.9147 124.173 87.0591 123.915C87.1991 123.652 87.2866 123.512 87.2997 123.521C87.3347 123.539 87.0372 124.125 86.6785 125.109C86.3154 126.093 85.9261 127.502 85.7598 129.098C85.598 130.695 85.6898 132.151 85.8386 133.188C85.9829 134.229 86.1535 134.859 86.1142 134.867Z" fill="#263238"/>
<path d="M93.6432 135.248C93.6257 135.252 93.5864 135.082 93.5207 134.776C93.4551 134.469 93.3807 134.019 93.3107 133.463C93.1664 132.352 93.0658 130.8 93.0833 129.089C93.1008 127.379 93.197 125.835 93.2758 124.715C93.3195 124.195 93.3545 123.757 93.3807 123.394C93.4114 123.084 93.4332 122.909 93.4507 122.913C93.4682 122.913 93.4726 123.088 93.4682 123.399C93.4639 123.714 93.4551 124.164 93.4332 124.724C93.3982 125.844 93.3239 127.383 93.3107 129.089C93.2976 130.791 93.3676 132.335 93.4726 133.446C93.5689 134.557 93.6782 135.244 93.6432 135.248Z" fill="#263238"/>
<path d="M101.749 133.839C101.714 133.835 101.758 133.205 101.81 132.186C101.858 131.167 101.902 129.758 101.81 128.21C101.714 126.662 101.478 125.271 101.242 124.282C101.005 123.294 100.804 122.69 100.844 122.681C100.857 122.677 100.922 122.821 101.027 123.088C101.132 123.355 101.264 123.749 101.399 124.243C101.679 125.231 101.946 126.631 102.042 128.197C102.138 129.763 102.068 131.18 101.977 132.199C101.933 132.711 101.885 133.122 101.841 133.402C101.793 133.686 101.762 133.839 101.749 133.839Z" fill="#263238"/>
<path d="M109.361 134.872C109.322 134.858 109.554 134.224 109.794 133.17C110.035 132.12 110.258 130.624 110.14 128.984C110.039 127.339 109.589 125.896 109.199 124.89C108.792 123.888 108.464 123.298 108.504 123.276C108.517 123.267 108.609 123.412 108.762 123.674C108.924 123.932 109.121 124.33 109.348 124.829C109.781 125.826 110.267 127.291 110.367 128.967C110.49 130.642 110.236 132.155 109.952 133.209C109.812 133.739 109.672 134.159 109.558 134.443C109.444 134.723 109.379 134.876 109.361 134.872Z" fill="#263238"/>
<path d="M116.675 134.242C116.64 134.246 116.579 133.743 116.478 132.934C116.377 132.125 116.242 131.009 115.979 129.802C115.717 128.595 115.371 127.523 115.131 126.749C114.886 125.975 114.737 125.489 114.768 125.481C114.798 125.472 114.995 125.935 115.284 126.697C115.568 127.462 115.94 128.529 116.203 129.754C116.469 130.979 116.574 132.103 116.636 132.916C116.701 133.734 116.706 134.242 116.675 134.242Z" fill="#263238"/>
<path d="M70.8864 85.1519L71.5338 80.6511C71.5338 80.6511 71.7001 77.2787 70.8864 75.5947C70.0727 73.9106 71.0833 73.0096 73.1087 74.5842C75.1297 76.1589 75.3572 77.5061 75.3572 77.5061C75.3572 77.5061 78.3932 69.0773 79.5174 66.8291C80.6417 64.5808 83.5639 60.5348 83.5639 60.5348C83.5639 60.5348 88.1704 53.4576 88.5072 53.3439C88.844 53.2301 89.6315 53.2301 89.2946 54.468L91.0926 53.3001C91.0926 53.3001 93.1136 54.1312 91.6525 56.83C90.1914 59.5288 88.2797 63.461 88.2797 63.461L88.166 65.3725L93.3367 59.0782C93.3367 59.0782 95.5853 58.0678 94.7978 60.7623C94.0104 63.461 91.3157 67.7301 91.3157 67.7301L89.9683 74.5842C89.9683 74.5842 90.4189 77.1693 89.7452 80.3143C89.0715 83.4592 84.5876 92.6841 81.8272 93.5807C79.0625 94.473 70.8864 85.1519 70.8864 85.1519Z" fill="#FFBF9D"/>
<path d="M70.8866 85.152C70.8866 85.152 70.926 85.1914 71.0047 85.2701C71.0835 85.3576 71.1972 85.4757 71.3416 85.6331C71.6391 85.9525 72.0853 86.4292 72.6715 87.0328C73.2576 87.6408 73.9926 88.3801 74.8806 89.2199C75.773 90.0509 76.8098 91.0001 78.0609 91.9361C78.6865 92.3998 79.3733 92.8634 80.1476 93.2265C80.5369 93.3971 80.9569 93.5502 81.39 93.5545C81.8231 93.5677 82.2343 93.3315 82.5974 93.0472C83.3235 92.4698 83.9447 91.7043 84.5309 90.8864C85.1215 90.0684 85.6683 89.1718 86.2064 88.2357C87.265 86.3549 88.2799 84.2816 89.1155 82.0246C89.3167 81.4603 89.5092 80.8786 89.6448 80.2837C89.7717 79.6801 89.8635 79.0633 89.9248 78.4378C90.0429 77.1869 90.0473 75.8834 89.8592 74.5931L89.8548 74.5712L89.8592 74.5537C90.2835 72.3798 90.7385 70.0703 91.2022 67.6996L91.2065 67.6821L91.2153 67.6646C92.1427 66.1599 93.0351 64.5896 93.8138 62.9318C94.1944 62.1008 94.5618 61.2435 94.7718 60.3555C94.8156 60.1324 94.8506 59.905 94.8374 59.6907C94.8243 59.4763 94.7718 59.2576 94.6143 59.1395C94.4656 59.0171 94.2425 58.9864 94.0238 59.0083C93.805 59.0258 93.5776 59.0914 93.3763 59.1789L93.4157 59.1483C91.7621 61.1647 90.0166 63.2861 88.2449 65.4425L88.0218 65.7137L88.0437 65.3638C88.0525 65.2107 88.0612 65.0445 88.0743 64.8827C88.1006 64.4059 88.1312 63.9291 88.1574 63.4567V63.4349L88.1662 63.4174C89.0586 61.659 89.9423 59.9269 90.8128 58.2166C91.0315 57.788 91.2459 57.3637 91.4646 56.9394C91.574 56.7251 91.6702 56.5195 91.7752 56.3095C91.8496 56.0908 91.9458 55.8809 91.9852 55.6534C92.0902 55.2116 92.0858 54.748 91.924 54.3368C91.7534 53.9344 91.4253 53.5889 91.0403 53.4095L91.1453 53.4008C90.5416 53.7945 89.9423 54.1837 89.3473 54.5687L89.1067 54.7261L89.1811 54.4506C89.2642 54.1313 89.3211 53.742 89.1242 53.5364C89.028 53.4402 88.8705 53.4095 88.7174 53.4227C88.678 53.427 88.6387 53.4314 88.6037 53.4402L88.5468 53.4577C88.5293 53.4664 88.5424 53.4664 88.5293 53.4708C88.4768 53.5233 88.4199 53.5889 88.3631 53.6545C87.9343 54.2012 87.5363 54.783 87.1426 55.356C86.3551 56.502 85.5983 57.6392 84.8546 58.759C84.4872 59.3189 84.1197 59.8788 83.7566 60.4299C83.376 60.9723 83.0042 61.5059 82.6324 62.0395C81.8974 63.1024 81.1931 64.1566 80.5457 65.2107C80.222 65.74 79.9114 66.2649 79.6402 66.7985C79.3733 67.3365 79.1327 67.8833 78.9096 68.4256C78.4546 69.5148 78.0391 70.5864 77.6366 71.6274C76.8317 73.7139 76.1011 75.6909 75.4274 77.5368L75.3399 77.7774L75.2743 77.5193C75.1081 76.8588 74.6925 76.2727 74.2682 75.774C73.8263 75.2754 73.3364 74.8424 72.8289 74.475C72.3302 74.1207 71.7572 73.7926 71.1972 73.8495C71.0572 73.8582 70.9435 73.9326 70.8429 74.0157C70.7598 74.1163 70.6985 74.2344 70.681 74.37C70.6373 74.6368 70.6854 74.9124 70.7729 75.166C70.856 75.4197 70.9785 75.6603 71.0791 75.914C71.1666 76.1677 71.2366 76.4214 71.2978 76.6707C71.4072 77.1694 71.4684 77.6593 71.5122 78.1229C71.5953 79.0546 71.5997 79.8988 71.5691 80.6555C71.3503 82.1164 71.1797 83.2362 71.066 83.9973C71.0091 84.3734 70.961 84.6577 70.9304 84.8589C70.9085 85.0514 70.8866 85.152 70.8866 85.152C70.8866 85.152 70.8954 85.0558 70.9172 84.8633C70.9435 84.6621 70.9829 84.3778 71.031 84.006C71.136 83.2362 71.2891 82.112 71.4947 80.6424V80.6467C71.5166 79.8988 71.5078 79.0546 71.4159 78.1317C71.3285 77.2044 71.1535 76.2071 70.6635 75.2054C70.5717 74.943 70.5148 74.6499 70.5629 74.3481C70.5848 74.1994 70.6548 74.0507 70.7554 73.9282C70.8735 73.8188 71.0222 73.7357 71.1797 73.7182C71.8228 73.6526 72.3959 74.0026 72.9121 74.3568C73.4326 74.7286 73.927 75.1661 74.3819 75.6734C74.8194 76.1896 75.2437 76.767 75.4318 77.493L75.2787 77.4799C75.9436 75.6297 76.6698 73.6483 77.466 71.5575C77.8641 70.5121 78.2797 69.4361 78.7346 68.3469C78.9621 67.8002 79.1983 67.249 79.4695 66.7023C79.7451 66.1599 80.0557 65.6306 80.3795 65.097C81.0269 64.0385 81.7312 62.98 82.4618 61.9127C82.8292 61.3834 83.2054 60.8454 83.5816 60.3074C83.9447 59.7563 84.3078 59.1964 84.6753 58.6365C85.4146 57.5124 86.1714 56.3751 86.9588 55.2248C87.3569 54.6518 87.7462 54.0744 88.1881 53.5101C88.2449 53.4402 88.3018 53.3702 88.3762 53.3002C88.4024 53.2783 88.4462 53.2477 88.4724 53.2433L88.5424 53.2215C88.5905 53.2127 88.6387 53.204 88.6868 53.1996C88.8793 53.1821 89.1067 53.2171 89.2686 53.3745C89.4305 53.532 89.4698 53.7551 89.4698 53.9432C89.4742 54.14 89.4261 54.3193 89.3867 54.5031L89.2205 54.3806C89.8154 53.9957 90.4147 53.602 91.0184 53.2083L91.0709 53.1733L91.1234 53.1952C91.5827 53.4095 91.9327 53.7857 92.1296 54.2406C92.3177 54.7043 92.3133 55.2204 92.2039 55.6928C92.1602 55.9334 92.0639 56.1564 91.9808 56.3883C91.8758 56.6026 91.7709 56.83 91.6615 57.0356C91.4471 57.4599 91.2284 57.8842 91.014 58.3128C90.1479 60.0187 89.2642 61.7552 88.3718 63.5092L88.3849 63.4655C88.3587 63.9379 88.3281 64.4146 88.3018 64.8914C88.2931 65.0576 88.2843 65.2238 88.2756 65.3726L88.0743 65.2938C89.846 63.1374 91.5915 61.016 93.2451 59.0039L93.2626 58.9821L93.2845 58.9733C93.5207 58.8771 93.7525 58.8115 94.0063 58.7852C94.2512 58.7634 94.5356 58.7852 94.7587 58.969C94.9862 59.1527 95.0474 59.437 95.0649 59.6775C95.0824 59.9269 95.043 60.1674 94.9949 60.4036C94.7762 61.3353 94.4043 62.1883 94.0194 63.0281C93.232 64.699 92.3352 66.2736 91.399 67.7827L91.4121 67.7477C90.9441 70.1228 90.4891 72.4279 90.0604 74.6018V74.5624C90.2485 75.8878 90.2397 77.1912 90.1173 78.4597C90.0516 79.0939 89.9554 79.7151 89.8285 80.3274C89.6886 80.9398 89.4961 81.5215 89.2905 82.0945C88.4462 84.369 87.4225 86.438 86.3507 88.3276C85.8083 89.268 85.2527 90.1647 84.6578 90.987C84.0585 91.8093 83.4329 92.5791 82.6849 93.174C82.313 93.4583 81.8712 93.7164 81.3856 93.7033C80.9132 93.6945 80.4844 93.5327 80.0864 93.3577C79.2946 92.9859 78.6078 92.5135 77.9822 92.0411C76.7267 91.092 75.6987 90.134 74.8106 89.2942C73.927 88.4457 73.2008 87.6977 72.619 87.0853C72.0371 86.473 71.5997 85.9874 71.311 85.6594C71.171 85.4976 71.0616 85.3751 70.9829 85.2832C70.9216 85.2001 70.8866 85.152 70.8866 85.152Z" fill="#FF9A6C"/>
<path d="M89.0237 54.5379C89.0368 54.5466 88.8968 54.7741 88.6344 55.1765C88.35 55.6095 87.9694 56.1825 87.5145 56.8736C86.5783 58.3083 85.2747 60.3029 84.181 62.6736C83.0786 65.0443 82.5012 67.3582 82.2212 69.0466C82.0769 69.8908 82.0025 70.5819 81.9544 71.0586C81.9063 71.5354 81.8844 71.8022 81.8669 71.8022C81.8581 71.8022 81.8538 71.7366 81.8538 71.6098C81.8538 71.4829 81.8538 71.2948 81.8669 71.0543C81.8888 70.5731 81.9369 69.8776 82.0594 69.0247C82.3 67.3188 82.8599 64.9743 83.9711 62.5817C85.0735 60.1848 86.4077 58.2033 87.3789 56.7861C87.8688 56.0775 88.2756 55.5133 88.56 55.1284C88.8443 54.7391 89.0106 54.5291 89.0237 54.5379Z" fill="#FF9A6C"/>
<path d="M88.3937 65.237C88.42 65.2676 87.9694 65.635 87.427 66.3786C86.8801 67.1178 86.2983 68.2682 85.9396 69.6285C85.5809 70.9889 85.4584 72.2705 85.3665 73.1934C85.279 74.1163 85.2265 74.6893 85.1916 74.6893C85.1741 74.6893 85.1697 74.545 85.1697 74.2825C85.1697 74.0201 85.1828 73.6439 85.2047 73.1803C85.2572 72.253 85.3534 70.9583 85.7165 69.5673C86.0796 68.1807 86.7052 67.0085 87.2957 66.278C87.5888 65.9106 87.86 65.6394 88.0613 65.4732C88.2669 65.3026 88.385 65.2239 88.3937 65.237Z" fill="#FF9A6C"/>
<path d="M82.4925 62.4419C82.5231 62.455 82.3525 62.9318 82.0857 63.7016C81.8188 64.4715 81.4645 65.5431 81.1276 66.7372C80.7908 67.9357 80.5283 69.0292 80.3533 69.8253C80.174 70.6214 80.069 71.1157 80.0384 71.1113C80.0078 71.1069 80.0559 70.6039 80.1959 69.7947C80.3315 68.9855 80.5721 67.8789 80.9089 66.676C81.2501 65.4731 81.6307 64.4059 81.9369 63.6448C82.2432 62.8837 82.4663 62.4288 82.4925 62.4419Z" fill="#FF9A6C"/>
<path d="M75.4887 76.7626C75.5193 76.7714 75.4318 77.1563 75.2743 77.7686C75.095 78.4685 74.885 79.2733 74.6575 80.17C74.4344 81.0667 74.2288 81.8759 74.0538 82.5757C73.8963 83.1925 73.7957 83.5686 73.7607 83.5642C73.7301 83.5599 73.7782 83.1662 73.8963 82.5407C74.0101 81.9152 74.1982 81.0535 74.4344 80.1131C74.675 79.1727 74.92 78.3285 75.1168 77.7249C75.3137 77.1213 75.458 76.7539 75.4887 76.7626Z" fill="#FF9A6C"/>
<path d="M114.655 60.2855C113.666 59.1963 111.93 60.4473 112.664 61.7201C112.678 61.742 112.691 61.7595 112.699 61.7814C113.955 63.8765 118.255 70.735 118.255 70.735L119.305 73.097C119.305 73.097 121.571 76.6925 121.991 77.7379C122.411 78.7877 128.164 88.1831 128.92 89.0229C129.682 89.8628 133.662 89.0229 133.662 89.0229L137.958 80.5373L133.662 70.7307C133.662 70.7307 133.872 69.3222 133.032 69.6372C132.193 69.9521 131.777 70.267 131.777 70.267L122.284 56.5281C122.284 56.5281 119.804 52.3728 118.019 55.1853C118.019 55.1853 115.932 55.8152 117.113 58.6496C118.469 61.8995 120.351 63.9815 120.351 63.9815L122.026 68.3818L114.655 60.2855Z" fill="#FFBF9D"/>
<path d="M114.655 60.2855C114.655 60.2855 114.703 60.3292 114.786 60.4167C114.878 60.5129 115 60.6442 115.162 60.8191C115.499 61.1822 115.984 61.7071 116.619 62.3938C117.892 63.7804 119.738 65.7968 122.074 68.3425L121.96 68.4125C121.453 67.0915 120.884 65.6087 120.271 64.0165L120.285 64.0428C119.278 62.8706 118.377 61.4883 117.599 59.9443C117.406 59.5594 117.222 59.157 117.047 58.7502C116.886 58.3347 116.724 57.906 116.676 57.438C116.619 56.9787 116.667 56.4844 116.886 56.047C117.117 55.6184 117.498 55.2728 117.979 55.1022L117.927 55.1416C118.15 54.7917 118.443 54.4549 118.841 54.2537C119.248 54.0612 119.742 54.0875 120.14 54.2755C120.95 54.6473 121.54 55.3384 122.065 56.047C123.062 57.4948 124.095 58.9908 125.158 60.5304C127.284 63.6054 129.528 66.8466 131.851 70.2102L131.689 70.184C132.1 69.904 132.538 69.6984 133.036 69.5235C133.163 69.4754 133.351 69.471 133.491 69.5672C133.636 69.6634 133.693 69.8165 133.732 69.9521C133.798 70.2277 133.789 70.4901 133.754 70.7613L133.745 70.7001C134.336 72.0429 134.961 73.4776 135.596 74.9211C136.422 76.8063 137.24 78.6696 138.041 80.5023L138.063 80.5504L138.037 80.5986C136.558 83.5161 135.123 86.3504 133.736 89.0798L133.71 89.128L133.658 89.1367C132.542 89.351 131.435 89.5172 130.324 89.5085C130.044 89.4997 129.769 89.4823 129.489 89.421C129.222 89.3816 128.907 89.2329 128.736 89.0011C128.399 88.5593 128.115 88.1132 127.818 87.667C126.663 85.8824 125.591 84.1328 124.567 82.4532C124.064 81.609 123.57 80.7779 123.084 79.9687C122.621 79.1508 122.126 78.3678 121.768 77.5367C120.958 75.9489 120.04 74.5055 119.208 73.1452L119.204 73.1408V73.1364C118.832 72.2879 118.491 71.5137 118.163 70.7701L118.167 70.7788C115.831 66.9865 113.968 63.9597 112.682 61.8733C112.524 61.6152 112.402 61.3221 112.428 61.0378C112.445 60.7579 112.568 60.5129 112.721 60.3336C113.027 59.9574 113.465 59.8437 113.78 59.8568C114.112 59.87 114.322 60.0274 114.453 60.1149C114.598 60.2243 114.655 60.2855 114.655 60.2855C114.655 60.2855 114.589 60.233 114.466 60.128C114.335 60.0449 114.125 59.9006 113.806 59.8918C113.5 59.8874 113.084 60.0055 112.795 60.3686C112.651 60.5436 112.542 60.7754 112.528 61.0378C112.507 61.3046 112.62 61.5715 112.778 61.8252C114.077 63.9028 115.963 66.9165 118.32 70.6957L118.325 70.7001L118.329 70.7045C118.662 71.4481 119.007 72.2223 119.383 73.0665L119.379 73.0577C120.223 74.418 121.142 75.8484 121.964 77.458C122.319 78.2759 122.813 79.0545 123.281 79.8725C123.767 80.6817 124.261 81.5084 124.769 82.3482C125.797 84.0278 126.868 85.7731 128.028 87.5533C128.321 87.9951 128.614 88.45 128.933 88.8655C129.086 89.0667 129.301 89.1629 129.567 89.2111C129.821 89.2679 130.092 89.2811 130.359 89.2942C131.44 89.3029 132.547 89.1367 133.645 88.9224L133.57 88.9792C134.953 86.2455 136.387 83.4111 137.862 80.4936L137.857 80.5898C137.052 78.7571 136.239 76.8937 135.412 75.0085C134.778 73.5607 134.152 72.1304 133.561 70.7876L133.548 70.757L133.553 70.722C133.583 70.4814 133.588 70.2233 133.535 70.0046C133.478 69.7728 133.338 69.6591 133.12 69.7378C132.669 69.8953 132.214 70.114 131.847 70.3633L131.75 70.4289L131.685 70.3371C129.362 66.9734 127.122 63.7235 124.996 60.6485C123.937 59.1089 122.909 57.6129 121.916 56.1651C121.409 55.4697 120.823 54.8004 120.079 54.4593C119.712 54.2887 119.292 54.2668 118.942 54.433C118.592 54.608 118.316 54.9098 118.106 55.2466L118.089 55.2728L118.054 55.286C117.638 55.4303 117.275 55.7496 117.074 56.1345C116.872 56.5282 116.829 56.9831 116.877 57.4161C116.982 58.2953 117.411 59.0914 117.769 59.8612C118.535 61.3921 119.427 62.7743 120.416 63.9334L120.425 63.9466L120.429 63.9597C121.033 65.5562 121.593 67.0434 122.096 68.3644L122.223 68.7012L121.982 68.4343C119.668 65.8711 117.83 63.8416 116.571 62.4419C115.949 61.7464 115.473 61.2128 115.14 60.8454C114.983 60.666 114.865 60.5304 114.777 60.4298C114.69 60.3336 114.655 60.2855 114.655 60.2855Z" fill="#FF9A6C"/>
<path d="M124.839 72.3579C124.778 72.3798 124.458 71.4919 123.938 70.4596C123.693 69.9347 123.395 69.5192 123.05 69.4011C122.713 69.2655 122.481 69.3748 122.472 69.3398C122.446 69.3224 122.687 69.1343 123.102 69.248C123.299 69.3005 123.522 69.4404 123.697 69.6417C123.876 69.8429 124.016 70.0966 124.143 70.359C124.673 71.4088 124.896 72.3404 124.839 72.3579Z" fill="#FF9A6C"/>
<path d="M126.777 68.2941C126.763 68.3029 126.654 68.1104 126.466 67.7605C126.282 67.4106 126.011 66.9032 125.67 66.2821C124.987 65.0398 123.981 63.3646 122.756 61.5843C121.536 59.7997 120.372 58.2251 119.545 57.0703C119.156 56.5192 118.832 56.0555 118.574 55.6969C118.351 55.3688 118.233 55.1851 118.246 55.1764C118.259 55.1676 118.399 55.3338 118.649 55.6444C118.92 55.9943 119.261 56.4405 119.677 56.9741C120.534 58.107 121.72 59.6685 122.944 61.4575C124.174 63.2421 125.167 64.9436 125.81 66.2077C126.133 66.8376 126.383 67.3581 126.545 67.7211C126.707 68.0798 126.79 68.2854 126.777 68.2941Z" fill="#FF9A6C"/>
<path d="M128.68 71.5268C128.61 71.5225 128.737 70.6958 128.29 69.8209C127.862 68.9374 127.127 68.5393 127.166 68.4825C127.179 68.4606 127.38 68.5219 127.656 68.7143C127.932 68.9068 128.264 69.2567 128.496 69.7203C128.728 70.184 128.802 70.6608 128.789 70.9976C128.78 71.3344 128.706 71.5312 128.68 71.5268Z" fill="#FF9A6C"/>
<path d="M134.87 76.2159C134.839 76.229 134.642 75.8879 134.332 75.3367C133.982 74.7069 133.575 73.972 133.129 73.1672C132.665 72.3143 132.258 71.5357 131.982 70.9627C131.707 70.3897 131.558 70.0223 131.589 70.0092C131.619 69.996 131.816 70.3372 132.127 70.8883C132.477 71.5182 132.884 72.253 133.33 73.0579C133.793 73.9108 134.2 74.6894 134.476 75.2624C134.751 75.8354 134.9 76.2028 134.87 76.2159Z" fill="#FF9A6C"/>
<path d="M97.1123 181.088C97.1123 181.079 97.1911 181.049 97.3485 181C97.5279 180.944 97.7554 180.874 98.031 180.79C98.1841 180.747 98.3459 180.699 98.5253 180.646C98.7046 180.589 98.8971 180.515 99.1027 180.441C99.5139 180.287 99.9952 180.134 100.498 179.903C100.752 179.793 101.019 179.679 101.299 179.557C101.574 179.435 101.85 179.281 102.143 179.137C102.734 178.862 103.329 178.494 103.959 178.127C105.201 177.348 106.509 176.403 107.769 175.279C109.016 174.138 110.092 172.935 110.988 171.776C111.417 171.181 111.842 170.63 112.178 170.07C112.349 169.794 112.533 169.536 112.681 169.269C112.83 169.007 112.97 168.753 113.106 168.508C113.39 168.031 113.587 167.568 113.784 167.174C113.88 166.973 113.972 166.794 114.046 166.619C114.116 166.448 114.182 166.286 114.243 166.142C114.357 165.875 114.449 165.656 114.523 165.481C114.589 165.333 114.628 165.254 114.637 165.258C114.646 165.263 114.619 165.346 114.567 165.499C114.506 165.678 114.423 165.901 114.326 166.177C114.274 166.326 114.213 166.487 114.147 166.662C114.077 166.837 113.989 167.025 113.898 167.227C113.714 167.629 113.521 168.097 113.246 168.583C113.115 168.827 112.975 169.086 112.83 169.357C112.686 169.624 112.506 169.886 112.336 170.166C112.003 170.735 111.583 171.294 111.155 171.898C110.258 173.07 109.177 174.291 107.918 175.441C106.645 176.578 105.323 177.527 104.064 178.302C103.42 178.669 102.821 179.028 102.222 179.299C101.924 179.439 101.644 179.592 101.364 179.71C101.084 179.824 100.813 179.938 100.555 180.043C100.043 180.27 99.5577 180.41 99.1377 180.55C98.9278 180.62 98.7309 180.686 98.5515 180.738C98.3722 180.786 98.2016 180.825 98.0485 180.865C97.7641 180.935 97.5366 180.992 97.3529 181.035C97.1998 181.084 97.1123 181.097 97.1123 181.088Z" fill="#263238"/>
<path d="M74.7102 86.0751C73.8877 86.1669 32.5436 106.358 32.338 115.845C32.1324 125.332 35.6146 129.575 39.1274 134.973C42.6402 140.37 61.5077 160.622 62.5401 160.994C63.5725 161.366 77.6061 141.892 77.6061 141.892L71.8186 128.683C71.8186 128.683 69.9594 123.478 64.1718 125.988L59.4166 121.426L85.0429 96.8658C85.0429 96.8658 89.7981 84.3998 74.7102 86.0751Z" fill="#C0DEF2"/>
<path d="M66.8709 150.378C66.8621 150.374 66.8796 150.304 66.9234 150.168C66.9758 150.011 67.0371 149.818 67.1115 149.586C67.199 149.337 67.3039 149.026 67.3914 148.659C67.4877 148.296 67.6189 147.885 67.702 147.417C67.7501 147.185 67.7983 146.94 67.8508 146.686C67.9033 146.433 67.9295 146.166 67.9689 145.89C68.0607 145.339 68.0957 144.744 68.1439 144.119C68.1964 142.868 68.1614 141.486 67.9689 140.055C67.7589 138.625 67.4133 137.286 67.0196 136.097C66.8009 135.511 66.6084 134.946 66.3634 134.443C66.2453 134.19 66.1491 133.94 66.0309 133.709C65.9128 133.481 65.7947 133.258 65.6853 133.048C65.4797 132.619 65.2391 132.265 65.0467 131.937C64.8586 131.609 64.6748 131.342 64.5217 131.123C64.3861 130.922 64.2724 130.752 64.1805 130.616C64.1061 130.498 64.0668 130.432 64.0711 130.428C64.0755 130.424 64.128 130.476 64.2155 130.585C64.3161 130.717 64.443 130.879 64.5917 131.071C64.7579 131.281 64.9504 131.543 65.1517 131.867C65.3529 132.186 65.6066 132.541 65.8253 132.969C65.9391 133.179 66.0616 133.398 66.1841 133.63C66.3065 133.862 66.4115 134.111 66.534 134.365C66.7834 134.868 66.989 135.436 67.2165 136.027C67.6277 137.225 67.982 138.572 68.1964 140.02C68.3888 141.468 68.4195 142.863 68.3538 144.127C68.297 144.757 68.2576 145.357 68.157 145.912C68.1089 146.188 68.0782 146.459 68.0257 146.717C67.9689 146.971 67.912 147.216 67.8595 147.447C67.7676 147.915 67.6233 148.327 67.5139 148.69C67.4133 149.057 67.2952 149.363 67.1946 149.608C67.1027 149.836 67.0283 150.024 66.9627 150.177C66.9102 150.312 66.8796 150.382 66.8709 150.378Z" fill="#263238"/>
<path d="M69.5524 167.804C69.5436 167.8 69.6005 167.691 69.7055 167.485C69.8236 167.262 69.9855 166.964 70.1867 166.593C70.2917 166.396 70.4098 166.182 70.541 165.95C70.6635 165.714 70.7817 165.447 70.9216 165.162C71.1841 164.594 71.521 163.964 71.8009 163.229C71.9497 162.866 72.1071 162.485 72.2734 162.087C72.4352 161.689 72.5665 161.261 72.724 160.828C73.0521 159.962 73.3014 159.004 73.5901 158.002C74.102 155.986 74.5263 153.733 74.7406 151.34C74.9331 148.943 74.8938 146.651 74.7275 144.578C74.6138 143.546 74.5263 142.557 74.3513 141.648C74.2726 141.193 74.2113 140.746 74.1195 140.327C74.0232 139.907 73.9357 139.504 73.8482 139.119C73.6951 138.345 73.472 137.667 73.3058 137.063C73.2183 136.762 73.1439 136.482 73.0652 136.224C72.9777 135.974 72.8989 135.743 72.8246 135.533C72.689 135.13 72.5796 134.811 72.5009 134.57C72.4309 134.347 72.3959 134.233 72.4002 134.229C72.409 134.225 72.4571 134.338 72.5402 134.553C72.6321 134.789 72.7546 135.104 72.9077 135.502C72.9864 135.712 73.0739 135.939 73.1658 136.189C73.2533 136.442 73.332 136.722 73.4283 137.024C73.6033 137.628 73.8395 138.306 74.0057 139.08C74.0976 139.465 74.1938 139.867 74.2944 140.287C74.3907 140.707 74.4519 141.153 74.5394 141.613C74.7231 142.527 74.8194 143.515 74.9375 144.556C75.1125 146.643 75.1606 148.948 74.9681 151.358C74.7494 153.764 74.3163 156.029 73.7914 158.055C73.4983 159.056 73.2358 160.019 72.8989 160.889C72.7371 161.326 72.6015 161.755 72.4352 162.153C72.2646 162.551 72.1028 162.932 71.9497 163.295C71.6566 164.03 71.311 164.659 71.0354 165.224C70.891 165.504 70.7685 165.766 70.6373 166.002C70.5017 166.234 70.3792 166.444 70.2655 166.636C70.0467 166.999 69.8761 167.293 69.7449 167.511C69.6268 167.704 69.5568 167.809 69.5524 167.804Z" fill="#263238"/>
<path d="M63.4717 117.769C63.4804 117.782 63.3186 117.949 63.008 118.242C62.7018 118.535 62.2424 118.95 61.6694 119.453C60.5232 120.459 58.9002 121.802 57.0454 123.206C55.1906 124.61 53.467 125.818 52.2071 126.675C51.5772 127.104 51.061 127.44 50.7023 127.672C50.3436 127.9 50.1423 128.022 50.1336 128.009C50.1249 127.996 50.3086 127.852 50.6542 127.598C51.0348 127.322 51.5247 126.968 52.1153 126.544C53.3489 125.656 55.0594 124.427 56.9098 123.027C58.7603 121.627 60.3964 120.306 61.5644 119.335C62.1243 118.867 62.588 118.478 62.9467 118.181C63.2748 117.901 63.4586 117.756 63.4717 117.769Z" fill="#263238"/>
<path d="M127.529 87.8288C127.529 87.8288 129.957 77.5323 141.072 79.6537C141.072 79.6537 165.067 96.3888 172.044 105.281C179.022 114.174 176.935 117.507 175.058 122.113C173.182 126.714 166.585 134.395 154.542 144.398L138.526 156.484C138.526 156.484 125.088 128.892 126.435 126.902C127.087 125.94 147.695 117.047 147.695 117.047C147.695 117.047 146.891 116.094 148.26 114.576L140.031 104.52L127.529 87.8288Z" fill="#C0DEF2"/>
<path d="M171.948 112.148C171.965 112.14 172.158 112.503 172.21 113.15C172.263 113.789 172.119 114.733 171.51 115.543C170.902 116.347 170.049 116.763 169.428 116.912C168.798 117.069 168.396 117.017 168.396 116.99C168.391 116.951 168.789 116.947 169.384 116.754C169.971 116.571 170.762 116.155 171.331 115.403C171.9 114.65 172.062 113.767 172.053 113.154C172.04 112.533 171.909 112.161 171.948 112.148Z" fill="#263238"/>
<path d="M138.71 182.011C138.706 182.011 138.71 181.967 138.719 181.884C138.732 181.788 138.745 181.67 138.767 181.521C138.815 181.188 138.885 180.725 138.968 180.134C139.165 178.931 139.388 177.186 139.642 175.021C140.088 170.708 140.499 164.646 139.397 158.085C138.833 154.813 137.931 151.773 136.921 149.083C136.658 148.414 136.413 147.758 136.151 147.128C135.871 146.507 135.6 145.903 135.337 145.321C135.206 145.033 135.084 144.74 134.948 144.464C134.808 144.188 134.672 143.922 134.537 143.655C134.266 143.125 134.007 142.618 133.762 142.133C132.721 140.221 131.846 138.69 131.195 137.662C130.884 137.155 130.643 136.753 130.468 136.464C130.394 136.333 130.333 136.232 130.285 136.149C130.245 136.079 130.223 136.04 130.228 136.035C130.232 136.035 130.258 136.066 130.302 136.136C130.355 136.214 130.42 136.315 130.503 136.438C130.687 136.722 130.941 137.116 131.269 137.614C131.947 138.629 132.839 140.151 133.902 142.054C134.156 142.539 134.419 143.047 134.694 143.572C134.83 143.834 134.97 144.105 135.114 144.381C135.25 144.656 135.377 144.949 135.512 145.238C135.779 145.82 136.055 146.424 136.339 147.045C136.606 147.675 136.851 148.335 137.118 149.004C138.141 151.699 139.056 154.756 139.624 158.041C140.727 164.633 140.289 170.717 139.804 175.034C139.533 177.195 139.279 178.945 139.056 180.143C138.951 180.729 138.868 181.193 138.811 181.525C138.78 181.674 138.758 181.792 138.741 181.884C138.723 181.971 138.715 182.011 138.71 182.011Z" fill="#263238"/>
<path d="M150.591 121.986C150.57 122.003 150.303 121.771 149.918 121.338C149.533 120.905 149.047 120.267 148.601 119.506C148.155 118.745 147.836 118.005 147.643 117.459C147.451 116.912 147.376 116.562 147.407 116.553C147.472 116.531 147.91 117.887 148.798 119.388C149.673 120.892 150.644 121.938 150.591 121.986Z" fill="#263238"/>
<path d="M156.082 121.758C156.073 121.771 155.942 121.692 155.705 121.544C155.474 121.395 155.141 121.168 154.743 120.875C153.942 120.293 152.866 119.449 151.738 118.443C150.609 117.437 149.647 116.461 148.977 115.735C148.645 115.372 148.378 115.07 148.203 114.856C148.028 114.642 147.936 114.519 147.949 114.51C147.975 114.488 148.4 114.926 149.095 115.626C149.791 116.326 150.766 117.275 151.891 118.276C153.015 119.278 154.069 120.135 154.844 120.748C155.618 121.36 156.103 121.732 156.082 121.758Z" fill="#263238"/>
<g opacity="0.3">
<path d="M50.4971 127.681C52.5794 127.991 54.7798 127.444 56.4727 126.189C58.1657 124.934 59.3337 122.992 59.6443 120.91C56.7133 122.786 53.2356 125.524 50.4971 127.681Z" fill="black"/>
</g>
<g opacity="0.3">
<path d="M138.78 145.597C137.315 142.08 134.519 139.246 131.142 137.474L131.112 137.536C135.049 143.279 137.625 150.032 139.318 156.786C140.438 153.147 140.246 149.118 138.78 145.597Z" fill="black"/>
</g>
</g>
<defs>
<clipPath id="clip0_5434_4353">
<rect width="210" height="210" fill="white"/>
</clipPath>
</defs>
</svg>
