<svg width="230" height="230" viewBox="0 0 230 230" fill="none" xmlns="http://www.w3.org/2000/svg">
<path d="M24.2235 30.3853C26.3757 29.8179 28.7193 30.3698 30.6076 31.5408C32.4959 32.7169 33.9651 34.4605 35.1343 36.3484C37.4003 39.9954 38.166 44.8753 38.2281 49.1671C33.453 48.9298 29.4125 45.1487 27.4828 43.1008C24.4253 39.8665 20.8815 32.1753 24.2235 30.3853Z" fill="#F5F5F5"/>
<path d="M45.885 52.1074C43.9346 50.5701 43.0862 47.8723 43.5156 45.4375C43.9501 42.9976 45.5487 40.8517 47.6129 39.4692C48.5649 38.8296 49.7444 38.3292 50.8463 38.6594C51.8759 38.9689 52.5795 39.9748 52.7812 41.0271C52.9778 42.0794 52.745 43.1678 52.3829 44.1789C51.1412 47.6402 49.3098 50.761 45.885 52.1074Z" fill="#F5F5F5"/>
<path d="M48.6579 62.4809C48.6061 62.5067 48.0578 61.573 47.3024 59.9842C46.9248 59.1898 46.5833 58.1736 46.3505 57.0336C46.1229 55.8988 45.8539 54.6504 45.7607 53.2989C45.5486 50.6011 46.0867 48.1302 46.8368 46.5259C47.2041 45.7161 47.6077 45.1177 47.8974 44.7205C48.2078 44.3336 48.394 44.1376 48.4199 44.1582C48.4923 44.2098 47.7991 45.0558 47.1524 46.66C46.5057 48.254 46.0401 50.6372 46.2419 53.2628C46.3298 54.5679 46.5885 55.8162 46.7851 56.9459C46.992 58.0756 47.2869 59.0506 47.618 59.8501C48.2854 61.4595 48.7303 62.45 48.6579 62.4809Z" fill="#E0E0E0"/>
<path d="M27.4414 36.0079C27.4673 35.9873 27.8191 36.3535 28.4399 37.0396C29.0607 37.7257 29.9402 38.7264 31.0214 39.9799C33.1788 42.4817 36.1225 45.9688 39.2783 49.8944C42.4341 53.8251 45.1915 57.4669 47.1316 60.139C48.099 61.475 48.875 62.5686 49.3924 63.332C49.9097 64.0955 50.1839 64.5288 50.1581 64.5443C50.1322 64.5649 49.8063 64.1677 49.2372 63.4404C48.6215 62.6408 47.8197 61.5988 46.8574 60.3402C44.8501 57.7197 42.0564 54.1191 38.9006 50.1936C35.7448 46.3247 32.8942 42.8222 30.7576 40.1965C29.7591 38.9637 28.9314 37.9423 28.295 37.1582C27.726 36.4361 27.4207 36.0285 27.4414 36.0079Z" fill="#E0E0E0"/>
<path d="M42.6307 56.7501C38.3316 53.7634 32.5425 53.0412 27.638 54.8776C26.3912 55.347 25.0306 56.2136 24.9892 57.5445C24.9478 58.8753 26.2619 59.8297 27.4984 60.3403C32.6304 62.4708 39.0196 61.0986 42.8221 57.0596" fill="#F5F5F5"/>
<path d="M30.9801 56.8995C30.9749 56.8686 31.2284 56.7809 31.6992 56.6571C32.1648 56.523 32.8528 56.3785 33.7116 56.2186C35.4137 55.9452 37.8608 55.6254 40.5096 56.1619C41.8288 56.4353 43.0342 56.9202 44.0379 57.5082C45.0519 58.0963 45.8279 58.8133 46.4383 59.4323C47.0281 60.0771 47.4679 60.6342 47.7162 61.0521C47.98 61.4596 48.1094 61.6917 48.0835 61.7123C48.0059 61.7691 47.4161 60.8664 46.1952 59.6696C45.5692 59.0919 44.7932 58.4316 43.8102 57.89C42.8324 57.3483 41.6736 56.8944 40.4061 56.6313C37.8556 56.1103 35.4551 56.3631 33.753 56.5539C32.051 56.7706 30.9956 56.9718 30.9801 56.8995Z" fill="#E0E0E0"/>
<path d="M49.6354 161.466C65.0627 153.997 71.0794 136.546 73.1022 120.322C73.4385 117.614 74.1887 114.824 73.2833 112.255C72.3728 109.686 69.636 107.597 67.0338 108.35C64.8764 108.974 63.6296 111.161 62.2018 112.905C60.2979 115.226 57.7371 116.995 54.902 117.934C53.0396 118.553 50.8253 118.759 49.2733 117.552C47.147 115.902 47.385 112.647 47.8299 109.969C48.6577 104.981 49.4854 99.9931 50.3132 95.0049C50.7581 92.3277 51.203 89.5937 50.7736 86.9217C50.3442 84.2444 48.8749 81.593 46.4331 80.4736C43.9912 79.3543 40.5974 80.3241 39.6352 82.8568C39.2368 83.9143 39.2782 85.0801 39.0247 86.1789C38.7712 87.2776 38.0573 88.4279 36.9501 88.5672C35.8275 88.7116 34.8756 87.7831 34.1979 86.8701C31.8543 83.7234 30.5299 79.9423 29.3245 76.1973C28.119 72.4523 26.9757 68.6351 24.9322 65.2873C22.8887 61.9394 19.7794 59.0456 15.9666 58.2202C12.1538 57.3949 7.67356 59.1075 6.10083 62.7235C4.52292 66.3447 6.12152 70.5282 8.0357 73.9689C10.8811 79.0706 14.4611 83.7492 18.6258 87.8192C19.3759 88.5517 20.1933 89.3461 20.3589 90.3881C20.6589 92.2658 18.6775 93.772 16.8151 94.0764C14.7043 94.422 12.5676 93.8701 10.431 93.7824C8.29437 93.6947 5.87837 94.2569 4.77125 96.1036C3.23473 98.6674 5.07131 101.902 7.03205 104.14C10.9535 108.623 15.651 112.415 20.84 115.303C22.7024 116.34 24.6787 117.3 26.0548 118.94C27.4258 120.58 28.0052 123.139 26.7429 124.872C25.4754 126.611 22.9094 126.822 20.9021 126.11C18.8948 125.398 17.2186 123.985 15.3665 122.927C11.8951 120.952 7.08896 120.451 4.21252 123.258C2.32421 125.104 1.72409 127.993 2.11209 130.608C2.5001 133.224 3.75208 135.627 5.12822 137.877C9.93953 145.738 16.6288 152.516 24.7201 156.834C32.8217 161.162 40.6285 163.22 49.6354 161.466Z" fill="#EBEBEB"/>
<path d="M47.4472 162.327C47.8818 155.843 48.1715 159.207 47.0695 150.69C45.9883 142.168 44.0224 132.924 41.6374 123.33C41.0321 120.931 40.432 118.563 39.8422 116.232C39.2473 113.905 38.6575 111.594 37.9436 109.371C36.5312 104.919 34.8343 100.741 33.096 96.8309C31.3629 92.9157 29.5729 89.2635 27.8708 85.8641C26.1636 82.4647 24.5133 79.3233 22.8888 76.5274C19.6502 70.9202 16.5099 66.7109 14.2336 63.9099C13.1006 62.5068 12.1849 61.4442 11.5538 60.7323C11.2485 60.3919 11.0106 60.1288 10.8295 59.9276C10.6639 59.7471 10.576 59.6594 10.5708 59.6645C10.5656 59.6697 10.6381 59.7728 10.7933 59.9586C10.964 60.1649 11.1916 60.4434 11.4762 60.7942C12.0815 61.5267 12.9713 62.6048 14.0836 64.0285C16.3082 66.8605 19.3967 71.0853 22.5836 76.7028C24.1873 79.5038 25.817 82.6453 27.5035 86.0447C29.1849 89.4544 30.9594 93.1066 32.677 97.0166C34.3997 100.927 36.0811 105.09 37.4779 109.515C38.1867 111.728 38.7661 114.019 39.3611 116.35C39.9509 118.682 40.5458 121.05 41.1511 123.448C43.5361 133.038 45.5072 142.256 46.6091 150.747C47.7266 159.232 47.4731 155.838 47.0902 162.302" fill="#E0E0E0"/>
<path d="M37.814 109.33C37.8451 109.34 38.0003 108.948 38.2589 108.231C38.5176 107.514 38.8591 106.462 39.2626 105.157C40.0697 102.552 41.0578 98.9097 42.1339 94.8965C43.2099 90.8781 44.2498 87.2672 45.0931 84.6777C45.5121 83.3829 45.8588 82.3358 46.1123 81.6187C46.3606 80.8966 46.4796 80.4942 46.4485 80.4787C46.4175 80.4684 46.2364 80.845 45.9312 81.5465C45.6259 82.2481 45.2224 83.2746 44.762 84.559C43.8308 87.1279 42.734 90.7388 41.6579 94.7624C40.6077 98.7292 39.6558 102.314 38.9315 105.053C38.5952 106.291 38.3107 107.333 38.0831 108.169C37.8709 108.902 37.7778 109.314 37.814 109.33Z" fill="#E0E0E0"/>
<path d="M4.29521 97.4088C4.29003 97.4449 4.77117 97.579 5.64548 97.7905C6.51979 98.0123 7.78729 98.3218 9.33415 98.7552C12.4434 99.596 16.696 100.911 21.3262 102.567C25.9565 104.228 30.0797 105.915 33.0286 107.215C34.5082 107.855 35.6929 108.407 36.5103 108.783C37.3277 109.165 37.7882 109.356 37.8037 109.325C37.8192 109.294 37.3898 109.041 36.5931 108.603C35.7964 108.174 34.6375 107.571 33.1683 106.885C30.2504 105.497 26.1324 103.754 21.4918 102.087C16.846 100.432 12.5624 99.1627 9.41693 98.4095C7.84937 98.0175 6.56635 97.7596 5.67652 97.5997C4.79703 97.4449 4.30555 97.3727 4.29521 97.4088Z" fill="#E0E0E0"/>
<path d="M46.7485 149.989C46.7641 149.999 46.8675 149.865 47.0538 149.607C47.2659 149.297 47.5297 148.916 47.8453 148.457C48.5282 147.451 49.4749 145.975 50.6235 144.134C52.9205 140.451 55.9314 135.266 59.1752 129.505C62.4241 123.737 65.3833 118.533 67.5976 114.808C68.6788 112.998 69.5738 111.512 70.236 110.403C70.5206 109.923 70.7534 109.526 70.9448 109.201C71.1 108.922 71.1776 108.773 71.1621 108.763C71.1465 108.752 71.0431 108.886 70.8568 109.144C70.6447 109.454 70.3809 109.835 70.0653 110.295C69.3824 111.3 68.4357 112.776 67.2871 114.617C64.9901 118.3 61.9792 123.485 58.7303 129.252C55.4813 135.019 52.5273 140.224 50.3079 143.948C49.2214 145.759 48.3316 147.244 47.6694 148.348C47.3849 148.828 47.1521 149.225 46.9606 149.55C46.8106 149.829 46.733 149.978 46.7485 149.989Z" fill="#E0E0E0"/>
<path d="M3.2035 127.952C3.19833 127.967 3.34319 128.055 3.62773 128.21C3.96917 128.385 4.38305 128.602 4.89005 128.865C6.05925 129.458 7.63198 130.258 9.55133 131.233C13.4883 133.234 18.8894 136.061 24.8596 139.187C30.8297 142.318 36.2671 145.098 40.2454 147.017C42.232 147.977 43.8513 148.74 44.9791 149.241C45.5017 149.468 45.9311 149.658 46.2829 149.813C46.5829 149.937 46.7433 149.999 46.7536 149.978C46.7588 149.963 46.614 149.875 46.3294 149.72C45.988 149.545 45.5741 149.328 45.0671 149.065C43.8979 148.472 42.3252 147.672 40.4058 146.698C36.4688 144.696 31.0626 141.869 25.0976 138.738C19.1326 135.607 13.6953 132.832 9.71688 130.908C7.73028 129.948 6.11098 129.185 4.98317 128.684C4.46065 128.457 4.03126 128.266 3.67946 128.112C3.36905 127.998 3.20868 127.936 3.2035 127.952Z" fill="#E0E0E0"/>
<path d="M16.6288 120.059C16.6288 120.059 20.1985 117.655 24.658 126.182C29.1175 134.709 30.8248 139.635 30.8248 139.635C30.8248 139.635 31.9991 141.42 33.2252 140.234C34.4513 139.047 36.112 135.705 38.2228 136.283C40.4112 136.886 41.151 139.305 40.7681 142.87C40.3853 146.439 39.8369 154.291 39.7904 154.997C39.7438 155.694 40.1525 156.715 41.1199 156.044C42.0822 155.369 47.6126 149.117 50.4321 151.907C53.2517 154.698 50.5511 164.468 50.2718 165.541C49.9976 166.614 50.2097 167.068 50.7219 167.331C51.234 167.589 52.8947 165.314 54.5399 163.602C56.185 161.889 58.3941 160.187 59.8841 161.935C61.374 163.684 61.9172 170.988 55.052 182.925L51.5082 188.248L45.0776 187.954C31.3576 186.484 25.7444 181.759 25.2012 179.531C24.658 177.302 27.3378 176.518 29.6918 176.193C32.0509 175.873 34.8704 175.868 34.9635 175.301C35.0515 174.733 34.8083 174.295 33.7788 173.887C32.7441 173.48 23.2301 169.926 22.6197 166.01C22.0092 162.095 30.3333 161.306 31.4456 160.924C32.5579 160.543 31.9681 159.609 31.3783 159.237C30.773 158.861 24.0786 154.693 20.959 152.908C17.8394 151.123 16.308 149.101 17.1048 146.986C17.8704 144.944 21.5643 145.568 23.2456 145.274C24.927 144.98 24.1665 142.983 24.1665 142.983C24.1665 142.983 21.1711 138.712 16.8668 130.108C12.5625 121.504 16.7167 120.013 16.7167 120.013" fill="#C0DEF2"/>
<path d="M20.6382 127.689C20.6434 127.689 20.6744 127.74 20.7262 127.838C20.7882 127.952 20.8659 128.101 20.9693 128.292C21.1814 128.71 21.4867 129.298 21.8747 130.051C22.661 131.599 23.7889 133.812 25.1857 136.541C28.0052 142.019 31.8905 149.571 36.1844 157.907C40.4991 166.243 44.3689 173.81 47.1211 179.309C48.4817 182.053 49.5889 184.282 50.3597 185.834C50.7322 186.598 51.0219 187.196 51.2237 187.614C51.3168 187.81 51.3892 187.965 51.441 188.078C51.4875 188.181 51.5134 188.238 51.5082 188.243C51.503 188.243 51.472 188.192 51.4203 188.094C51.3582 187.98 51.2806 187.831 51.1771 187.64C50.965 187.222 50.6598 186.634 50.2718 185.881C49.4854 184.333 48.3576 182.12 46.9659 179.392C44.1723 173.913 40.2766 166.361 35.9672 158.02C31.6577 149.684 27.7879 142.122 25.0305 136.618C23.6699 133.874 22.5627 131.645 21.7919 130.093C21.4194 129.329 21.1297 128.731 20.9279 128.313C20.8348 128.117 20.7624 127.962 20.7106 127.849C20.6537 127.745 20.633 127.689 20.6382 127.689Z" fill="#263238"/>
<path d="M36.0863 141.054C36.1225 141.064 35.9725 141.704 35.7345 142.736C35.481 143.834 35.1602 145.232 34.8084 146.775C34.4515 148.353 34.1152 149.782 33.841 150.809C33.7013 151.319 33.5823 151.737 33.4892 152.016C33.3961 152.299 33.334 152.454 33.3185 152.449C33.2823 152.439 33.4375 151.804 33.6703 150.767C33.9134 149.669 34.2238 148.265 34.5704 146.723C34.9274 145.145 35.2844 143.721 35.5689 142.694C35.7138 142.184 35.8328 141.771 35.9259 141.487C36.0087 141.204 36.0708 141.054 36.0863 141.054Z" fill="#263238"/>
<path d="M32.7286 152.568C32.7079 152.635 29.7694 151.876 26.1635 150.881C22.5524 149.885 19.6449 149.019 19.6605 148.957C19.6812 148.89 22.6197 149.648 26.2256 150.644C29.8315 151.639 32.7441 152.506 32.7286 152.568Z" fill="#263238"/>
<path d="M41.0267 166.918C41.0267 166.934 40.8612 166.96 40.556 166.985C40.2507 167.016 39.8161 167.042 39.2729 167.073C38.1865 167.125 36.681 167.161 35.0204 167.114C33.3597 167.068 31.8594 166.949 30.7781 166.836C30.2349 166.779 29.8003 166.722 29.5003 166.676C29.2002 166.63 29.0347 166.599 29.0347 166.578C29.0398 166.542 29.7072 166.588 30.7936 166.66C31.8749 166.733 33.3752 166.82 35.0255 166.867C36.681 166.913 38.1762 166.908 39.2626 166.898C40.3542 166.893 41.0267 166.882 41.0267 166.918Z" fill="#263238"/>
<path d="M46.3657 157.174C46.3968 157.19 46.1174 157.747 45.6466 158.629C45.1758 159.511 44.5084 160.723 43.7531 162.054C43.003 163.385 42.3097 164.582 41.7976 165.443C41.2854 166.305 40.9543 166.831 40.9232 166.81C40.8922 166.789 41.1716 166.237 41.6424 165.355C42.1131 164.473 42.7805 163.261 43.5358 161.93C44.286 160.599 44.9792 159.403 45.4914 158.541C46.0036 157.68 46.3347 157.159 46.3657 157.174Z" fill="#263238"/>
<path d="M55.3055 168.915C55.321 168.925 55.233 169.106 55.0675 169.42C54.8709 169.781 54.6277 170.23 54.3432 170.756C53.7224 171.881 52.8481 173.423 51.8703 175.12C50.8925 176.817 49.9923 178.344 49.3301 179.448C49.0145 179.959 48.7507 180.392 48.5386 180.743C48.3472 181.047 48.2333 181.212 48.2178 181.202C48.2023 181.192 48.2902 181.011 48.4558 180.697C48.6524 180.335 48.8955 179.887 49.1801 179.361C49.8009 178.236 50.6752 176.694 51.6582 174.997C52.636 173.299 53.5361 171.773 54.1983 170.669C54.5139 170.158 54.7778 169.725 54.9899 169.374C55.1813 169.07 55.2899 168.904 55.3055 168.915Z" fill="#263238"/>
<path d="M48.3007 180.862C48.3007 180.877 48.0886 180.898 47.7006 180.913C47.3126 180.929 46.759 180.939 46.0658 180.944C44.6844 180.949 42.7806 180.924 40.6802 180.805C38.5798 180.691 36.6811 180.511 35.3101 180.351C34.6272 180.274 34.0737 180.196 33.6908 180.14C33.308 180.083 33.1011 180.042 33.1011 180.026C33.1011 180.011 33.3184 180.016 33.7012 180.047C34.1358 180.083 34.679 180.129 35.3257 180.181C36.6966 180.299 38.5953 180.449 40.6905 180.563C42.7858 180.681 44.6896 180.738 46.0658 180.774C46.7124 180.795 47.2608 180.805 47.6954 180.82C48.0886 180.831 48.3007 180.846 48.3007 180.862Z" fill="#263238"/>
<path d="M216.526 117.222L199.211 134.028L183.256 164.391L165.309 198.72L143.265 188.419L119.436 176.255L134.677 147.224L144.15 114.715C137.455 119.141 125.034 125.171 110.16 122.03C94.05 118.625 101.784 58.0396 101.784 58.0396L119.488 57.5857L121.252 100.303L141.268 91.492L141.299 91.5642C142.505 91.0277 143.555 90.5531 144.119 90.2488C155.185 84.2289 162.448 83.5016 174.321 87.7263L191.451 93.4006C195.853 95.464 212.082 103.429 216.526 117.222Z" fill="#C0DEF2"/>
<path d="M155.924 86.4523C155.935 86.4781 155.521 86.6793 154.848 87.159C154.176 87.6336 153.265 88.4229 152.37 89.5938C151.47 90.7596 150.611 92.302 149.923 94.1281C149.225 95.949 148.687 98.0278 148.097 100.21C146.912 104.553 145.841 108.484 145.055 111.367C144.662 112.765 144.336 113.911 144.103 114.741C143.989 115.118 143.901 115.417 143.829 115.654C143.762 115.86 143.725 115.969 143.715 115.969C143.705 115.969 143.725 115.855 143.777 115.639C143.834 115.401 143.906 115.092 144 114.71C144.212 113.874 144.507 112.724 144.869 111.316C145.634 108.427 146.679 104.491 147.838 100.138C148.423 97.9608 148.971 95.8716 149.69 94.0352C150.394 92.1988 151.284 90.641 152.215 89.4752C153.146 88.3042 154.088 87.5253 154.786 87.0714C155.133 86.8392 155.417 86.6845 155.614 86.5865C155.816 86.4884 155.919 86.442 155.924 86.4523Z" fill="#263238"/>
<g opacity="0.3">
<path d="M149.473 95.0103C144.522 108.371 135.619 115.845 123.011 122.541C123.011 122.541 133.818 121.793 143.798 114.942" fill="black"/>
</g>
<g opacity="0.3">
<path d="M165.242 85.4978C167.342 118.986 169.438 152.47 171.538 185.958L165.315 198.72L165.242 85.4978Z" fill="black"/>
</g>
<path d="M184.741 120.24C184.668 120.266 184.032 118.687 183.152 116.784C182.273 114.88 181.481 113.374 181.549 113.333C181.58 113.317 181.818 113.668 182.164 114.266C182.511 114.865 182.956 115.711 183.395 116.665C183.84 117.619 184.192 118.507 184.425 119.157C184.663 119.817 184.777 120.23 184.741 120.24Z" fill="#FAFAFA"/>
<path d="M198.833 113.178C198.875 113.24 197.369 114.246 195.47 115.427C193.572 116.608 192.004 117.511 191.963 117.449C191.921 117.387 193.427 116.381 195.326 115.2C197.224 114.019 198.797 113.116 198.833 113.178Z" fill="#FAFAFA"/>
<path d="M192.718 108.092C192.646 108.097 192.522 106.869 192.439 105.347C192.361 103.826 192.356 102.593 192.428 102.588C192.501 102.583 192.625 103.81 192.708 105.332C192.791 106.854 192.791 108.087 192.718 108.092Z" fill="#FAFAFA"/>
<path d="M206.785 107.112C206.743 107.174 205.61 106.544 204.244 105.709C202.879 104.868 201.808 104.135 201.849 104.073C201.891 104.011 203.024 104.641 204.389 105.476C205.755 106.317 206.826 107.045 206.785 107.112Z" fill="#FAFAFA"/>
<path d="M185.279 134.931C185.211 134.9 185.837 133.306 186.675 131.361C187.514 129.422 188.253 127.869 188.321 127.9C188.388 127.931 187.762 129.525 186.924 131.47C186.086 133.414 185.346 134.962 185.279 134.931Z" fill="#FAFAFA"/>
<path d="M179.014 141.26C178.946 141.291 178.382 140.301 177.751 139.042C177.12 137.784 176.66 136.737 176.727 136.7C176.794 136.669 177.358 137.66 177.989 138.919C178.626 140.177 179.081 141.224 179.014 141.26Z" fill="#FAFAFA"/>
<path d="M184.254 149.772C184.275 149.839 183.106 150.241 181.595 150.448C180.09 150.664 178.853 150.597 178.853 150.53C178.853 150.453 180.074 150.396 181.559 150.184C183.044 149.973 184.234 149.694 184.254 149.772Z" fill="#FAFAFA"/>
<path d="M190.975 140.461C190.908 140.43 191.316 139.311 191.89 137.959C192.465 136.602 192.987 135.53 193.054 135.56C193.122 135.591 192.713 136.711 192.139 138.062C191.565 139.414 191.047 140.492 190.975 140.461Z" fill="#FAFAFA"/>
<path d="M174.632 160.13C174.565 160.171 173.804 159.124 172.759 157.927C171.719 156.72 170.783 155.823 170.84 155.766C170.886 155.714 171.911 156.535 172.966 157.752C174.021 158.969 174.689 160.094 174.632 160.13Z" fill="#FAFAFA"/>
<path d="M171.667 138.98C171.729 139.016 171.124 140.177 170.317 141.57C169.505 142.963 168.796 144.067 168.729 144.025C168.667 143.989 169.272 142.829 170.084 141.431C170.891 140.043 171.605 138.944 171.667 138.98Z" fill="#FAFAFA"/>
<path d="M173.778 131.692C173.757 131.764 172.464 131.491 170.886 131.088C169.308 130.681 168.046 130.294 168.061 130.222C168.082 130.149 169.375 130.423 170.953 130.825C172.531 131.233 173.793 131.619 173.778 131.692Z" fill="#FAFAFA"/>
<path d="M173.654 116.748C173.721 116.706 174.368 117.676 175.185 118.852C176.003 120.028 176.686 120.972 176.624 121.019C176.567 121.065 175.785 120.188 174.963 119.007C174.14 117.821 173.592 116.784 173.654 116.748Z" fill="#FAFAFA"/>
<path d="M168.889 116.015C168.936 116.072 168.139 116.846 167.099 117.743C166.059 118.641 165.18 119.327 165.133 119.27C165.087 119.213 165.884 118.44 166.923 117.542C167.958 116.645 168.838 115.959 168.889 116.015Z" fill="#FAFAFA"/>
<path d="M172.65 108.19C172.604 108.241 171.45 107.292 170.26 105.889C169.065 104.491 168.304 103.207 168.367 103.171C168.434 103.129 169.282 104.337 170.467 105.719C171.647 107.101 172.707 108.133 172.65 108.19Z" fill="#FAFAFA"/>
<path d="M185.884 105.781C185.905 105.853 184.606 106.312 182.982 106.802C181.357 107.297 180.023 107.638 180.002 107.571C179.981 107.499 181.28 107.039 182.904 106.549C184.529 106.054 185.858 105.709 185.884 105.781Z" fill="#FAFAFA"/>
<path d="M167.254 93.2148C167.177 93.2097 167.208 92.0284 167.027 90.5995C166.851 89.1655 166.525 88.0306 166.603 88.0048C166.665 87.979 167.115 89.0984 167.296 90.5634C167.482 92.0284 167.322 93.2252 167.254 93.2148Z" fill="#FAFAFA"/>
<path d="M155.479 130.619C155.5 130.655 155.024 130.98 154.259 131.516C153.493 132.053 152.448 132.801 151.33 133.678C150.213 134.554 149.23 135.385 148.526 135.999C147.823 136.608 147.388 136.994 147.362 136.963C147.336 136.938 147.724 136.509 148.397 135.86C149.07 135.21 150.037 134.348 151.165 133.466C152.293 132.589 153.358 131.857 154.155 131.361C154.952 130.861 155.464 130.588 155.479 130.619Z" fill="#FAFAFA"/>
<path d="M154.802 126.476C154.735 126.518 153.865 125.166 152.66 123.593C151.46 122.02 150.389 120.823 150.446 120.766C150.472 120.74 150.777 121.009 151.227 121.483C151.677 121.958 152.272 122.639 152.877 123.428C153.483 124.222 153.979 124.97 154.321 125.532C154.652 126.095 154.833 126.461 154.802 126.476Z" fill="#FAFAFA"/>
<path d="M157.952 110.176C157.989 110.243 156.882 110.919 155.48 111.687C154.078 112.461 152.914 113.028 152.877 112.966C152.841 112.899 153.948 112.224 155.35 111.455C156.752 110.681 157.916 110.109 157.952 110.176Z" fill="#FAFAFA"/>
<path d="M154.833 103.057C154.812 103.083 154.461 102.83 153.948 102.361C153.431 101.897 152.753 101.205 152.081 100.385C151.408 99.565 150.865 98.7655 150.503 98.1723C150.146 97.5739 149.96 97.187 149.991 97.1664C150.063 97.1251 150.948 98.5901 152.288 100.215C153.617 101.845 154.89 102.995 154.833 103.057Z" fill="#FAFAFA"/>
<path d="M160.203 102.908C160.136 102.877 160.56 101.866 161.155 100.653C161.75 99.4412 162.283 98.4817 162.35 98.5127C162.417 98.5436 161.993 99.5547 161.398 100.772C160.808 101.979 160.27 102.939 160.203 102.908Z" fill="#FAFAFA"/>
<path d="M158.77 94.7573C158.687 94.7521 158.78 93.153 158.47 91.2186C158.175 89.2842 157.596 87.7882 157.673 87.7573C157.704 87.747 157.89 88.1029 158.113 88.7116C158.335 89.3203 158.584 90.1921 158.739 91.1722C158.894 92.1523 158.925 93.055 158.899 93.705C158.873 94.3652 158.806 94.7624 158.77 94.7573Z" fill="#FAFAFA"/>
<path d="M160.094 135.87C160.053 135.865 160.084 135.292 160.115 134.358C160.146 133.43 160.172 132.145 160.141 130.727C160.105 129.308 160.012 128.029 159.934 127.101C159.856 126.172 159.8 125.599 159.841 125.594C159.877 125.589 159.996 126.157 160.125 127.08C160.255 128.003 160.374 129.293 160.41 130.722C160.446 132.151 160.389 133.44 160.307 134.369C160.224 135.302 160.131 135.87 160.094 135.87Z" fill="#FAFAFA"/>
<path d="M159.308 148.683C159.246 148.74 158.387 147.708 157.011 146.842C155.64 145.96 154.341 145.624 154.367 145.542C154.372 145.475 155.738 145.707 157.156 146.615C158.579 147.512 159.365 148.652 159.308 148.683Z" fill="#FAFAFA"/>
<path d="M165.785 156.632C165.821 156.699 164.228 157.587 162.231 158.618C160.234 159.65 158.589 160.429 158.553 160.362C158.516 160.295 160.11 159.408 162.107 158.376C164.104 157.349 165.749 156.565 165.785 156.632Z" fill="#FAFAFA"/>
<path d="M147.564 160.156C147.502 160.202 146.333 158.711 144.947 156.834C143.56 154.956 142.489 153.398 142.546 153.357C142.608 153.311 143.777 154.801 145.164 156.679C146.55 158.552 147.621 160.109 147.564 160.156Z" fill="#FAFAFA"/>
<path d="M141.941 145.485C141.904 145.485 141.858 145.083 141.827 144.428C141.796 143.773 141.79 142.865 141.837 141.864C141.884 140.863 141.977 139.961 142.065 139.311C142.153 138.661 142.241 138.263 142.277 138.269C142.354 138.279 142.194 139.888 142.106 141.879C142.008 143.865 142.018 145.485 141.941 145.485Z" fill="#FAFAFA"/>
<path d="M135.872 170.524C135.826 170.581 134.47 169.539 132.851 168.192C131.227 166.846 129.954 165.711 130.001 165.655C130.047 165.598 131.403 166.64 133.022 167.986C134.641 169.333 135.919 170.467 135.872 170.524Z" fill="#FAFAFA"/>
<path d="M139.514 169.755C139.442 169.755 139.338 167.945 139.287 165.711C139.235 163.478 139.251 161.662 139.328 161.662C139.401 161.662 139.504 163.467 139.556 165.706C139.607 167.945 139.587 169.755 139.514 169.755Z" fill="#FAFAFA"/>
<path d="M146.705 185.293C146.69 185.334 146.059 185.076 145.019 184.746C143.979 184.416 142.52 184.034 140.875 183.807C139.225 183.585 137.719 183.559 136.627 183.606C135.536 183.647 134.863 183.725 134.858 183.683C134.858 183.663 135.024 183.627 135.324 183.575C135.624 183.518 136.069 183.467 136.617 183.42C137.714 183.327 139.245 183.322 140.911 183.549C142.577 183.776 144.051 184.194 145.081 184.576C145.598 184.767 146.007 184.937 146.286 185.071C146.566 185.195 146.716 185.277 146.705 185.293Z" fill="#FAFAFA"/>
<path d="M152.629 188.125C152.65 188.099 153.105 188.393 153.793 188.929C154.481 189.466 155.402 190.25 156.349 191.194C157.295 192.138 158.082 193.056 158.62 193.742C159.158 194.428 159.453 194.882 159.427 194.903C159.396 194.929 159.044 194.516 158.475 193.861C157.901 193.206 157.099 192.318 156.157 191.38C155.221 190.446 154.326 189.641 153.669 189.074C153.017 188.506 152.608 188.156 152.629 188.125Z" fill="#FAFAFA"/>
<path d="M155.21 161.254C155.143 161.28 154.543 159.934 153.871 158.247C153.198 156.56 152.712 155.168 152.779 155.142C152.846 155.116 153.446 156.462 154.119 158.149C154.791 159.836 155.278 161.224 155.21 161.254Z" fill="#FAFAFA"/>
<path d="M134.429 108.974C134.455 109 134.165 109.34 133.637 109.835C133.11 110.331 132.339 110.97 131.423 111.584C130.502 112.193 129.612 112.662 128.955 112.951C128.293 113.245 127.869 113.379 127.853 113.348C127.822 113.271 129.457 112.574 131.273 111.357C133.094 110.15 134.372 108.912 134.429 108.974Z" fill="#FAFAFA"/>
<path d="M135.753 103.506C135.681 103.501 135.665 102.469 135.727 101.205C135.789 99.9364 135.898 98.9099 135.97 98.9151C136.043 98.9202 136.058 99.9467 135.996 101.216C135.934 102.485 135.825 103.511 135.753 103.506Z" fill="#FAFAFA"/>
<path d="M125.437 108.097C125.406 108.164 124.201 107.679 122.752 107.019C121.299 106.353 120.145 105.76 120.176 105.693C120.207 105.626 121.412 106.111 122.866 106.771C124.315 107.437 125.468 108.03 125.437 108.097Z" fill="#FAFAFA"/>
<path d="M143.85 101.097C143.777 101.092 143.814 99.8125 143.932 98.2443C144.051 96.6762 144.212 95.4072 144.284 95.4124C144.357 95.4175 144.321 96.6968 144.202 98.265C144.083 99.8383 143.927 101.107 143.85 101.097Z" fill="#FAFAFA"/>
<path d="M119.953 119.028C119.933 119.09 118.536 118.667 116.999 117.738C115.458 116.82 114.423 115.793 114.47 115.747C114.521 115.685 115.623 116.608 117.139 117.511C118.65 118.419 119.984 118.955 119.953 119.028Z" fill="#FAFAFA"/>
<path d="M112.281 108.535C112.338 108.587 111.35 109.753 110.077 111.14C108.805 112.528 107.729 113.617 107.677 113.565C107.62 113.513 108.608 112.348 109.881 110.96C111.148 109.567 112.224 108.484 112.281 108.535Z" fill="#FAFAFA"/>
<path d="M111.624 99.1317C111.598 99.1936 110.44 98.7088 109.214 97.7854C107.982 96.8672 107.186 95.8974 107.237 95.8561C107.294 95.7994 108.163 96.6712 109.374 97.5739C110.579 98.4766 111.661 99.0595 111.624 99.1317Z" fill="#FAFAFA"/>
<path d="M106.797 101.102C106.854 101.149 106.358 101.824 105.695 102.608C105.028 103.393 104.443 103.991 104.387 103.945C104.33 103.898 104.821 103.222 105.489 102.438C106.156 101.649 106.74 101.051 106.797 101.102Z" fill="#FAFAFA"/>
<path d="M117.149 83.6459C117.206 83.6924 116.301 84.8891 115.127 86.318C113.952 87.7469 112.954 88.8714 112.897 88.8198C112.84 88.7734 113.745 87.5766 114.92 86.1478C116.094 84.7189 117.093 83.5995 117.149 83.6459Z" fill="#FAFAFA"/>
<path d="M108.272 85.632C108.215 85.6784 107.232 84.6519 106.073 83.3313C104.914 82.0108 104.019 80.9017 104.076 80.8501C104.133 80.8037 105.116 81.8302 106.275 83.156C107.434 84.4714 108.323 85.5804 108.272 85.632Z" fill="#FAFAFA"/>
<path d="M112.711 74.428C112.643 74.4641 111.955 73.3654 111.169 71.9778C110.383 70.5902 109.798 69.4347 109.86 69.3986C109.927 69.3625 110.615 70.456 111.402 71.8488C112.188 73.2364 112.773 74.3919 112.711 74.428Z" fill="#FAFAFA"/>
<path d="M112.488 67.2009C112.421 67.1493 113.197 66.1692 113.813 64.7816C114.439 63.3991 114.656 62.1714 114.739 62.1869C114.806 62.1869 114.708 63.4662 114.061 64.8951C113.425 66.3188 112.535 67.2473 112.488 67.2009Z" fill="#FAFAFA"/>
<path d="M103.947 66.7729C103.885 66.7884 103.812 65.2718 104.583 63.616C104.961 62.7958 105.447 62.1303 105.845 61.697C106.244 61.2637 106.544 61.0471 106.565 61.0729C106.627 61.1296 105.551 62.1252 104.826 63.7294C104.081 65.3182 104.03 66.7832 103.947 66.7729Z" fill="#FAFAFA"/>
<path d="M178.537 54.4958C178.372 52.3499 178.201 50.1937 178.46 48.0581C178.718 45.9225 179.432 43.7921 180.84 42.162C182.247 40.532 184.425 39.4848 186.561 39.7634C187.881 39.9336 189.133 40.5836 190.467 40.5475C192.009 40.501 193.349 39.5519 194.751 38.9174C196.939 37.9218 199.459 37.6587 201.808 38.1849C203.039 38.4583 204.255 38.969 205.144 39.8665C206.034 40.7641 206.541 42.095 206.226 43.3175C207.783 43.3175 209.356 43.3227 210.856 43.725C212.356 44.1274 213.8 44.9837 214.576 46.3249C215.352 47.6712 215.295 49.5386 214.188 50.6322C215.626 50.3433 217.131 51.4472 217.478 52.8658C217.819 54.2895 217.111 55.8422 215.926 56.7036C214.741 57.5651 212.532 57.9468 211.089 57.6734C209.645 57.4 208 56.9976 206.831 56.1156" fill="#263238"/>
<path d="M177.415 103.088C183.359 104.61 189.422 101.066 190.985 95.1545C191.859 91.8531 192.573 89.083 192.573 89.083C192.573 89.083 201.218 90.5584 204.079 82.4029C206.94 74.2423 211.849 54.9549 211.849 54.9549C203.711 47.6971 192.268 45.3964 181.941 48.9454L180.41 49.4715L169.427 89.3616C167.771 95.3608 171.372 101.541 177.415 103.088Z" fill="#FFBF9D"/>
<path d="M192.625 88.9696C192.625 88.9696 187.291 87.6542 182.935 82.3513C182.935 82.3513 183.483 89.0934 191.931 91.1L192.625 88.9696Z" fill="#F2B7A5" fill-opacity="0.77"/>
<path d="M178.563 58.2977C178.444 58.1893 173.478 54.7435 171.771 60.4023C170.063 66.0611 176.116 66.6027 176.173 66.4428C176.235 66.2881 178.563 58.2977 178.563 58.2977Z" fill="#FFBF9D"/>
<path d="M175.092 63.781C175.071 63.7552 174.973 63.8223 174.781 63.8481C174.595 63.8739 174.3 63.8429 174.037 63.6417C173.504 63.2445 173.286 62.1406 173.566 61.1141C173.705 60.5931 173.964 60.134 174.269 59.7832C174.569 59.4221 174.921 59.2106 175.242 59.2468C175.563 59.2674 175.723 59.5098 175.744 59.6904C175.77 59.8709 175.702 59.9741 175.728 59.9947C175.739 60.0154 175.878 59.938 175.904 59.6904C175.914 59.5717 175.889 59.417 175.785 59.2674C175.682 59.1178 175.501 58.9992 175.283 58.9579C174.838 58.8547 174.321 59.1384 173.985 59.5253C173.623 59.907 173.323 60.4177 173.167 61.0006C172.862 62.1509 173.126 63.3941 173.871 63.879C174.238 64.1008 174.611 64.0802 174.823 63.9977C175.04 63.9151 175.107 63.7965 175.092 63.781Z" fill="#F2B7A5" fill-opacity="0.77"/>
<path d="M204.881 66.7471C204.694 67.3713 204.012 67.7324 203.349 67.5467C202.692 67.3661 202.309 66.711 202.496 66.0868C202.682 65.4627 203.365 65.1016 204.022 65.2821C204.684 65.4678 205.067 66.1229 204.881 66.7471Z" fill="#263238"/>
<path d="M206.412 65.9578C206.215 66.0609 205.548 65.1066 204.281 64.6888C203.023 64.2503 201.88 64.5908 201.792 64.3896C201.746 64.2968 201.989 64.075 202.491 63.915C202.987 63.7551 203.758 63.6984 204.544 63.9666C205.331 64.2349 205.895 64.7455 206.174 65.1685C206.469 65.5915 206.505 65.9114 206.412 65.9578Z" fill="#263238"/>
<path d="M192.464 62.5945C192.278 63.2187 191.595 63.5798 190.933 63.3941C190.276 63.2135 189.893 62.5584 190.079 61.9342C190.266 61.3101 190.949 60.949 191.606 61.1295C192.268 61.3152 192.651 61.9703 192.464 62.5945Z" fill="#263238"/>
<path d="M193.923 62.0374C193.727 62.1405 193.059 61.1862 191.792 60.7684C190.535 60.3299 189.391 60.6704 189.303 60.4692C189.257 60.3764 189.5 60.1545 190.002 59.9946C190.498 59.8347 191.269 59.778 192.056 60.0462C192.842 60.3145 193.406 60.8251 193.685 61.2481C193.975 61.6763 194.016 61.9961 193.923 62.0374Z" fill="#263238"/>
<path d="M195.361 72.9113C195.382 72.8391 196.21 72.9629 197.534 73.2312C197.865 73.3034 198.196 73.3446 198.321 73.1435C198.476 72.9371 198.455 72.5451 198.424 72.1169C198.383 71.24 198.341 70.3166 198.295 69.352C198.145 65.4213 198.15 62.2386 198.31 62.2334C198.471 62.2282 198.719 65.411 198.869 69.3365C198.9 70.3012 198.926 71.2245 198.952 72.1066C198.952 72.5141 199.019 72.999 198.693 73.422C198.528 73.6335 198.227 73.7264 198.005 73.716C197.777 73.7109 197.596 73.6541 197.431 73.6077C196.137 73.2415 195.341 72.9835 195.361 72.9113Z" fill="#263238"/>
<path d="M191.352 72.5348C191.559 72.5915 191.104 73.9585 191.952 75.3203C192.795 76.6873 194.306 77.0226 194.254 77.2135C194.244 77.3063 193.84 77.3682 193.22 77.1825C192.609 77.002 191.792 76.5119 191.269 75.6763C190.752 74.8406 190.716 73.943 190.855 73.3705C190.995 72.7824 191.259 72.4987 191.352 72.5348Z" fill="#263238"/>
<path d="M206.691 63.5849C206.371 63.7964 205.605 63.2083 204.56 62.8421C203.53 62.4397 202.563 62.3881 202.459 62.0219C202.418 61.8465 202.656 61.6092 203.132 61.4648C203.603 61.3203 204.317 61.3152 205.025 61.5783C205.734 61.8413 206.272 62.3108 206.536 62.7234C206.816 63.1464 206.836 63.4817 206.691 63.5849Z" fill="#263238"/>
<path d="M193.809 56.9358C193.618 57.0441 193.313 56.8739 192.92 56.6469C192.526 56.4199 192.025 56.1414 191.43 55.9196C190.835 55.7029 190.271 55.5843 189.826 55.5017C189.381 55.414 189.045 55.347 188.967 55.1407C188.895 54.9498 189.138 54.63 189.697 54.4185C190.25 54.2018 191.114 54.1606 191.973 54.4752C192.826 54.795 193.452 55.3934 193.732 55.9144C194.016 56.4406 193.99 56.8429 193.809 56.9358Z" fill="#263238"/>
<path d="M211.409 57.6064C211.409 57.6064 205.289 57.6115 199.63 52.9896C195.915 49.9564 191.264 47.8312 189.997 48.4295C188.729 49.0279 187.524 53.2784 183.085 53.5983C183.085 53.5983 181.502 61.8775 178.284 60.8407C175.066 59.8038 180.017 47.5474 180.017 47.5474L188.941 45.4531L198.083 45.7833L206.298 47.6403L213.401 51.7103L211.409 57.6064Z" fill="#263238"/>
<path d="M165.314 25.1343H49.1543V205.493H165.314V25.1343Z" fill="#FAFAFA"/>
<path d="M165.314 205.493C165.314 204.384 165.262 131.134 165.19 25.1341L165.314 25.2579C129.659 25.2631 90.3921 25.2631 49.1701 25.2682H49.1545L49.289 25.1341C49.2787 93.3645 49.2683 156.199 49.2632 205.493L49.1545 205.385C120.108 205.452 164.45 205.488 165.314 205.493C164.445 205.493 120.103 205.534 49.1545 205.601H49.0459V205.493C49.0407 156.204 49.0304 93.3697 49.02 25.1341V25H49.1545H49.1701C90.3921 25.0052 129.659 25.0052 165.314 25.0103H165.438V25.1341C165.366 131.134 165.314 204.379 165.314 205.493Z" fill="#263238"/>
<path d="M80.2882 65.2976H65.4249C64.3954 65.2976 63.5676 64.4671 63.5676 63.4458V42.9307C63.5676 41.9042 64.4006 41.0789 65.4249 41.0789H74.8509L82.1455 48.5792V63.4458C82.1455 64.4671 81.3126 65.2976 80.2882 65.2976Z" fill="#C0DEF2"/>
<path d="M74.8511 41.0737V46.846C74.8511 47.8003 75.6271 48.5689 76.579 48.5689H82.1456L74.8511 41.0737Z" fill="#C0DEF2"/>
<g opacity="0.2">
<path d="M74.9287 47.3567C74.9287 47.3567 74.8563 48.7546 76.4549 49.2189C76.517 49.2344 76.5791 49.2498 76.636 49.2601C77.3602 49.3891 82.1457 50.2402 82.1457 50.1268C82.1457 50.0081 82.1457 48.5741 82.1457 48.5741H76.5791C76.5791 48.5741 75.1926 48.5277 74.9287 47.3567Z" fill="black"/>
</g>
<g opacity="0.3">
<path d="M74.8511 41.0737V46.846C74.8511 47.8003 75.6271 48.5689 76.579 48.5689H82.1456L74.8511 41.0737Z" fill="white"/>
</g>
<path d="M73.6041 46.6139C73.6041 46.6861 72.0624 46.748 70.1637 46.748C68.2651 46.748 66.7234 46.6861 66.7234 46.6139C66.7234 46.5416 68.2599 46.4797 70.1637 46.4797C72.0624 46.4797 73.6041 46.5365 73.6041 46.6139Z" fill="#FAFAFA"/>
<path d="M78.0429 49.8792C78.0429 49.9515 75.5079 50.0134 72.3831 50.0134C69.2584 50.0134 66.7234 49.9515 66.7234 49.8792C66.7234 49.807 69.2584 49.7451 72.3831 49.7451C75.5131 49.7451 78.0429 49.8019 78.0429 49.8792Z" fill="#FAFAFA"/>
<path d="M79.0623 52.6029C79.0623 52.6751 76.2997 52.737 72.8955 52.737C69.4862 52.737 66.7288 52.6751 66.7288 52.6029C66.7288 52.5307 69.4914 52.4688 72.8955 52.4688C76.3048 52.4688 79.0623 52.5307 79.0623 52.6029Z" fill="#FAFAFA"/>
<path d="M79.0623 55.1717C79.0623 55.2439 76.2997 55.3058 72.8955 55.3058C69.4862 55.3058 66.7288 55.2439 66.7288 55.1717C66.7288 55.0995 69.4914 55.0376 72.8955 55.0376C76.3048 55.0376 79.0623 55.0995 79.0623 55.1717Z" fill="#FAFAFA"/>
<path d="M79.0623 57.7457C79.0623 57.8179 76.2997 57.8798 72.8955 57.8798C69.4862 57.8798 66.7288 57.8179 66.7288 57.7457C66.7288 57.6735 69.4914 57.6116 72.8955 57.6116C76.3048 57.6116 79.0623 57.6735 79.0623 57.7457Z" fill="#FAFAFA"/>
<path d="M79.0623 60.3145C79.0623 60.3868 76.2997 60.4487 72.8955 60.4487C69.4862 60.4487 66.7288 60.3868 66.7288 60.3145C66.7288 60.2423 69.4914 60.1804 72.8955 60.1804C76.3048 60.1804 79.0623 60.2423 79.0623 60.3145Z" fill="#FAFAFA"/>
<path d="M157.859 187.671H157.249C156.871 187.671 156.56 187.361 156.56 186.985V36.9212C156.56 36.5446 156.871 36.2351 157.249 36.2351H157.859C158.237 36.2351 158.547 36.5446 158.547 36.9212V186.985C158.547 187.361 158.242 187.671 157.859 187.671Z" fill="#E0E0E0"/>
<path d="M157.859 114.308H157.249C156.871 114.308 156.56 113.998 156.56 113.622V36.9212C156.56 36.5446 156.871 36.2351 157.249 36.2351H157.859C158.237 36.2351 158.547 36.5446 158.547 36.9212V113.622C158.547 113.998 158.242 114.308 157.859 114.308Z" fill="#C0DEF2"/>
<path d="M145.707 93.2357C145.707 93.3079 127.853 93.3698 105.835 93.3698C83.8062 93.3698 65.9578 93.3079 65.9578 93.2357C65.9578 93.1635 83.8062 93.1016 105.835 93.1016C127.853 93.1016 145.707 93.1635 145.707 93.2357Z" fill="#263238"/>
<path d="M145.707 99.2503C145.707 99.3226 127.853 99.3845 105.835 99.3845C83.8062 99.3845 65.9578 99.3226 65.9578 99.2503C65.9578 99.1781 83.8062 99.1162 105.835 99.1162C127.853 99.1162 145.707 99.1781 145.707 99.2503Z" fill="#263238"/>
<path d="M145.707 105.27C145.707 105.342 127.853 105.404 105.835 105.404C83.8062 105.404 65.9578 105.342 65.9578 105.27C65.9578 105.198 83.8062 105.136 105.835 105.136C127.853 105.136 145.707 105.198 145.707 105.27Z" fill="#263238"/>
<path d="M145.707 111.285C145.707 111.357 127.853 111.419 105.835 111.419C83.8062 111.419 65.9578 111.357 65.9578 111.285C65.9578 111.213 83.8062 111.151 105.835 111.151C127.853 111.151 145.707 111.213 145.707 111.285Z" fill="#263238"/>
<path d="M145.707 117.305C145.707 117.377 127.853 117.439 105.835 117.439C83.8062 117.439 65.9578 117.377 65.9578 117.305C65.9578 117.233 83.8062 117.171 105.835 117.171C127.853 117.171 145.707 117.233 145.707 117.305Z" fill="#263238"/>
<path d="M145.707 123.325C145.707 123.397 127.853 123.459 105.835 123.459C83.8062 123.459 65.9578 123.397 65.9578 123.325C65.9578 123.252 83.8062 123.19 105.835 123.19C127.853 123.19 145.707 123.247 145.707 123.325Z" fill="#263238"/>
<path d="M145.707 146.182C145.707 146.254 127.853 146.316 105.835 146.316C83.8062 146.316 65.9578 146.254 65.9578 146.182C65.9578 146.109 83.8062 146.047 105.835 146.047C127.853 146.042 145.707 146.104 145.707 146.182Z" fill="#263238"/>
<path d="M145.707 151.325C145.707 151.397 127.853 151.459 105.835 151.459C83.8062 151.459 65.9578 151.397 65.9578 151.325C65.9578 151.252 83.8062 151.19 105.835 151.19C127.853 151.19 145.707 151.252 145.707 151.325Z" fill="#E0E0E0"/>
<path d="M145.707 156.472C145.707 156.545 127.853 156.607 105.835 156.607C83.8062 156.607 65.9578 156.545 65.9578 156.472C65.9578 156.4 83.8062 156.338 105.835 156.338C127.853 156.338 145.707 156.395 145.707 156.472Z" fill="#EBEBEB"/>
<path d="M149.527 171.871H111.343C110.238 171.871 109.343 172.766 109.343 173.871V185.542C109.343 186.646 110.238 187.542 111.343 187.542H149.527C150.631 187.542 151.527 186.646 151.527 185.542V173.871C151.527 172.766 150.631 171.871 149.527 171.871Z" fill="#F36F21"/>
<path d="M166.437 183.75L172.459 180.857L169.148 171.102L161.874 169.42C161.196 169.271 160.441 169.09 159.598 168.853C158.615 168.58 157.683 168.141 156.845 167.558C155.826 166.857 154.512 165.871 153.958 165.118C153.27 164.185 151.811 164.53 151.817 165.567C151.822 166.604 153.648 169.219 156.913 171.071C160.177 172.918 154.409 173.815 152.313 174.182C150.218 174.543 143.798 175.972 143.415 176.699C142.856 177.767 143.922 178.582 146.007 178.169C148.112 177.751 154.429 176.957 154.6 178.066C154.6 178.066 154.595 178.076 154.579 178.097C153.529 179.722 153.648 181.842 154.853 183.353C156.017 184.813 157.771 186.644 159.065 186.366C161.501 185.85 166.437 183.75 166.437 183.75Z" fill="#FFBF9D"/>
<path d="M166.07 166.578L171.714 185.607L215.538 172.33C224.969 169.472 230.195 159.439 227.116 150.102L216.371 116.768L193.034 122.546L205.843 153.378L166.07 166.578Z" fill="#C0DEF2"/>
<path d="M216.526 171.994C216.526 171.994 216.454 172.025 216.314 172.072C216.164 172.118 215.957 172.185 215.683 172.273C215.119 172.448 214.296 172.701 213.231 173.031C211.079 173.686 207.959 174.641 204.032 175.837C196.153 178.221 185.051 181.579 172.133 185.484L172.014 185.52L171.972 185.401C170.017 179.588 168.129 173.186 165.94 166.619L165.899 166.49L166.028 166.449C166.375 166.336 166.752 166.207 167.13 166.083C181.74 161.244 195.201 156.787 205.812 153.275L205.745 153.419C202.656 145.939 200.132 139.806 198.367 135.54C197.498 133.415 196.821 131.754 196.35 130.614C196.122 130.051 195.951 129.623 195.832 129.324C195.719 129.03 195.667 128.88 195.667 128.88C195.667 128.88 195.739 129.025 195.863 129.314C195.993 129.613 196.174 130.036 196.412 130.593C196.888 131.728 197.586 133.384 198.481 135.499C200.261 139.759 202.822 145.877 205.941 153.342L205.988 153.45L205.879 153.486C195.274 157.014 181.823 161.487 167.218 166.346C166.84 166.47 166.463 166.599 166.116 166.712L166.199 166.542C168.387 173.119 170.276 179.515 172.221 185.329L172.06 185.246C184.994 181.378 196.101 178.05 203.986 175.688C207.923 174.522 211.053 173.594 213.21 172.954C214.281 172.639 215.104 172.402 215.673 172.237C215.947 172.159 216.159 172.098 216.309 172.056C216.449 172.01 216.526 171.994 216.526 171.994Z" fill="#263238"/>
<path d="M213.945 158.933C213.903 158.959 213.614 158.454 213.024 157.726C212.439 156.999 211.529 156.076 210.344 155.292C209.154 154.507 207.949 154.028 207.049 153.775C206.148 153.517 205.569 153.445 205.574 153.398C205.574 153.378 205.724 153.383 205.988 153.404C206.252 153.419 206.635 153.481 207.095 153.589C208.021 153.801 209.273 154.265 210.489 155.065C211.705 155.869 212.62 156.839 213.174 157.608C213.453 157.989 213.655 158.32 213.774 158.552C213.903 158.789 213.96 158.923 213.945 158.933Z" fill="#263238"/>
<path d="M203.324 124.16C203.251 124.16 203.189 122.897 203.189 121.339C203.189 119.781 203.251 118.517 203.324 118.517C203.396 118.517 203.458 119.781 203.458 121.339C203.458 122.897 203.396 124.16 203.324 124.16Z" fill="#FAFAFA"/>
<path d="M212.124 124.609C212.051 124.63 211.627 123.418 211.172 121.906C210.716 120.39 210.406 119.146 210.478 119.126C210.551 119.105 210.975 120.317 211.43 121.829C211.886 123.345 212.196 124.589 212.124 124.609Z" fill="#FAFAFA"/>
<path d="M206.666 132.527C206.661 132.594 205.44 132.558 204.001 132.135C202.563 131.717 201.513 131.093 201.549 131.031C201.585 130.959 202.672 131.47 204.079 131.877C205.486 132.29 206.671 132.445 206.666 132.527Z" fill="#FAFAFA"/>
<path d="M216.62 136.886C216.547 136.876 216.692 135.669 216.951 134.188C217.204 132.713 217.473 131.527 217.546 131.537C217.618 131.547 217.473 132.754 217.215 134.235C216.961 135.715 216.692 136.902 216.62 136.886Z" fill="#FAFAFA"/>
<path d="M213.055 143.984C212.988 144.015 212.413 142.906 211.772 141.508C211.13 140.11 210.665 138.95 210.732 138.919C210.799 138.888 211.373 139.997 212.015 141.395C212.662 142.798 213.127 143.953 213.055 143.984Z" fill="#FAFAFA"/>
<path d="M211.601 150.21C211.57 150.277 210.468 149.813 209.149 149.173C207.824 148.534 206.779 147.961 206.81 147.894C206.842 147.827 207.943 148.291 209.263 148.931C210.587 149.571 211.632 150.143 211.601 150.21Z" fill="#FAFAFA"/>
<path d="M222.797 148.554C222.864 148.591 222.367 149.622 221.814 150.922C221.255 152.217 220.851 153.29 220.779 153.264C220.712 153.243 221.001 152.124 221.565 150.814C222.124 149.504 222.729 148.518 222.797 148.554Z" fill="#FAFAFA"/>
<path d="M219.682 163.535C219.61 163.54 219.418 162.25 219.263 160.651C219.103 159.052 219.035 157.752 219.108 157.742C219.18 157.737 219.372 159.026 219.527 160.625C219.687 162.224 219.755 163.529 219.682 163.535Z" fill="#FAFAFA"/>
<path d="M211.777 168.27C211.725 168.327 210.804 167.563 209.718 166.568C208.632 165.572 207.793 164.721 207.84 164.669C207.892 164.613 208.813 165.376 209.899 166.372C210.991 167.362 211.829 168.213 211.777 168.27Z" fill="#FAFAFA"/>
<path d="M198.119 169.627C198.181 169.673 197.472 170.736 196.536 172.005C195.6 173.274 194.798 174.269 194.736 174.223C194.674 174.176 195.382 173.114 196.319 171.845C197.25 170.576 198.057 169.585 198.119 169.627Z" fill="#FAFAFA"/>
<path d="M202.449 163.24C202.403 163.297 201.404 162.539 200.354 161.409C199.299 160.28 198.621 159.227 198.678 159.186C198.74 159.14 199.511 160.109 200.551 161.223C201.59 162.343 202.501 163.184 202.449 163.24Z" fill="#FAFAFA"/>
<path d="M192.144 164.695C192.164 164.762 191.244 165.036 190.085 164.948C188.921 164.865 188.052 164.463 188.083 164.401C188.108 164.324 188.988 164.608 190.105 164.68C191.218 164.762 192.128 164.613 192.144 164.695Z" fill="#FAFAFA"/>
<path d="M185.625 175.976C185.553 175.987 185.32 174.996 185.108 173.758C184.896 172.52 184.782 171.509 184.854 171.494C184.927 171.478 185.16 172.474 185.372 173.712C185.584 174.95 185.698 175.966 185.625 175.976Z" fill="#FAFAFA"/>
<path d="M177.927 179.871C177.886 179.933 176.717 179.268 175.32 178.386C173.918 177.503 172.816 176.74 172.852 176.673C172.893 176.611 174.057 177.276 175.459 178.159C176.861 179.041 177.969 179.809 177.927 179.871Z" fill="#FAFAFA"/>
<path d="M180.674 166.14C180.731 166.191 179.981 167.078 179.143 168.234C178.3 169.389 177.694 170.375 177.622 170.338C177.56 170.308 178.072 169.245 178.92 168.079C179.774 166.903 180.622 166.088 180.674 166.14Z" fill="#FAFAFA"/>
<path d="M174.725 168.745C174.694 168.812 174.016 168.538 173.214 168.141C172.412 167.739 171.791 167.362 171.823 167.295C171.854 167.228 172.531 167.501 173.333 167.899C174.135 168.301 174.756 168.677 174.725 168.745Z" fill="#FAFAFA"/>
<g opacity="0.2">
<path d="M205.476 152.599C207.819 152.841 210.158 153.078 212.496 153.373C213.303 153.476 214.126 153.584 214.871 153.909C215.621 154.234 216.299 154.801 216.573 155.565C216.847 156.333 216.614 157.298 215.921 157.726C215.29 158.118 214.452 157.989 213.8 157.633C213.148 157.283 212.626 156.736 212.051 156.266C211.006 155.4 209.77 154.755 208.461 154.394C207.876 154.234 207.261 154.12 206.743 153.79C206.231 153.465 205.838 152.846 205.998 152.258" fill="black"/>
</g>
<path d="M118.057 181V177.5H120.822V181H120.412V177.87H118.462V181H118.057ZM121.913 178.89C122.159 178.64 122.474 178.515 122.858 178.515C123.241 178.515 123.556 178.64 123.803 178.89C124.049 179.14 124.173 179.44 124.173 179.79C124.173 180.14 124.049 180.44 123.803 180.69C123.556 180.937 123.241 181.06 122.858 181.06C122.474 181.06 122.159 180.937 121.913 180.69C121.666 180.44 121.543 180.14 121.543 179.79C121.543 179.44 121.666 179.14 121.913 178.89ZM122.208 180.445C122.381 180.618 122.598 180.705 122.858 180.705C123.118 180.705 123.334 180.618 123.508 180.445C123.681 180.268 123.768 180.05 123.768 179.79C123.768 179.53 123.681 179.312 123.508 179.135C123.334 178.958 123.118 178.87 122.858 178.87C122.598 178.87 122.381 178.958 122.208 179.135C122.034 179.312 121.948 179.53 121.948 179.79C121.948 180.05 122.034 180.268 122.208 180.445ZM124.435 181.705V180.655H124.74C124.887 180.458 124.99 180.2 125.05 179.88C125.114 179.56 125.145 179.125 125.145 178.575H126.97V180.655H127.415V181.705H127.035V181H124.815V181.705H124.435ZM125.175 180.655H126.575V178.92H125.51C125.51 179.707 125.399 180.285 125.175 180.655ZM127.997 181V178.575H130.192V181H129.797V178.92H128.397V181H127.997ZM131.029 181V178.575H131.429V180.42L132.929 178.575H133.299V181H132.899V179.16L131.399 181H131.029ZM135.255 181.06C134.888 181.06 134.58 180.938 134.33 180.695C134.083 180.452 133.96 180.148 133.96 179.785C133.96 179.418 134.083 179.115 134.33 178.875C134.58 178.635 134.89 178.515 135.26 178.515C135.54 178.515 135.783 178.573 135.99 178.69V179.05C135.776 178.93 135.551 178.87 135.315 178.87C135.048 178.87 134.823 178.957 134.64 179.13C134.456 179.303 134.365 179.523 134.365 179.79C134.365 180.053 134.456 180.272 134.64 180.445C134.823 180.618 135.048 180.705 135.315 180.705C135.588 180.705 135.828 180.637 136.035 180.5V180.855C135.808 180.992 135.548 181.06 135.255 181.06ZM137.577 180.705C137.747 180.705 137.904 180.668 138.047 180.595C138.194 180.522 138.309 180.432 138.392 180.325V179.995C138.165 179.845 137.912 179.77 137.632 179.77C137.419 179.77 137.25 179.812 137.127 179.895C137.007 179.975 136.947 180.088 136.947 180.235C136.947 180.392 137.007 180.51 137.127 180.59C137.247 180.667 137.397 180.705 137.577 180.705ZM137.467 181.06C137.21 181.06 136.992 180.988 136.812 180.845C136.635 180.702 136.547 180.505 136.547 180.255C136.547 180.005 136.64 179.81 136.827 179.67C137.017 179.527 137.254 179.455 137.537 179.455C137.867 179.455 138.152 179.53 138.392 179.68V179.46C138.392 179.067 138.132 178.87 137.612 178.87C137.329 178.87 137.065 178.95 136.822 179.11V178.735C137.065 178.588 137.357 178.515 137.697 178.515C138.024 178.515 138.287 178.592 138.487 178.745C138.687 178.898 138.787 179.123 138.787 179.42V180.375C138.787 180.585 138.862 180.69 139.012 180.69C139.072 180.69 139.119 180.678 139.152 180.655V180.965C139.092 181.005 139.007 181.025 138.897 181.025C138.64 181.025 138.485 180.898 138.432 180.645C138.185 180.922 137.864 181.06 137.467 181.06ZM140.242 181V178.92H139.377V178.575H141.502V178.92H140.637V181H140.242ZM142.04 181V178.575H142.44V179.37H143.255C143.545 179.37 143.773 179.443 143.94 179.59C144.107 179.737 144.19 179.935 144.19 180.185C144.19 180.425 144.108 180.622 143.945 180.775C143.785 180.925 143.56 181 143.27 181H142.04ZM142.44 180.655H143.205C143.388 180.655 143.532 180.615 143.635 180.535C143.738 180.455 143.79 180.34 143.79 180.19C143.79 180.033 143.738 179.915 143.635 179.835C143.535 179.755 143.392 179.715 143.205 179.715H142.44V180.655Z" fill="white"/>
<path d="M66.707 92V91.482H68.086V87.716L66.987 88.332V87.786L68.142 87.1H68.639V91.482H69.955V92H66.707ZM71.0519 91.93C70.9772 91.8553 70.9399 91.7643 70.9399 91.657C70.9399 91.5497 70.9772 91.4587 71.0519 91.384C71.1266 91.3047 71.2199 91.265 71.3319 91.265C71.4392 91.265 71.5302 91.3047 71.6049 91.384C71.6796 91.4587 71.7169 91.5497 71.7169 91.657C71.7169 91.7643 71.6796 91.8553 71.6049 91.93C71.5302 92.0047 71.4392 92.042 71.3319 92.042C71.2199 92.042 71.1266 92.0047 71.0519 91.93ZM75.179 92V87.1H79.05V92H78.476V87.618H75.746V92H75.179ZM80.5277 93.428C80.2617 93.428 80.0773 93.3953 79.9747 93.33V92.819C80.11 92.8937 80.2663 92.931 80.4437 92.931C80.6537 92.931 80.8287 92.847 80.9687 92.679C81.1133 92.5157 81.2627 92.2473 81.4167 91.874L79.9117 88.605H80.5277L81.6967 91.223L82.8237 88.605H83.4257L81.7597 92.378C81.601 92.728 81.4237 92.9893 81.2277 93.162C81.0363 93.3393 80.803 93.428 80.5277 93.428ZM84.207 92V88.605H84.767V90.012H86.776V88.605H87.329V92H86.776V90.509H84.767V92H84.207ZM89.0599 88.605V89.984L90.6139 88.605H91.3559L89.6059 90.138L91.6079 92H90.8239L89.0599 90.355V92H88.4999V88.605H89.0599ZM93.0442 92V89.088H91.8332V88.605H94.8082V89.088H93.5972V92H93.0442Z" fill="black"/>
<path d="M66.574 145V144.58L68.205 143.033C68.5644 142.692 68.8164 142.415 68.961 142.2C69.1057 141.985 69.178 141.747 69.178 141.486C69.178 141.201 69.08 140.975 68.884 140.807C68.688 140.634 68.4244 140.548 68.093 140.548C67.589 140.548 67.1224 140.763 66.693 141.192V140.562C67.0897 140.198 67.575 140.016 68.149 140.016C68.6017 140.016 68.982 140.147 69.29 140.408C69.598 140.665 69.752 141.001 69.752 141.416C69.752 141.747 69.6704 142.046 69.507 142.312C69.3437 142.573 69.0637 142.893 68.667 143.271L67.4 144.482H69.927V145H66.574ZM71.0519 144.93C70.9772 144.855 70.9399 144.764 70.9399 144.657C70.9399 144.55 70.9772 144.459 71.0519 144.384C71.1266 144.305 71.2199 144.265 71.3319 144.265C71.4392 144.265 71.5302 144.305 71.6049 144.384C71.6796 144.459 71.7169 144.55 71.7169 144.657C71.7169 144.764 71.6796 144.855 71.6049 144.93C71.5302 145.005 71.4392 145.042 71.3319 145.042C71.2199 145.042 71.1266 145.005 71.0519 144.93ZM75.179 145V140.1H79.05V145H78.476V140.618H75.746V145H75.179ZM80.5277 146.428C80.2617 146.428 80.0773 146.395 79.9747 146.33V145.819C80.11 145.894 80.2663 145.931 80.4437 145.931C80.6537 145.931 80.8287 145.847 80.9687 145.679C81.1133 145.516 81.2627 145.247 81.4167 144.874L79.9117 141.605H80.5277L81.6967 144.223L82.8237 141.605H83.4257L81.7597 145.378C81.601 145.728 81.4237 145.989 81.2277 146.162C81.0363 146.339 80.803 146.428 80.5277 146.428ZM84.207 145V141.605H84.767V143.012H86.776V141.605H87.329V145H86.776V143.509H84.767V145H84.207ZM89.0599 141.605V142.984L90.6139 141.605H91.3559L89.6059 143.138L91.6079 145H90.8239L89.0599 143.355V145H88.4999V141.605H89.0599ZM93.0442 145V142.088H91.8332V141.605H94.8082V142.088H93.5972V145H93.0442Z" fill="black"/>
<path d="M88.16 65.55V63.26H88.83C89.2433 62.6667 89.5433 61.9733 89.73 61.18C89.9233 60.38 90.02 59.2767 90.02 57.87V57H94.4V63.26H95.45V65.55H94.69V64H88.92V65.55H88.16ZM89.73 63.26H93.59V57.74H90.81C90.81 59.08 90.73 60.1867 90.57 61.06C90.4167 61.9267 90.1367 62.66 89.73 63.26ZM96.9251 59.78C97.4184 59.28 98.0484 59.03 98.8151 59.03C99.5817 59.03 100.212 59.28 100.705 59.78C101.198 60.28 101.445 60.88 101.445 61.58C101.445 62.28 101.198 62.88 100.705 63.38C100.212 63.8733 99.5817 64.12 98.8151 64.12C98.0484 64.12 97.4184 63.8733 96.9251 63.38C96.4317 62.88 96.1851 62.28 96.1851 61.58C96.1851 60.88 96.4317 60.28 96.9251 59.78ZM97.5151 62.89C97.8617 63.2367 98.2951 63.41 98.8151 63.41C99.3351 63.41 99.7684 63.2367 100.115 62.89C100.462 62.5367 100.635 62.1 100.635 61.58C100.635 61.06 100.462 60.6233 100.115 60.27C99.7684 59.9167 99.3351 59.74 98.8151 59.74C98.2951 59.74 97.8617 59.9167 97.5151 60.27C97.1684 60.6233 96.9951 61.06 96.9951 61.58C96.9951 62.1 97.1684 62.5367 97.5151 62.89ZM103.049 64V59.15H106.719V59.84H103.849V64H103.049ZM108.087 59.78C108.581 59.28 109.211 59.03 109.977 59.03C110.744 59.03 111.374 59.28 111.867 59.78C112.361 60.28 112.607 60.88 112.607 61.58C112.607 62.28 112.361 62.88 111.867 63.38C111.374 63.8733 110.744 64.12 109.977 64.12C109.211 64.12 108.581 63.8733 108.087 63.38C107.594 62.88 107.347 62.28 107.347 61.58C107.347 60.88 107.594 60.28 108.087 59.78ZM108.677 62.89C109.024 63.2367 109.457 63.41 109.977 63.41C110.497 63.41 110.931 63.2367 111.277 62.89C111.624 62.5367 111.797 62.1 111.797 61.58C111.797 61.06 111.624 60.6233 111.277 60.27C110.931 59.9167 110.497 59.74 109.977 59.74C109.457 59.74 109.024 59.9167 108.677 60.27C108.331 60.6233 108.157 61.06 108.157 61.58C108.157 62.1 108.331 62.5367 108.677 62.89ZM114.211 64V59.15H116.781C117.261 59.15 117.628 59.2633 117.881 59.49C118.134 59.7167 118.261 60.0167 118.261 60.39C118.261 60.91 118.058 61.2633 117.651 61.45C118.271 61.6367 118.581 62.05 118.581 62.69C118.581 63.0967 118.441 63.4167 118.161 63.65C117.881 63.8833 117.478 64 116.951 64H114.211ZM115.011 63.32H116.791C117.451 63.32 117.781 63.0767 117.781 62.59C117.781 62.09 117.451 61.84 116.791 61.84H115.011V63.32ZM115.011 61.19H116.571C116.858 61.19 117.081 61.1333 117.241 61.02C117.401 60.9 117.481 60.73 117.481 60.51C117.481 60.0567 117.178 59.83 116.571 59.83H115.011V61.19ZM120.382 59.78C120.875 59.28 121.505 59.03 122.272 59.03C123.039 59.03 123.669 59.28 124.162 59.78C124.655 60.28 124.902 60.88 124.902 61.58C124.902 62.28 124.655 62.88 124.162 63.38C123.669 63.8733 123.039 64.12 122.272 64.12C121.505 64.12 120.875 63.8733 120.382 63.38C119.889 62.88 119.642 62.28 119.642 61.58C119.642 60.88 119.889 60.28 120.382 59.78ZM120.972 62.89C121.319 63.2367 121.752 63.41 122.272 63.41C122.792 63.41 123.225 63.2367 123.572 62.89C123.919 62.5367 124.092 62.1 124.092 61.58C124.092 61.06 123.919 60.6233 123.572 60.27C123.225 59.9167 122.792 59.74 122.272 59.74C121.752 59.74 121.319 59.9167 120.972 60.27C120.625 60.6233 120.452 61.06 120.452 61.58C120.452 62.1 120.625 62.5367 120.972 62.89ZM127.306 66H126.506V59.15H127.306V59.9C127.752 59.32 128.366 59.03 129.146 59.03C129.852 59.03 130.432 59.28 130.886 59.78C131.339 60.2733 131.566 60.87 131.566 61.57C131.566 62.2767 131.339 62.88 130.886 63.38C130.432 63.8733 129.852 64.12 129.146 64.12C128.352 64.12 127.739 63.83 127.306 63.25V66ZM127.306 60.79V62.37C127.446 62.6767 127.662 62.9267 127.956 63.12C128.249 63.3133 128.582 63.41 128.956 63.41C129.476 63.41 129.906 63.2333 130.246 62.88C130.586 62.5267 130.756 62.09 130.756 61.57C130.756 61.05 130.586 60.6167 130.246 60.27C129.906 59.9167 129.476 59.74 128.956 59.74C128.602 59.74 128.272 59.84 127.966 60.04C127.666 60.24 127.446 60.49 127.306 60.79Z" fill="black"/>
</svg>
