<svg width="39" height="39" viewBox="0 0 39 39" fill="none" xmlns="http://www.w3.org/2000/svg">
<g clip-path="url(#clip0_5434_4141)">
<path d="M33.15 0H5.85C2.61913 0 0 2.61913 0 5.85V33.15C0 36.3809 2.61913 39 5.85 39H33.15C36.3809 39 39 36.3809 39 33.15V5.85C39 2.61913 36.3809 0 33.15 0Z" fill="#3363C3"/>
<path d="M15.1582 30.7734C14.3203 30.7734 14.3965 30.4688 14.168 29.707L11.7305 21.709L30.3926 10.7402" fill="white"/>
<path d="M15.1582 30.7734C15.6914 30.7734 15.9961 30.4688 16.377 30.1641L19.8047 26.8887L15.5391 24.2988" fill="#D9D9D9"/>
<path d="M15.7623 24.2502L26.0455 31.7912C27.1119 32.4767 28.026 32.0959 28.3306 30.7248L32.5201 11.0724C32.901 9.39667 31.8346 8.63495 30.692 9.16815L6.24081 18.6135C4.6412 19.2228 4.6412 20.2131 5.93612 20.5939L12.2584 22.5744L26.731 13.3576C27.4166 12.9767 28.026 13.1291 27.5689 13.6623" fill="#F7F6F9"/>
</g>
<defs>
<clipPath id="clip0_5434_4141">
<rect width="39" height="39" fill="white"/>
</clipPath>
</defs>
</svg>
