<svg width="39" height="39" viewBox="0 0 39 39" fill="none" xmlns="http://www.w3.org/2000/svg">
<rect width="39" height="39" rx="8" fill="#3363C3"/>
<path d="M9 29.4246L10.4791 23.9082C9.64257 22.3927 9.20611 20.7075 9.20611 18.9859C9.20611 13.3725 13.7768 8.80176 19.3902 8.80176C25.0036 8.80176 29.5743 13.3725 29.5743 18.9859C29.5743 24.5992 25.0036 29.17 19.3902 29.17C17.705 29.17 16.044 28.7456 14.5528 27.9333L9 29.4246ZM14.8195 25.8723L15.1711 26.0784C16.4562 26.8422 17.9111 27.2423 19.3902 27.2423C23.9488 27.2423 27.6466 23.5323 27.6466 18.9859C27.6466 14.4394 23.9367 10.7295 19.3902 10.7295C14.8316 10.7295 11.1338 14.4394 11.1338 18.9859C11.1338 20.4892 11.546 21.9683 12.3462 23.2656L12.5644 23.6172L11.74 26.6967L14.8195 25.8723Z" fill="white"/>
<path fill-rule="evenodd" clip-rule="evenodd" d="M23.1729 20.4043C22.7485 20.1497 22.203 19.8709 21.718 20.077C21.3422 20.2346 21.0997 20.8287 20.8572 21.1318C20.736 21.2894 20.5784 21.3136 20.3844 21.2288C18.9659 20.6589 17.8747 19.7133 17.0867 18.4039C16.9533 18.1978 16.9775 18.0402 17.1352 17.8462C17.3776 17.5673 17.6686 17.2521 17.7292 16.8763C17.7899 16.5004 17.6201 16.064 17.4625 15.7245C17.2685 15.3002 17.0382 14.6818 16.6138 14.4394C16.2137 14.2211 15.7045 14.3424 15.3529 14.6212C14.7467 15.1183 14.4558 15.8821 14.4679 16.658C14.4679 16.8763 14.4921 17.0945 14.5528 17.3006C14.674 17.8098 14.9044 18.2826 15.1711 18.7312C15.3651 19.0707 15.5833 19.398 15.8137 19.7133C16.5775 20.7438 17.5231 21.641 18.6143 22.3199C19.1599 22.6594 19.7539 22.9504 20.3601 23.1565C21.0391 23.3868 21.6574 23.6172 22.3969 23.4838C23.1729 23.3383 23.9367 22.8534 24.2398 22.1138C24.3368 21.8956 24.3731 21.641 24.3247 21.4106C24.2155 20.9257 23.5608 20.6347 23.1729 20.4043Z" fill="white"/>
</svg>
